M48
;DRILL file {KiCad 5.0.2+dfsg1-1~bpo9+1} date Fri 18 Oct 2019 00:11:56 BST
;FORMAT={-:-/ absolute / metric / decimal}
FMAT,2
METRIC,TZ
T1C0.400
T2C0.900
T3C1.000
T4C1.016
T5C3.175
%
G90
G05
T1
X118.237Y-93.98
X121.412Y-88.9
X121.539Y-72.39
X122.809Y-66.929
X122.809Y-74.93
X124.333Y-68.199
X124.333Y-90.17
X124.587Y-92.71
X129.794Y-73.66
X137.16Y-110.49
X137.541Y-93.98
X137.922Y-71.247
X139.192Y-87.503
X141.859Y-76.073
X142.494Y-110.49
X143.129Y-92.71
X143.256Y-72.39
X143.637Y-107.442
X144.526Y-69.977
X144.526Y-90.17
X144.653Y-104.14
X145.923Y-83.82
X145.923Y-105.791
X146.431Y-74.93
X147.32Y-81.28
X147.32Y-105.791
X149.225Y-78.74
X149.86Y-105.791
X151.003Y-65.659
X151.003Y-92.71
X151.257Y-111.887
X151.638Y-105.791
X152.019Y-95.25
X152.4Y-108.839
X153.797Y-63.246
X155.067Y-101.219
X156.21Y-106.68
X160.02Y-107.569
X165.481Y-86.36
X170.942Y-72.39
X170.942Y-74.93
X170.942Y-81.28
X173.101Y-92.71
X175.006Y-64.516
X175.006Y-95.377
X175.514Y-99.568
X175.514Y-101.854
T2
X179.337Y-68.847
X179.337Y-71.006
X179.337Y-73.165
X179.337Y-75.324
X179.337Y-77.483
X179.337Y-79.692
X179.337Y-81.852
X179.337Y-84.061
X179.337Y-86.22
X179.337Y-88.379
X179.337Y-90.538
X179.337Y-92.697
X184.137Y-68.847
X184.137Y-71.006
X184.137Y-73.165
X184.137Y-75.324
X184.137Y-77.483
X184.137Y-79.692
X184.137Y-81.852
X184.137Y-84.061
X184.137Y-86.22
X184.137Y-88.379
X184.137Y-90.538
X184.137Y-92.697
X111.011Y-68.847
X111.011Y-71.006
X111.011Y-73.165
X111.011Y-75.324
X111.011Y-77.483
X111.011Y-79.692
X111.011Y-81.852
X111.011Y-84.061
X111.011Y-86.22
X111.011Y-88.379
X111.011Y-90.538
X111.011Y-92.697
X115.811Y-68.847
X115.811Y-71.006
X115.811Y-73.165
X115.811Y-75.324
X115.811Y-77.483
X115.811Y-79.692
X115.811Y-81.852
X115.811Y-84.061
X115.811Y-86.22
X115.811Y-88.379
X115.811Y-90.538
X115.811Y-92.697
T3
X160.147Y-72.39
X160.147Y-74.93
X160.147Y-77.47
X160.147Y-80.01
X160.147Y-82.55
X160.147Y-85.09
X160.147Y-87.63
X160.147Y-90.17
X160.147Y-92.71
X160.147Y-95.25
X162.687Y-72.39
X162.687Y-74.93
X162.687Y-77.47
X162.687Y-80.01
X162.687Y-82.55
X162.687Y-85.09
X162.687Y-87.63
X162.687Y-90.17
X162.687Y-92.71
X162.687Y-95.25
X132.207Y-72.39
X132.207Y-74.93
X132.207Y-77.47
X132.207Y-80.01
X132.207Y-82.55
X132.207Y-85.09
X132.207Y-87.63
X132.207Y-90.17
X132.207Y-92.71
X132.207Y-95.25
X134.747Y-72.39
X134.747Y-74.93
X134.747Y-77.47
X134.747Y-80.01
X134.747Y-82.55
X134.747Y-85.09
X134.747Y-87.63
X134.747Y-90.17
X134.747Y-92.71
X134.747Y-95.25
T4
X130.81Y-114.935
X130.81Y-117.475
X133.35Y-114.935
X133.35Y-117.475
X135.89Y-114.935
X135.89Y-117.475
X138.43Y-114.935
X138.43Y-117.475
X140.97Y-114.935
X140.97Y-117.475
X143.51Y-114.935
X143.51Y-117.475
X146.05Y-114.935
X146.05Y-117.475
X148.59Y-114.935
X148.59Y-117.475
X151.13Y-114.935
X151.13Y-117.475
X153.67Y-114.935
X153.67Y-117.475
X156.21Y-114.935
X156.21Y-117.475
X158.75Y-114.935
X158.75Y-117.475
X161.29Y-114.935
X161.29Y-117.475
T5
X181.737Y-57.379
X181.737Y-104.165
X113.411Y-57.379
X113.411Y-104.165
T0
M30
