G04 #@! TF.GenerationSoftware,KiCad,Pcbnew,5.0.2+dfsg1-1~bpo9+1*
G04 #@! TF.CreationDate,2019-10-18T00:12:00+01:00*
G04 #@! TF.ProjectId,Sigrok-sniffer,53696772-6f6b-42d7-936e-69666665722e,rev?*
G04 #@! TF.SameCoordinates,Original*
G04 #@! TF.FileFunction,Paste,Top*
G04 #@! TF.FilePolarity,Positive*
%FSLAX46Y46*%
G04 Gerber Fmt 4.6, Leading zero omitted, Abs format (unit mm)*
G04 Created by KiCad (PCBNEW 5.0.2+dfsg1-1~bpo9+1) date Fri 18 Oct 2019 00:12:00 BST*
%MOMM*%
%LPD*%
G01*
G04 APERTURE LIST*
%ADD10C,0.100000*%
%ADD11C,0.975000*%
G04 APERTURE END LIST*
D10*
G04 #@! TO.C,R1*
G36*
X126124642Y-71691174D02*
X126148303Y-71694684D01*
X126171507Y-71700496D01*
X126194029Y-71708554D01*
X126215653Y-71718782D01*
X126236170Y-71731079D01*
X126255383Y-71745329D01*
X126273107Y-71761393D01*
X126289171Y-71779117D01*
X126303421Y-71798330D01*
X126315718Y-71818847D01*
X126325946Y-71840471D01*
X126334004Y-71862993D01*
X126339816Y-71886197D01*
X126343326Y-71909858D01*
X126344500Y-71933750D01*
X126344500Y-72846250D01*
X126343326Y-72870142D01*
X126339816Y-72893803D01*
X126334004Y-72917007D01*
X126325946Y-72939529D01*
X126315718Y-72961153D01*
X126303421Y-72981670D01*
X126289171Y-73000883D01*
X126273107Y-73018607D01*
X126255383Y-73034671D01*
X126236170Y-73048921D01*
X126215653Y-73061218D01*
X126194029Y-73071446D01*
X126171507Y-73079504D01*
X126148303Y-73085316D01*
X126124642Y-73088826D01*
X126100750Y-73090000D01*
X125613250Y-73090000D01*
X125589358Y-73088826D01*
X125565697Y-73085316D01*
X125542493Y-73079504D01*
X125519971Y-73071446D01*
X125498347Y-73061218D01*
X125477830Y-73048921D01*
X125458617Y-73034671D01*
X125440893Y-73018607D01*
X125424829Y-73000883D01*
X125410579Y-72981670D01*
X125398282Y-72961153D01*
X125388054Y-72939529D01*
X125379996Y-72917007D01*
X125374184Y-72893803D01*
X125370674Y-72870142D01*
X125369500Y-72846250D01*
X125369500Y-71933750D01*
X125370674Y-71909858D01*
X125374184Y-71886197D01*
X125379996Y-71862993D01*
X125388054Y-71840471D01*
X125398282Y-71818847D01*
X125410579Y-71798330D01*
X125424829Y-71779117D01*
X125440893Y-71761393D01*
X125458617Y-71745329D01*
X125477830Y-71731079D01*
X125498347Y-71718782D01*
X125519971Y-71708554D01*
X125542493Y-71700496D01*
X125565697Y-71694684D01*
X125589358Y-71691174D01*
X125613250Y-71690000D01*
X126100750Y-71690000D01*
X126124642Y-71691174D01*
X126124642Y-71691174D01*
G37*
D11*
X125857000Y-72390000D03*
D10*
G36*
X127999642Y-71691174D02*
X128023303Y-71694684D01*
X128046507Y-71700496D01*
X128069029Y-71708554D01*
X128090653Y-71718782D01*
X128111170Y-71731079D01*
X128130383Y-71745329D01*
X128148107Y-71761393D01*
X128164171Y-71779117D01*
X128178421Y-71798330D01*
X128190718Y-71818847D01*
X128200946Y-71840471D01*
X128209004Y-71862993D01*
X128214816Y-71886197D01*
X128218326Y-71909858D01*
X128219500Y-71933750D01*
X128219500Y-72846250D01*
X128218326Y-72870142D01*
X128214816Y-72893803D01*
X128209004Y-72917007D01*
X128200946Y-72939529D01*
X128190718Y-72961153D01*
X128178421Y-72981670D01*
X128164171Y-73000883D01*
X128148107Y-73018607D01*
X128130383Y-73034671D01*
X128111170Y-73048921D01*
X128090653Y-73061218D01*
X128069029Y-73071446D01*
X128046507Y-73079504D01*
X128023303Y-73085316D01*
X127999642Y-73088826D01*
X127975750Y-73090000D01*
X127488250Y-73090000D01*
X127464358Y-73088826D01*
X127440697Y-73085316D01*
X127417493Y-73079504D01*
X127394971Y-73071446D01*
X127373347Y-73061218D01*
X127352830Y-73048921D01*
X127333617Y-73034671D01*
X127315893Y-73018607D01*
X127299829Y-73000883D01*
X127285579Y-72981670D01*
X127273282Y-72961153D01*
X127263054Y-72939529D01*
X127254996Y-72917007D01*
X127249184Y-72893803D01*
X127245674Y-72870142D01*
X127244500Y-72846250D01*
X127244500Y-71933750D01*
X127245674Y-71909858D01*
X127249184Y-71886197D01*
X127254996Y-71862993D01*
X127263054Y-71840471D01*
X127273282Y-71818847D01*
X127285579Y-71798330D01*
X127299829Y-71779117D01*
X127315893Y-71761393D01*
X127333617Y-71745329D01*
X127352830Y-71731079D01*
X127373347Y-71718782D01*
X127394971Y-71708554D01*
X127417493Y-71700496D01*
X127440697Y-71694684D01*
X127464358Y-71691174D01*
X127488250Y-71690000D01*
X127975750Y-71690000D01*
X127999642Y-71691174D01*
X127999642Y-71691174D01*
G37*
D11*
X127732000Y-72390000D03*
G04 #@! TD*
D10*
G04 #@! TO.C,R2*
G36*
X128029642Y-74231174D02*
X128053303Y-74234684D01*
X128076507Y-74240496D01*
X128099029Y-74248554D01*
X128120653Y-74258782D01*
X128141170Y-74271079D01*
X128160383Y-74285329D01*
X128178107Y-74301393D01*
X128194171Y-74319117D01*
X128208421Y-74338330D01*
X128220718Y-74358847D01*
X128230946Y-74380471D01*
X128239004Y-74402993D01*
X128244816Y-74426197D01*
X128248326Y-74449858D01*
X128249500Y-74473750D01*
X128249500Y-75386250D01*
X128248326Y-75410142D01*
X128244816Y-75433803D01*
X128239004Y-75457007D01*
X128230946Y-75479529D01*
X128220718Y-75501153D01*
X128208421Y-75521670D01*
X128194171Y-75540883D01*
X128178107Y-75558607D01*
X128160383Y-75574671D01*
X128141170Y-75588921D01*
X128120653Y-75601218D01*
X128099029Y-75611446D01*
X128076507Y-75619504D01*
X128053303Y-75625316D01*
X128029642Y-75628826D01*
X128005750Y-75630000D01*
X127518250Y-75630000D01*
X127494358Y-75628826D01*
X127470697Y-75625316D01*
X127447493Y-75619504D01*
X127424971Y-75611446D01*
X127403347Y-75601218D01*
X127382830Y-75588921D01*
X127363617Y-75574671D01*
X127345893Y-75558607D01*
X127329829Y-75540883D01*
X127315579Y-75521670D01*
X127303282Y-75501153D01*
X127293054Y-75479529D01*
X127284996Y-75457007D01*
X127279184Y-75433803D01*
X127275674Y-75410142D01*
X127274500Y-75386250D01*
X127274500Y-74473750D01*
X127275674Y-74449858D01*
X127279184Y-74426197D01*
X127284996Y-74402993D01*
X127293054Y-74380471D01*
X127303282Y-74358847D01*
X127315579Y-74338330D01*
X127329829Y-74319117D01*
X127345893Y-74301393D01*
X127363617Y-74285329D01*
X127382830Y-74271079D01*
X127403347Y-74258782D01*
X127424971Y-74248554D01*
X127447493Y-74240496D01*
X127470697Y-74234684D01*
X127494358Y-74231174D01*
X127518250Y-74230000D01*
X128005750Y-74230000D01*
X128029642Y-74231174D01*
X128029642Y-74231174D01*
G37*
D11*
X127762000Y-74930000D03*
D10*
G36*
X126154642Y-74231174D02*
X126178303Y-74234684D01*
X126201507Y-74240496D01*
X126224029Y-74248554D01*
X126245653Y-74258782D01*
X126266170Y-74271079D01*
X126285383Y-74285329D01*
X126303107Y-74301393D01*
X126319171Y-74319117D01*
X126333421Y-74338330D01*
X126345718Y-74358847D01*
X126355946Y-74380471D01*
X126364004Y-74402993D01*
X126369816Y-74426197D01*
X126373326Y-74449858D01*
X126374500Y-74473750D01*
X126374500Y-75386250D01*
X126373326Y-75410142D01*
X126369816Y-75433803D01*
X126364004Y-75457007D01*
X126355946Y-75479529D01*
X126345718Y-75501153D01*
X126333421Y-75521670D01*
X126319171Y-75540883D01*
X126303107Y-75558607D01*
X126285383Y-75574671D01*
X126266170Y-75588921D01*
X126245653Y-75601218D01*
X126224029Y-75611446D01*
X126201507Y-75619504D01*
X126178303Y-75625316D01*
X126154642Y-75628826D01*
X126130750Y-75630000D01*
X125643250Y-75630000D01*
X125619358Y-75628826D01*
X125595697Y-75625316D01*
X125572493Y-75619504D01*
X125549971Y-75611446D01*
X125528347Y-75601218D01*
X125507830Y-75588921D01*
X125488617Y-75574671D01*
X125470893Y-75558607D01*
X125454829Y-75540883D01*
X125440579Y-75521670D01*
X125428282Y-75501153D01*
X125418054Y-75479529D01*
X125409996Y-75457007D01*
X125404184Y-75433803D01*
X125400674Y-75410142D01*
X125399500Y-75386250D01*
X125399500Y-74473750D01*
X125400674Y-74449858D01*
X125404184Y-74426197D01*
X125409996Y-74402993D01*
X125418054Y-74380471D01*
X125428282Y-74358847D01*
X125440579Y-74338330D01*
X125454829Y-74319117D01*
X125470893Y-74301393D01*
X125488617Y-74285329D01*
X125507830Y-74271079D01*
X125528347Y-74258782D01*
X125549971Y-74248554D01*
X125572493Y-74240496D01*
X125595697Y-74234684D01*
X125619358Y-74231174D01*
X125643250Y-74230000D01*
X126130750Y-74230000D01*
X126154642Y-74231174D01*
X126154642Y-74231174D01*
G37*
D11*
X125887000Y-74930000D03*
G04 #@! TD*
D10*
G04 #@! TO.C,R3*
G36*
X128078142Y-89471174D02*
X128101803Y-89474684D01*
X128125007Y-89480496D01*
X128147529Y-89488554D01*
X128169153Y-89498782D01*
X128189670Y-89511079D01*
X128208883Y-89525329D01*
X128226607Y-89541393D01*
X128242671Y-89559117D01*
X128256921Y-89578330D01*
X128269218Y-89598847D01*
X128279446Y-89620471D01*
X128287504Y-89642993D01*
X128293316Y-89666197D01*
X128296826Y-89689858D01*
X128298000Y-89713750D01*
X128298000Y-90626250D01*
X128296826Y-90650142D01*
X128293316Y-90673803D01*
X128287504Y-90697007D01*
X128279446Y-90719529D01*
X128269218Y-90741153D01*
X128256921Y-90761670D01*
X128242671Y-90780883D01*
X128226607Y-90798607D01*
X128208883Y-90814671D01*
X128189670Y-90828921D01*
X128169153Y-90841218D01*
X128147529Y-90851446D01*
X128125007Y-90859504D01*
X128101803Y-90865316D01*
X128078142Y-90868826D01*
X128054250Y-90870000D01*
X127566750Y-90870000D01*
X127542858Y-90868826D01*
X127519197Y-90865316D01*
X127495993Y-90859504D01*
X127473471Y-90851446D01*
X127451847Y-90841218D01*
X127431330Y-90828921D01*
X127412117Y-90814671D01*
X127394393Y-90798607D01*
X127378329Y-90780883D01*
X127364079Y-90761670D01*
X127351782Y-90741153D01*
X127341554Y-90719529D01*
X127333496Y-90697007D01*
X127327684Y-90673803D01*
X127324174Y-90650142D01*
X127323000Y-90626250D01*
X127323000Y-89713750D01*
X127324174Y-89689858D01*
X127327684Y-89666197D01*
X127333496Y-89642993D01*
X127341554Y-89620471D01*
X127351782Y-89598847D01*
X127364079Y-89578330D01*
X127378329Y-89559117D01*
X127394393Y-89541393D01*
X127412117Y-89525329D01*
X127431330Y-89511079D01*
X127451847Y-89498782D01*
X127473471Y-89488554D01*
X127495993Y-89480496D01*
X127519197Y-89474684D01*
X127542858Y-89471174D01*
X127566750Y-89470000D01*
X128054250Y-89470000D01*
X128078142Y-89471174D01*
X128078142Y-89471174D01*
G37*
D11*
X127810500Y-90170000D03*
D10*
G36*
X126203142Y-89471174D02*
X126226803Y-89474684D01*
X126250007Y-89480496D01*
X126272529Y-89488554D01*
X126294153Y-89498782D01*
X126314670Y-89511079D01*
X126333883Y-89525329D01*
X126351607Y-89541393D01*
X126367671Y-89559117D01*
X126381921Y-89578330D01*
X126394218Y-89598847D01*
X126404446Y-89620471D01*
X126412504Y-89642993D01*
X126418316Y-89666197D01*
X126421826Y-89689858D01*
X126423000Y-89713750D01*
X126423000Y-90626250D01*
X126421826Y-90650142D01*
X126418316Y-90673803D01*
X126412504Y-90697007D01*
X126404446Y-90719529D01*
X126394218Y-90741153D01*
X126381921Y-90761670D01*
X126367671Y-90780883D01*
X126351607Y-90798607D01*
X126333883Y-90814671D01*
X126314670Y-90828921D01*
X126294153Y-90841218D01*
X126272529Y-90851446D01*
X126250007Y-90859504D01*
X126226803Y-90865316D01*
X126203142Y-90868826D01*
X126179250Y-90870000D01*
X125691750Y-90870000D01*
X125667858Y-90868826D01*
X125644197Y-90865316D01*
X125620993Y-90859504D01*
X125598471Y-90851446D01*
X125576847Y-90841218D01*
X125556330Y-90828921D01*
X125537117Y-90814671D01*
X125519393Y-90798607D01*
X125503329Y-90780883D01*
X125489079Y-90761670D01*
X125476782Y-90741153D01*
X125466554Y-90719529D01*
X125458496Y-90697007D01*
X125452684Y-90673803D01*
X125449174Y-90650142D01*
X125448000Y-90626250D01*
X125448000Y-89713750D01*
X125449174Y-89689858D01*
X125452684Y-89666197D01*
X125458496Y-89642993D01*
X125466554Y-89620471D01*
X125476782Y-89598847D01*
X125489079Y-89578330D01*
X125503329Y-89559117D01*
X125519393Y-89541393D01*
X125537117Y-89525329D01*
X125556330Y-89511079D01*
X125576847Y-89498782D01*
X125598471Y-89488554D01*
X125620993Y-89480496D01*
X125644197Y-89474684D01*
X125667858Y-89471174D01*
X125691750Y-89470000D01*
X126179250Y-89470000D01*
X126203142Y-89471174D01*
X126203142Y-89471174D01*
G37*
D11*
X125935500Y-90170000D03*
G04 #@! TD*
D10*
G04 #@! TO.C,R4*
G36*
X126281642Y-92011174D02*
X126305303Y-92014684D01*
X126328507Y-92020496D01*
X126351029Y-92028554D01*
X126372653Y-92038782D01*
X126393170Y-92051079D01*
X126412383Y-92065329D01*
X126430107Y-92081393D01*
X126446171Y-92099117D01*
X126460421Y-92118330D01*
X126472718Y-92138847D01*
X126482946Y-92160471D01*
X126491004Y-92182993D01*
X126496816Y-92206197D01*
X126500326Y-92229858D01*
X126501500Y-92253750D01*
X126501500Y-93166250D01*
X126500326Y-93190142D01*
X126496816Y-93213803D01*
X126491004Y-93237007D01*
X126482946Y-93259529D01*
X126472718Y-93281153D01*
X126460421Y-93301670D01*
X126446171Y-93320883D01*
X126430107Y-93338607D01*
X126412383Y-93354671D01*
X126393170Y-93368921D01*
X126372653Y-93381218D01*
X126351029Y-93391446D01*
X126328507Y-93399504D01*
X126305303Y-93405316D01*
X126281642Y-93408826D01*
X126257750Y-93410000D01*
X125770250Y-93410000D01*
X125746358Y-93408826D01*
X125722697Y-93405316D01*
X125699493Y-93399504D01*
X125676971Y-93391446D01*
X125655347Y-93381218D01*
X125634830Y-93368921D01*
X125615617Y-93354671D01*
X125597893Y-93338607D01*
X125581829Y-93320883D01*
X125567579Y-93301670D01*
X125555282Y-93281153D01*
X125545054Y-93259529D01*
X125536996Y-93237007D01*
X125531184Y-93213803D01*
X125527674Y-93190142D01*
X125526500Y-93166250D01*
X125526500Y-92253750D01*
X125527674Y-92229858D01*
X125531184Y-92206197D01*
X125536996Y-92182993D01*
X125545054Y-92160471D01*
X125555282Y-92138847D01*
X125567579Y-92118330D01*
X125581829Y-92099117D01*
X125597893Y-92081393D01*
X125615617Y-92065329D01*
X125634830Y-92051079D01*
X125655347Y-92038782D01*
X125676971Y-92028554D01*
X125699493Y-92020496D01*
X125722697Y-92014684D01*
X125746358Y-92011174D01*
X125770250Y-92010000D01*
X126257750Y-92010000D01*
X126281642Y-92011174D01*
X126281642Y-92011174D01*
G37*
D11*
X126014000Y-92710000D03*
D10*
G36*
X128156642Y-92011174D02*
X128180303Y-92014684D01*
X128203507Y-92020496D01*
X128226029Y-92028554D01*
X128247653Y-92038782D01*
X128268170Y-92051079D01*
X128287383Y-92065329D01*
X128305107Y-92081393D01*
X128321171Y-92099117D01*
X128335421Y-92118330D01*
X128347718Y-92138847D01*
X128357946Y-92160471D01*
X128366004Y-92182993D01*
X128371816Y-92206197D01*
X128375326Y-92229858D01*
X128376500Y-92253750D01*
X128376500Y-93166250D01*
X128375326Y-93190142D01*
X128371816Y-93213803D01*
X128366004Y-93237007D01*
X128357946Y-93259529D01*
X128347718Y-93281153D01*
X128335421Y-93301670D01*
X128321171Y-93320883D01*
X128305107Y-93338607D01*
X128287383Y-93354671D01*
X128268170Y-93368921D01*
X128247653Y-93381218D01*
X128226029Y-93391446D01*
X128203507Y-93399504D01*
X128180303Y-93405316D01*
X128156642Y-93408826D01*
X128132750Y-93410000D01*
X127645250Y-93410000D01*
X127621358Y-93408826D01*
X127597697Y-93405316D01*
X127574493Y-93399504D01*
X127551971Y-93391446D01*
X127530347Y-93381218D01*
X127509830Y-93368921D01*
X127490617Y-93354671D01*
X127472893Y-93338607D01*
X127456829Y-93320883D01*
X127442579Y-93301670D01*
X127430282Y-93281153D01*
X127420054Y-93259529D01*
X127411996Y-93237007D01*
X127406184Y-93213803D01*
X127402674Y-93190142D01*
X127401500Y-93166250D01*
X127401500Y-92253750D01*
X127402674Y-92229858D01*
X127406184Y-92206197D01*
X127411996Y-92182993D01*
X127420054Y-92160471D01*
X127430282Y-92138847D01*
X127442579Y-92118330D01*
X127456829Y-92099117D01*
X127472893Y-92081393D01*
X127490617Y-92065329D01*
X127509830Y-92051079D01*
X127530347Y-92038782D01*
X127551971Y-92028554D01*
X127574493Y-92020496D01*
X127597697Y-92014684D01*
X127621358Y-92011174D01*
X127645250Y-92010000D01*
X128132750Y-92010000D01*
X128156642Y-92011174D01*
X128156642Y-92011174D01*
G37*
D11*
X127889000Y-92710000D03*
G04 #@! TD*
D10*
G04 #@! TO.C,R5*
G36*
X140173142Y-92011174D02*
X140196803Y-92014684D01*
X140220007Y-92020496D01*
X140242529Y-92028554D01*
X140264153Y-92038782D01*
X140284670Y-92051079D01*
X140303883Y-92065329D01*
X140321607Y-92081393D01*
X140337671Y-92099117D01*
X140351921Y-92118330D01*
X140364218Y-92138847D01*
X140374446Y-92160471D01*
X140382504Y-92182993D01*
X140388316Y-92206197D01*
X140391826Y-92229858D01*
X140393000Y-92253750D01*
X140393000Y-93166250D01*
X140391826Y-93190142D01*
X140388316Y-93213803D01*
X140382504Y-93237007D01*
X140374446Y-93259529D01*
X140364218Y-93281153D01*
X140351921Y-93301670D01*
X140337671Y-93320883D01*
X140321607Y-93338607D01*
X140303883Y-93354671D01*
X140284670Y-93368921D01*
X140264153Y-93381218D01*
X140242529Y-93391446D01*
X140220007Y-93399504D01*
X140196803Y-93405316D01*
X140173142Y-93408826D01*
X140149250Y-93410000D01*
X139661750Y-93410000D01*
X139637858Y-93408826D01*
X139614197Y-93405316D01*
X139590993Y-93399504D01*
X139568471Y-93391446D01*
X139546847Y-93381218D01*
X139526330Y-93368921D01*
X139507117Y-93354671D01*
X139489393Y-93338607D01*
X139473329Y-93320883D01*
X139459079Y-93301670D01*
X139446782Y-93281153D01*
X139436554Y-93259529D01*
X139428496Y-93237007D01*
X139422684Y-93213803D01*
X139419174Y-93190142D01*
X139418000Y-93166250D01*
X139418000Y-92253750D01*
X139419174Y-92229858D01*
X139422684Y-92206197D01*
X139428496Y-92182993D01*
X139436554Y-92160471D01*
X139446782Y-92138847D01*
X139459079Y-92118330D01*
X139473329Y-92099117D01*
X139489393Y-92081393D01*
X139507117Y-92065329D01*
X139526330Y-92051079D01*
X139546847Y-92038782D01*
X139568471Y-92028554D01*
X139590993Y-92020496D01*
X139614197Y-92014684D01*
X139637858Y-92011174D01*
X139661750Y-92010000D01*
X140149250Y-92010000D01*
X140173142Y-92011174D01*
X140173142Y-92011174D01*
G37*
D11*
X139905500Y-92710000D03*
D10*
G36*
X142048142Y-92011174D02*
X142071803Y-92014684D01*
X142095007Y-92020496D01*
X142117529Y-92028554D01*
X142139153Y-92038782D01*
X142159670Y-92051079D01*
X142178883Y-92065329D01*
X142196607Y-92081393D01*
X142212671Y-92099117D01*
X142226921Y-92118330D01*
X142239218Y-92138847D01*
X142249446Y-92160471D01*
X142257504Y-92182993D01*
X142263316Y-92206197D01*
X142266826Y-92229858D01*
X142268000Y-92253750D01*
X142268000Y-93166250D01*
X142266826Y-93190142D01*
X142263316Y-93213803D01*
X142257504Y-93237007D01*
X142249446Y-93259529D01*
X142239218Y-93281153D01*
X142226921Y-93301670D01*
X142212671Y-93320883D01*
X142196607Y-93338607D01*
X142178883Y-93354671D01*
X142159670Y-93368921D01*
X142139153Y-93381218D01*
X142117529Y-93391446D01*
X142095007Y-93399504D01*
X142071803Y-93405316D01*
X142048142Y-93408826D01*
X142024250Y-93410000D01*
X141536750Y-93410000D01*
X141512858Y-93408826D01*
X141489197Y-93405316D01*
X141465993Y-93399504D01*
X141443471Y-93391446D01*
X141421847Y-93381218D01*
X141401330Y-93368921D01*
X141382117Y-93354671D01*
X141364393Y-93338607D01*
X141348329Y-93320883D01*
X141334079Y-93301670D01*
X141321782Y-93281153D01*
X141311554Y-93259529D01*
X141303496Y-93237007D01*
X141297684Y-93213803D01*
X141294174Y-93190142D01*
X141293000Y-93166250D01*
X141293000Y-92253750D01*
X141294174Y-92229858D01*
X141297684Y-92206197D01*
X141303496Y-92182993D01*
X141311554Y-92160471D01*
X141321782Y-92138847D01*
X141334079Y-92118330D01*
X141348329Y-92099117D01*
X141364393Y-92081393D01*
X141382117Y-92065329D01*
X141401330Y-92051079D01*
X141421847Y-92038782D01*
X141443471Y-92028554D01*
X141465993Y-92020496D01*
X141489197Y-92014684D01*
X141512858Y-92011174D01*
X141536750Y-92010000D01*
X142024250Y-92010000D01*
X142048142Y-92011174D01*
X142048142Y-92011174D01*
G37*
D11*
X141780500Y-92710000D03*
G04 #@! TD*
D10*
G04 #@! TO.C,R6*
G36*
X141999642Y-89471174D02*
X142023303Y-89474684D01*
X142046507Y-89480496D01*
X142069029Y-89488554D01*
X142090653Y-89498782D01*
X142111170Y-89511079D01*
X142130383Y-89525329D01*
X142148107Y-89541393D01*
X142164171Y-89559117D01*
X142178421Y-89578330D01*
X142190718Y-89598847D01*
X142200946Y-89620471D01*
X142209004Y-89642993D01*
X142214816Y-89666197D01*
X142218326Y-89689858D01*
X142219500Y-89713750D01*
X142219500Y-90626250D01*
X142218326Y-90650142D01*
X142214816Y-90673803D01*
X142209004Y-90697007D01*
X142200946Y-90719529D01*
X142190718Y-90741153D01*
X142178421Y-90761670D01*
X142164171Y-90780883D01*
X142148107Y-90798607D01*
X142130383Y-90814671D01*
X142111170Y-90828921D01*
X142090653Y-90841218D01*
X142069029Y-90851446D01*
X142046507Y-90859504D01*
X142023303Y-90865316D01*
X141999642Y-90868826D01*
X141975750Y-90870000D01*
X141488250Y-90870000D01*
X141464358Y-90868826D01*
X141440697Y-90865316D01*
X141417493Y-90859504D01*
X141394971Y-90851446D01*
X141373347Y-90841218D01*
X141352830Y-90828921D01*
X141333617Y-90814671D01*
X141315893Y-90798607D01*
X141299829Y-90780883D01*
X141285579Y-90761670D01*
X141273282Y-90741153D01*
X141263054Y-90719529D01*
X141254996Y-90697007D01*
X141249184Y-90673803D01*
X141245674Y-90650142D01*
X141244500Y-90626250D01*
X141244500Y-89713750D01*
X141245674Y-89689858D01*
X141249184Y-89666197D01*
X141254996Y-89642993D01*
X141263054Y-89620471D01*
X141273282Y-89598847D01*
X141285579Y-89578330D01*
X141299829Y-89559117D01*
X141315893Y-89541393D01*
X141333617Y-89525329D01*
X141352830Y-89511079D01*
X141373347Y-89498782D01*
X141394971Y-89488554D01*
X141417493Y-89480496D01*
X141440697Y-89474684D01*
X141464358Y-89471174D01*
X141488250Y-89470000D01*
X141975750Y-89470000D01*
X141999642Y-89471174D01*
X141999642Y-89471174D01*
G37*
D11*
X141732000Y-90170000D03*
D10*
G36*
X140124642Y-89471174D02*
X140148303Y-89474684D01*
X140171507Y-89480496D01*
X140194029Y-89488554D01*
X140215653Y-89498782D01*
X140236170Y-89511079D01*
X140255383Y-89525329D01*
X140273107Y-89541393D01*
X140289171Y-89559117D01*
X140303421Y-89578330D01*
X140315718Y-89598847D01*
X140325946Y-89620471D01*
X140334004Y-89642993D01*
X140339816Y-89666197D01*
X140343326Y-89689858D01*
X140344500Y-89713750D01*
X140344500Y-90626250D01*
X140343326Y-90650142D01*
X140339816Y-90673803D01*
X140334004Y-90697007D01*
X140325946Y-90719529D01*
X140315718Y-90741153D01*
X140303421Y-90761670D01*
X140289171Y-90780883D01*
X140273107Y-90798607D01*
X140255383Y-90814671D01*
X140236170Y-90828921D01*
X140215653Y-90841218D01*
X140194029Y-90851446D01*
X140171507Y-90859504D01*
X140148303Y-90865316D01*
X140124642Y-90868826D01*
X140100750Y-90870000D01*
X139613250Y-90870000D01*
X139589358Y-90868826D01*
X139565697Y-90865316D01*
X139542493Y-90859504D01*
X139519971Y-90851446D01*
X139498347Y-90841218D01*
X139477830Y-90828921D01*
X139458617Y-90814671D01*
X139440893Y-90798607D01*
X139424829Y-90780883D01*
X139410579Y-90761670D01*
X139398282Y-90741153D01*
X139388054Y-90719529D01*
X139379996Y-90697007D01*
X139374184Y-90673803D01*
X139370674Y-90650142D01*
X139369500Y-90626250D01*
X139369500Y-89713750D01*
X139370674Y-89689858D01*
X139374184Y-89666197D01*
X139379996Y-89642993D01*
X139388054Y-89620471D01*
X139398282Y-89598847D01*
X139410579Y-89578330D01*
X139424829Y-89559117D01*
X139440893Y-89541393D01*
X139458617Y-89525329D01*
X139477830Y-89511079D01*
X139498347Y-89498782D01*
X139519971Y-89488554D01*
X139542493Y-89480496D01*
X139565697Y-89474684D01*
X139589358Y-89471174D01*
X139613250Y-89470000D01*
X140100750Y-89470000D01*
X140124642Y-89471174D01*
X140124642Y-89471174D01*
G37*
D11*
X139857000Y-90170000D03*
G04 #@! TD*
D10*
G04 #@! TO.C,R7*
G36*
X139919142Y-71691174D02*
X139942803Y-71694684D01*
X139966007Y-71700496D01*
X139988529Y-71708554D01*
X140010153Y-71718782D01*
X140030670Y-71731079D01*
X140049883Y-71745329D01*
X140067607Y-71761393D01*
X140083671Y-71779117D01*
X140097921Y-71798330D01*
X140110218Y-71818847D01*
X140120446Y-71840471D01*
X140128504Y-71862993D01*
X140134316Y-71886197D01*
X140137826Y-71909858D01*
X140139000Y-71933750D01*
X140139000Y-72846250D01*
X140137826Y-72870142D01*
X140134316Y-72893803D01*
X140128504Y-72917007D01*
X140120446Y-72939529D01*
X140110218Y-72961153D01*
X140097921Y-72981670D01*
X140083671Y-73000883D01*
X140067607Y-73018607D01*
X140049883Y-73034671D01*
X140030670Y-73048921D01*
X140010153Y-73061218D01*
X139988529Y-73071446D01*
X139966007Y-73079504D01*
X139942803Y-73085316D01*
X139919142Y-73088826D01*
X139895250Y-73090000D01*
X139407750Y-73090000D01*
X139383858Y-73088826D01*
X139360197Y-73085316D01*
X139336993Y-73079504D01*
X139314471Y-73071446D01*
X139292847Y-73061218D01*
X139272330Y-73048921D01*
X139253117Y-73034671D01*
X139235393Y-73018607D01*
X139219329Y-73000883D01*
X139205079Y-72981670D01*
X139192782Y-72961153D01*
X139182554Y-72939529D01*
X139174496Y-72917007D01*
X139168684Y-72893803D01*
X139165174Y-72870142D01*
X139164000Y-72846250D01*
X139164000Y-71933750D01*
X139165174Y-71909858D01*
X139168684Y-71886197D01*
X139174496Y-71862993D01*
X139182554Y-71840471D01*
X139192782Y-71818847D01*
X139205079Y-71798330D01*
X139219329Y-71779117D01*
X139235393Y-71761393D01*
X139253117Y-71745329D01*
X139272330Y-71731079D01*
X139292847Y-71718782D01*
X139314471Y-71708554D01*
X139336993Y-71700496D01*
X139360197Y-71694684D01*
X139383858Y-71691174D01*
X139407750Y-71690000D01*
X139895250Y-71690000D01*
X139919142Y-71691174D01*
X139919142Y-71691174D01*
G37*
D11*
X139651500Y-72390000D03*
D10*
G36*
X141794142Y-71691174D02*
X141817803Y-71694684D01*
X141841007Y-71700496D01*
X141863529Y-71708554D01*
X141885153Y-71718782D01*
X141905670Y-71731079D01*
X141924883Y-71745329D01*
X141942607Y-71761393D01*
X141958671Y-71779117D01*
X141972921Y-71798330D01*
X141985218Y-71818847D01*
X141995446Y-71840471D01*
X142003504Y-71862993D01*
X142009316Y-71886197D01*
X142012826Y-71909858D01*
X142014000Y-71933750D01*
X142014000Y-72846250D01*
X142012826Y-72870142D01*
X142009316Y-72893803D01*
X142003504Y-72917007D01*
X141995446Y-72939529D01*
X141985218Y-72961153D01*
X141972921Y-72981670D01*
X141958671Y-73000883D01*
X141942607Y-73018607D01*
X141924883Y-73034671D01*
X141905670Y-73048921D01*
X141885153Y-73061218D01*
X141863529Y-73071446D01*
X141841007Y-73079504D01*
X141817803Y-73085316D01*
X141794142Y-73088826D01*
X141770250Y-73090000D01*
X141282750Y-73090000D01*
X141258858Y-73088826D01*
X141235197Y-73085316D01*
X141211993Y-73079504D01*
X141189471Y-73071446D01*
X141167847Y-73061218D01*
X141147330Y-73048921D01*
X141128117Y-73034671D01*
X141110393Y-73018607D01*
X141094329Y-73000883D01*
X141080079Y-72981670D01*
X141067782Y-72961153D01*
X141057554Y-72939529D01*
X141049496Y-72917007D01*
X141043684Y-72893803D01*
X141040174Y-72870142D01*
X141039000Y-72846250D01*
X141039000Y-71933750D01*
X141040174Y-71909858D01*
X141043684Y-71886197D01*
X141049496Y-71862993D01*
X141057554Y-71840471D01*
X141067782Y-71818847D01*
X141080079Y-71798330D01*
X141094329Y-71779117D01*
X141110393Y-71761393D01*
X141128117Y-71745329D01*
X141147330Y-71731079D01*
X141167847Y-71718782D01*
X141189471Y-71708554D01*
X141211993Y-71700496D01*
X141235197Y-71694684D01*
X141258858Y-71691174D01*
X141282750Y-71690000D01*
X141770250Y-71690000D01*
X141794142Y-71691174D01*
X141794142Y-71691174D01*
G37*
D11*
X141526500Y-72390000D03*
G04 #@! TD*
D10*
G04 #@! TO.C,R8*
G36*
X153967642Y-71691174D02*
X153991303Y-71694684D01*
X154014507Y-71700496D01*
X154037029Y-71708554D01*
X154058653Y-71718782D01*
X154079170Y-71731079D01*
X154098383Y-71745329D01*
X154116107Y-71761393D01*
X154132171Y-71779117D01*
X154146421Y-71798330D01*
X154158718Y-71818847D01*
X154168946Y-71840471D01*
X154177004Y-71862993D01*
X154182816Y-71886197D01*
X154186326Y-71909858D01*
X154187500Y-71933750D01*
X154187500Y-72846250D01*
X154186326Y-72870142D01*
X154182816Y-72893803D01*
X154177004Y-72917007D01*
X154168946Y-72939529D01*
X154158718Y-72961153D01*
X154146421Y-72981670D01*
X154132171Y-73000883D01*
X154116107Y-73018607D01*
X154098383Y-73034671D01*
X154079170Y-73048921D01*
X154058653Y-73061218D01*
X154037029Y-73071446D01*
X154014507Y-73079504D01*
X153991303Y-73085316D01*
X153967642Y-73088826D01*
X153943750Y-73090000D01*
X153456250Y-73090000D01*
X153432358Y-73088826D01*
X153408697Y-73085316D01*
X153385493Y-73079504D01*
X153362971Y-73071446D01*
X153341347Y-73061218D01*
X153320830Y-73048921D01*
X153301617Y-73034671D01*
X153283893Y-73018607D01*
X153267829Y-73000883D01*
X153253579Y-72981670D01*
X153241282Y-72961153D01*
X153231054Y-72939529D01*
X153222996Y-72917007D01*
X153217184Y-72893803D01*
X153213674Y-72870142D01*
X153212500Y-72846250D01*
X153212500Y-71933750D01*
X153213674Y-71909858D01*
X153217184Y-71886197D01*
X153222996Y-71862993D01*
X153231054Y-71840471D01*
X153241282Y-71818847D01*
X153253579Y-71798330D01*
X153267829Y-71779117D01*
X153283893Y-71761393D01*
X153301617Y-71745329D01*
X153320830Y-71731079D01*
X153341347Y-71718782D01*
X153362971Y-71708554D01*
X153385493Y-71700496D01*
X153408697Y-71694684D01*
X153432358Y-71691174D01*
X153456250Y-71690000D01*
X153943750Y-71690000D01*
X153967642Y-71691174D01*
X153967642Y-71691174D01*
G37*
D11*
X153700000Y-72390000D03*
D10*
G36*
X155842642Y-71691174D02*
X155866303Y-71694684D01*
X155889507Y-71700496D01*
X155912029Y-71708554D01*
X155933653Y-71718782D01*
X155954170Y-71731079D01*
X155973383Y-71745329D01*
X155991107Y-71761393D01*
X156007171Y-71779117D01*
X156021421Y-71798330D01*
X156033718Y-71818847D01*
X156043946Y-71840471D01*
X156052004Y-71862993D01*
X156057816Y-71886197D01*
X156061326Y-71909858D01*
X156062500Y-71933750D01*
X156062500Y-72846250D01*
X156061326Y-72870142D01*
X156057816Y-72893803D01*
X156052004Y-72917007D01*
X156043946Y-72939529D01*
X156033718Y-72961153D01*
X156021421Y-72981670D01*
X156007171Y-73000883D01*
X155991107Y-73018607D01*
X155973383Y-73034671D01*
X155954170Y-73048921D01*
X155933653Y-73061218D01*
X155912029Y-73071446D01*
X155889507Y-73079504D01*
X155866303Y-73085316D01*
X155842642Y-73088826D01*
X155818750Y-73090000D01*
X155331250Y-73090000D01*
X155307358Y-73088826D01*
X155283697Y-73085316D01*
X155260493Y-73079504D01*
X155237971Y-73071446D01*
X155216347Y-73061218D01*
X155195830Y-73048921D01*
X155176617Y-73034671D01*
X155158893Y-73018607D01*
X155142829Y-73000883D01*
X155128579Y-72981670D01*
X155116282Y-72961153D01*
X155106054Y-72939529D01*
X155097996Y-72917007D01*
X155092184Y-72893803D01*
X155088674Y-72870142D01*
X155087500Y-72846250D01*
X155087500Y-71933750D01*
X155088674Y-71909858D01*
X155092184Y-71886197D01*
X155097996Y-71862993D01*
X155106054Y-71840471D01*
X155116282Y-71818847D01*
X155128579Y-71798330D01*
X155142829Y-71779117D01*
X155158893Y-71761393D01*
X155176617Y-71745329D01*
X155195830Y-71731079D01*
X155216347Y-71718782D01*
X155237971Y-71708554D01*
X155260493Y-71700496D01*
X155283697Y-71694684D01*
X155307358Y-71691174D01*
X155331250Y-71690000D01*
X155818750Y-71690000D01*
X155842642Y-71691174D01*
X155842642Y-71691174D01*
G37*
D11*
X155575000Y-72390000D03*
G04 #@! TD*
D10*
G04 #@! TO.C,R9*
G36*
X155842642Y-74231174D02*
X155866303Y-74234684D01*
X155889507Y-74240496D01*
X155912029Y-74248554D01*
X155933653Y-74258782D01*
X155954170Y-74271079D01*
X155973383Y-74285329D01*
X155991107Y-74301393D01*
X156007171Y-74319117D01*
X156021421Y-74338330D01*
X156033718Y-74358847D01*
X156043946Y-74380471D01*
X156052004Y-74402993D01*
X156057816Y-74426197D01*
X156061326Y-74449858D01*
X156062500Y-74473750D01*
X156062500Y-75386250D01*
X156061326Y-75410142D01*
X156057816Y-75433803D01*
X156052004Y-75457007D01*
X156043946Y-75479529D01*
X156033718Y-75501153D01*
X156021421Y-75521670D01*
X156007171Y-75540883D01*
X155991107Y-75558607D01*
X155973383Y-75574671D01*
X155954170Y-75588921D01*
X155933653Y-75601218D01*
X155912029Y-75611446D01*
X155889507Y-75619504D01*
X155866303Y-75625316D01*
X155842642Y-75628826D01*
X155818750Y-75630000D01*
X155331250Y-75630000D01*
X155307358Y-75628826D01*
X155283697Y-75625316D01*
X155260493Y-75619504D01*
X155237971Y-75611446D01*
X155216347Y-75601218D01*
X155195830Y-75588921D01*
X155176617Y-75574671D01*
X155158893Y-75558607D01*
X155142829Y-75540883D01*
X155128579Y-75521670D01*
X155116282Y-75501153D01*
X155106054Y-75479529D01*
X155097996Y-75457007D01*
X155092184Y-75433803D01*
X155088674Y-75410142D01*
X155087500Y-75386250D01*
X155087500Y-74473750D01*
X155088674Y-74449858D01*
X155092184Y-74426197D01*
X155097996Y-74402993D01*
X155106054Y-74380471D01*
X155116282Y-74358847D01*
X155128579Y-74338330D01*
X155142829Y-74319117D01*
X155158893Y-74301393D01*
X155176617Y-74285329D01*
X155195830Y-74271079D01*
X155216347Y-74258782D01*
X155237971Y-74248554D01*
X155260493Y-74240496D01*
X155283697Y-74234684D01*
X155307358Y-74231174D01*
X155331250Y-74230000D01*
X155818750Y-74230000D01*
X155842642Y-74231174D01*
X155842642Y-74231174D01*
G37*
D11*
X155575000Y-74930000D03*
D10*
G36*
X153967642Y-74231174D02*
X153991303Y-74234684D01*
X154014507Y-74240496D01*
X154037029Y-74248554D01*
X154058653Y-74258782D01*
X154079170Y-74271079D01*
X154098383Y-74285329D01*
X154116107Y-74301393D01*
X154132171Y-74319117D01*
X154146421Y-74338330D01*
X154158718Y-74358847D01*
X154168946Y-74380471D01*
X154177004Y-74402993D01*
X154182816Y-74426197D01*
X154186326Y-74449858D01*
X154187500Y-74473750D01*
X154187500Y-75386250D01*
X154186326Y-75410142D01*
X154182816Y-75433803D01*
X154177004Y-75457007D01*
X154168946Y-75479529D01*
X154158718Y-75501153D01*
X154146421Y-75521670D01*
X154132171Y-75540883D01*
X154116107Y-75558607D01*
X154098383Y-75574671D01*
X154079170Y-75588921D01*
X154058653Y-75601218D01*
X154037029Y-75611446D01*
X154014507Y-75619504D01*
X153991303Y-75625316D01*
X153967642Y-75628826D01*
X153943750Y-75630000D01*
X153456250Y-75630000D01*
X153432358Y-75628826D01*
X153408697Y-75625316D01*
X153385493Y-75619504D01*
X153362971Y-75611446D01*
X153341347Y-75601218D01*
X153320830Y-75588921D01*
X153301617Y-75574671D01*
X153283893Y-75558607D01*
X153267829Y-75540883D01*
X153253579Y-75521670D01*
X153241282Y-75501153D01*
X153231054Y-75479529D01*
X153222996Y-75457007D01*
X153217184Y-75433803D01*
X153213674Y-75410142D01*
X153212500Y-75386250D01*
X153212500Y-74473750D01*
X153213674Y-74449858D01*
X153217184Y-74426197D01*
X153222996Y-74402993D01*
X153231054Y-74380471D01*
X153241282Y-74358847D01*
X153253579Y-74338330D01*
X153267829Y-74319117D01*
X153283893Y-74301393D01*
X153301617Y-74285329D01*
X153320830Y-74271079D01*
X153341347Y-74258782D01*
X153362971Y-74248554D01*
X153385493Y-74240496D01*
X153408697Y-74234684D01*
X153432358Y-74231174D01*
X153456250Y-74230000D01*
X153943750Y-74230000D01*
X153967642Y-74231174D01*
X153967642Y-74231174D01*
G37*
D11*
X153700000Y-74930000D03*
G04 #@! TD*
D10*
G04 #@! TO.C,R10*
G36*
X153967642Y-76771174D02*
X153991303Y-76774684D01*
X154014507Y-76780496D01*
X154037029Y-76788554D01*
X154058653Y-76798782D01*
X154079170Y-76811079D01*
X154098383Y-76825329D01*
X154116107Y-76841393D01*
X154132171Y-76859117D01*
X154146421Y-76878330D01*
X154158718Y-76898847D01*
X154168946Y-76920471D01*
X154177004Y-76942993D01*
X154182816Y-76966197D01*
X154186326Y-76989858D01*
X154187500Y-77013750D01*
X154187500Y-77926250D01*
X154186326Y-77950142D01*
X154182816Y-77973803D01*
X154177004Y-77997007D01*
X154168946Y-78019529D01*
X154158718Y-78041153D01*
X154146421Y-78061670D01*
X154132171Y-78080883D01*
X154116107Y-78098607D01*
X154098383Y-78114671D01*
X154079170Y-78128921D01*
X154058653Y-78141218D01*
X154037029Y-78151446D01*
X154014507Y-78159504D01*
X153991303Y-78165316D01*
X153967642Y-78168826D01*
X153943750Y-78170000D01*
X153456250Y-78170000D01*
X153432358Y-78168826D01*
X153408697Y-78165316D01*
X153385493Y-78159504D01*
X153362971Y-78151446D01*
X153341347Y-78141218D01*
X153320830Y-78128921D01*
X153301617Y-78114671D01*
X153283893Y-78098607D01*
X153267829Y-78080883D01*
X153253579Y-78061670D01*
X153241282Y-78041153D01*
X153231054Y-78019529D01*
X153222996Y-77997007D01*
X153217184Y-77973803D01*
X153213674Y-77950142D01*
X153212500Y-77926250D01*
X153212500Y-77013750D01*
X153213674Y-76989858D01*
X153217184Y-76966197D01*
X153222996Y-76942993D01*
X153231054Y-76920471D01*
X153241282Y-76898847D01*
X153253579Y-76878330D01*
X153267829Y-76859117D01*
X153283893Y-76841393D01*
X153301617Y-76825329D01*
X153320830Y-76811079D01*
X153341347Y-76798782D01*
X153362971Y-76788554D01*
X153385493Y-76780496D01*
X153408697Y-76774684D01*
X153432358Y-76771174D01*
X153456250Y-76770000D01*
X153943750Y-76770000D01*
X153967642Y-76771174D01*
X153967642Y-76771174D01*
G37*
D11*
X153700000Y-77470000D03*
D10*
G36*
X155842642Y-76771174D02*
X155866303Y-76774684D01*
X155889507Y-76780496D01*
X155912029Y-76788554D01*
X155933653Y-76798782D01*
X155954170Y-76811079D01*
X155973383Y-76825329D01*
X155991107Y-76841393D01*
X156007171Y-76859117D01*
X156021421Y-76878330D01*
X156033718Y-76898847D01*
X156043946Y-76920471D01*
X156052004Y-76942993D01*
X156057816Y-76966197D01*
X156061326Y-76989858D01*
X156062500Y-77013750D01*
X156062500Y-77926250D01*
X156061326Y-77950142D01*
X156057816Y-77973803D01*
X156052004Y-77997007D01*
X156043946Y-78019529D01*
X156033718Y-78041153D01*
X156021421Y-78061670D01*
X156007171Y-78080883D01*
X155991107Y-78098607D01*
X155973383Y-78114671D01*
X155954170Y-78128921D01*
X155933653Y-78141218D01*
X155912029Y-78151446D01*
X155889507Y-78159504D01*
X155866303Y-78165316D01*
X155842642Y-78168826D01*
X155818750Y-78170000D01*
X155331250Y-78170000D01*
X155307358Y-78168826D01*
X155283697Y-78165316D01*
X155260493Y-78159504D01*
X155237971Y-78151446D01*
X155216347Y-78141218D01*
X155195830Y-78128921D01*
X155176617Y-78114671D01*
X155158893Y-78098607D01*
X155142829Y-78080883D01*
X155128579Y-78061670D01*
X155116282Y-78041153D01*
X155106054Y-78019529D01*
X155097996Y-77997007D01*
X155092184Y-77973803D01*
X155088674Y-77950142D01*
X155087500Y-77926250D01*
X155087500Y-77013750D01*
X155088674Y-76989858D01*
X155092184Y-76966197D01*
X155097996Y-76942993D01*
X155106054Y-76920471D01*
X155116282Y-76898847D01*
X155128579Y-76878330D01*
X155142829Y-76859117D01*
X155158893Y-76841393D01*
X155176617Y-76825329D01*
X155195830Y-76811079D01*
X155216347Y-76798782D01*
X155237971Y-76788554D01*
X155260493Y-76780496D01*
X155283697Y-76774684D01*
X155307358Y-76771174D01*
X155331250Y-76770000D01*
X155818750Y-76770000D01*
X155842642Y-76771174D01*
X155842642Y-76771174D01*
G37*
D11*
X155575000Y-77470000D03*
G04 #@! TD*
D10*
G04 #@! TO.C,R11*
G36*
X155842642Y-92011174D02*
X155866303Y-92014684D01*
X155889507Y-92020496D01*
X155912029Y-92028554D01*
X155933653Y-92038782D01*
X155954170Y-92051079D01*
X155973383Y-92065329D01*
X155991107Y-92081393D01*
X156007171Y-92099117D01*
X156021421Y-92118330D01*
X156033718Y-92138847D01*
X156043946Y-92160471D01*
X156052004Y-92182993D01*
X156057816Y-92206197D01*
X156061326Y-92229858D01*
X156062500Y-92253750D01*
X156062500Y-93166250D01*
X156061326Y-93190142D01*
X156057816Y-93213803D01*
X156052004Y-93237007D01*
X156043946Y-93259529D01*
X156033718Y-93281153D01*
X156021421Y-93301670D01*
X156007171Y-93320883D01*
X155991107Y-93338607D01*
X155973383Y-93354671D01*
X155954170Y-93368921D01*
X155933653Y-93381218D01*
X155912029Y-93391446D01*
X155889507Y-93399504D01*
X155866303Y-93405316D01*
X155842642Y-93408826D01*
X155818750Y-93410000D01*
X155331250Y-93410000D01*
X155307358Y-93408826D01*
X155283697Y-93405316D01*
X155260493Y-93399504D01*
X155237971Y-93391446D01*
X155216347Y-93381218D01*
X155195830Y-93368921D01*
X155176617Y-93354671D01*
X155158893Y-93338607D01*
X155142829Y-93320883D01*
X155128579Y-93301670D01*
X155116282Y-93281153D01*
X155106054Y-93259529D01*
X155097996Y-93237007D01*
X155092184Y-93213803D01*
X155088674Y-93190142D01*
X155087500Y-93166250D01*
X155087500Y-92253750D01*
X155088674Y-92229858D01*
X155092184Y-92206197D01*
X155097996Y-92182993D01*
X155106054Y-92160471D01*
X155116282Y-92138847D01*
X155128579Y-92118330D01*
X155142829Y-92099117D01*
X155158893Y-92081393D01*
X155176617Y-92065329D01*
X155195830Y-92051079D01*
X155216347Y-92038782D01*
X155237971Y-92028554D01*
X155260493Y-92020496D01*
X155283697Y-92014684D01*
X155307358Y-92011174D01*
X155331250Y-92010000D01*
X155818750Y-92010000D01*
X155842642Y-92011174D01*
X155842642Y-92011174D01*
G37*
D11*
X155575000Y-92710000D03*
D10*
G36*
X153967642Y-92011174D02*
X153991303Y-92014684D01*
X154014507Y-92020496D01*
X154037029Y-92028554D01*
X154058653Y-92038782D01*
X154079170Y-92051079D01*
X154098383Y-92065329D01*
X154116107Y-92081393D01*
X154132171Y-92099117D01*
X154146421Y-92118330D01*
X154158718Y-92138847D01*
X154168946Y-92160471D01*
X154177004Y-92182993D01*
X154182816Y-92206197D01*
X154186326Y-92229858D01*
X154187500Y-92253750D01*
X154187500Y-93166250D01*
X154186326Y-93190142D01*
X154182816Y-93213803D01*
X154177004Y-93237007D01*
X154168946Y-93259529D01*
X154158718Y-93281153D01*
X154146421Y-93301670D01*
X154132171Y-93320883D01*
X154116107Y-93338607D01*
X154098383Y-93354671D01*
X154079170Y-93368921D01*
X154058653Y-93381218D01*
X154037029Y-93391446D01*
X154014507Y-93399504D01*
X153991303Y-93405316D01*
X153967642Y-93408826D01*
X153943750Y-93410000D01*
X153456250Y-93410000D01*
X153432358Y-93408826D01*
X153408697Y-93405316D01*
X153385493Y-93399504D01*
X153362971Y-93391446D01*
X153341347Y-93381218D01*
X153320830Y-93368921D01*
X153301617Y-93354671D01*
X153283893Y-93338607D01*
X153267829Y-93320883D01*
X153253579Y-93301670D01*
X153241282Y-93281153D01*
X153231054Y-93259529D01*
X153222996Y-93237007D01*
X153217184Y-93213803D01*
X153213674Y-93190142D01*
X153212500Y-93166250D01*
X153212500Y-92253750D01*
X153213674Y-92229858D01*
X153217184Y-92206197D01*
X153222996Y-92182993D01*
X153231054Y-92160471D01*
X153241282Y-92138847D01*
X153253579Y-92118330D01*
X153267829Y-92099117D01*
X153283893Y-92081393D01*
X153301617Y-92065329D01*
X153320830Y-92051079D01*
X153341347Y-92038782D01*
X153362971Y-92028554D01*
X153385493Y-92020496D01*
X153408697Y-92014684D01*
X153432358Y-92011174D01*
X153456250Y-92010000D01*
X153943750Y-92010000D01*
X153967642Y-92011174D01*
X153967642Y-92011174D01*
G37*
D11*
X153700000Y-92710000D03*
G04 #@! TD*
D10*
G04 #@! TO.C,R12*
G36*
X154016142Y-94551174D02*
X154039803Y-94554684D01*
X154063007Y-94560496D01*
X154085529Y-94568554D01*
X154107153Y-94578782D01*
X154127670Y-94591079D01*
X154146883Y-94605329D01*
X154164607Y-94621393D01*
X154180671Y-94639117D01*
X154194921Y-94658330D01*
X154207218Y-94678847D01*
X154217446Y-94700471D01*
X154225504Y-94722993D01*
X154231316Y-94746197D01*
X154234826Y-94769858D01*
X154236000Y-94793750D01*
X154236000Y-95706250D01*
X154234826Y-95730142D01*
X154231316Y-95753803D01*
X154225504Y-95777007D01*
X154217446Y-95799529D01*
X154207218Y-95821153D01*
X154194921Y-95841670D01*
X154180671Y-95860883D01*
X154164607Y-95878607D01*
X154146883Y-95894671D01*
X154127670Y-95908921D01*
X154107153Y-95921218D01*
X154085529Y-95931446D01*
X154063007Y-95939504D01*
X154039803Y-95945316D01*
X154016142Y-95948826D01*
X153992250Y-95950000D01*
X153504750Y-95950000D01*
X153480858Y-95948826D01*
X153457197Y-95945316D01*
X153433993Y-95939504D01*
X153411471Y-95931446D01*
X153389847Y-95921218D01*
X153369330Y-95908921D01*
X153350117Y-95894671D01*
X153332393Y-95878607D01*
X153316329Y-95860883D01*
X153302079Y-95841670D01*
X153289782Y-95821153D01*
X153279554Y-95799529D01*
X153271496Y-95777007D01*
X153265684Y-95753803D01*
X153262174Y-95730142D01*
X153261000Y-95706250D01*
X153261000Y-94793750D01*
X153262174Y-94769858D01*
X153265684Y-94746197D01*
X153271496Y-94722993D01*
X153279554Y-94700471D01*
X153289782Y-94678847D01*
X153302079Y-94658330D01*
X153316329Y-94639117D01*
X153332393Y-94621393D01*
X153350117Y-94605329D01*
X153369330Y-94591079D01*
X153389847Y-94578782D01*
X153411471Y-94568554D01*
X153433993Y-94560496D01*
X153457197Y-94554684D01*
X153480858Y-94551174D01*
X153504750Y-94550000D01*
X153992250Y-94550000D01*
X154016142Y-94551174D01*
X154016142Y-94551174D01*
G37*
D11*
X153748500Y-95250000D03*
D10*
G36*
X155891142Y-94551174D02*
X155914803Y-94554684D01*
X155938007Y-94560496D01*
X155960529Y-94568554D01*
X155982153Y-94578782D01*
X156002670Y-94591079D01*
X156021883Y-94605329D01*
X156039607Y-94621393D01*
X156055671Y-94639117D01*
X156069921Y-94658330D01*
X156082218Y-94678847D01*
X156092446Y-94700471D01*
X156100504Y-94722993D01*
X156106316Y-94746197D01*
X156109826Y-94769858D01*
X156111000Y-94793750D01*
X156111000Y-95706250D01*
X156109826Y-95730142D01*
X156106316Y-95753803D01*
X156100504Y-95777007D01*
X156092446Y-95799529D01*
X156082218Y-95821153D01*
X156069921Y-95841670D01*
X156055671Y-95860883D01*
X156039607Y-95878607D01*
X156021883Y-95894671D01*
X156002670Y-95908921D01*
X155982153Y-95921218D01*
X155960529Y-95931446D01*
X155938007Y-95939504D01*
X155914803Y-95945316D01*
X155891142Y-95948826D01*
X155867250Y-95950000D01*
X155379750Y-95950000D01*
X155355858Y-95948826D01*
X155332197Y-95945316D01*
X155308993Y-95939504D01*
X155286471Y-95931446D01*
X155264847Y-95921218D01*
X155244330Y-95908921D01*
X155225117Y-95894671D01*
X155207393Y-95878607D01*
X155191329Y-95860883D01*
X155177079Y-95841670D01*
X155164782Y-95821153D01*
X155154554Y-95799529D01*
X155146496Y-95777007D01*
X155140684Y-95753803D01*
X155137174Y-95730142D01*
X155136000Y-95706250D01*
X155136000Y-94793750D01*
X155137174Y-94769858D01*
X155140684Y-94746197D01*
X155146496Y-94722993D01*
X155154554Y-94700471D01*
X155164782Y-94678847D01*
X155177079Y-94658330D01*
X155191329Y-94639117D01*
X155207393Y-94621393D01*
X155225117Y-94605329D01*
X155244330Y-94591079D01*
X155264847Y-94578782D01*
X155286471Y-94568554D01*
X155308993Y-94560496D01*
X155332197Y-94554684D01*
X155355858Y-94551174D01*
X155379750Y-94550000D01*
X155867250Y-94550000D01*
X155891142Y-94551174D01*
X155891142Y-94551174D01*
G37*
D11*
X155623500Y-95250000D03*
G04 #@! TD*
D10*
G04 #@! TO.C,R13*
G36*
X167429642Y-94678174D02*
X167453303Y-94681684D01*
X167476507Y-94687496D01*
X167499029Y-94695554D01*
X167520653Y-94705782D01*
X167541170Y-94718079D01*
X167560383Y-94732329D01*
X167578107Y-94748393D01*
X167594171Y-94766117D01*
X167608421Y-94785330D01*
X167620718Y-94805847D01*
X167630946Y-94827471D01*
X167639004Y-94849993D01*
X167644816Y-94873197D01*
X167648326Y-94896858D01*
X167649500Y-94920750D01*
X167649500Y-95833250D01*
X167648326Y-95857142D01*
X167644816Y-95880803D01*
X167639004Y-95904007D01*
X167630946Y-95926529D01*
X167620718Y-95948153D01*
X167608421Y-95968670D01*
X167594171Y-95987883D01*
X167578107Y-96005607D01*
X167560383Y-96021671D01*
X167541170Y-96035921D01*
X167520653Y-96048218D01*
X167499029Y-96058446D01*
X167476507Y-96066504D01*
X167453303Y-96072316D01*
X167429642Y-96075826D01*
X167405750Y-96077000D01*
X166918250Y-96077000D01*
X166894358Y-96075826D01*
X166870697Y-96072316D01*
X166847493Y-96066504D01*
X166824971Y-96058446D01*
X166803347Y-96048218D01*
X166782830Y-96035921D01*
X166763617Y-96021671D01*
X166745893Y-96005607D01*
X166729829Y-95987883D01*
X166715579Y-95968670D01*
X166703282Y-95948153D01*
X166693054Y-95926529D01*
X166684996Y-95904007D01*
X166679184Y-95880803D01*
X166675674Y-95857142D01*
X166674500Y-95833250D01*
X166674500Y-94920750D01*
X166675674Y-94896858D01*
X166679184Y-94873197D01*
X166684996Y-94849993D01*
X166693054Y-94827471D01*
X166703282Y-94805847D01*
X166715579Y-94785330D01*
X166729829Y-94766117D01*
X166745893Y-94748393D01*
X166763617Y-94732329D01*
X166782830Y-94718079D01*
X166803347Y-94705782D01*
X166824971Y-94695554D01*
X166847493Y-94687496D01*
X166870697Y-94681684D01*
X166894358Y-94678174D01*
X166918250Y-94677000D01*
X167405750Y-94677000D01*
X167429642Y-94678174D01*
X167429642Y-94678174D01*
G37*
D11*
X167162000Y-95377000D03*
D10*
G36*
X169304642Y-94678174D02*
X169328303Y-94681684D01*
X169351507Y-94687496D01*
X169374029Y-94695554D01*
X169395653Y-94705782D01*
X169416170Y-94718079D01*
X169435383Y-94732329D01*
X169453107Y-94748393D01*
X169469171Y-94766117D01*
X169483421Y-94785330D01*
X169495718Y-94805847D01*
X169505946Y-94827471D01*
X169514004Y-94849993D01*
X169519816Y-94873197D01*
X169523326Y-94896858D01*
X169524500Y-94920750D01*
X169524500Y-95833250D01*
X169523326Y-95857142D01*
X169519816Y-95880803D01*
X169514004Y-95904007D01*
X169505946Y-95926529D01*
X169495718Y-95948153D01*
X169483421Y-95968670D01*
X169469171Y-95987883D01*
X169453107Y-96005607D01*
X169435383Y-96021671D01*
X169416170Y-96035921D01*
X169395653Y-96048218D01*
X169374029Y-96058446D01*
X169351507Y-96066504D01*
X169328303Y-96072316D01*
X169304642Y-96075826D01*
X169280750Y-96077000D01*
X168793250Y-96077000D01*
X168769358Y-96075826D01*
X168745697Y-96072316D01*
X168722493Y-96066504D01*
X168699971Y-96058446D01*
X168678347Y-96048218D01*
X168657830Y-96035921D01*
X168638617Y-96021671D01*
X168620893Y-96005607D01*
X168604829Y-95987883D01*
X168590579Y-95968670D01*
X168578282Y-95948153D01*
X168568054Y-95926529D01*
X168559996Y-95904007D01*
X168554184Y-95880803D01*
X168550674Y-95857142D01*
X168549500Y-95833250D01*
X168549500Y-94920750D01*
X168550674Y-94896858D01*
X168554184Y-94873197D01*
X168559996Y-94849993D01*
X168568054Y-94827471D01*
X168578282Y-94805847D01*
X168590579Y-94785330D01*
X168604829Y-94766117D01*
X168620893Y-94748393D01*
X168638617Y-94732329D01*
X168657830Y-94718079D01*
X168678347Y-94705782D01*
X168699971Y-94695554D01*
X168722493Y-94687496D01*
X168745697Y-94681684D01*
X168769358Y-94678174D01*
X168793250Y-94677000D01*
X169280750Y-94677000D01*
X169304642Y-94678174D01*
X169304642Y-94678174D01*
G37*
D11*
X169037000Y-95377000D03*
G04 #@! TD*
D10*
G04 #@! TO.C,R14*
G36*
X169304642Y-92011174D02*
X169328303Y-92014684D01*
X169351507Y-92020496D01*
X169374029Y-92028554D01*
X169395653Y-92038782D01*
X169416170Y-92051079D01*
X169435383Y-92065329D01*
X169453107Y-92081393D01*
X169469171Y-92099117D01*
X169483421Y-92118330D01*
X169495718Y-92138847D01*
X169505946Y-92160471D01*
X169514004Y-92182993D01*
X169519816Y-92206197D01*
X169523326Y-92229858D01*
X169524500Y-92253750D01*
X169524500Y-93166250D01*
X169523326Y-93190142D01*
X169519816Y-93213803D01*
X169514004Y-93237007D01*
X169505946Y-93259529D01*
X169495718Y-93281153D01*
X169483421Y-93301670D01*
X169469171Y-93320883D01*
X169453107Y-93338607D01*
X169435383Y-93354671D01*
X169416170Y-93368921D01*
X169395653Y-93381218D01*
X169374029Y-93391446D01*
X169351507Y-93399504D01*
X169328303Y-93405316D01*
X169304642Y-93408826D01*
X169280750Y-93410000D01*
X168793250Y-93410000D01*
X168769358Y-93408826D01*
X168745697Y-93405316D01*
X168722493Y-93399504D01*
X168699971Y-93391446D01*
X168678347Y-93381218D01*
X168657830Y-93368921D01*
X168638617Y-93354671D01*
X168620893Y-93338607D01*
X168604829Y-93320883D01*
X168590579Y-93301670D01*
X168578282Y-93281153D01*
X168568054Y-93259529D01*
X168559996Y-93237007D01*
X168554184Y-93213803D01*
X168550674Y-93190142D01*
X168549500Y-93166250D01*
X168549500Y-92253750D01*
X168550674Y-92229858D01*
X168554184Y-92206197D01*
X168559996Y-92182993D01*
X168568054Y-92160471D01*
X168578282Y-92138847D01*
X168590579Y-92118330D01*
X168604829Y-92099117D01*
X168620893Y-92081393D01*
X168638617Y-92065329D01*
X168657830Y-92051079D01*
X168678347Y-92038782D01*
X168699971Y-92028554D01*
X168722493Y-92020496D01*
X168745697Y-92014684D01*
X168769358Y-92011174D01*
X168793250Y-92010000D01*
X169280750Y-92010000D01*
X169304642Y-92011174D01*
X169304642Y-92011174D01*
G37*
D11*
X169037000Y-92710000D03*
D10*
G36*
X167429642Y-92011174D02*
X167453303Y-92014684D01*
X167476507Y-92020496D01*
X167499029Y-92028554D01*
X167520653Y-92038782D01*
X167541170Y-92051079D01*
X167560383Y-92065329D01*
X167578107Y-92081393D01*
X167594171Y-92099117D01*
X167608421Y-92118330D01*
X167620718Y-92138847D01*
X167630946Y-92160471D01*
X167639004Y-92182993D01*
X167644816Y-92206197D01*
X167648326Y-92229858D01*
X167649500Y-92253750D01*
X167649500Y-93166250D01*
X167648326Y-93190142D01*
X167644816Y-93213803D01*
X167639004Y-93237007D01*
X167630946Y-93259529D01*
X167620718Y-93281153D01*
X167608421Y-93301670D01*
X167594171Y-93320883D01*
X167578107Y-93338607D01*
X167560383Y-93354671D01*
X167541170Y-93368921D01*
X167520653Y-93381218D01*
X167499029Y-93391446D01*
X167476507Y-93399504D01*
X167453303Y-93405316D01*
X167429642Y-93408826D01*
X167405750Y-93410000D01*
X166918250Y-93410000D01*
X166894358Y-93408826D01*
X166870697Y-93405316D01*
X166847493Y-93399504D01*
X166824971Y-93391446D01*
X166803347Y-93381218D01*
X166782830Y-93368921D01*
X166763617Y-93354671D01*
X166745893Y-93338607D01*
X166729829Y-93320883D01*
X166715579Y-93301670D01*
X166703282Y-93281153D01*
X166693054Y-93259529D01*
X166684996Y-93237007D01*
X166679184Y-93213803D01*
X166675674Y-93190142D01*
X166674500Y-93166250D01*
X166674500Y-92253750D01*
X166675674Y-92229858D01*
X166679184Y-92206197D01*
X166684996Y-92182993D01*
X166693054Y-92160471D01*
X166703282Y-92138847D01*
X166715579Y-92118330D01*
X166729829Y-92099117D01*
X166745893Y-92081393D01*
X166763617Y-92065329D01*
X166782830Y-92051079D01*
X166803347Y-92038782D01*
X166824971Y-92028554D01*
X166847493Y-92020496D01*
X166870697Y-92014684D01*
X166894358Y-92011174D01*
X166918250Y-92010000D01*
X167405750Y-92010000D01*
X167429642Y-92011174D01*
X167429642Y-92011174D01*
G37*
D11*
X167162000Y-92710000D03*
G04 #@! TD*
D10*
G04 #@! TO.C,R15*
G36*
X167429642Y-74231174D02*
X167453303Y-74234684D01*
X167476507Y-74240496D01*
X167499029Y-74248554D01*
X167520653Y-74258782D01*
X167541170Y-74271079D01*
X167560383Y-74285329D01*
X167578107Y-74301393D01*
X167594171Y-74319117D01*
X167608421Y-74338330D01*
X167620718Y-74358847D01*
X167630946Y-74380471D01*
X167639004Y-74402993D01*
X167644816Y-74426197D01*
X167648326Y-74449858D01*
X167649500Y-74473750D01*
X167649500Y-75386250D01*
X167648326Y-75410142D01*
X167644816Y-75433803D01*
X167639004Y-75457007D01*
X167630946Y-75479529D01*
X167620718Y-75501153D01*
X167608421Y-75521670D01*
X167594171Y-75540883D01*
X167578107Y-75558607D01*
X167560383Y-75574671D01*
X167541170Y-75588921D01*
X167520653Y-75601218D01*
X167499029Y-75611446D01*
X167476507Y-75619504D01*
X167453303Y-75625316D01*
X167429642Y-75628826D01*
X167405750Y-75630000D01*
X166918250Y-75630000D01*
X166894358Y-75628826D01*
X166870697Y-75625316D01*
X166847493Y-75619504D01*
X166824971Y-75611446D01*
X166803347Y-75601218D01*
X166782830Y-75588921D01*
X166763617Y-75574671D01*
X166745893Y-75558607D01*
X166729829Y-75540883D01*
X166715579Y-75521670D01*
X166703282Y-75501153D01*
X166693054Y-75479529D01*
X166684996Y-75457007D01*
X166679184Y-75433803D01*
X166675674Y-75410142D01*
X166674500Y-75386250D01*
X166674500Y-74473750D01*
X166675674Y-74449858D01*
X166679184Y-74426197D01*
X166684996Y-74402993D01*
X166693054Y-74380471D01*
X166703282Y-74358847D01*
X166715579Y-74338330D01*
X166729829Y-74319117D01*
X166745893Y-74301393D01*
X166763617Y-74285329D01*
X166782830Y-74271079D01*
X166803347Y-74258782D01*
X166824971Y-74248554D01*
X166847493Y-74240496D01*
X166870697Y-74234684D01*
X166894358Y-74231174D01*
X166918250Y-74230000D01*
X167405750Y-74230000D01*
X167429642Y-74231174D01*
X167429642Y-74231174D01*
G37*
D11*
X167162000Y-74930000D03*
D10*
G36*
X169304642Y-74231174D02*
X169328303Y-74234684D01*
X169351507Y-74240496D01*
X169374029Y-74248554D01*
X169395653Y-74258782D01*
X169416170Y-74271079D01*
X169435383Y-74285329D01*
X169453107Y-74301393D01*
X169469171Y-74319117D01*
X169483421Y-74338330D01*
X169495718Y-74358847D01*
X169505946Y-74380471D01*
X169514004Y-74402993D01*
X169519816Y-74426197D01*
X169523326Y-74449858D01*
X169524500Y-74473750D01*
X169524500Y-75386250D01*
X169523326Y-75410142D01*
X169519816Y-75433803D01*
X169514004Y-75457007D01*
X169505946Y-75479529D01*
X169495718Y-75501153D01*
X169483421Y-75521670D01*
X169469171Y-75540883D01*
X169453107Y-75558607D01*
X169435383Y-75574671D01*
X169416170Y-75588921D01*
X169395653Y-75601218D01*
X169374029Y-75611446D01*
X169351507Y-75619504D01*
X169328303Y-75625316D01*
X169304642Y-75628826D01*
X169280750Y-75630000D01*
X168793250Y-75630000D01*
X168769358Y-75628826D01*
X168745697Y-75625316D01*
X168722493Y-75619504D01*
X168699971Y-75611446D01*
X168678347Y-75601218D01*
X168657830Y-75588921D01*
X168638617Y-75574671D01*
X168620893Y-75558607D01*
X168604829Y-75540883D01*
X168590579Y-75521670D01*
X168578282Y-75501153D01*
X168568054Y-75479529D01*
X168559996Y-75457007D01*
X168554184Y-75433803D01*
X168550674Y-75410142D01*
X168549500Y-75386250D01*
X168549500Y-74473750D01*
X168550674Y-74449858D01*
X168554184Y-74426197D01*
X168559996Y-74402993D01*
X168568054Y-74380471D01*
X168578282Y-74358847D01*
X168590579Y-74338330D01*
X168604829Y-74319117D01*
X168620893Y-74301393D01*
X168638617Y-74285329D01*
X168657830Y-74271079D01*
X168678347Y-74258782D01*
X168699971Y-74248554D01*
X168722493Y-74240496D01*
X168745697Y-74234684D01*
X168769358Y-74231174D01*
X168793250Y-74230000D01*
X169280750Y-74230000D01*
X169304642Y-74231174D01*
X169304642Y-74231174D01*
G37*
D11*
X169037000Y-74930000D03*
G04 #@! TD*
D10*
G04 #@! TO.C,R16*
G36*
X169304642Y-71691174D02*
X169328303Y-71694684D01*
X169351507Y-71700496D01*
X169374029Y-71708554D01*
X169395653Y-71718782D01*
X169416170Y-71731079D01*
X169435383Y-71745329D01*
X169453107Y-71761393D01*
X169469171Y-71779117D01*
X169483421Y-71798330D01*
X169495718Y-71818847D01*
X169505946Y-71840471D01*
X169514004Y-71862993D01*
X169519816Y-71886197D01*
X169523326Y-71909858D01*
X169524500Y-71933750D01*
X169524500Y-72846250D01*
X169523326Y-72870142D01*
X169519816Y-72893803D01*
X169514004Y-72917007D01*
X169505946Y-72939529D01*
X169495718Y-72961153D01*
X169483421Y-72981670D01*
X169469171Y-73000883D01*
X169453107Y-73018607D01*
X169435383Y-73034671D01*
X169416170Y-73048921D01*
X169395653Y-73061218D01*
X169374029Y-73071446D01*
X169351507Y-73079504D01*
X169328303Y-73085316D01*
X169304642Y-73088826D01*
X169280750Y-73090000D01*
X168793250Y-73090000D01*
X168769358Y-73088826D01*
X168745697Y-73085316D01*
X168722493Y-73079504D01*
X168699971Y-73071446D01*
X168678347Y-73061218D01*
X168657830Y-73048921D01*
X168638617Y-73034671D01*
X168620893Y-73018607D01*
X168604829Y-73000883D01*
X168590579Y-72981670D01*
X168578282Y-72961153D01*
X168568054Y-72939529D01*
X168559996Y-72917007D01*
X168554184Y-72893803D01*
X168550674Y-72870142D01*
X168549500Y-72846250D01*
X168549500Y-71933750D01*
X168550674Y-71909858D01*
X168554184Y-71886197D01*
X168559996Y-71862993D01*
X168568054Y-71840471D01*
X168578282Y-71818847D01*
X168590579Y-71798330D01*
X168604829Y-71779117D01*
X168620893Y-71761393D01*
X168638617Y-71745329D01*
X168657830Y-71731079D01*
X168678347Y-71718782D01*
X168699971Y-71708554D01*
X168722493Y-71700496D01*
X168745697Y-71694684D01*
X168769358Y-71691174D01*
X168793250Y-71690000D01*
X169280750Y-71690000D01*
X169304642Y-71691174D01*
X169304642Y-71691174D01*
G37*
D11*
X169037000Y-72390000D03*
D10*
G36*
X167429642Y-71691174D02*
X167453303Y-71694684D01*
X167476507Y-71700496D01*
X167499029Y-71708554D01*
X167520653Y-71718782D01*
X167541170Y-71731079D01*
X167560383Y-71745329D01*
X167578107Y-71761393D01*
X167594171Y-71779117D01*
X167608421Y-71798330D01*
X167620718Y-71818847D01*
X167630946Y-71840471D01*
X167639004Y-71862993D01*
X167644816Y-71886197D01*
X167648326Y-71909858D01*
X167649500Y-71933750D01*
X167649500Y-72846250D01*
X167648326Y-72870142D01*
X167644816Y-72893803D01*
X167639004Y-72917007D01*
X167630946Y-72939529D01*
X167620718Y-72961153D01*
X167608421Y-72981670D01*
X167594171Y-73000883D01*
X167578107Y-73018607D01*
X167560383Y-73034671D01*
X167541170Y-73048921D01*
X167520653Y-73061218D01*
X167499029Y-73071446D01*
X167476507Y-73079504D01*
X167453303Y-73085316D01*
X167429642Y-73088826D01*
X167405750Y-73090000D01*
X166918250Y-73090000D01*
X166894358Y-73088826D01*
X166870697Y-73085316D01*
X166847493Y-73079504D01*
X166824971Y-73071446D01*
X166803347Y-73061218D01*
X166782830Y-73048921D01*
X166763617Y-73034671D01*
X166745893Y-73018607D01*
X166729829Y-73000883D01*
X166715579Y-72981670D01*
X166703282Y-72961153D01*
X166693054Y-72939529D01*
X166684996Y-72917007D01*
X166679184Y-72893803D01*
X166675674Y-72870142D01*
X166674500Y-72846250D01*
X166674500Y-71933750D01*
X166675674Y-71909858D01*
X166679184Y-71886197D01*
X166684996Y-71862993D01*
X166693054Y-71840471D01*
X166703282Y-71818847D01*
X166715579Y-71798330D01*
X166729829Y-71779117D01*
X166745893Y-71761393D01*
X166763617Y-71745329D01*
X166782830Y-71731079D01*
X166803347Y-71718782D01*
X166824971Y-71708554D01*
X166847493Y-71700496D01*
X166870697Y-71694684D01*
X166894358Y-71691174D01*
X166918250Y-71690000D01*
X167405750Y-71690000D01*
X167429642Y-71691174D01*
X167429642Y-71691174D01*
G37*
D11*
X167162000Y-72390000D03*
G04 #@! TD*
M02*
