G04 #@! TF.GenerationSoftware,KiCad,Pcbnew,5.0.2+dfsg1-1~bpo9+1*
G04 #@! TF.CreationDate,2019-10-18T00:12:00+01:00*
G04 #@! TF.ProjectId,Sigrok-sniffer,53696772-6f6b-42d7-936e-69666665722e,rev?*
G04 #@! TF.SameCoordinates,Original*
G04 #@! TF.FileFunction,Legend,Top*
G04 #@! TF.FilePolarity,Positive*
%FSLAX46Y46*%
G04 Gerber Fmt 4.6, Leading zero omitted, Abs format (unit mm)*
G04 Created by KiCad (PCBNEW 5.0.2+dfsg1-1~bpo9+1) date Fri 18 Oct 2019 00:12:00 BST*
%MOMM*%
%LPD*%
G01*
G04 APERTURE LIST*
%ADD10C,0.150000*%
%ADD11C,0.120000*%
G04 APERTURE END LIST*
D10*
G04 #@! TO.C,J5*
X174117000Y-58331100D02*
X174117000Y-103212900D01*
X189357000Y-58331100D02*
X189357000Y-103212900D01*
X189357000Y-58547000D02*
X189357000Y-52832000D01*
X189357000Y-52832000D02*
X174117000Y-52832000D01*
X174117000Y-52832000D02*
X174117000Y-58547000D01*
X174117000Y-102997000D02*
X174117000Y-108712000D01*
X174117000Y-108712000D02*
X189357000Y-108712000D01*
X189357000Y-108712000D02*
X189357000Y-102997000D01*
X189357000Y-66802000D02*
X197612000Y-66802000D01*
X197612000Y-66802000D02*
X197612000Y-95377000D01*
X197612000Y-95377000D02*
X189357000Y-95377000D01*
D11*
G04 #@! TO.C,J2*
X130877000Y-96580000D02*
X136077000Y-96580000D01*
X130877000Y-73660000D02*
X130877000Y-96580000D01*
X136077000Y-71060000D02*
X136077000Y-96580000D01*
X130877000Y-73660000D02*
X133477000Y-73660000D01*
X133477000Y-73660000D02*
X133477000Y-71060000D01*
X133477000Y-71060000D02*
X136077000Y-71060000D01*
X130877000Y-72390000D02*
X130877000Y-71060000D01*
X130877000Y-71060000D02*
X132207000Y-71060000D01*
G04 #@! TO.C,J4*
X158817000Y-71060000D02*
X160147000Y-71060000D01*
X158817000Y-72390000D02*
X158817000Y-71060000D01*
X161417000Y-71060000D02*
X164017000Y-71060000D01*
X161417000Y-73660000D02*
X161417000Y-71060000D01*
X158817000Y-73660000D02*
X161417000Y-73660000D01*
X164017000Y-71060000D02*
X164017000Y-96580000D01*
X158817000Y-73660000D02*
X158817000Y-96580000D01*
X158817000Y-96580000D02*
X164017000Y-96580000D01*
G04 #@! TO.C,R1*
X127053078Y-71680000D02*
X126535922Y-71680000D01*
X127053078Y-73100000D02*
X126535922Y-73100000D01*
G04 #@! TO.C,R2*
X127083078Y-75640000D02*
X126565922Y-75640000D01*
X127083078Y-74220000D02*
X126565922Y-74220000D01*
G04 #@! TO.C,R3*
X127131578Y-90880000D02*
X126614422Y-90880000D01*
X127131578Y-89460000D02*
X126614422Y-89460000D01*
G04 #@! TO.C,R4*
X127210078Y-92000000D02*
X126692922Y-92000000D01*
X127210078Y-93420000D02*
X126692922Y-93420000D01*
G04 #@! TO.C,R5*
X140584422Y-92000000D02*
X141101578Y-92000000D01*
X140584422Y-93420000D02*
X141101578Y-93420000D01*
G04 #@! TO.C,R6*
X140535922Y-90880000D02*
X141053078Y-90880000D01*
X140535922Y-89460000D02*
X141053078Y-89460000D01*
G04 #@! TO.C,R7*
X140330422Y-71680000D02*
X140847578Y-71680000D01*
X140330422Y-73100000D02*
X140847578Y-73100000D01*
G04 #@! TO.C,R8*
X154896078Y-71680000D02*
X154378922Y-71680000D01*
X154896078Y-73100000D02*
X154378922Y-73100000D01*
G04 #@! TO.C,R9*
X154896078Y-75640000D02*
X154378922Y-75640000D01*
X154896078Y-74220000D02*
X154378922Y-74220000D01*
G04 #@! TO.C,R10*
X154896078Y-76760000D02*
X154378922Y-76760000D01*
X154896078Y-78180000D02*
X154378922Y-78180000D01*
G04 #@! TO.C,R11*
X154896078Y-93420000D02*
X154378922Y-93420000D01*
X154896078Y-92000000D02*
X154378922Y-92000000D01*
G04 #@! TO.C,R12*
X154944578Y-94540000D02*
X154427422Y-94540000D01*
X154944578Y-95960000D02*
X154427422Y-95960000D01*
G04 #@! TO.C,R13*
X167840922Y-94667000D02*
X168358078Y-94667000D01*
X167840922Y-96087000D02*
X168358078Y-96087000D01*
G04 #@! TO.C,R14*
X167840922Y-93420000D02*
X168358078Y-93420000D01*
X167840922Y-92000000D02*
X168358078Y-92000000D01*
G04 #@! TO.C,R15*
X167840922Y-74220000D02*
X168358078Y-74220000D01*
X167840922Y-75640000D02*
X168358078Y-75640000D01*
G04 #@! TO.C,R16*
X167840922Y-73100000D02*
X168358078Y-73100000D01*
X167840922Y-71680000D02*
X168358078Y-71680000D01*
D10*
G04 #@! TO.C,J3*
X121031000Y-58331100D02*
X121031000Y-103212900D01*
X105791000Y-58331100D02*
X105791000Y-103212900D01*
X105791000Y-66802000D02*
X100711000Y-66802000D01*
X100711000Y-94742000D02*
X105791000Y-94742000D01*
X100711000Y-66802000D02*
X99441000Y-66802000D01*
X99441000Y-66802000D02*
X99441000Y-94742000D01*
X99441000Y-94742000D02*
X100711000Y-94742000D01*
X121031000Y-58547000D02*
X121031000Y-52832000D01*
X121031000Y-52832000D02*
X105791000Y-52832000D01*
X105791000Y-52832000D02*
X105791000Y-58547000D01*
X105791000Y-102997000D02*
X105791000Y-108077000D01*
X105791000Y-108077000D02*
X105791000Y-108712000D01*
X105791000Y-108712000D02*
X121031000Y-108712000D01*
X121031000Y-108712000D02*
X121031000Y-102997000D01*
G04 #@! TO.C,J5*
X184705666Y-63460380D02*
X184705666Y-64174666D01*
X184658047Y-64317523D01*
X184562809Y-64412761D01*
X184419952Y-64460380D01*
X184324714Y-64460380D01*
X185658047Y-63460380D02*
X185181857Y-63460380D01*
X185134238Y-63936571D01*
X185181857Y-63888952D01*
X185277095Y-63841333D01*
X185515190Y-63841333D01*
X185610428Y-63888952D01*
X185658047Y-63936571D01*
X185705666Y-64031809D01*
X185705666Y-64269904D01*
X185658047Y-64365142D01*
X185610428Y-64412761D01*
X185515190Y-64460380D01*
X185277095Y-64460380D01*
X185181857Y-64412761D01*
X185134238Y-64365142D01*
G04 #@! TO.C,J2*
X133143666Y-69512380D02*
X133143666Y-70226666D01*
X133096047Y-70369523D01*
X133000809Y-70464761D01*
X132857952Y-70512380D01*
X132762714Y-70512380D01*
X133572238Y-69607619D02*
X133619857Y-69560000D01*
X133715095Y-69512380D01*
X133953190Y-69512380D01*
X134048428Y-69560000D01*
X134096047Y-69607619D01*
X134143666Y-69702857D01*
X134143666Y-69798095D01*
X134096047Y-69940952D01*
X133524619Y-70512380D01*
X134143666Y-70512380D01*
G04 #@! TO.C,J4*
X161083666Y-69512380D02*
X161083666Y-70226666D01*
X161036047Y-70369523D01*
X160940809Y-70464761D01*
X160797952Y-70512380D01*
X160702714Y-70512380D01*
X161988428Y-69845714D02*
X161988428Y-70512380D01*
X161750333Y-69464761D02*
X161512238Y-70179047D01*
X162131285Y-70179047D01*
G04 #@! TO.C,R1*
X126627833Y-74492380D02*
X126294500Y-74016190D01*
X126056404Y-74492380D02*
X126056404Y-73492380D01*
X126437357Y-73492380D01*
X126532595Y-73540000D01*
X126580214Y-73587619D01*
X126627833Y-73682857D01*
X126627833Y-73825714D01*
X126580214Y-73920952D01*
X126532595Y-73968571D01*
X126437357Y-74016190D01*
X126056404Y-74016190D01*
X127580214Y-74492380D02*
X127008785Y-74492380D01*
X127294500Y-74492380D02*
X127294500Y-73492380D01*
X127199261Y-73635238D01*
X127104023Y-73730476D01*
X127008785Y-73778095D01*
G04 #@! TO.C,R2*
X126657833Y-77032380D02*
X126324500Y-76556190D01*
X126086404Y-77032380D02*
X126086404Y-76032380D01*
X126467357Y-76032380D01*
X126562595Y-76080000D01*
X126610214Y-76127619D01*
X126657833Y-76222857D01*
X126657833Y-76365714D01*
X126610214Y-76460952D01*
X126562595Y-76508571D01*
X126467357Y-76556190D01*
X126086404Y-76556190D01*
X127038785Y-76127619D02*
X127086404Y-76080000D01*
X127181642Y-76032380D01*
X127419738Y-76032380D01*
X127514976Y-76080000D01*
X127562595Y-76127619D01*
X127610214Y-76222857D01*
X127610214Y-76318095D01*
X127562595Y-76460952D01*
X126991166Y-77032380D01*
X127610214Y-77032380D01*
G04 #@! TO.C,R3*
X126706333Y-92272380D02*
X126373000Y-91796190D01*
X126134904Y-92272380D02*
X126134904Y-91272380D01*
X126515857Y-91272380D01*
X126611095Y-91320000D01*
X126658714Y-91367619D01*
X126706333Y-91462857D01*
X126706333Y-91605714D01*
X126658714Y-91700952D01*
X126611095Y-91748571D01*
X126515857Y-91796190D01*
X126134904Y-91796190D01*
X127039666Y-91272380D02*
X127658714Y-91272380D01*
X127325380Y-91653333D01*
X127468238Y-91653333D01*
X127563476Y-91700952D01*
X127611095Y-91748571D01*
X127658714Y-91843809D01*
X127658714Y-92081904D01*
X127611095Y-92177142D01*
X127563476Y-92224761D01*
X127468238Y-92272380D01*
X127182523Y-92272380D01*
X127087285Y-92224761D01*
X127039666Y-92177142D01*
G04 #@! TO.C,R4*
X126784833Y-94812380D02*
X126451500Y-94336190D01*
X126213404Y-94812380D02*
X126213404Y-93812380D01*
X126594357Y-93812380D01*
X126689595Y-93860000D01*
X126737214Y-93907619D01*
X126784833Y-94002857D01*
X126784833Y-94145714D01*
X126737214Y-94240952D01*
X126689595Y-94288571D01*
X126594357Y-94336190D01*
X126213404Y-94336190D01*
X127641976Y-94145714D02*
X127641976Y-94812380D01*
X127403880Y-93764761D02*
X127165785Y-94479047D01*
X127784833Y-94479047D01*
G04 #@! TO.C,R5*
X140676333Y-91512380D02*
X140343000Y-91036190D01*
X140104904Y-91512380D02*
X140104904Y-90512380D01*
X140485857Y-90512380D01*
X140581095Y-90560000D01*
X140628714Y-90607619D01*
X140676333Y-90702857D01*
X140676333Y-90845714D01*
X140628714Y-90940952D01*
X140581095Y-90988571D01*
X140485857Y-91036190D01*
X140104904Y-91036190D01*
X141581095Y-90512380D02*
X141104904Y-90512380D01*
X141057285Y-90988571D01*
X141104904Y-90940952D01*
X141200142Y-90893333D01*
X141438238Y-90893333D01*
X141533476Y-90940952D01*
X141581095Y-90988571D01*
X141628714Y-91083809D01*
X141628714Y-91321904D01*
X141581095Y-91417142D01*
X141533476Y-91464761D01*
X141438238Y-91512380D01*
X141200142Y-91512380D01*
X141104904Y-91464761D01*
X141057285Y-91417142D01*
G04 #@! TO.C,R6*
X140627833Y-88972380D02*
X140294500Y-88496190D01*
X140056404Y-88972380D02*
X140056404Y-87972380D01*
X140437357Y-87972380D01*
X140532595Y-88020000D01*
X140580214Y-88067619D01*
X140627833Y-88162857D01*
X140627833Y-88305714D01*
X140580214Y-88400952D01*
X140532595Y-88448571D01*
X140437357Y-88496190D01*
X140056404Y-88496190D01*
X141484976Y-87972380D02*
X141294500Y-87972380D01*
X141199261Y-88020000D01*
X141151642Y-88067619D01*
X141056404Y-88210476D01*
X141008785Y-88400952D01*
X141008785Y-88781904D01*
X141056404Y-88877142D01*
X141104023Y-88924761D01*
X141199261Y-88972380D01*
X141389738Y-88972380D01*
X141484976Y-88924761D01*
X141532595Y-88877142D01*
X141580214Y-88781904D01*
X141580214Y-88543809D01*
X141532595Y-88448571D01*
X141484976Y-88400952D01*
X141389738Y-88353333D01*
X141199261Y-88353333D01*
X141104023Y-88400952D01*
X141056404Y-88448571D01*
X141008785Y-88543809D01*
G04 #@! TO.C,R7*
X140422333Y-71192380D02*
X140089000Y-70716190D01*
X139850904Y-71192380D02*
X139850904Y-70192380D01*
X140231857Y-70192380D01*
X140327095Y-70240000D01*
X140374714Y-70287619D01*
X140422333Y-70382857D01*
X140422333Y-70525714D01*
X140374714Y-70620952D01*
X140327095Y-70668571D01*
X140231857Y-70716190D01*
X139850904Y-70716190D01*
X140755666Y-70192380D02*
X141422333Y-70192380D01*
X140993761Y-71192380D01*
G04 #@! TO.C,R8*
X154470833Y-74492380D02*
X154137500Y-74016190D01*
X153899404Y-74492380D02*
X153899404Y-73492380D01*
X154280357Y-73492380D01*
X154375595Y-73540000D01*
X154423214Y-73587619D01*
X154470833Y-73682857D01*
X154470833Y-73825714D01*
X154423214Y-73920952D01*
X154375595Y-73968571D01*
X154280357Y-74016190D01*
X153899404Y-74016190D01*
X155042261Y-73920952D02*
X154947023Y-73873333D01*
X154899404Y-73825714D01*
X154851785Y-73730476D01*
X154851785Y-73682857D01*
X154899404Y-73587619D01*
X154947023Y-73540000D01*
X155042261Y-73492380D01*
X155232738Y-73492380D01*
X155327976Y-73540000D01*
X155375595Y-73587619D01*
X155423214Y-73682857D01*
X155423214Y-73730476D01*
X155375595Y-73825714D01*
X155327976Y-73873333D01*
X155232738Y-73920952D01*
X155042261Y-73920952D01*
X154947023Y-73968571D01*
X154899404Y-74016190D01*
X154851785Y-74111428D01*
X154851785Y-74301904D01*
X154899404Y-74397142D01*
X154947023Y-74444761D01*
X155042261Y-74492380D01*
X155232738Y-74492380D01*
X155327976Y-74444761D01*
X155375595Y-74397142D01*
X155423214Y-74301904D01*
X155423214Y-74111428D01*
X155375595Y-74016190D01*
X155327976Y-73968571D01*
X155232738Y-73920952D01*
G04 #@! TO.C,R9*
X154470833Y-77032380D02*
X154137500Y-76556190D01*
X153899404Y-77032380D02*
X153899404Y-76032380D01*
X154280357Y-76032380D01*
X154375595Y-76080000D01*
X154423214Y-76127619D01*
X154470833Y-76222857D01*
X154470833Y-76365714D01*
X154423214Y-76460952D01*
X154375595Y-76508571D01*
X154280357Y-76556190D01*
X153899404Y-76556190D01*
X154947023Y-77032380D02*
X155137500Y-77032380D01*
X155232738Y-76984761D01*
X155280357Y-76937142D01*
X155375595Y-76794285D01*
X155423214Y-76603809D01*
X155423214Y-76222857D01*
X155375595Y-76127619D01*
X155327976Y-76080000D01*
X155232738Y-76032380D01*
X155042261Y-76032380D01*
X154947023Y-76080000D01*
X154899404Y-76127619D01*
X154851785Y-76222857D01*
X154851785Y-76460952D01*
X154899404Y-76556190D01*
X154947023Y-76603809D01*
X155042261Y-76651428D01*
X155232738Y-76651428D01*
X155327976Y-76603809D01*
X155375595Y-76556190D01*
X155423214Y-76460952D01*
G04 #@! TO.C,R10*
X153994642Y-79572380D02*
X153661309Y-79096190D01*
X153423214Y-79572380D02*
X153423214Y-78572380D01*
X153804166Y-78572380D01*
X153899404Y-78620000D01*
X153947023Y-78667619D01*
X153994642Y-78762857D01*
X153994642Y-78905714D01*
X153947023Y-79000952D01*
X153899404Y-79048571D01*
X153804166Y-79096190D01*
X153423214Y-79096190D01*
X154947023Y-79572380D02*
X154375595Y-79572380D01*
X154661309Y-79572380D02*
X154661309Y-78572380D01*
X154566071Y-78715238D01*
X154470833Y-78810476D01*
X154375595Y-78858095D01*
X155566071Y-78572380D02*
X155661309Y-78572380D01*
X155756547Y-78620000D01*
X155804166Y-78667619D01*
X155851785Y-78762857D01*
X155899404Y-78953333D01*
X155899404Y-79191428D01*
X155851785Y-79381904D01*
X155804166Y-79477142D01*
X155756547Y-79524761D01*
X155661309Y-79572380D01*
X155566071Y-79572380D01*
X155470833Y-79524761D01*
X155423214Y-79477142D01*
X155375595Y-79381904D01*
X155327976Y-79191428D01*
X155327976Y-78953333D01*
X155375595Y-78762857D01*
X155423214Y-78667619D01*
X155470833Y-78620000D01*
X155566071Y-78572380D01*
G04 #@! TO.C,R11*
X153994642Y-94812380D02*
X153661309Y-94336190D01*
X153423214Y-94812380D02*
X153423214Y-93812380D01*
X153804166Y-93812380D01*
X153899404Y-93860000D01*
X153947023Y-93907619D01*
X153994642Y-94002857D01*
X153994642Y-94145714D01*
X153947023Y-94240952D01*
X153899404Y-94288571D01*
X153804166Y-94336190D01*
X153423214Y-94336190D01*
X154947023Y-94812380D02*
X154375595Y-94812380D01*
X154661309Y-94812380D02*
X154661309Y-93812380D01*
X154566071Y-93955238D01*
X154470833Y-94050476D01*
X154375595Y-94098095D01*
X155899404Y-94812380D02*
X155327976Y-94812380D01*
X155613690Y-94812380D02*
X155613690Y-93812380D01*
X155518452Y-93955238D01*
X155423214Y-94050476D01*
X155327976Y-94098095D01*
G04 #@! TO.C,R12*
X154043142Y-97352380D02*
X153709809Y-96876190D01*
X153471714Y-97352380D02*
X153471714Y-96352380D01*
X153852666Y-96352380D01*
X153947904Y-96400000D01*
X153995523Y-96447619D01*
X154043142Y-96542857D01*
X154043142Y-96685714D01*
X153995523Y-96780952D01*
X153947904Y-96828571D01*
X153852666Y-96876190D01*
X153471714Y-96876190D01*
X154995523Y-97352380D02*
X154424095Y-97352380D01*
X154709809Y-97352380D02*
X154709809Y-96352380D01*
X154614571Y-96495238D01*
X154519333Y-96590476D01*
X154424095Y-96638095D01*
X155376476Y-96447619D02*
X155424095Y-96400000D01*
X155519333Y-96352380D01*
X155757428Y-96352380D01*
X155852666Y-96400000D01*
X155900285Y-96447619D01*
X155947904Y-96542857D01*
X155947904Y-96638095D01*
X155900285Y-96780952D01*
X155328857Y-97352380D01*
X155947904Y-97352380D01*
G04 #@! TO.C,R13*
X167456642Y-94179380D02*
X167123309Y-93703190D01*
X166885214Y-94179380D02*
X166885214Y-93179380D01*
X167266166Y-93179380D01*
X167361404Y-93227000D01*
X167409023Y-93274619D01*
X167456642Y-93369857D01*
X167456642Y-93512714D01*
X167409023Y-93607952D01*
X167361404Y-93655571D01*
X167266166Y-93703190D01*
X166885214Y-93703190D01*
X168409023Y-94179380D02*
X167837595Y-94179380D01*
X168123309Y-94179380D02*
X168123309Y-93179380D01*
X168028071Y-93322238D01*
X167932833Y-93417476D01*
X167837595Y-93465095D01*
X168742357Y-93179380D02*
X169361404Y-93179380D01*
X169028071Y-93560333D01*
X169170928Y-93560333D01*
X169266166Y-93607952D01*
X169313785Y-93655571D01*
X169361404Y-93750809D01*
X169361404Y-93988904D01*
X169313785Y-94084142D01*
X169266166Y-94131761D01*
X169170928Y-94179380D01*
X168885214Y-94179380D01*
X168789976Y-94131761D01*
X168742357Y-94084142D01*
G04 #@! TO.C,R14*
X167456642Y-91512380D02*
X167123309Y-91036190D01*
X166885214Y-91512380D02*
X166885214Y-90512380D01*
X167266166Y-90512380D01*
X167361404Y-90560000D01*
X167409023Y-90607619D01*
X167456642Y-90702857D01*
X167456642Y-90845714D01*
X167409023Y-90940952D01*
X167361404Y-90988571D01*
X167266166Y-91036190D01*
X166885214Y-91036190D01*
X168409023Y-91512380D02*
X167837595Y-91512380D01*
X168123309Y-91512380D02*
X168123309Y-90512380D01*
X168028071Y-90655238D01*
X167932833Y-90750476D01*
X167837595Y-90798095D01*
X169266166Y-90845714D02*
X169266166Y-91512380D01*
X169028071Y-90464761D02*
X168789976Y-91179047D01*
X169409023Y-91179047D01*
G04 #@! TO.C,R15*
X167456642Y-73732380D02*
X167123309Y-73256190D01*
X166885214Y-73732380D02*
X166885214Y-72732380D01*
X167266166Y-72732380D01*
X167361404Y-72780000D01*
X167409023Y-72827619D01*
X167456642Y-72922857D01*
X167456642Y-73065714D01*
X167409023Y-73160952D01*
X167361404Y-73208571D01*
X167266166Y-73256190D01*
X166885214Y-73256190D01*
X168409023Y-73732380D02*
X167837595Y-73732380D01*
X168123309Y-73732380D02*
X168123309Y-72732380D01*
X168028071Y-72875238D01*
X167932833Y-72970476D01*
X167837595Y-73018095D01*
X169313785Y-72732380D02*
X168837595Y-72732380D01*
X168789976Y-73208571D01*
X168837595Y-73160952D01*
X168932833Y-73113333D01*
X169170928Y-73113333D01*
X169266166Y-73160952D01*
X169313785Y-73208571D01*
X169361404Y-73303809D01*
X169361404Y-73541904D01*
X169313785Y-73637142D01*
X169266166Y-73684761D01*
X169170928Y-73732380D01*
X168932833Y-73732380D01*
X168837595Y-73684761D01*
X168789976Y-73637142D01*
G04 #@! TO.C,R16*
X167456642Y-71192380D02*
X167123309Y-70716190D01*
X166885214Y-71192380D02*
X166885214Y-70192380D01*
X167266166Y-70192380D01*
X167361404Y-70240000D01*
X167409023Y-70287619D01*
X167456642Y-70382857D01*
X167456642Y-70525714D01*
X167409023Y-70620952D01*
X167361404Y-70668571D01*
X167266166Y-70716190D01*
X166885214Y-70716190D01*
X168409023Y-71192380D02*
X167837595Y-71192380D01*
X168123309Y-71192380D02*
X168123309Y-70192380D01*
X168028071Y-70335238D01*
X167932833Y-70430476D01*
X167837595Y-70478095D01*
X169266166Y-70192380D02*
X169075690Y-70192380D01*
X168980452Y-70240000D01*
X168932833Y-70287619D01*
X168837595Y-70430476D01*
X168789976Y-70620952D01*
X168789976Y-71001904D01*
X168837595Y-71097142D01*
X168885214Y-71144761D01*
X168980452Y-71192380D01*
X169170928Y-71192380D01*
X169266166Y-71144761D01*
X169313785Y-71097142D01*
X169361404Y-71001904D01*
X169361404Y-70763809D01*
X169313785Y-70668571D01*
X169266166Y-70620952D01*
X169170928Y-70573333D01*
X168980452Y-70573333D01*
X168885214Y-70620952D01*
X168837595Y-70668571D01*
X168789976Y-70763809D01*
G04 #@! TO.C,J3*
X124507666Y-70064380D02*
X124507666Y-70778666D01*
X124460047Y-70921523D01*
X124364809Y-71016761D01*
X124221952Y-71064380D01*
X124126714Y-71064380D01*
X124888619Y-70064380D02*
X125507666Y-70064380D01*
X125174333Y-70445333D01*
X125317190Y-70445333D01*
X125412428Y-70492952D01*
X125460047Y-70540571D01*
X125507666Y-70635809D01*
X125507666Y-70873904D01*
X125460047Y-70969142D01*
X125412428Y-71016761D01*
X125317190Y-71064380D01*
X125031476Y-71064380D01*
X124936238Y-71016761D01*
X124888619Y-70969142D01*
G04 #@! TO.C,REF\002A\002A*
X163353666Y-53342380D02*
X163020333Y-52866190D01*
X162782238Y-53342380D02*
X162782238Y-52342380D01*
X163163190Y-52342380D01*
X163258428Y-52390000D01*
X163306047Y-52437619D01*
X163353666Y-52532857D01*
X163353666Y-52675714D01*
X163306047Y-52770952D01*
X163258428Y-52818571D01*
X163163190Y-52866190D01*
X162782238Y-52866190D01*
X163782238Y-52818571D02*
X164115571Y-52818571D01*
X164258428Y-53342380D02*
X163782238Y-53342380D01*
X163782238Y-52342380D01*
X164258428Y-52342380D01*
X165020333Y-52818571D02*
X164687000Y-52818571D01*
X164687000Y-53342380D02*
X164687000Y-52342380D01*
X165163190Y-52342380D01*
X165687000Y-52342380D02*
X165687000Y-52580476D01*
X165448904Y-52485238D02*
X165687000Y-52580476D01*
X165925095Y-52485238D01*
X165544142Y-52770952D02*
X165687000Y-52580476D01*
X165829857Y-52770952D01*
X166448904Y-52342380D02*
X166448904Y-52580476D01*
X166210809Y-52485238D02*
X166448904Y-52580476D01*
X166687000Y-52485238D01*
X166306047Y-52770952D02*
X166448904Y-52580476D01*
X166591761Y-52770952D01*
X128873666Y-53342380D02*
X128540333Y-52866190D01*
X128302238Y-53342380D02*
X128302238Y-52342380D01*
X128683190Y-52342380D01*
X128778428Y-52390000D01*
X128826047Y-52437619D01*
X128873666Y-52532857D01*
X128873666Y-52675714D01*
X128826047Y-52770952D01*
X128778428Y-52818571D01*
X128683190Y-52866190D01*
X128302238Y-52866190D01*
X129302238Y-52818571D02*
X129635571Y-52818571D01*
X129778428Y-53342380D02*
X129302238Y-53342380D01*
X129302238Y-52342380D01*
X129778428Y-52342380D01*
X130540333Y-52818571D02*
X130207000Y-52818571D01*
X130207000Y-53342380D02*
X130207000Y-52342380D01*
X130683190Y-52342380D01*
X131207000Y-52342380D02*
X131207000Y-52580476D01*
X130968904Y-52485238D02*
X131207000Y-52580476D01*
X131445095Y-52485238D01*
X131064142Y-52770952D02*
X131207000Y-52580476D01*
X131349857Y-52770952D01*
X131968904Y-52342380D02*
X131968904Y-52580476D01*
X131730809Y-52485238D02*
X131968904Y-52580476D01*
X132207000Y-52485238D01*
X131826047Y-52770952D02*
X131968904Y-52580476D01*
X132111761Y-52770952D01*
X163353666Y-100342380D02*
X163020333Y-99866190D01*
X162782238Y-100342380D02*
X162782238Y-99342380D01*
X163163190Y-99342380D01*
X163258428Y-99390000D01*
X163306047Y-99437619D01*
X163353666Y-99532857D01*
X163353666Y-99675714D01*
X163306047Y-99770952D01*
X163258428Y-99818571D01*
X163163190Y-99866190D01*
X162782238Y-99866190D01*
X163782238Y-99818571D02*
X164115571Y-99818571D01*
X164258428Y-100342380D02*
X163782238Y-100342380D01*
X163782238Y-99342380D01*
X164258428Y-99342380D01*
X165020333Y-99818571D02*
X164687000Y-99818571D01*
X164687000Y-100342380D02*
X164687000Y-99342380D01*
X165163190Y-99342380D01*
X165687000Y-99342380D02*
X165687000Y-99580476D01*
X165448904Y-99485238D02*
X165687000Y-99580476D01*
X165925095Y-99485238D01*
X165544142Y-99770952D02*
X165687000Y-99580476D01*
X165829857Y-99770952D01*
X166448904Y-99342380D02*
X166448904Y-99580476D01*
X166210809Y-99485238D02*
X166448904Y-99580476D01*
X166687000Y-99485238D01*
X166306047Y-99770952D02*
X166448904Y-99580476D01*
X166591761Y-99770952D01*
X128873666Y-100342380D02*
X128540333Y-99866190D01*
X128302238Y-100342380D02*
X128302238Y-99342380D01*
X128683190Y-99342380D01*
X128778428Y-99390000D01*
X128826047Y-99437619D01*
X128873666Y-99532857D01*
X128873666Y-99675714D01*
X128826047Y-99770952D01*
X128778428Y-99818571D01*
X128683190Y-99866190D01*
X128302238Y-99866190D01*
X129302238Y-99818571D02*
X129635571Y-99818571D01*
X129778428Y-100342380D02*
X129302238Y-100342380D01*
X129302238Y-99342380D01*
X129778428Y-99342380D01*
X130540333Y-99818571D02*
X130207000Y-99818571D01*
X130207000Y-100342380D02*
X130207000Y-99342380D01*
X130683190Y-99342380D01*
X131207000Y-99342380D02*
X131207000Y-99580476D01*
X130968904Y-99485238D02*
X131207000Y-99580476D01*
X131445095Y-99485238D01*
X131064142Y-99770952D02*
X131207000Y-99580476D01*
X131349857Y-99770952D01*
X131968904Y-99342380D02*
X131968904Y-99580476D01*
X131730809Y-99485238D02*
X131968904Y-99580476D01*
X132207000Y-99485238D01*
X131826047Y-99770952D02*
X131968904Y-99580476D01*
X132111761Y-99770952D01*
G04 #@! TD*
M02*
