G04 #@! TF.GenerationSoftware,KiCad,Pcbnew,5.0.2+dfsg1-1~bpo9+1*
G04 #@! TF.CreationDate,2019-10-18T00:12:00+01:00*
G04 #@! TF.ProjectId,Sigrok-sniffer,53696772-6f6b-42d7-936e-69666665722e,rev?*
G04 #@! TF.SameCoordinates,Original*
G04 #@! TF.FileFunction,Soldermask,Bot*
G04 #@! TF.FilePolarity,Negative*
%FSLAX46Y46*%
G04 Gerber Fmt 4.6, Leading zero omitted, Abs format (unit mm)*
G04 Created by KiCad (PCBNEW 5.0.2+dfsg1-1~bpo9+1) date Fri 18 Oct 2019 00:12:00 BST*
%MOMM*%
%LPD*%
G01*
G04 APERTURE LIST*
%ADD10C,0.100000*%
G04 APERTURE END LIST*
D10*
G36*
X130989294Y-116573633D02*
X131161694Y-116625931D01*
X131161696Y-116625932D01*
X131320583Y-116710859D01*
X131320585Y-116710860D01*
X131320584Y-116710860D01*
X131459849Y-116825151D01*
X131574140Y-116964416D01*
X131659069Y-117123306D01*
X131711367Y-117295706D01*
X131729025Y-117475000D01*
X131711367Y-117654294D01*
X131659069Y-117826694D01*
X131659068Y-117826696D01*
X131574141Y-117985583D01*
X131459849Y-118124849D01*
X131320583Y-118239141D01*
X131161696Y-118324068D01*
X131161694Y-118324069D01*
X130989294Y-118376367D01*
X130854931Y-118389600D01*
X130765069Y-118389600D01*
X130630706Y-118376367D01*
X130458306Y-118324069D01*
X130458304Y-118324068D01*
X130299417Y-118239141D01*
X130160151Y-118124849D01*
X130045859Y-117985583D01*
X129960932Y-117826696D01*
X129960931Y-117826694D01*
X129908633Y-117654294D01*
X129890975Y-117475000D01*
X129908633Y-117295706D01*
X129960931Y-117123306D01*
X130045860Y-116964416D01*
X130160151Y-116825151D01*
X130299416Y-116710860D01*
X130299415Y-116710860D01*
X130299417Y-116710859D01*
X130458304Y-116625932D01*
X130458306Y-116625931D01*
X130630706Y-116573633D01*
X130765069Y-116560400D01*
X130854931Y-116560400D01*
X130989294Y-116573633D01*
X130989294Y-116573633D01*
G37*
G36*
X158929294Y-116573633D02*
X159101694Y-116625931D01*
X159101696Y-116625932D01*
X159260583Y-116710859D01*
X159260585Y-116710860D01*
X159260584Y-116710860D01*
X159399849Y-116825151D01*
X159514140Y-116964416D01*
X159599069Y-117123306D01*
X159651367Y-117295706D01*
X159669025Y-117475000D01*
X159651367Y-117654294D01*
X159599069Y-117826694D01*
X159599068Y-117826696D01*
X159514141Y-117985583D01*
X159399849Y-118124849D01*
X159260583Y-118239141D01*
X159101696Y-118324068D01*
X159101694Y-118324069D01*
X158929294Y-118376367D01*
X158794931Y-118389600D01*
X158705069Y-118389600D01*
X158570706Y-118376367D01*
X158398306Y-118324069D01*
X158398304Y-118324068D01*
X158239417Y-118239141D01*
X158100151Y-118124849D01*
X157985859Y-117985583D01*
X157900932Y-117826696D01*
X157900931Y-117826694D01*
X157848633Y-117654294D01*
X157830975Y-117475000D01*
X157848633Y-117295706D01*
X157900931Y-117123306D01*
X157985860Y-116964416D01*
X158100151Y-116825151D01*
X158239416Y-116710860D01*
X158239415Y-116710860D01*
X158239417Y-116710859D01*
X158398304Y-116625932D01*
X158398306Y-116625931D01*
X158570706Y-116573633D01*
X158705069Y-116560400D01*
X158794931Y-116560400D01*
X158929294Y-116573633D01*
X158929294Y-116573633D01*
G37*
G36*
X162204600Y-118389600D02*
X160375400Y-118389600D01*
X160375400Y-116560400D01*
X162204600Y-116560400D01*
X162204600Y-118389600D01*
X162204600Y-118389600D01*
G37*
G36*
X156389294Y-116573633D02*
X156561694Y-116625931D01*
X156561696Y-116625932D01*
X156720583Y-116710859D01*
X156720585Y-116710860D01*
X156720584Y-116710860D01*
X156859849Y-116825151D01*
X156974140Y-116964416D01*
X157059069Y-117123306D01*
X157111367Y-117295706D01*
X157129025Y-117475000D01*
X157111367Y-117654294D01*
X157059069Y-117826694D01*
X157059068Y-117826696D01*
X156974141Y-117985583D01*
X156859849Y-118124849D01*
X156720583Y-118239141D01*
X156561696Y-118324068D01*
X156561694Y-118324069D01*
X156389294Y-118376367D01*
X156254931Y-118389600D01*
X156165069Y-118389600D01*
X156030706Y-118376367D01*
X155858306Y-118324069D01*
X155858304Y-118324068D01*
X155699417Y-118239141D01*
X155560151Y-118124849D01*
X155445859Y-117985583D01*
X155360932Y-117826696D01*
X155360931Y-117826694D01*
X155308633Y-117654294D01*
X155290975Y-117475000D01*
X155308633Y-117295706D01*
X155360931Y-117123306D01*
X155445860Y-116964416D01*
X155560151Y-116825151D01*
X155699416Y-116710860D01*
X155699415Y-116710860D01*
X155699417Y-116710859D01*
X155858304Y-116625932D01*
X155858306Y-116625931D01*
X156030706Y-116573633D01*
X156165069Y-116560400D01*
X156254931Y-116560400D01*
X156389294Y-116573633D01*
X156389294Y-116573633D01*
G37*
G36*
X153849294Y-116573633D02*
X154021694Y-116625931D01*
X154021696Y-116625932D01*
X154180583Y-116710859D01*
X154180585Y-116710860D01*
X154180584Y-116710860D01*
X154319849Y-116825151D01*
X154434140Y-116964416D01*
X154519069Y-117123306D01*
X154571367Y-117295706D01*
X154589025Y-117475000D01*
X154571367Y-117654294D01*
X154519069Y-117826694D01*
X154519068Y-117826696D01*
X154434141Y-117985583D01*
X154319849Y-118124849D01*
X154180583Y-118239141D01*
X154021696Y-118324068D01*
X154021694Y-118324069D01*
X153849294Y-118376367D01*
X153714931Y-118389600D01*
X153625069Y-118389600D01*
X153490706Y-118376367D01*
X153318306Y-118324069D01*
X153318304Y-118324068D01*
X153159417Y-118239141D01*
X153020151Y-118124849D01*
X152905859Y-117985583D01*
X152820932Y-117826696D01*
X152820931Y-117826694D01*
X152768633Y-117654294D01*
X152750975Y-117475000D01*
X152768633Y-117295706D01*
X152820931Y-117123306D01*
X152905860Y-116964416D01*
X153020151Y-116825151D01*
X153159416Y-116710860D01*
X153159415Y-116710860D01*
X153159417Y-116710859D01*
X153318304Y-116625932D01*
X153318306Y-116625931D01*
X153490706Y-116573633D01*
X153625069Y-116560400D01*
X153714931Y-116560400D01*
X153849294Y-116573633D01*
X153849294Y-116573633D01*
G37*
G36*
X151309294Y-116573633D02*
X151481694Y-116625931D01*
X151481696Y-116625932D01*
X151640583Y-116710859D01*
X151640585Y-116710860D01*
X151640584Y-116710860D01*
X151779849Y-116825151D01*
X151894140Y-116964416D01*
X151979069Y-117123306D01*
X152031367Y-117295706D01*
X152049025Y-117475000D01*
X152031367Y-117654294D01*
X151979069Y-117826694D01*
X151979068Y-117826696D01*
X151894141Y-117985583D01*
X151779849Y-118124849D01*
X151640583Y-118239141D01*
X151481696Y-118324068D01*
X151481694Y-118324069D01*
X151309294Y-118376367D01*
X151174931Y-118389600D01*
X151085069Y-118389600D01*
X150950706Y-118376367D01*
X150778306Y-118324069D01*
X150778304Y-118324068D01*
X150619417Y-118239141D01*
X150480151Y-118124849D01*
X150365859Y-117985583D01*
X150280932Y-117826696D01*
X150280931Y-117826694D01*
X150228633Y-117654294D01*
X150210975Y-117475000D01*
X150228633Y-117295706D01*
X150280931Y-117123306D01*
X150365860Y-116964416D01*
X150480151Y-116825151D01*
X150619416Y-116710860D01*
X150619415Y-116710860D01*
X150619417Y-116710859D01*
X150778304Y-116625932D01*
X150778306Y-116625931D01*
X150950706Y-116573633D01*
X151085069Y-116560400D01*
X151174931Y-116560400D01*
X151309294Y-116573633D01*
X151309294Y-116573633D01*
G37*
G36*
X148769294Y-116573633D02*
X148941694Y-116625931D01*
X148941696Y-116625932D01*
X149100583Y-116710859D01*
X149100585Y-116710860D01*
X149100584Y-116710860D01*
X149239849Y-116825151D01*
X149354140Y-116964416D01*
X149439069Y-117123306D01*
X149491367Y-117295706D01*
X149509025Y-117475000D01*
X149491367Y-117654294D01*
X149439069Y-117826694D01*
X149439068Y-117826696D01*
X149354141Y-117985583D01*
X149239849Y-118124849D01*
X149100583Y-118239141D01*
X148941696Y-118324068D01*
X148941694Y-118324069D01*
X148769294Y-118376367D01*
X148634931Y-118389600D01*
X148545069Y-118389600D01*
X148410706Y-118376367D01*
X148238306Y-118324069D01*
X148238304Y-118324068D01*
X148079417Y-118239141D01*
X147940151Y-118124849D01*
X147825859Y-117985583D01*
X147740932Y-117826696D01*
X147740931Y-117826694D01*
X147688633Y-117654294D01*
X147670975Y-117475000D01*
X147688633Y-117295706D01*
X147740931Y-117123306D01*
X147825860Y-116964416D01*
X147940151Y-116825151D01*
X148079416Y-116710860D01*
X148079415Y-116710860D01*
X148079417Y-116710859D01*
X148238304Y-116625932D01*
X148238306Y-116625931D01*
X148410706Y-116573633D01*
X148545069Y-116560400D01*
X148634931Y-116560400D01*
X148769294Y-116573633D01*
X148769294Y-116573633D01*
G37*
G36*
X146229294Y-116573633D02*
X146401694Y-116625931D01*
X146401696Y-116625932D01*
X146560583Y-116710859D01*
X146560585Y-116710860D01*
X146560584Y-116710860D01*
X146699849Y-116825151D01*
X146814140Y-116964416D01*
X146899069Y-117123306D01*
X146951367Y-117295706D01*
X146969025Y-117475000D01*
X146951367Y-117654294D01*
X146899069Y-117826694D01*
X146899068Y-117826696D01*
X146814141Y-117985583D01*
X146699849Y-118124849D01*
X146560583Y-118239141D01*
X146401696Y-118324068D01*
X146401694Y-118324069D01*
X146229294Y-118376367D01*
X146094931Y-118389600D01*
X146005069Y-118389600D01*
X145870706Y-118376367D01*
X145698306Y-118324069D01*
X145698304Y-118324068D01*
X145539417Y-118239141D01*
X145400151Y-118124849D01*
X145285859Y-117985583D01*
X145200932Y-117826696D01*
X145200931Y-117826694D01*
X145148633Y-117654294D01*
X145130975Y-117475000D01*
X145148633Y-117295706D01*
X145200931Y-117123306D01*
X145285860Y-116964416D01*
X145400151Y-116825151D01*
X145539416Y-116710860D01*
X145539415Y-116710860D01*
X145539417Y-116710859D01*
X145698304Y-116625932D01*
X145698306Y-116625931D01*
X145870706Y-116573633D01*
X146005069Y-116560400D01*
X146094931Y-116560400D01*
X146229294Y-116573633D01*
X146229294Y-116573633D01*
G37*
G36*
X143689294Y-116573633D02*
X143861694Y-116625931D01*
X143861696Y-116625932D01*
X144020583Y-116710859D01*
X144020585Y-116710860D01*
X144020584Y-116710860D01*
X144159849Y-116825151D01*
X144274140Y-116964416D01*
X144359069Y-117123306D01*
X144411367Y-117295706D01*
X144429025Y-117475000D01*
X144411367Y-117654294D01*
X144359069Y-117826694D01*
X144359068Y-117826696D01*
X144274141Y-117985583D01*
X144159849Y-118124849D01*
X144020583Y-118239141D01*
X143861696Y-118324068D01*
X143861694Y-118324069D01*
X143689294Y-118376367D01*
X143554931Y-118389600D01*
X143465069Y-118389600D01*
X143330706Y-118376367D01*
X143158306Y-118324069D01*
X143158304Y-118324068D01*
X142999417Y-118239141D01*
X142860151Y-118124849D01*
X142745859Y-117985583D01*
X142660932Y-117826696D01*
X142660931Y-117826694D01*
X142608633Y-117654294D01*
X142590975Y-117475000D01*
X142608633Y-117295706D01*
X142660931Y-117123306D01*
X142745860Y-116964416D01*
X142860151Y-116825151D01*
X142999416Y-116710860D01*
X142999415Y-116710860D01*
X142999417Y-116710859D01*
X143158304Y-116625932D01*
X143158306Y-116625931D01*
X143330706Y-116573633D01*
X143465069Y-116560400D01*
X143554931Y-116560400D01*
X143689294Y-116573633D01*
X143689294Y-116573633D01*
G37*
G36*
X141149294Y-116573633D02*
X141321694Y-116625931D01*
X141321696Y-116625932D01*
X141480583Y-116710859D01*
X141480585Y-116710860D01*
X141480584Y-116710860D01*
X141619849Y-116825151D01*
X141734140Y-116964416D01*
X141819069Y-117123306D01*
X141871367Y-117295706D01*
X141889025Y-117475000D01*
X141871367Y-117654294D01*
X141819069Y-117826694D01*
X141819068Y-117826696D01*
X141734141Y-117985583D01*
X141619849Y-118124849D01*
X141480583Y-118239141D01*
X141321696Y-118324068D01*
X141321694Y-118324069D01*
X141149294Y-118376367D01*
X141014931Y-118389600D01*
X140925069Y-118389600D01*
X140790706Y-118376367D01*
X140618306Y-118324069D01*
X140618304Y-118324068D01*
X140459417Y-118239141D01*
X140320151Y-118124849D01*
X140205859Y-117985583D01*
X140120932Y-117826696D01*
X140120931Y-117826694D01*
X140068633Y-117654294D01*
X140050975Y-117475000D01*
X140068633Y-117295706D01*
X140120931Y-117123306D01*
X140205860Y-116964416D01*
X140320151Y-116825151D01*
X140459416Y-116710860D01*
X140459415Y-116710860D01*
X140459417Y-116710859D01*
X140618304Y-116625932D01*
X140618306Y-116625931D01*
X140790706Y-116573633D01*
X140925069Y-116560400D01*
X141014931Y-116560400D01*
X141149294Y-116573633D01*
X141149294Y-116573633D01*
G37*
G36*
X138609294Y-116573633D02*
X138781694Y-116625931D01*
X138781696Y-116625932D01*
X138940583Y-116710859D01*
X138940585Y-116710860D01*
X138940584Y-116710860D01*
X139079849Y-116825151D01*
X139194140Y-116964416D01*
X139279069Y-117123306D01*
X139331367Y-117295706D01*
X139349025Y-117475000D01*
X139331367Y-117654294D01*
X139279069Y-117826694D01*
X139279068Y-117826696D01*
X139194141Y-117985583D01*
X139079849Y-118124849D01*
X138940583Y-118239141D01*
X138781696Y-118324068D01*
X138781694Y-118324069D01*
X138609294Y-118376367D01*
X138474931Y-118389600D01*
X138385069Y-118389600D01*
X138250706Y-118376367D01*
X138078306Y-118324069D01*
X138078304Y-118324068D01*
X137919417Y-118239141D01*
X137780151Y-118124849D01*
X137665859Y-117985583D01*
X137580932Y-117826696D01*
X137580931Y-117826694D01*
X137528633Y-117654294D01*
X137510975Y-117475000D01*
X137528633Y-117295706D01*
X137580931Y-117123306D01*
X137665860Y-116964416D01*
X137780151Y-116825151D01*
X137919416Y-116710860D01*
X137919415Y-116710860D01*
X137919417Y-116710859D01*
X138078304Y-116625932D01*
X138078306Y-116625931D01*
X138250706Y-116573633D01*
X138385069Y-116560400D01*
X138474931Y-116560400D01*
X138609294Y-116573633D01*
X138609294Y-116573633D01*
G37*
G36*
X136069294Y-116573633D02*
X136241694Y-116625931D01*
X136241696Y-116625932D01*
X136400583Y-116710859D01*
X136400585Y-116710860D01*
X136400584Y-116710860D01*
X136539849Y-116825151D01*
X136654140Y-116964416D01*
X136739069Y-117123306D01*
X136791367Y-117295706D01*
X136809025Y-117475000D01*
X136791367Y-117654294D01*
X136739069Y-117826694D01*
X136739068Y-117826696D01*
X136654141Y-117985583D01*
X136539849Y-118124849D01*
X136400583Y-118239141D01*
X136241696Y-118324068D01*
X136241694Y-118324069D01*
X136069294Y-118376367D01*
X135934931Y-118389600D01*
X135845069Y-118389600D01*
X135710706Y-118376367D01*
X135538306Y-118324069D01*
X135538304Y-118324068D01*
X135379417Y-118239141D01*
X135240151Y-118124849D01*
X135125859Y-117985583D01*
X135040932Y-117826696D01*
X135040931Y-117826694D01*
X134988633Y-117654294D01*
X134970975Y-117475000D01*
X134988633Y-117295706D01*
X135040931Y-117123306D01*
X135125860Y-116964416D01*
X135240151Y-116825151D01*
X135379416Y-116710860D01*
X135379415Y-116710860D01*
X135379417Y-116710859D01*
X135538304Y-116625932D01*
X135538306Y-116625931D01*
X135710706Y-116573633D01*
X135845069Y-116560400D01*
X135934931Y-116560400D01*
X136069294Y-116573633D01*
X136069294Y-116573633D01*
G37*
G36*
X133529294Y-116573633D02*
X133701694Y-116625931D01*
X133701696Y-116625932D01*
X133860583Y-116710859D01*
X133860585Y-116710860D01*
X133860584Y-116710860D01*
X133999849Y-116825151D01*
X134114140Y-116964416D01*
X134199069Y-117123306D01*
X134251367Y-117295706D01*
X134269025Y-117475000D01*
X134251367Y-117654294D01*
X134199069Y-117826694D01*
X134199068Y-117826696D01*
X134114141Y-117985583D01*
X133999849Y-118124849D01*
X133860583Y-118239141D01*
X133701696Y-118324068D01*
X133701694Y-118324069D01*
X133529294Y-118376367D01*
X133394931Y-118389600D01*
X133305069Y-118389600D01*
X133170706Y-118376367D01*
X132998306Y-118324069D01*
X132998304Y-118324068D01*
X132839417Y-118239141D01*
X132700151Y-118124849D01*
X132585859Y-117985583D01*
X132500932Y-117826696D01*
X132500931Y-117826694D01*
X132448633Y-117654294D01*
X132430975Y-117475000D01*
X132448633Y-117295706D01*
X132500931Y-117123306D01*
X132585860Y-116964416D01*
X132700151Y-116825151D01*
X132839416Y-116710860D01*
X132839415Y-116710860D01*
X132839417Y-116710859D01*
X132998304Y-116625932D01*
X132998306Y-116625931D01*
X133170706Y-116573633D01*
X133305069Y-116560400D01*
X133394931Y-116560400D01*
X133529294Y-116573633D01*
X133529294Y-116573633D01*
G37*
G36*
X161469294Y-114033633D02*
X161641694Y-114085931D01*
X161641696Y-114085932D01*
X161800583Y-114170859D01*
X161800585Y-114170860D01*
X161800584Y-114170860D01*
X161939849Y-114285151D01*
X162054140Y-114424416D01*
X162139069Y-114583306D01*
X162191367Y-114755706D01*
X162209025Y-114935000D01*
X162191367Y-115114294D01*
X162139069Y-115286694D01*
X162139068Y-115286696D01*
X162054141Y-115445583D01*
X161939849Y-115584849D01*
X161800583Y-115699141D01*
X161641696Y-115784068D01*
X161641694Y-115784069D01*
X161469294Y-115836367D01*
X161334931Y-115849600D01*
X161245069Y-115849600D01*
X161110706Y-115836367D01*
X160938306Y-115784069D01*
X160938304Y-115784068D01*
X160779417Y-115699141D01*
X160640151Y-115584849D01*
X160525859Y-115445583D01*
X160440932Y-115286696D01*
X160440931Y-115286694D01*
X160388633Y-115114294D01*
X160370975Y-114935000D01*
X160388633Y-114755706D01*
X160440931Y-114583306D01*
X160525860Y-114424416D01*
X160640151Y-114285151D01*
X160779416Y-114170860D01*
X160779415Y-114170860D01*
X160779417Y-114170859D01*
X160938304Y-114085932D01*
X160938306Y-114085931D01*
X161110706Y-114033633D01*
X161245069Y-114020400D01*
X161334931Y-114020400D01*
X161469294Y-114033633D01*
X161469294Y-114033633D01*
G37*
G36*
X130989294Y-114033633D02*
X131161694Y-114085931D01*
X131161696Y-114085932D01*
X131320583Y-114170859D01*
X131320585Y-114170860D01*
X131320584Y-114170860D01*
X131459849Y-114285151D01*
X131574140Y-114424416D01*
X131659069Y-114583306D01*
X131711367Y-114755706D01*
X131729025Y-114935000D01*
X131711367Y-115114294D01*
X131659069Y-115286694D01*
X131659068Y-115286696D01*
X131574141Y-115445583D01*
X131459849Y-115584849D01*
X131320583Y-115699141D01*
X131161696Y-115784068D01*
X131161694Y-115784069D01*
X130989294Y-115836367D01*
X130854931Y-115849600D01*
X130765069Y-115849600D01*
X130630706Y-115836367D01*
X130458306Y-115784069D01*
X130458304Y-115784068D01*
X130299417Y-115699141D01*
X130160151Y-115584849D01*
X130045859Y-115445583D01*
X129960932Y-115286696D01*
X129960931Y-115286694D01*
X129908633Y-115114294D01*
X129890975Y-114935000D01*
X129908633Y-114755706D01*
X129960931Y-114583306D01*
X130045860Y-114424416D01*
X130160151Y-114285151D01*
X130299416Y-114170860D01*
X130299415Y-114170860D01*
X130299417Y-114170859D01*
X130458304Y-114085932D01*
X130458306Y-114085931D01*
X130630706Y-114033633D01*
X130765069Y-114020400D01*
X130854931Y-114020400D01*
X130989294Y-114033633D01*
X130989294Y-114033633D01*
G37*
G36*
X133529294Y-114033633D02*
X133701694Y-114085931D01*
X133701696Y-114085932D01*
X133860583Y-114170859D01*
X133860585Y-114170860D01*
X133860584Y-114170860D01*
X133999849Y-114285151D01*
X134114140Y-114424416D01*
X134199069Y-114583306D01*
X134251367Y-114755706D01*
X134269025Y-114935000D01*
X134251367Y-115114294D01*
X134199069Y-115286694D01*
X134199068Y-115286696D01*
X134114141Y-115445583D01*
X133999849Y-115584849D01*
X133860583Y-115699141D01*
X133701696Y-115784068D01*
X133701694Y-115784069D01*
X133529294Y-115836367D01*
X133394931Y-115849600D01*
X133305069Y-115849600D01*
X133170706Y-115836367D01*
X132998306Y-115784069D01*
X132998304Y-115784068D01*
X132839417Y-115699141D01*
X132700151Y-115584849D01*
X132585859Y-115445583D01*
X132500932Y-115286696D01*
X132500931Y-115286694D01*
X132448633Y-115114294D01*
X132430975Y-114935000D01*
X132448633Y-114755706D01*
X132500931Y-114583306D01*
X132585860Y-114424416D01*
X132700151Y-114285151D01*
X132839416Y-114170860D01*
X132839415Y-114170860D01*
X132839417Y-114170859D01*
X132998304Y-114085932D01*
X132998306Y-114085931D01*
X133170706Y-114033633D01*
X133305069Y-114020400D01*
X133394931Y-114020400D01*
X133529294Y-114033633D01*
X133529294Y-114033633D01*
G37*
G36*
X136069294Y-114033633D02*
X136241694Y-114085931D01*
X136241696Y-114085932D01*
X136400583Y-114170859D01*
X136400585Y-114170860D01*
X136400584Y-114170860D01*
X136539849Y-114285151D01*
X136654140Y-114424416D01*
X136739069Y-114583306D01*
X136791367Y-114755706D01*
X136809025Y-114935000D01*
X136791367Y-115114294D01*
X136739069Y-115286694D01*
X136739068Y-115286696D01*
X136654141Y-115445583D01*
X136539849Y-115584849D01*
X136400583Y-115699141D01*
X136241696Y-115784068D01*
X136241694Y-115784069D01*
X136069294Y-115836367D01*
X135934931Y-115849600D01*
X135845069Y-115849600D01*
X135710706Y-115836367D01*
X135538306Y-115784069D01*
X135538304Y-115784068D01*
X135379417Y-115699141D01*
X135240151Y-115584849D01*
X135125859Y-115445583D01*
X135040932Y-115286696D01*
X135040931Y-115286694D01*
X134988633Y-115114294D01*
X134970975Y-114935000D01*
X134988633Y-114755706D01*
X135040931Y-114583306D01*
X135125860Y-114424416D01*
X135240151Y-114285151D01*
X135379416Y-114170860D01*
X135379415Y-114170860D01*
X135379417Y-114170859D01*
X135538304Y-114085932D01*
X135538306Y-114085931D01*
X135710706Y-114033633D01*
X135845069Y-114020400D01*
X135934931Y-114020400D01*
X136069294Y-114033633D01*
X136069294Y-114033633D01*
G37*
G36*
X138609294Y-114033633D02*
X138781694Y-114085931D01*
X138781696Y-114085932D01*
X138940583Y-114170859D01*
X138940585Y-114170860D01*
X138940584Y-114170860D01*
X139079849Y-114285151D01*
X139194140Y-114424416D01*
X139279069Y-114583306D01*
X139331367Y-114755706D01*
X139349025Y-114935000D01*
X139331367Y-115114294D01*
X139279069Y-115286694D01*
X139279068Y-115286696D01*
X139194141Y-115445583D01*
X139079849Y-115584849D01*
X138940583Y-115699141D01*
X138781696Y-115784068D01*
X138781694Y-115784069D01*
X138609294Y-115836367D01*
X138474931Y-115849600D01*
X138385069Y-115849600D01*
X138250706Y-115836367D01*
X138078306Y-115784069D01*
X138078304Y-115784068D01*
X137919417Y-115699141D01*
X137780151Y-115584849D01*
X137665859Y-115445583D01*
X137580932Y-115286696D01*
X137580931Y-115286694D01*
X137528633Y-115114294D01*
X137510975Y-114935000D01*
X137528633Y-114755706D01*
X137580931Y-114583306D01*
X137665860Y-114424416D01*
X137780151Y-114285151D01*
X137919416Y-114170860D01*
X137919415Y-114170860D01*
X137919417Y-114170859D01*
X138078304Y-114085932D01*
X138078306Y-114085931D01*
X138250706Y-114033633D01*
X138385069Y-114020400D01*
X138474931Y-114020400D01*
X138609294Y-114033633D01*
X138609294Y-114033633D01*
G37*
G36*
X141149294Y-114033633D02*
X141321694Y-114085931D01*
X141321696Y-114085932D01*
X141480583Y-114170859D01*
X141480585Y-114170860D01*
X141480584Y-114170860D01*
X141619849Y-114285151D01*
X141734140Y-114424416D01*
X141819069Y-114583306D01*
X141871367Y-114755706D01*
X141889025Y-114935000D01*
X141871367Y-115114294D01*
X141819069Y-115286694D01*
X141819068Y-115286696D01*
X141734141Y-115445583D01*
X141619849Y-115584849D01*
X141480583Y-115699141D01*
X141321696Y-115784068D01*
X141321694Y-115784069D01*
X141149294Y-115836367D01*
X141014931Y-115849600D01*
X140925069Y-115849600D01*
X140790706Y-115836367D01*
X140618306Y-115784069D01*
X140618304Y-115784068D01*
X140459417Y-115699141D01*
X140320151Y-115584849D01*
X140205859Y-115445583D01*
X140120932Y-115286696D01*
X140120931Y-115286694D01*
X140068633Y-115114294D01*
X140050975Y-114935000D01*
X140068633Y-114755706D01*
X140120931Y-114583306D01*
X140205860Y-114424416D01*
X140320151Y-114285151D01*
X140459416Y-114170860D01*
X140459415Y-114170860D01*
X140459417Y-114170859D01*
X140618304Y-114085932D01*
X140618306Y-114085931D01*
X140790706Y-114033633D01*
X140925069Y-114020400D01*
X141014931Y-114020400D01*
X141149294Y-114033633D01*
X141149294Y-114033633D01*
G37*
G36*
X143689294Y-114033633D02*
X143861694Y-114085931D01*
X143861696Y-114085932D01*
X144020583Y-114170859D01*
X144020585Y-114170860D01*
X144020584Y-114170860D01*
X144159849Y-114285151D01*
X144274140Y-114424416D01*
X144359069Y-114583306D01*
X144411367Y-114755706D01*
X144429025Y-114935000D01*
X144411367Y-115114294D01*
X144359069Y-115286694D01*
X144359068Y-115286696D01*
X144274141Y-115445583D01*
X144159849Y-115584849D01*
X144020583Y-115699141D01*
X143861696Y-115784068D01*
X143861694Y-115784069D01*
X143689294Y-115836367D01*
X143554931Y-115849600D01*
X143465069Y-115849600D01*
X143330706Y-115836367D01*
X143158306Y-115784069D01*
X143158304Y-115784068D01*
X142999417Y-115699141D01*
X142860151Y-115584849D01*
X142745859Y-115445583D01*
X142660932Y-115286696D01*
X142660931Y-115286694D01*
X142608633Y-115114294D01*
X142590975Y-114935000D01*
X142608633Y-114755706D01*
X142660931Y-114583306D01*
X142745860Y-114424416D01*
X142860151Y-114285151D01*
X142999416Y-114170860D01*
X142999415Y-114170860D01*
X142999417Y-114170859D01*
X143158304Y-114085932D01*
X143158306Y-114085931D01*
X143330706Y-114033633D01*
X143465069Y-114020400D01*
X143554931Y-114020400D01*
X143689294Y-114033633D01*
X143689294Y-114033633D01*
G37*
G36*
X148769294Y-114033633D02*
X148941694Y-114085931D01*
X148941696Y-114085932D01*
X149100583Y-114170859D01*
X149100585Y-114170860D01*
X149100584Y-114170860D01*
X149239849Y-114285151D01*
X149354140Y-114424416D01*
X149439069Y-114583306D01*
X149491367Y-114755706D01*
X149509025Y-114935000D01*
X149491367Y-115114294D01*
X149439069Y-115286694D01*
X149439068Y-115286696D01*
X149354141Y-115445583D01*
X149239849Y-115584849D01*
X149100583Y-115699141D01*
X148941696Y-115784068D01*
X148941694Y-115784069D01*
X148769294Y-115836367D01*
X148634931Y-115849600D01*
X148545069Y-115849600D01*
X148410706Y-115836367D01*
X148238306Y-115784069D01*
X148238304Y-115784068D01*
X148079417Y-115699141D01*
X147940151Y-115584849D01*
X147825859Y-115445583D01*
X147740932Y-115286696D01*
X147740931Y-115286694D01*
X147688633Y-115114294D01*
X147670975Y-114935000D01*
X147688633Y-114755706D01*
X147740931Y-114583306D01*
X147825860Y-114424416D01*
X147940151Y-114285151D01*
X148079416Y-114170860D01*
X148079415Y-114170860D01*
X148079417Y-114170859D01*
X148238304Y-114085932D01*
X148238306Y-114085931D01*
X148410706Y-114033633D01*
X148545069Y-114020400D01*
X148634931Y-114020400D01*
X148769294Y-114033633D01*
X148769294Y-114033633D01*
G37*
G36*
X151309294Y-114033633D02*
X151481694Y-114085931D01*
X151481696Y-114085932D01*
X151640583Y-114170859D01*
X151640585Y-114170860D01*
X151640584Y-114170860D01*
X151779849Y-114285151D01*
X151894140Y-114424416D01*
X151979069Y-114583306D01*
X152031367Y-114755706D01*
X152049025Y-114935000D01*
X152031367Y-115114294D01*
X151979069Y-115286694D01*
X151979068Y-115286696D01*
X151894141Y-115445583D01*
X151779849Y-115584849D01*
X151640583Y-115699141D01*
X151481696Y-115784068D01*
X151481694Y-115784069D01*
X151309294Y-115836367D01*
X151174931Y-115849600D01*
X151085069Y-115849600D01*
X150950706Y-115836367D01*
X150778306Y-115784069D01*
X150778304Y-115784068D01*
X150619417Y-115699141D01*
X150480151Y-115584849D01*
X150365859Y-115445583D01*
X150280932Y-115286696D01*
X150280931Y-115286694D01*
X150228633Y-115114294D01*
X150210975Y-114935000D01*
X150228633Y-114755706D01*
X150280931Y-114583306D01*
X150365860Y-114424416D01*
X150480151Y-114285151D01*
X150619416Y-114170860D01*
X150619415Y-114170860D01*
X150619417Y-114170859D01*
X150778304Y-114085932D01*
X150778306Y-114085931D01*
X150950706Y-114033633D01*
X151085069Y-114020400D01*
X151174931Y-114020400D01*
X151309294Y-114033633D01*
X151309294Y-114033633D01*
G37*
G36*
X153849294Y-114033633D02*
X154021694Y-114085931D01*
X154021696Y-114085932D01*
X154180583Y-114170859D01*
X154180585Y-114170860D01*
X154180584Y-114170860D01*
X154319849Y-114285151D01*
X154434140Y-114424416D01*
X154519069Y-114583306D01*
X154571367Y-114755706D01*
X154589025Y-114935000D01*
X154571367Y-115114294D01*
X154519069Y-115286694D01*
X154519068Y-115286696D01*
X154434141Y-115445583D01*
X154319849Y-115584849D01*
X154180583Y-115699141D01*
X154021696Y-115784068D01*
X154021694Y-115784069D01*
X153849294Y-115836367D01*
X153714931Y-115849600D01*
X153625069Y-115849600D01*
X153490706Y-115836367D01*
X153318306Y-115784069D01*
X153318304Y-115784068D01*
X153159417Y-115699141D01*
X153020151Y-115584849D01*
X152905859Y-115445583D01*
X152820932Y-115286696D01*
X152820931Y-115286694D01*
X152768633Y-115114294D01*
X152750975Y-114935000D01*
X152768633Y-114755706D01*
X152820931Y-114583306D01*
X152905860Y-114424416D01*
X153020151Y-114285151D01*
X153159416Y-114170860D01*
X153159415Y-114170860D01*
X153159417Y-114170859D01*
X153318304Y-114085932D01*
X153318306Y-114085931D01*
X153490706Y-114033633D01*
X153625069Y-114020400D01*
X153714931Y-114020400D01*
X153849294Y-114033633D01*
X153849294Y-114033633D01*
G37*
G36*
X156389294Y-114033633D02*
X156561694Y-114085931D01*
X156561696Y-114085932D01*
X156720583Y-114170859D01*
X156720585Y-114170860D01*
X156720584Y-114170860D01*
X156859849Y-114285151D01*
X156974140Y-114424416D01*
X157059069Y-114583306D01*
X157111367Y-114755706D01*
X157129025Y-114935000D01*
X157111367Y-115114294D01*
X157059069Y-115286694D01*
X157059068Y-115286696D01*
X156974141Y-115445583D01*
X156859849Y-115584849D01*
X156720583Y-115699141D01*
X156561696Y-115784068D01*
X156561694Y-115784069D01*
X156389294Y-115836367D01*
X156254931Y-115849600D01*
X156165069Y-115849600D01*
X156030706Y-115836367D01*
X155858306Y-115784069D01*
X155858304Y-115784068D01*
X155699417Y-115699141D01*
X155560151Y-115584849D01*
X155445859Y-115445583D01*
X155360932Y-115286696D01*
X155360931Y-115286694D01*
X155308633Y-115114294D01*
X155290975Y-114935000D01*
X155308633Y-114755706D01*
X155360931Y-114583306D01*
X155445860Y-114424416D01*
X155560151Y-114285151D01*
X155699416Y-114170860D01*
X155699415Y-114170860D01*
X155699417Y-114170859D01*
X155858304Y-114085932D01*
X155858306Y-114085931D01*
X156030706Y-114033633D01*
X156165069Y-114020400D01*
X156254931Y-114020400D01*
X156389294Y-114033633D01*
X156389294Y-114033633D01*
G37*
G36*
X146229294Y-114033633D02*
X146401694Y-114085931D01*
X146401696Y-114085932D01*
X146560583Y-114170859D01*
X146560585Y-114170860D01*
X146560584Y-114170860D01*
X146699849Y-114285151D01*
X146814140Y-114424416D01*
X146899069Y-114583306D01*
X146951367Y-114755706D01*
X146969025Y-114935000D01*
X146951367Y-115114294D01*
X146899069Y-115286694D01*
X146899068Y-115286696D01*
X146814141Y-115445583D01*
X146699849Y-115584849D01*
X146560583Y-115699141D01*
X146401696Y-115784068D01*
X146401694Y-115784069D01*
X146229294Y-115836367D01*
X146094931Y-115849600D01*
X146005069Y-115849600D01*
X145870706Y-115836367D01*
X145698306Y-115784069D01*
X145698304Y-115784068D01*
X145539417Y-115699141D01*
X145400151Y-115584849D01*
X145285859Y-115445583D01*
X145200932Y-115286696D01*
X145200931Y-115286694D01*
X145148633Y-115114294D01*
X145130975Y-114935000D01*
X145148633Y-114755706D01*
X145200931Y-114583306D01*
X145285860Y-114424416D01*
X145400151Y-114285151D01*
X145539416Y-114170860D01*
X145539415Y-114170860D01*
X145539417Y-114170859D01*
X145698304Y-114085932D01*
X145698306Y-114085931D01*
X145870706Y-114033633D01*
X146005069Y-114020400D01*
X146094931Y-114020400D01*
X146229294Y-114033633D01*
X146229294Y-114033633D01*
G37*
G36*
X158929294Y-114033633D02*
X159101694Y-114085931D01*
X159101696Y-114085932D01*
X159260583Y-114170859D01*
X159260585Y-114170860D01*
X159260584Y-114170860D01*
X159399849Y-114285151D01*
X159514140Y-114424416D01*
X159599069Y-114583306D01*
X159651367Y-114755706D01*
X159669025Y-114935000D01*
X159651367Y-115114294D01*
X159599069Y-115286694D01*
X159599068Y-115286696D01*
X159514141Y-115445583D01*
X159399849Y-115584849D01*
X159260583Y-115699141D01*
X159101696Y-115784068D01*
X159101694Y-115784069D01*
X158929294Y-115836367D01*
X158794931Y-115849600D01*
X158705069Y-115849600D01*
X158570706Y-115836367D01*
X158398306Y-115784069D01*
X158398304Y-115784068D01*
X158239417Y-115699141D01*
X158100151Y-115584849D01*
X157985859Y-115445583D01*
X157900932Y-115286696D01*
X157900931Y-115286694D01*
X157848633Y-115114294D01*
X157830975Y-114935000D01*
X157848633Y-114755706D01*
X157900931Y-114583306D01*
X157985860Y-114424416D01*
X158100151Y-114285151D01*
X158239416Y-114170860D01*
X158239415Y-114170860D01*
X158239417Y-114170859D01*
X158398304Y-114085932D01*
X158398306Y-114085931D01*
X158570706Y-114033633D01*
X158705069Y-114020400D01*
X158794931Y-114020400D01*
X158929294Y-114033633D01*
X158929294Y-114033633D01*
G37*
G36*
X114351989Y-101063373D02*
X114939083Y-101306555D01*
X115467458Y-101659604D01*
X115916796Y-102108942D01*
X116269845Y-102637317D01*
X116513027Y-103224411D01*
X116637000Y-103847665D01*
X116637000Y-104483135D01*
X116513027Y-105106389D01*
X116269845Y-105693483D01*
X115916796Y-106221858D01*
X115467458Y-106671196D01*
X114939083Y-107024245D01*
X114351989Y-107267427D01*
X113728735Y-107391400D01*
X113093265Y-107391400D01*
X112470011Y-107267427D01*
X111882917Y-107024245D01*
X111354542Y-106671196D01*
X110905204Y-106221858D01*
X110552155Y-105693483D01*
X110308973Y-105106389D01*
X110185000Y-104483135D01*
X110185000Y-103847665D01*
X110308973Y-103224411D01*
X110552155Y-102637317D01*
X110905204Y-102108942D01*
X111354542Y-101659604D01*
X111882917Y-101306555D01*
X112470011Y-101063373D01*
X113093265Y-100939400D01*
X113728735Y-100939400D01*
X114351989Y-101063373D01*
X114351989Y-101063373D01*
G37*
G36*
X182677989Y-101063373D02*
X183265083Y-101306555D01*
X183793458Y-101659604D01*
X184242796Y-102108942D01*
X184595845Y-102637317D01*
X184839027Y-103224411D01*
X184963000Y-103847665D01*
X184963000Y-104483135D01*
X184839027Y-105106389D01*
X184595845Y-105693483D01*
X184242796Y-106221858D01*
X183793458Y-106671196D01*
X183265083Y-107024245D01*
X182677989Y-107267427D01*
X182054735Y-107391400D01*
X181419265Y-107391400D01*
X180796011Y-107267427D01*
X180208917Y-107024245D01*
X179680542Y-106671196D01*
X179231204Y-106221858D01*
X178878155Y-105693483D01*
X178634973Y-105106389D01*
X178511000Y-104483135D01*
X178511000Y-103847665D01*
X178634973Y-103224411D01*
X178878155Y-102637317D01*
X179231204Y-102108942D01*
X179680542Y-101659604D01*
X180208917Y-101306555D01*
X180796011Y-101063373D01*
X181419265Y-100939400D01*
X182054735Y-100939400D01*
X182677989Y-101063373D01*
X182677989Y-101063373D01*
G37*
G36*
X130732331Y-102658211D02*
X131060092Y-102793974D01*
X131355073Y-102991074D01*
X131605926Y-103241927D01*
X131803026Y-103536908D01*
X131938789Y-103864669D01*
X132008000Y-104212616D01*
X132008000Y-104567384D01*
X131938789Y-104915331D01*
X131803026Y-105243092D01*
X131605926Y-105538073D01*
X131355073Y-105788926D01*
X131060092Y-105986026D01*
X130732331Y-106121789D01*
X130384384Y-106191000D01*
X130029616Y-106191000D01*
X129681669Y-106121789D01*
X129353908Y-105986026D01*
X129058927Y-105788926D01*
X128808074Y-105538073D01*
X128610974Y-105243092D01*
X128475211Y-104915331D01*
X128406000Y-104567384D01*
X128406000Y-104212616D01*
X128475211Y-103864669D01*
X128610974Y-103536908D01*
X128808074Y-103241927D01*
X129058927Y-102991074D01*
X129353908Y-102793974D01*
X129681669Y-102658211D01*
X130029616Y-102589000D01*
X130384384Y-102589000D01*
X130732331Y-102658211D01*
X130732331Y-102658211D01*
G37*
G36*
X165212331Y-102658211D02*
X165540092Y-102793974D01*
X165835073Y-102991074D01*
X166085926Y-103241927D01*
X166283026Y-103536908D01*
X166418789Y-103864669D01*
X166488000Y-104212616D01*
X166488000Y-104567384D01*
X166418789Y-104915331D01*
X166283026Y-105243092D01*
X166085926Y-105538073D01*
X165835073Y-105788926D01*
X165540092Y-105986026D01*
X165212331Y-106121789D01*
X164864384Y-106191000D01*
X164509616Y-106191000D01*
X164161669Y-106121789D01*
X163833908Y-105986026D01*
X163538927Y-105788926D01*
X163288074Y-105538073D01*
X163090974Y-105243092D01*
X162955211Y-104915331D01*
X162886000Y-104567384D01*
X162886000Y-104212616D01*
X162955211Y-103864669D01*
X163090974Y-103536908D01*
X163288074Y-103241927D01*
X163538927Y-102991074D01*
X163833908Y-102793974D01*
X164161669Y-102658211D01*
X164509616Y-102589000D01*
X164864384Y-102589000D01*
X165212331Y-102658211D01*
X165212331Y-102658211D01*
G37*
G36*
X162797442Y-94355518D02*
X162863627Y-94362037D01*
X162976853Y-94396384D01*
X163033467Y-94413557D01*
X163172087Y-94487652D01*
X163189991Y-94497222D01*
X163225729Y-94526552D01*
X163327186Y-94609814D01*
X163410448Y-94711271D01*
X163439778Y-94747009D01*
X163439779Y-94747011D01*
X163523443Y-94903533D01*
X163523443Y-94903534D01*
X163574963Y-95073373D01*
X163592359Y-95250000D01*
X163574963Y-95426627D01*
X163540616Y-95539853D01*
X163523443Y-95596467D01*
X163449348Y-95735087D01*
X163439778Y-95752991D01*
X163410448Y-95788729D01*
X163327186Y-95890186D01*
X163225729Y-95973448D01*
X163189991Y-96002778D01*
X163189989Y-96002779D01*
X163033467Y-96086443D01*
X162976853Y-96103616D01*
X162863627Y-96137963D01*
X162797443Y-96144481D01*
X162731260Y-96151000D01*
X162642740Y-96151000D01*
X162576558Y-96144482D01*
X162510373Y-96137963D01*
X162397147Y-96103616D01*
X162340533Y-96086443D01*
X162184011Y-96002779D01*
X162184009Y-96002778D01*
X162148271Y-95973448D01*
X162046814Y-95890186D01*
X161963552Y-95788729D01*
X161934222Y-95752991D01*
X161924652Y-95735087D01*
X161850557Y-95596467D01*
X161833384Y-95539853D01*
X161799037Y-95426627D01*
X161781641Y-95250000D01*
X161799037Y-95073373D01*
X161850557Y-94903534D01*
X161850557Y-94903533D01*
X161934221Y-94747011D01*
X161934222Y-94747009D01*
X161963552Y-94711271D01*
X162046814Y-94609814D01*
X162148271Y-94526552D01*
X162184009Y-94497222D01*
X162201913Y-94487652D01*
X162340533Y-94413557D01*
X162397147Y-94396384D01*
X162510373Y-94362037D01*
X162576557Y-94355519D01*
X162642740Y-94349000D01*
X162731260Y-94349000D01*
X162797442Y-94355518D01*
X162797442Y-94355518D01*
G37*
G36*
X160257442Y-94355518D02*
X160323627Y-94362037D01*
X160436853Y-94396384D01*
X160493467Y-94413557D01*
X160632087Y-94487652D01*
X160649991Y-94497222D01*
X160685729Y-94526552D01*
X160787186Y-94609814D01*
X160870448Y-94711271D01*
X160899778Y-94747009D01*
X160899779Y-94747011D01*
X160983443Y-94903533D01*
X160983443Y-94903534D01*
X161034963Y-95073373D01*
X161052359Y-95250000D01*
X161034963Y-95426627D01*
X161000616Y-95539853D01*
X160983443Y-95596467D01*
X160909348Y-95735087D01*
X160899778Y-95752991D01*
X160870448Y-95788729D01*
X160787186Y-95890186D01*
X160685729Y-95973448D01*
X160649991Y-96002778D01*
X160649989Y-96002779D01*
X160493467Y-96086443D01*
X160436853Y-96103616D01*
X160323627Y-96137963D01*
X160257443Y-96144481D01*
X160191260Y-96151000D01*
X160102740Y-96151000D01*
X160036558Y-96144482D01*
X159970373Y-96137963D01*
X159857147Y-96103616D01*
X159800533Y-96086443D01*
X159644011Y-96002779D01*
X159644009Y-96002778D01*
X159608271Y-95973448D01*
X159506814Y-95890186D01*
X159423552Y-95788729D01*
X159394222Y-95752991D01*
X159384652Y-95735087D01*
X159310557Y-95596467D01*
X159293384Y-95539853D01*
X159259037Y-95426627D01*
X159241641Y-95250000D01*
X159259037Y-95073373D01*
X159310557Y-94903534D01*
X159310557Y-94903533D01*
X159394221Y-94747011D01*
X159394222Y-94747009D01*
X159423552Y-94711271D01*
X159506814Y-94609814D01*
X159608271Y-94526552D01*
X159644009Y-94497222D01*
X159661913Y-94487652D01*
X159800533Y-94413557D01*
X159857147Y-94396384D01*
X159970373Y-94362037D01*
X160036557Y-94355519D01*
X160102740Y-94349000D01*
X160191260Y-94349000D01*
X160257442Y-94355518D01*
X160257442Y-94355518D01*
G37*
G36*
X132317442Y-94355518D02*
X132383627Y-94362037D01*
X132496853Y-94396384D01*
X132553467Y-94413557D01*
X132692087Y-94487652D01*
X132709991Y-94497222D01*
X132745729Y-94526552D01*
X132847186Y-94609814D01*
X132930448Y-94711271D01*
X132959778Y-94747009D01*
X132959779Y-94747011D01*
X133043443Y-94903533D01*
X133043443Y-94903534D01*
X133094963Y-95073373D01*
X133112359Y-95250000D01*
X133094963Y-95426627D01*
X133060616Y-95539853D01*
X133043443Y-95596467D01*
X132969348Y-95735087D01*
X132959778Y-95752991D01*
X132930448Y-95788729D01*
X132847186Y-95890186D01*
X132745729Y-95973448D01*
X132709991Y-96002778D01*
X132709989Y-96002779D01*
X132553467Y-96086443D01*
X132496853Y-96103616D01*
X132383627Y-96137963D01*
X132317443Y-96144481D01*
X132251260Y-96151000D01*
X132162740Y-96151000D01*
X132096558Y-96144482D01*
X132030373Y-96137963D01*
X131917147Y-96103616D01*
X131860533Y-96086443D01*
X131704011Y-96002779D01*
X131704009Y-96002778D01*
X131668271Y-95973448D01*
X131566814Y-95890186D01*
X131483552Y-95788729D01*
X131454222Y-95752991D01*
X131444652Y-95735087D01*
X131370557Y-95596467D01*
X131353384Y-95539853D01*
X131319037Y-95426627D01*
X131301641Y-95250000D01*
X131319037Y-95073373D01*
X131370557Y-94903534D01*
X131370557Y-94903533D01*
X131454221Y-94747011D01*
X131454222Y-94747009D01*
X131483552Y-94711271D01*
X131566814Y-94609814D01*
X131668271Y-94526552D01*
X131704009Y-94497222D01*
X131721913Y-94487652D01*
X131860533Y-94413557D01*
X131917147Y-94396384D01*
X132030373Y-94362037D01*
X132096557Y-94355519D01*
X132162740Y-94349000D01*
X132251260Y-94349000D01*
X132317442Y-94355518D01*
X132317442Y-94355518D01*
G37*
G36*
X134857442Y-94355518D02*
X134923627Y-94362037D01*
X135036853Y-94396384D01*
X135093467Y-94413557D01*
X135232087Y-94487652D01*
X135249991Y-94497222D01*
X135285729Y-94526552D01*
X135387186Y-94609814D01*
X135470448Y-94711271D01*
X135499778Y-94747009D01*
X135499779Y-94747011D01*
X135583443Y-94903533D01*
X135583443Y-94903534D01*
X135634963Y-95073373D01*
X135652359Y-95250000D01*
X135634963Y-95426627D01*
X135600616Y-95539853D01*
X135583443Y-95596467D01*
X135509348Y-95735087D01*
X135499778Y-95752991D01*
X135470448Y-95788729D01*
X135387186Y-95890186D01*
X135285729Y-95973448D01*
X135249991Y-96002778D01*
X135249989Y-96002779D01*
X135093467Y-96086443D01*
X135036853Y-96103616D01*
X134923627Y-96137963D01*
X134857443Y-96144481D01*
X134791260Y-96151000D01*
X134702740Y-96151000D01*
X134636558Y-96144482D01*
X134570373Y-96137963D01*
X134457147Y-96103616D01*
X134400533Y-96086443D01*
X134244011Y-96002779D01*
X134244009Y-96002778D01*
X134208271Y-95973448D01*
X134106814Y-95890186D01*
X134023552Y-95788729D01*
X133994222Y-95752991D01*
X133984652Y-95735087D01*
X133910557Y-95596467D01*
X133893384Y-95539853D01*
X133859037Y-95426627D01*
X133841641Y-95250000D01*
X133859037Y-95073373D01*
X133910557Y-94903534D01*
X133910557Y-94903533D01*
X133994221Y-94747011D01*
X133994222Y-94747009D01*
X134023552Y-94711271D01*
X134106814Y-94609814D01*
X134208271Y-94526552D01*
X134244009Y-94497222D01*
X134261913Y-94487652D01*
X134400533Y-94413557D01*
X134457147Y-94396384D01*
X134570373Y-94362037D01*
X134636557Y-94355519D01*
X134702740Y-94349000D01*
X134791260Y-94349000D01*
X134857442Y-94355518D01*
X134857442Y-94355518D01*
G37*
G36*
X162797442Y-91815518D02*
X162863627Y-91822037D01*
X162976853Y-91856384D01*
X163033467Y-91873557D01*
X163162546Y-91942552D01*
X163189991Y-91957222D01*
X163225729Y-91986552D01*
X163327186Y-92069814D01*
X163410448Y-92171271D01*
X163439778Y-92207009D01*
X163439779Y-92207011D01*
X163523443Y-92363533D01*
X163540616Y-92420147D01*
X163574963Y-92533373D01*
X163592359Y-92710000D01*
X163574963Y-92886627D01*
X163540616Y-92999853D01*
X163523443Y-93056467D01*
X163472825Y-93151165D01*
X163439778Y-93212991D01*
X163410448Y-93248729D01*
X163327186Y-93350186D01*
X163225729Y-93433448D01*
X163189991Y-93462778D01*
X163189989Y-93462779D01*
X163033467Y-93546443D01*
X162976853Y-93563616D01*
X162863627Y-93597963D01*
X162797442Y-93604482D01*
X162731260Y-93611000D01*
X162642740Y-93611000D01*
X162576557Y-93604481D01*
X162510373Y-93597963D01*
X162397147Y-93563616D01*
X162340533Y-93546443D01*
X162184011Y-93462779D01*
X162184009Y-93462778D01*
X162148271Y-93433448D01*
X162046814Y-93350186D01*
X161963552Y-93248729D01*
X161934222Y-93212991D01*
X161901175Y-93151165D01*
X161850557Y-93056467D01*
X161833384Y-92999853D01*
X161799037Y-92886627D01*
X161781641Y-92710000D01*
X161799037Y-92533373D01*
X161833384Y-92420147D01*
X161850557Y-92363533D01*
X161934221Y-92207011D01*
X161934222Y-92207009D01*
X161963552Y-92171271D01*
X162046814Y-92069814D01*
X162148271Y-91986552D01*
X162184009Y-91957222D01*
X162211454Y-91942552D01*
X162340533Y-91873557D01*
X162397147Y-91856384D01*
X162510373Y-91822037D01*
X162576558Y-91815518D01*
X162642740Y-91809000D01*
X162731260Y-91809000D01*
X162797442Y-91815518D01*
X162797442Y-91815518D01*
G37*
G36*
X160257442Y-91815518D02*
X160323627Y-91822037D01*
X160436853Y-91856384D01*
X160493467Y-91873557D01*
X160622546Y-91942552D01*
X160649991Y-91957222D01*
X160685729Y-91986552D01*
X160787186Y-92069814D01*
X160870448Y-92171271D01*
X160899778Y-92207009D01*
X160899779Y-92207011D01*
X160983443Y-92363533D01*
X161000616Y-92420147D01*
X161034963Y-92533373D01*
X161052359Y-92710000D01*
X161034963Y-92886627D01*
X161000616Y-92999853D01*
X160983443Y-93056467D01*
X160932825Y-93151165D01*
X160899778Y-93212991D01*
X160870448Y-93248729D01*
X160787186Y-93350186D01*
X160685729Y-93433448D01*
X160649991Y-93462778D01*
X160649989Y-93462779D01*
X160493467Y-93546443D01*
X160436853Y-93563616D01*
X160323627Y-93597963D01*
X160257442Y-93604482D01*
X160191260Y-93611000D01*
X160102740Y-93611000D01*
X160036557Y-93604481D01*
X159970373Y-93597963D01*
X159857147Y-93563616D01*
X159800533Y-93546443D01*
X159644011Y-93462779D01*
X159644009Y-93462778D01*
X159608271Y-93433448D01*
X159506814Y-93350186D01*
X159423552Y-93248729D01*
X159394222Y-93212991D01*
X159361175Y-93151165D01*
X159310557Y-93056467D01*
X159293384Y-92999853D01*
X159259037Y-92886627D01*
X159241641Y-92710000D01*
X159259037Y-92533373D01*
X159293384Y-92420147D01*
X159310557Y-92363533D01*
X159394221Y-92207011D01*
X159394222Y-92207009D01*
X159423552Y-92171271D01*
X159506814Y-92069814D01*
X159608271Y-91986552D01*
X159644009Y-91957222D01*
X159671454Y-91942552D01*
X159800533Y-91873557D01*
X159857147Y-91856384D01*
X159970373Y-91822037D01*
X160036558Y-91815518D01*
X160102740Y-91809000D01*
X160191260Y-91809000D01*
X160257442Y-91815518D01*
X160257442Y-91815518D01*
G37*
G36*
X134857442Y-91815518D02*
X134923627Y-91822037D01*
X135036853Y-91856384D01*
X135093467Y-91873557D01*
X135222546Y-91942552D01*
X135249991Y-91957222D01*
X135285729Y-91986552D01*
X135387186Y-92069814D01*
X135470448Y-92171271D01*
X135499778Y-92207009D01*
X135499779Y-92207011D01*
X135583443Y-92363533D01*
X135600616Y-92420147D01*
X135634963Y-92533373D01*
X135652359Y-92710000D01*
X135634963Y-92886627D01*
X135600616Y-92999853D01*
X135583443Y-93056467D01*
X135532825Y-93151165D01*
X135499778Y-93212991D01*
X135470448Y-93248729D01*
X135387186Y-93350186D01*
X135285729Y-93433448D01*
X135249991Y-93462778D01*
X135249989Y-93462779D01*
X135093467Y-93546443D01*
X135036853Y-93563616D01*
X134923627Y-93597963D01*
X134857442Y-93604482D01*
X134791260Y-93611000D01*
X134702740Y-93611000D01*
X134636557Y-93604481D01*
X134570373Y-93597963D01*
X134457147Y-93563616D01*
X134400533Y-93546443D01*
X134244011Y-93462779D01*
X134244009Y-93462778D01*
X134208271Y-93433448D01*
X134106814Y-93350186D01*
X134023552Y-93248729D01*
X133994222Y-93212991D01*
X133961175Y-93151165D01*
X133910557Y-93056467D01*
X133893384Y-92999853D01*
X133859037Y-92886627D01*
X133841641Y-92710000D01*
X133859037Y-92533373D01*
X133893384Y-92420147D01*
X133910557Y-92363533D01*
X133994221Y-92207011D01*
X133994222Y-92207009D01*
X134023552Y-92171271D01*
X134106814Y-92069814D01*
X134208271Y-91986552D01*
X134244009Y-91957222D01*
X134271454Y-91942552D01*
X134400533Y-91873557D01*
X134457147Y-91856384D01*
X134570373Y-91822037D01*
X134636558Y-91815518D01*
X134702740Y-91809000D01*
X134791260Y-91809000D01*
X134857442Y-91815518D01*
X134857442Y-91815518D01*
G37*
G36*
X132317442Y-91815518D02*
X132383627Y-91822037D01*
X132496853Y-91856384D01*
X132553467Y-91873557D01*
X132682546Y-91942552D01*
X132709991Y-91957222D01*
X132745729Y-91986552D01*
X132847186Y-92069814D01*
X132930448Y-92171271D01*
X132959778Y-92207009D01*
X132959779Y-92207011D01*
X133043443Y-92363533D01*
X133060616Y-92420147D01*
X133094963Y-92533373D01*
X133112359Y-92710000D01*
X133094963Y-92886627D01*
X133060616Y-92999853D01*
X133043443Y-93056467D01*
X132992825Y-93151165D01*
X132959778Y-93212991D01*
X132930448Y-93248729D01*
X132847186Y-93350186D01*
X132745729Y-93433448D01*
X132709991Y-93462778D01*
X132709989Y-93462779D01*
X132553467Y-93546443D01*
X132496853Y-93563616D01*
X132383627Y-93597963D01*
X132317442Y-93604482D01*
X132251260Y-93611000D01*
X132162740Y-93611000D01*
X132096557Y-93604481D01*
X132030373Y-93597963D01*
X131917147Y-93563616D01*
X131860533Y-93546443D01*
X131704011Y-93462779D01*
X131704009Y-93462778D01*
X131668271Y-93433448D01*
X131566814Y-93350186D01*
X131483552Y-93248729D01*
X131454222Y-93212991D01*
X131421175Y-93151165D01*
X131370557Y-93056467D01*
X131353384Y-92999853D01*
X131319037Y-92886627D01*
X131301641Y-92710000D01*
X131319037Y-92533373D01*
X131353384Y-92420147D01*
X131370557Y-92363533D01*
X131454221Y-92207011D01*
X131454222Y-92207009D01*
X131483552Y-92171271D01*
X131566814Y-92069814D01*
X131668271Y-91986552D01*
X131704009Y-91957222D01*
X131731454Y-91942552D01*
X131860533Y-91873557D01*
X131917147Y-91856384D01*
X132030373Y-91822037D01*
X132096558Y-91815518D01*
X132162740Y-91809000D01*
X132251260Y-91809000D01*
X132317442Y-91815518D01*
X132317442Y-91815518D01*
G37*
G36*
X111328447Y-91888221D02*
X111408076Y-91896064D01*
X111510243Y-91927056D01*
X111561328Y-91942552D01*
X111702565Y-92018045D01*
X111826359Y-92119641D01*
X111927955Y-92243435D01*
X112003448Y-92384672D01*
X112003448Y-92384673D01*
X112049936Y-92537924D01*
X112065633Y-92697300D01*
X112049936Y-92856676D01*
X112040851Y-92886625D01*
X112003448Y-93009928D01*
X111927955Y-93151165D01*
X111826359Y-93274959D01*
X111702565Y-93376555D01*
X111561328Y-93452048D01*
X111510243Y-93467544D01*
X111408076Y-93498536D01*
X111328447Y-93506379D01*
X111288634Y-93510300D01*
X110732766Y-93510300D01*
X110692953Y-93506379D01*
X110613324Y-93498536D01*
X110511157Y-93467544D01*
X110460072Y-93452048D01*
X110318835Y-93376555D01*
X110195041Y-93274959D01*
X110093445Y-93151165D01*
X110017952Y-93009928D01*
X109980549Y-92886625D01*
X109971464Y-92856676D01*
X109955767Y-92697300D01*
X109971464Y-92537924D01*
X110017952Y-92384673D01*
X110017952Y-92384672D01*
X110093445Y-92243435D01*
X110195041Y-92119641D01*
X110318835Y-92018045D01*
X110460072Y-91942552D01*
X110511157Y-91927056D01*
X110613324Y-91896064D01*
X110692953Y-91888221D01*
X110732766Y-91884300D01*
X111288634Y-91884300D01*
X111328447Y-91888221D01*
X111328447Y-91888221D01*
G37*
G36*
X184455047Y-91888221D02*
X184534676Y-91896064D01*
X184636843Y-91927056D01*
X184687928Y-91942552D01*
X184829165Y-92018045D01*
X184952959Y-92119641D01*
X185054555Y-92243435D01*
X185130048Y-92384672D01*
X185130048Y-92384673D01*
X185176536Y-92537924D01*
X185192233Y-92697300D01*
X185176536Y-92856676D01*
X185167451Y-92886625D01*
X185130048Y-93009928D01*
X185054555Y-93151165D01*
X184952959Y-93274959D01*
X184829165Y-93376555D01*
X184687928Y-93452048D01*
X184636843Y-93467544D01*
X184534676Y-93498536D01*
X184455047Y-93506379D01*
X184415234Y-93510300D01*
X183859366Y-93510300D01*
X183819553Y-93506379D01*
X183739924Y-93498536D01*
X183637757Y-93467544D01*
X183586672Y-93452048D01*
X183445435Y-93376555D01*
X183321641Y-93274959D01*
X183220045Y-93151165D01*
X183144552Y-93009928D01*
X183107149Y-92886625D01*
X183098064Y-92856676D01*
X183082367Y-92697300D01*
X183098064Y-92537924D01*
X183144552Y-92384673D01*
X183144552Y-92384672D01*
X183220045Y-92243435D01*
X183321641Y-92119641D01*
X183445435Y-92018045D01*
X183586672Y-91942552D01*
X183637757Y-91927056D01*
X183739924Y-91896064D01*
X183819553Y-91888221D01*
X183859366Y-91884300D01*
X184415234Y-91884300D01*
X184455047Y-91888221D01*
X184455047Y-91888221D01*
G37*
G36*
X179654447Y-91888221D02*
X179734076Y-91896064D01*
X179836243Y-91927056D01*
X179887328Y-91942552D01*
X180028565Y-92018045D01*
X180152359Y-92119641D01*
X180253955Y-92243435D01*
X180329448Y-92384672D01*
X180329448Y-92384673D01*
X180375936Y-92537924D01*
X180391633Y-92697300D01*
X180375936Y-92856676D01*
X180366851Y-92886625D01*
X180329448Y-93009928D01*
X180253955Y-93151165D01*
X180152359Y-93274959D01*
X180028565Y-93376555D01*
X179887328Y-93452048D01*
X179836243Y-93467544D01*
X179734076Y-93498536D01*
X179654447Y-93506379D01*
X179614634Y-93510300D01*
X179058766Y-93510300D01*
X179018953Y-93506379D01*
X178939324Y-93498536D01*
X178837157Y-93467544D01*
X178786072Y-93452048D01*
X178644835Y-93376555D01*
X178521041Y-93274959D01*
X178419445Y-93151165D01*
X178343952Y-93009928D01*
X178306549Y-92886625D01*
X178297464Y-92856676D01*
X178281767Y-92697300D01*
X178297464Y-92537924D01*
X178343952Y-92384673D01*
X178343952Y-92384672D01*
X178419445Y-92243435D01*
X178521041Y-92119641D01*
X178644835Y-92018045D01*
X178786072Y-91942552D01*
X178837157Y-91927056D01*
X178939324Y-91896064D01*
X179018953Y-91888221D01*
X179058766Y-91884300D01*
X179614634Y-91884300D01*
X179654447Y-91888221D01*
X179654447Y-91888221D01*
G37*
G36*
X116129047Y-91888221D02*
X116208676Y-91896064D01*
X116310843Y-91927056D01*
X116361928Y-91942552D01*
X116503165Y-92018045D01*
X116626959Y-92119641D01*
X116728555Y-92243435D01*
X116804048Y-92384672D01*
X116804048Y-92384673D01*
X116850536Y-92537924D01*
X116866233Y-92697300D01*
X116850536Y-92856676D01*
X116841451Y-92886625D01*
X116804048Y-93009928D01*
X116728555Y-93151165D01*
X116626959Y-93274959D01*
X116503165Y-93376555D01*
X116361928Y-93452048D01*
X116310843Y-93467544D01*
X116208676Y-93498536D01*
X116129047Y-93506379D01*
X116089234Y-93510300D01*
X115533366Y-93510300D01*
X115493553Y-93506379D01*
X115413924Y-93498536D01*
X115311757Y-93467544D01*
X115260672Y-93452048D01*
X115119435Y-93376555D01*
X114995641Y-93274959D01*
X114894045Y-93151165D01*
X114818552Y-93009928D01*
X114781149Y-92886625D01*
X114772064Y-92856676D01*
X114756367Y-92697300D01*
X114772064Y-92537924D01*
X114818552Y-92384673D01*
X114818552Y-92384672D01*
X114894045Y-92243435D01*
X114995641Y-92119641D01*
X115119435Y-92018045D01*
X115260672Y-91942552D01*
X115311757Y-91927056D01*
X115413924Y-91896064D01*
X115493553Y-91888221D01*
X115533366Y-91884300D01*
X116089234Y-91884300D01*
X116129047Y-91888221D01*
X116129047Y-91888221D01*
G37*
G36*
X184455047Y-89729221D02*
X184534676Y-89737064D01*
X184636843Y-89768056D01*
X184687928Y-89783552D01*
X184829165Y-89859045D01*
X184952959Y-89960641D01*
X185054555Y-90084435D01*
X185130048Y-90225672D01*
X185130048Y-90225673D01*
X185176536Y-90378924D01*
X185192233Y-90538300D01*
X185176536Y-90697676D01*
X185145544Y-90799843D01*
X185130048Y-90850928D01*
X185054555Y-90992165D01*
X184952959Y-91115959D01*
X184829165Y-91217555D01*
X184687928Y-91293048D01*
X184636843Y-91308544D01*
X184534676Y-91339536D01*
X184455047Y-91347379D01*
X184415234Y-91351300D01*
X183859366Y-91351300D01*
X183819553Y-91347379D01*
X183739924Y-91339536D01*
X183637757Y-91308544D01*
X183586672Y-91293048D01*
X183445435Y-91217555D01*
X183321641Y-91115959D01*
X183220045Y-90992165D01*
X183144552Y-90850928D01*
X183129056Y-90799843D01*
X183098064Y-90697676D01*
X183082367Y-90538300D01*
X183098064Y-90378924D01*
X183144552Y-90225673D01*
X183144552Y-90225672D01*
X183220045Y-90084435D01*
X183321641Y-89960641D01*
X183445435Y-89859045D01*
X183586672Y-89783552D01*
X183637757Y-89768056D01*
X183739924Y-89737064D01*
X183819553Y-89729221D01*
X183859366Y-89725300D01*
X184415234Y-89725300D01*
X184455047Y-89729221D01*
X184455047Y-89729221D01*
G37*
G36*
X179654447Y-89729221D02*
X179734076Y-89737064D01*
X179836243Y-89768056D01*
X179887328Y-89783552D01*
X180028565Y-89859045D01*
X180152359Y-89960641D01*
X180253955Y-90084435D01*
X180329448Y-90225672D01*
X180329448Y-90225673D01*
X180375936Y-90378924D01*
X180391633Y-90538300D01*
X180375936Y-90697676D01*
X180344944Y-90799843D01*
X180329448Y-90850928D01*
X180253955Y-90992165D01*
X180152359Y-91115959D01*
X180028565Y-91217555D01*
X179887328Y-91293048D01*
X179836243Y-91308544D01*
X179734076Y-91339536D01*
X179654447Y-91347379D01*
X179614634Y-91351300D01*
X179058766Y-91351300D01*
X179018953Y-91347379D01*
X178939324Y-91339536D01*
X178837157Y-91308544D01*
X178786072Y-91293048D01*
X178644835Y-91217555D01*
X178521041Y-91115959D01*
X178419445Y-90992165D01*
X178343952Y-90850928D01*
X178328456Y-90799843D01*
X178297464Y-90697676D01*
X178281767Y-90538300D01*
X178297464Y-90378924D01*
X178343952Y-90225673D01*
X178343952Y-90225672D01*
X178419445Y-90084435D01*
X178521041Y-89960641D01*
X178644835Y-89859045D01*
X178786072Y-89783552D01*
X178837157Y-89768056D01*
X178939324Y-89737064D01*
X179018953Y-89729221D01*
X179058766Y-89725300D01*
X179614634Y-89725300D01*
X179654447Y-89729221D01*
X179654447Y-89729221D01*
G37*
G36*
X116129047Y-89729221D02*
X116208676Y-89737064D01*
X116310843Y-89768056D01*
X116361928Y-89783552D01*
X116503165Y-89859045D01*
X116626959Y-89960641D01*
X116728555Y-90084435D01*
X116804048Y-90225672D01*
X116804048Y-90225673D01*
X116850536Y-90378924D01*
X116866233Y-90538300D01*
X116850536Y-90697676D01*
X116819544Y-90799843D01*
X116804048Y-90850928D01*
X116728555Y-90992165D01*
X116626959Y-91115959D01*
X116503165Y-91217555D01*
X116361928Y-91293048D01*
X116310843Y-91308544D01*
X116208676Y-91339536D01*
X116129047Y-91347379D01*
X116089234Y-91351300D01*
X115533366Y-91351300D01*
X115493553Y-91347379D01*
X115413924Y-91339536D01*
X115311757Y-91308544D01*
X115260672Y-91293048D01*
X115119435Y-91217555D01*
X114995641Y-91115959D01*
X114894045Y-90992165D01*
X114818552Y-90850928D01*
X114803056Y-90799843D01*
X114772064Y-90697676D01*
X114756367Y-90538300D01*
X114772064Y-90378924D01*
X114818552Y-90225673D01*
X114818552Y-90225672D01*
X114894045Y-90084435D01*
X114995641Y-89960641D01*
X115119435Y-89859045D01*
X115260672Y-89783552D01*
X115311757Y-89768056D01*
X115413924Y-89737064D01*
X115493553Y-89729221D01*
X115533366Y-89725300D01*
X116089234Y-89725300D01*
X116129047Y-89729221D01*
X116129047Y-89729221D01*
G37*
G36*
X111328447Y-89729221D02*
X111408076Y-89737064D01*
X111510243Y-89768056D01*
X111561328Y-89783552D01*
X111702565Y-89859045D01*
X111826359Y-89960641D01*
X111927955Y-90084435D01*
X112003448Y-90225672D01*
X112003448Y-90225673D01*
X112049936Y-90378924D01*
X112065633Y-90538300D01*
X112049936Y-90697676D01*
X112018944Y-90799843D01*
X112003448Y-90850928D01*
X111927955Y-90992165D01*
X111826359Y-91115959D01*
X111702565Y-91217555D01*
X111561328Y-91293048D01*
X111510243Y-91308544D01*
X111408076Y-91339536D01*
X111328447Y-91347379D01*
X111288634Y-91351300D01*
X110732766Y-91351300D01*
X110692953Y-91347379D01*
X110613324Y-91339536D01*
X110511157Y-91308544D01*
X110460072Y-91293048D01*
X110318835Y-91217555D01*
X110195041Y-91115959D01*
X110093445Y-90992165D01*
X110017952Y-90850928D01*
X110002456Y-90799843D01*
X109971464Y-90697676D01*
X109955767Y-90538300D01*
X109971464Y-90378924D01*
X110017952Y-90225673D01*
X110017952Y-90225672D01*
X110093445Y-90084435D01*
X110195041Y-89960641D01*
X110318835Y-89859045D01*
X110460072Y-89783552D01*
X110511157Y-89768056D01*
X110613324Y-89737064D01*
X110692953Y-89729221D01*
X110732766Y-89725300D01*
X111288634Y-89725300D01*
X111328447Y-89729221D01*
X111328447Y-89729221D01*
G37*
G36*
X160257443Y-89275519D02*
X160323627Y-89282037D01*
X160436853Y-89316384D01*
X160493467Y-89333557D01*
X160632087Y-89407652D01*
X160649991Y-89417222D01*
X160685729Y-89446552D01*
X160787186Y-89529814D01*
X160870448Y-89631271D01*
X160899778Y-89667009D01*
X160899779Y-89667011D01*
X160983443Y-89823533D01*
X160983443Y-89823534D01*
X161034963Y-89993373D01*
X161052359Y-90170000D01*
X161034963Y-90346627D01*
X161025165Y-90378926D01*
X160983443Y-90516467D01*
X160909348Y-90655087D01*
X160899778Y-90672991D01*
X160879521Y-90697674D01*
X160787186Y-90810186D01*
X160685729Y-90893448D01*
X160649991Y-90922778D01*
X160649989Y-90922779D01*
X160493467Y-91006443D01*
X160436853Y-91023616D01*
X160323627Y-91057963D01*
X160257442Y-91064482D01*
X160191260Y-91071000D01*
X160102740Y-91071000D01*
X160036558Y-91064482D01*
X159970373Y-91057963D01*
X159857147Y-91023616D01*
X159800533Y-91006443D01*
X159644011Y-90922779D01*
X159644009Y-90922778D01*
X159608271Y-90893448D01*
X159506814Y-90810186D01*
X159414479Y-90697674D01*
X159394222Y-90672991D01*
X159384652Y-90655087D01*
X159310557Y-90516467D01*
X159268835Y-90378926D01*
X159259037Y-90346627D01*
X159241641Y-90170000D01*
X159259037Y-89993373D01*
X159310557Y-89823534D01*
X159310557Y-89823533D01*
X159394221Y-89667011D01*
X159394222Y-89667009D01*
X159423552Y-89631271D01*
X159506814Y-89529814D01*
X159608271Y-89446552D01*
X159644009Y-89417222D01*
X159661913Y-89407652D01*
X159800533Y-89333557D01*
X159857147Y-89316384D01*
X159970373Y-89282037D01*
X160036557Y-89275519D01*
X160102740Y-89269000D01*
X160191260Y-89269000D01*
X160257443Y-89275519D01*
X160257443Y-89275519D01*
G37*
G36*
X134857443Y-89275519D02*
X134923627Y-89282037D01*
X135036853Y-89316384D01*
X135093467Y-89333557D01*
X135232087Y-89407652D01*
X135249991Y-89417222D01*
X135285729Y-89446552D01*
X135387186Y-89529814D01*
X135470448Y-89631271D01*
X135499778Y-89667009D01*
X135499779Y-89667011D01*
X135583443Y-89823533D01*
X135583443Y-89823534D01*
X135634963Y-89993373D01*
X135652359Y-90170000D01*
X135634963Y-90346627D01*
X135625165Y-90378926D01*
X135583443Y-90516467D01*
X135509348Y-90655087D01*
X135499778Y-90672991D01*
X135479521Y-90697674D01*
X135387186Y-90810186D01*
X135285729Y-90893448D01*
X135249991Y-90922778D01*
X135249989Y-90922779D01*
X135093467Y-91006443D01*
X135036853Y-91023616D01*
X134923627Y-91057963D01*
X134857442Y-91064482D01*
X134791260Y-91071000D01*
X134702740Y-91071000D01*
X134636558Y-91064482D01*
X134570373Y-91057963D01*
X134457147Y-91023616D01*
X134400533Y-91006443D01*
X134244011Y-90922779D01*
X134244009Y-90922778D01*
X134208271Y-90893448D01*
X134106814Y-90810186D01*
X134014479Y-90697674D01*
X133994222Y-90672991D01*
X133984652Y-90655087D01*
X133910557Y-90516467D01*
X133868835Y-90378926D01*
X133859037Y-90346627D01*
X133841641Y-90170000D01*
X133859037Y-89993373D01*
X133910557Y-89823534D01*
X133910557Y-89823533D01*
X133994221Y-89667011D01*
X133994222Y-89667009D01*
X134023552Y-89631271D01*
X134106814Y-89529814D01*
X134208271Y-89446552D01*
X134244009Y-89417222D01*
X134261913Y-89407652D01*
X134400533Y-89333557D01*
X134457147Y-89316384D01*
X134570373Y-89282037D01*
X134636557Y-89275519D01*
X134702740Y-89269000D01*
X134791260Y-89269000D01*
X134857443Y-89275519D01*
X134857443Y-89275519D01*
G37*
G36*
X132317443Y-89275519D02*
X132383627Y-89282037D01*
X132496853Y-89316384D01*
X132553467Y-89333557D01*
X132692087Y-89407652D01*
X132709991Y-89417222D01*
X132745729Y-89446552D01*
X132847186Y-89529814D01*
X132930448Y-89631271D01*
X132959778Y-89667009D01*
X132959779Y-89667011D01*
X133043443Y-89823533D01*
X133043443Y-89823534D01*
X133094963Y-89993373D01*
X133112359Y-90170000D01*
X133094963Y-90346627D01*
X133085165Y-90378926D01*
X133043443Y-90516467D01*
X132969348Y-90655087D01*
X132959778Y-90672991D01*
X132939521Y-90697674D01*
X132847186Y-90810186D01*
X132745729Y-90893448D01*
X132709991Y-90922778D01*
X132709989Y-90922779D01*
X132553467Y-91006443D01*
X132496853Y-91023616D01*
X132383627Y-91057963D01*
X132317442Y-91064482D01*
X132251260Y-91071000D01*
X132162740Y-91071000D01*
X132096558Y-91064482D01*
X132030373Y-91057963D01*
X131917147Y-91023616D01*
X131860533Y-91006443D01*
X131704011Y-90922779D01*
X131704009Y-90922778D01*
X131668271Y-90893448D01*
X131566814Y-90810186D01*
X131474479Y-90697674D01*
X131454222Y-90672991D01*
X131444652Y-90655087D01*
X131370557Y-90516467D01*
X131328835Y-90378926D01*
X131319037Y-90346627D01*
X131301641Y-90170000D01*
X131319037Y-89993373D01*
X131370557Y-89823534D01*
X131370557Y-89823533D01*
X131454221Y-89667011D01*
X131454222Y-89667009D01*
X131483552Y-89631271D01*
X131566814Y-89529814D01*
X131668271Y-89446552D01*
X131704009Y-89417222D01*
X131721913Y-89407652D01*
X131860533Y-89333557D01*
X131917147Y-89316384D01*
X132030373Y-89282037D01*
X132096557Y-89275519D01*
X132162740Y-89269000D01*
X132251260Y-89269000D01*
X132317443Y-89275519D01*
X132317443Y-89275519D01*
G37*
G36*
X162797443Y-89275519D02*
X162863627Y-89282037D01*
X162976853Y-89316384D01*
X163033467Y-89333557D01*
X163172087Y-89407652D01*
X163189991Y-89417222D01*
X163225729Y-89446552D01*
X163327186Y-89529814D01*
X163410448Y-89631271D01*
X163439778Y-89667009D01*
X163439779Y-89667011D01*
X163523443Y-89823533D01*
X163523443Y-89823534D01*
X163574963Y-89993373D01*
X163592359Y-90170000D01*
X163574963Y-90346627D01*
X163565165Y-90378926D01*
X163523443Y-90516467D01*
X163449348Y-90655087D01*
X163439778Y-90672991D01*
X163419521Y-90697674D01*
X163327186Y-90810186D01*
X163225729Y-90893448D01*
X163189991Y-90922778D01*
X163189989Y-90922779D01*
X163033467Y-91006443D01*
X162976853Y-91023616D01*
X162863627Y-91057963D01*
X162797442Y-91064482D01*
X162731260Y-91071000D01*
X162642740Y-91071000D01*
X162576558Y-91064482D01*
X162510373Y-91057963D01*
X162397147Y-91023616D01*
X162340533Y-91006443D01*
X162184011Y-90922779D01*
X162184009Y-90922778D01*
X162148271Y-90893448D01*
X162046814Y-90810186D01*
X161954479Y-90697674D01*
X161934222Y-90672991D01*
X161924652Y-90655087D01*
X161850557Y-90516467D01*
X161808835Y-90378926D01*
X161799037Y-90346627D01*
X161781641Y-90170000D01*
X161799037Y-89993373D01*
X161850557Y-89823534D01*
X161850557Y-89823533D01*
X161934221Y-89667011D01*
X161934222Y-89667009D01*
X161963552Y-89631271D01*
X162046814Y-89529814D01*
X162148271Y-89446552D01*
X162184009Y-89417222D01*
X162201913Y-89407652D01*
X162340533Y-89333557D01*
X162397147Y-89316384D01*
X162510373Y-89282037D01*
X162576557Y-89275519D01*
X162642740Y-89269000D01*
X162731260Y-89269000D01*
X162797443Y-89275519D01*
X162797443Y-89275519D01*
G37*
G36*
X111328447Y-87570221D02*
X111408076Y-87578064D01*
X111510243Y-87609056D01*
X111561328Y-87624552D01*
X111702565Y-87700045D01*
X111826359Y-87801641D01*
X111927955Y-87925435D01*
X112003448Y-88066672D01*
X112003448Y-88066673D01*
X112049936Y-88219924D01*
X112065633Y-88379300D01*
X112049936Y-88538676D01*
X112018944Y-88640843D01*
X112003448Y-88691928D01*
X111927955Y-88833165D01*
X111826359Y-88956959D01*
X111702565Y-89058555D01*
X111561328Y-89134048D01*
X111510243Y-89149544D01*
X111408076Y-89180536D01*
X111328447Y-89188379D01*
X111288634Y-89192300D01*
X110732766Y-89192300D01*
X110692953Y-89188379D01*
X110613324Y-89180536D01*
X110511157Y-89149544D01*
X110460072Y-89134048D01*
X110318835Y-89058555D01*
X110195041Y-88956959D01*
X110093445Y-88833165D01*
X110017952Y-88691928D01*
X110002456Y-88640843D01*
X109971464Y-88538676D01*
X109955767Y-88379300D01*
X109971464Y-88219924D01*
X110017952Y-88066673D01*
X110017952Y-88066672D01*
X110093445Y-87925435D01*
X110195041Y-87801641D01*
X110318835Y-87700045D01*
X110460072Y-87624552D01*
X110511157Y-87609056D01*
X110613324Y-87578064D01*
X110692953Y-87570221D01*
X110732766Y-87566300D01*
X111288634Y-87566300D01*
X111328447Y-87570221D01*
X111328447Y-87570221D01*
G37*
G36*
X116129047Y-87570221D02*
X116208676Y-87578064D01*
X116310843Y-87609056D01*
X116361928Y-87624552D01*
X116503165Y-87700045D01*
X116626959Y-87801641D01*
X116728555Y-87925435D01*
X116804048Y-88066672D01*
X116804048Y-88066673D01*
X116850536Y-88219924D01*
X116866233Y-88379300D01*
X116850536Y-88538676D01*
X116819544Y-88640843D01*
X116804048Y-88691928D01*
X116728555Y-88833165D01*
X116626959Y-88956959D01*
X116503165Y-89058555D01*
X116361928Y-89134048D01*
X116310843Y-89149544D01*
X116208676Y-89180536D01*
X116129047Y-89188379D01*
X116089234Y-89192300D01*
X115533366Y-89192300D01*
X115493553Y-89188379D01*
X115413924Y-89180536D01*
X115311757Y-89149544D01*
X115260672Y-89134048D01*
X115119435Y-89058555D01*
X114995641Y-88956959D01*
X114894045Y-88833165D01*
X114818552Y-88691928D01*
X114803056Y-88640843D01*
X114772064Y-88538676D01*
X114756367Y-88379300D01*
X114772064Y-88219924D01*
X114818552Y-88066673D01*
X114818552Y-88066672D01*
X114894045Y-87925435D01*
X114995641Y-87801641D01*
X115119435Y-87700045D01*
X115260672Y-87624552D01*
X115311757Y-87609056D01*
X115413924Y-87578064D01*
X115493553Y-87570221D01*
X115533366Y-87566300D01*
X116089234Y-87566300D01*
X116129047Y-87570221D01*
X116129047Y-87570221D01*
G37*
G36*
X184455047Y-87570221D02*
X184534676Y-87578064D01*
X184636843Y-87609056D01*
X184687928Y-87624552D01*
X184829165Y-87700045D01*
X184952959Y-87801641D01*
X185054555Y-87925435D01*
X185130048Y-88066672D01*
X185130048Y-88066673D01*
X185176536Y-88219924D01*
X185192233Y-88379300D01*
X185176536Y-88538676D01*
X185145544Y-88640843D01*
X185130048Y-88691928D01*
X185054555Y-88833165D01*
X184952959Y-88956959D01*
X184829165Y-89058555D01*
X184687928Y-89134048D01*
X184636843Y-89149544D01*
X184534676Y-89180536D01*
X184455047Y-89188379D01*
X184415234Y-89192300D01*
X183859366Y-89192300D01*
X183819553Y-89188379D01*
X183739924Y-89180536D01*
X183637757Y-89149544D01*
X183586672Y-89134048D01*
X183445435Y-89058555D01*
X183321641Y-88956959D01*
X183220045Y-88833165D01*
X183144552Y-88691928D01*
X183129056Y-88640843D01*
X183098064Y-88538676D01*
X183082367Y-88379300D01*
X183098064Y-88219924D01*
X183144552Y-88066673D01*
X183144552Y-88066672D01*
X183220045Y-87925435D01*
X183321641Y-87801641D01*
X183445435Y-87700045D01*
X183586672Y-87624552D01*
X183637757Y-87609056D01*
X183739924Y-87578064D01*
X183819553Y-87570221D01*
X183859366Y-87566300D01*
X184415234Y-87566300D01*
X184455047Y-87570221D01*
X184455047Y-87570221D01*
G37*
G36*
X179654447Y-87570221D02*
X179734076Y-87578064D01*
X179836243Y-87609056D01*
X179887328Y-87624552D01*
X180028565Y-87700045D01*
X180152359Y-87801641D01*
X180253955Y-87925435D01*
X180329448Y-88066672D01*
X180329448Y-88066673D01*
X180375936Y-88219924D01*
X180391633Y-88379300D01*
X180375936Y-88538676D01*
X180344944Y-88640843D01*
X180329448Y-88691928D01*
X180253955Y-88833165D01*
X180152359Y-88956959D01*
X180028565Y-89058555D01*
X179887328Y-89134048D01*
X179836243Y-89149544D01*
X179734076Y-89180536D01*
X179654447Y-89188379D01*
X179614634Y-89192300D01*
X179058766Y-89192300D01*
X179018953Y-89188379D01*
X178939324Y-89180536D01*
X178837157Y-89149544D01*
X178786072Y-89134048D01*
X178644835Y-89058555D01*
X178521041Y-88956959D01*
X178419445Y-88833165D01*
X178343952Y-88691928D01*
X178328456Y-88640843D01*
X178297464Y-88538676D01*
X178281767Y-88379300D01*
X178297464Y-88219924D01*
X178343952Y-88066673D01*
X178343952Y-88066672D01*
X178419445Y-87925435D01*
X178521041Y-87801641D01*
X178644835Y-87700045D01*
X178786072Y-87624552D01*
X178837157Y-87609056D01*
X178939324Y-87578064D01*
X179018953Y-87570221D01*
X179058766Y-87566300D01*
X179614634Y-87566300D01*
X179654447Y-87570221D01*
X179654447Y-87570221D01*
G37*
G36*
X162797442Y-86735518D02*
X162863627Y-86742037D01*
X162976853Y-86776384D01*
X163033467Y-86793557D01*
X163172087Y-86867652D01*
X163189991Y-86877222D01*
X163225729Y-86906552D01*
X163327186Y-86989814D01*
X163410448Y-87091271D01*
X163439778Y-87127009D01*
X163439779Y-87127011D01*
X163523443Y-87283533D01*
X163523443Y-87283534D01*
X163574963Y-87453373D01*
X163592359Y-87630000D01*
X163574963Y-87806627D01*
X163540616Y-87919853D01*
X163523443Y-87976467D01*
X163475227Y-88066672D01*
X163439778Y-88132991D01*
X163410448Y-88168729D01*
X163327186Y-88270186D01*
X163225729Y-88353448D01*
X163189991Y-88382778D01*
X163189989Y-88382779D01*
X163033467Y-88466443D01*
X162976853Y-88483616D01*
X162863627Y-88517963D01*
X162797442Y-88524482D01*
X162731260Y-88531000D01*
X162642740Y-88531000D01*
X162576558Y-88524482D01*
X162510373Y-88517963D01*
X162397147Y-88483616D01*
X162340533Y-88466443D01*
X162184011Y-88382779D01*
X162184009Y-88382778D01*
X162148271Y-88353448D01*
X162046814Y-88270186D01*
X161963552Y-88168729D01*
X161934222Y-88132991D01*
X161898773Y-88066672D01*
X161850557Y-87976467D01*
X161833384Y-87919853D01*
X161799037Y-87806627D01*
X161781641Y-87630000D01*
X161799037Y-87453373D01*
X161850557Y-87283534D01*
X161850557Y-87283533D01*
X161934221Y-87127011D01*
X161934222Y-87127009D01*
X161963552Y-87091271D01*
X162046814Y-86989814D01*
X162148271Y-86906552D01*
X162184009Y-86877222D01*
X162201913Y-86867652D01*
X162340533Y-86793557D01*
X162397147Y-86776384D01*
X162510373Y-86742037D01*
X162576558Y-86735518D01*
X162642740Y-86729000D01*
X162731260Y-86729000D01*
X162797442Y-86735518D01*
X162797442Y-86735518D01*
G37*
G36*
X160257442Y-86735518D02*
X160323627Y-86742037D01*
X160436853Y-86776384D01*
X160493467Y-86793557D01*
X160632087Y-86867652D01*
X160649991Y-86877222D01*
X160685729Y-86906552D01*
X160787186Y-86989814D01*
X160870448Y-87091271D01*
X160899778Y-87127009D01*
X160899779Y-87127011D01*
X160983443Y-87283533D01*
X160983443Y-87283534D01*
X161034963Y-87453373D01*
X161052359Y-87630000D01*
X161034963Y-87806627D01*
X161000616Y-87919853D01*
X160983443Y-87976467D01*
X160935227Y-88066672D01*
X160899778Y-88132991D01*
X160870448Y-88168729D01*
X160787186Y-88270186D01*
X160685729Y-88353448D01*
X160649991Y-88382778D01*
X160649989Y-88382779D01*
X160493467Y-88466443D01*
X160436853Y-88483616D01*
X160323627Y-88517963D01*
X160257442Y-88524482D01*
X160191260Y-88531000D01*
X160102740Y-88531000D01*
X160036558Y-88524482D01*
X159970373Y-88517963D01*
X159857147Y-88483616D01*
X159800533Y-88466443D01*
X159644011Y-88382779D01*
X159644009Y-88382778D01*
X159608271Y-88353448D01*
X159506814Y-88270186D01*
X159423552Y-88168729D01*
X159394222Y-88132991D01*
X159358773Y-88066672D01*
X159310557Y-87976467D01*
X159293384Y-87919853D01*
X159259037Y-87806627D01*
X159241641Y-87630000D01*
X159259037Y-87453373D01*
X159310557Y-87283534D01*
X159310557Y-87283533D01*
X159394221Y-87127011D01*
X159394222Y-87127009D01*
X159423552Y-87091271D01*
X159506814Y-86989814D01*
X159608271Y-86906552D01*
X159644009Y-86877222D01*
X159661913Y-86867652D01*
X159800533Y-86793557D01*
X159857147Y-86776384D01*
X159970373Y-86742037D01*
X160036558Y-86735518D01*
X160102740Y-86729000D01*
X160191260Y-86729000D01*
X160257442Y-86735518D01*
X160257442Y-86735518D01*
G37*
G36*
X134857442Y-86735518D02*
X134923627Y-86742037D01*
X135036853Y-86776384D01*
X135093467Y-86793557D01*
X135232087Y-86867652D01*
X135249991Y-86877222D01*
X135285729Y-86906552D01*
X135387186Y-86989814D01*
X135470448Y-87091271D01*
X135499778Y-87127009D01*
X135499779Y-87127011D01*
X135583443Y-87283533D01*
X135583443Y-87283534D01*
X135634963Y-87453373D01*
X135652359Y-87630000D01*
X135634963Y-87806627D01*
X135600616Y-87919853D01*
X135583443Y-87976467D01*
X135535227Y-88066672D01*
X135499778Y-88132991D01*
X135470448Y-88168729D01*
X135387186Y-88270186D01*
X135285729Y-88353448D01*
X135249991Y-88382778D01*
X135249989Y-88382779D01*
X135093467Y-88466443D01*
X135036853Y-88483616D01*
X134923627Y-88517963D01*
X134857442Y-88524482D01*
X134791260Y-88531000D01*
X134702740Y-88531000D01*
X134636558Y-88524482D01*
X134570373Y-88517963D01*
X134457147Y-88483616D01*
X134400533Y-88466443D01*
X134244011Y-88382779D01*
X134244009Y-88382778D01*
X134208271Y-88353448D01*
X134106814Y-88270186D01*
X134023552Y-88168729D01*
X133994222Y-88132991D01*
X133958773Y-88066672D01*
X133910557Y-87976467D01*
X133893384Y-87919853D01*
X133859037Y-87806627D01*
X133841641Y-87630000D01*
X133859037Y-87453373D01*
X133910557Y-87283534D01*
X133910557Y-87283533D01*
X133994221Y-87127011D01*
X133994222Y-87127009D01*
X134023552Y-87091271D01*
X134106814Y-86989814D01*
X134208271Y-86906552D01*
X134244009Y-86877222D01*
X134261913Y-86867652D01*
X134400533Y-86793557D01*
X134457147Y-86776384D01*
X134570373Y-86742037D01*
X134636558Y-86735518D01*
X134702740Y-86729000D01*
X134791260Y-86729000D01*
X134857442Y-86735518D01*
X134857442Y-86735518D01*
G37*
G36*
X132317442Y-86735518D02*
X132383627Y-86742037D01*
X132496853Y-86776384D01*
X132553467Y-86793557D01*
X132692087Y-86867652D01*
X132709991Y-86877222D01*
X132745729Y-86906552D01*
X132847186Y-86989814D01*
X132930448Y-87091271D01*
X132959778Y-87127009D01*
X132959779Y-87127011D01*
X133043443Y-87283533D01*
X133043443Y-87283534D01*
X133094963Y-87453373D01*
X133112359Y-87630000D01*
X133094963Y-87806627D01*
X133060616Y-87919853D01*
X133043443Y-87976467D01*
X132995227Y-88066672D01*
X132959778Y-88132991D01*
X132930448Y-88168729D01*
X132847186Y-88270186D01*
X132745729Y-88353448D01*
X132709991Y-88382778D01*
X132709989Y-88382779D01*
X132553467Y-88466443D01*
X132496853Y-88483616D01*
X132383627Y-88517963D01*
X132317442Y-88524482D01*
X132251260Y-88531000D01*
X132162740Y-88531000D01*
X132096558Y-88524482D01*
X132030373Y-88517963D01*
X131917147Y-88483616D01*
X131860533Y-88466443D01*
X131704011Y-88382779D01*
X131704009Y-88382778D01*
X131668271Y-88353448D01*
X131566814Y-88270186D01*
X131483552Y-88168729D01*
X131454222Y-88132991D01*
X131418773Y-88066672D01*
X131370557Y-87976467D01*
X131353384Y-87919853D01*
X131319037Y-87806627D01*
X131301641Y-87630000D01*
X131319037Y-87453373D01*
X131370557Y-87283534D01*
X131370557Y-87283533D01*
X131454221Y-87127011D01*
X131454222Y-87127009D01*
X131483552Y-87091271D01*
X131566814Y-86989814D01*
X131668271Y-86906552D01*
X131704009Y-86877222D01*
X131721913Y-86867652D01*
X131860533Y-86793557D01*
X131917147Y-86776384D01*
X132030373Y-86742037D01*
X132096558Y-86735518D01*
X132162740Y-86729000D01*
X132251260Y-86729000D01*
X132317442Y-86735518D01*
X132317442Y-86735518D01*
G37*
G36*
X116129047Y-85411221D02*
X116208676Y-85419064D01*
X116310843Y-85450056D01*
X116361928Y-85465552D01*
X116503165Y-85541045D01*
X116626959Y-85642641D01*
X116728555Y-85766435D01*
X116804048Y-85907672D01*
X116804048Y-85907673D01*
X116850536Y-86060924D01*
X116866233Y-86220300D01*
X116850536Y-86379676D01*
X116819544Y-86481843D01*
X116804048Y-86532928D01*
X116728555Y-86674165D01*
X116626959Y-86797959D01*
X116503165Y-86899555D01*
X116361928Y-86975048D01*
X116313250Y-86989814D01*
X116208676Y-87021536D01*
X116129047Y-87029379D01*
X116089234Y-87033300D01*
X115533366Y-87033300D01*
X115493553Y-87029379D01*
X115413924Y-87021536D01*
X115309350Y-86989814D01*
X115260672Y-86975048D01*
X115119435Y-86899555D01*
X114995641Y-86797959D01*
X114894045Y-86674165D01*
X114818552Y-86532928D01*
X114803056Y-86481843D01*
X114772064Y-86379676D01*
X114756367Y-86220300D01*
X114772064Y-86060924D01*
X114818552Y-85907673D01*
X114818552Y-85907672D01*
X114894045Y-85766435D01*
X114995641Y-85642641D01*
X115119435Y-85541045D01*
X115260672Y-85465552D01*
X115311757Y-85450056D01*
X115413924Y-85419064D01*
X115493553Y-85411221D01*
X115533366Y-85407300D01*
X116089234Y-85407300D01*
X116129047Y-85411221D01*
X116129047Y-85411221D01*
G37*
G36*
X184455047Y-85411221D02*
X184534676Y-85419064D01*
X184636843Y-85450056D01*
X184687928Y-85465552D01*
X184829165Y-85541045D01*
X184952959Y-85642641D01*
X185054555Y-85766435D01*
X185130048Y-85907672D01*
X185130048Y-85907673D01*
X185176536Y-86060924D01*
X185192233Y-86220300D01*
X185176536Y-86379676D01*
X185145544Y-86481843D01*
X185130048Y-86532928D01*
X185054555Y-86674165D01*
X184952959Y-86797959D01*
X184829165Y-86899555D01*
X184687928Y-86975048D01*
X184639250Y-86989814D01*
X184534676Y-87021536D01*
X184455047Y-87029379D01*
X184415234Y-87033300D01*
X183859366Y-87033300D01*
X183819553Y-87029379D01*
X183739924Y-87021536D01*
X183635350Y-86989814D01*
X183586672Y-86975048D01*
X183445435Y-86899555D01*
X183321641Y-86797959D01*
X183220045Y-86674165D01*
X183144552Y-86532928D01*
X183129056Y-86481843D01*
X183098064Y-86379676D01*
X183082367Y-86220300D01*
X183098064Y-86060924D01*
X183144552Y-85907673D01*
X183144552Y-85907672D01*
X183220045Y-85766435D01*
X183321641Y-85642641D01*
X183445435Y-85541045D01*
X183586672Y-85465552D01*
X183637757Y-85450056D01*
X183739924Y-85419064D01*
X183819553Y-85411221D01*
X183859366Y-85407300D01*
X184415234Y-85407300D01*
X184455047Y-85411221D01*
X184455047Y-85411221D01*
G37*
G36*
X111328447Y-85411221D02*
X111408076Y-85419064D01*
X111510243Y-85450056D01*
X111561328Y-85465552D01*
X111702565Y-85541045D01*
X111826359Y-85642641D01*
X111927955Y-85766435D01*
X112003448Y-85907672D01*
X112003448Y-85907673D01*
X112049936Y-86060924D01*
X112065633Y-86220300D01*
X112049936Y-86379676D01*
X112018944Y-86481843D01*
X112003448Y-86532928D01*
X111927955Y-86674165D01*
X111826359Y-86797959D01*
X111702565Y-86899555D01*
X111561328Y-86975048D01*
X111512650Y-86989814D01*
X111408076Y-87021536D01*
X111328447Y-87029379D01*
X111288634Y-87033300D01*
X110732766Y-87033300D01*
X110692953Y-87029379D01*
X110613324Y-87021536D01*
X110508750Y-86989814D01*
X110460072Y-86975048D01*
X110318835Y-86899555D01*
X110195041Y-86797959D01*
X110093445Y-86674165D01*
X110017952Y-86532928D01*
X110002456Y-86481843D01*
X109971464Y-86379676D01*
X109955767Y-86220300D01*
X109971464Y-86060924D01*
X110017952Y-85907673D01*
X110017952Y-85907672D01*
X110093445Y-85766435D01*
X110195041Y-85642641D01*
X110318835Y-85541045D01*
X110460072Y-85465552D01*
X110511157Y-85450056D01*
X110613324Y-85419064D01*
X110692953Y-85411221D01*
X110732766Y-85407300D01*
X111288634Y-85407300D01*
X111328447Y-85411221D01*
X111328447Y-85411221D01*
G37*
G36*
X179654447Y-85411221D02*
X179734076Y-85419064D01*
X179836243Y-85450056D01*
X179887328Y-85465552D01*
X180028565Y-85541045D01*
X180152359Y-85642641D01*
X180253955Y-85766435D01*
X180329448Y-85907672D01*
X180329448Y-85907673D01*
X180375936Y-86060924D01*
X180391633Y-86220300D01*
X180375936Y-86379676D01*
X180344944Y-86481843D01*
X180329448Y-86532928D01*
X180253955Y-86674165D01*
X180152359Y-86797959D01*
X180028565Y-86899555D01*
X179887328Y-86975048D01*
X179838650Y-86989814D01*
X179734076Y-87021536D01*
X179654447Y-87029379D01*
X179614634Y-87033300D01*
X179058766Y-87033300D01*
X179018953Y-87029379D01*
X178939324Y-87021536D01*
X178834750Y-86989814D01*
X178786072Y-86975048D01*
X178644835Y-86899555D01*
X178521041Y-86797959D01*
X178419445Y-86674165D01*
X178343952Y-86532928D01*
X178328456Y-86481843D01*
X178297464Y-86379676D01*
X178281767Y-86220300D01*
X178297464Y-86060924D01*
X178343952Y-85907673D01*
X178343952Y-85907672D01*
X178419445Y-85766435D01*
X178521041Y-85642641D01*
X178644835Y-85541045D01*
X178786072Y-85465552D01*
X178837157Y-85450056D01*
X178939324Y-85419064D01*
X179018953Y-85411221D01*
X179058766Y-85407300D01*
X179614634Y-85407300D01*
X179654447Y-85411221D01*
X179654447Y-85411221D01*
G37*
G36*
X160257442Y-84195518D02*
X160323627Y-84202037D01*
X160436853Y-84236384D01*
X160493467Y-84253557D01*
X160632087Y-84327652D01*
X160649991Y-84337222D01*
X160685729Y-84366552D01*
X160787186Y-84449814D01*
X160840817Y-84515165D01*
X160899778Y-84587009D01*
X160899779Y-84587011D01*
X160983443Y-84743533D01*
X160983443Y-84743534D01*
X161034963Y-84913373D01*
X161052359Y-85090000D01*
X161034963Y-85266627D01*
X161000616Y-85379853D01*
X160983443Y-85436467D01*
X160927544Y-85541045D01*
X160899778Y-85592991D01*
X160870448Y-85628729D01*
X160787186Y-85730186D01*
X160685729Y-85813448D01*
X160649991Y-85842778D01*
X160649989Y-85842779D01*
X160493467Y-85926443D01*
X160436853Y-85943616D01*
X160323627Y-85977963D01*
X160257442Y-85984482D01*
X160191260Y-85991000D01*
X160102740Y-85991000D01*
X160036558Y-85984482D01*
X159970373Y-85977963D01*
X159857147Y-85943616D01*
X159800533Y-85926443D01*
X159644011Y-85842779D01*
X159644009Y-85842778D01*
X159608271Y-85813448D01*
X159506814Y-85730186D01*
X159423552Y-85628729D01*
X159394222Y-85592991D01*
X159366456Y-85541045D01*
X159310557Y-85436467D01*
X159293384Y-85379853D01*
X159259037Y-85266627D01*
X159241641Y-85090000D01*
X159259037Y-84913373D01*
X159310557Y-84743534D01*
X159310557Y-84743533D01*
X159394221Y-84587011D01*
X159394222Y-84587009D01*
X159453183Y-84515165D01*
X159506814Y-84449814D01*
X159608271Y-84366552D01*
X159644009Y-84337222D01*
X159661913Y-84327652D01*
X159800533Y-84253557D01*
X159857147Y-84236384D01*
X159970373Y-84202037D01*
X160036558Y-84195518D01*
X160102740Y-84189000D01*
X160191260Y-84189000D01*
X160257442Y-84195518D01*
X160257442Y-84195518D01*
G37*
G36*
X134857442Y-84195518D02*
X134923627Y-84202037D01*
X135036853Y-84236384D01*
X135093467Y-84253557D01*
X135232087Y-84327652D01*
X135249991Y-84337222D01*
X135285729Y-84366552D01*
X135387186Y-84449814D01*
X135440817Y-84515165D01*
X135499778Y-84587009D01*
X135499779Y-84587011D01*
X135583443Y-84743533D01*
X135583443Y-84743534D01*
X135634963Y-84913373D01*
X135652359Y-85090000D01*
X135634963Y-85266627D01*
X135600616Y-85379853D01*
X135583443Y-85436467D01*
X135527544Y-85541045D01*
X135499778Y-85592991D01*
X135470448Y-85628729D01*
X135387186Y-85730186D01*
X135285729Y-85813448D01*
X135249991Y-85842778D01*
X135249989Y-85842779D01*
X135093467Y-85926443D01*
X135036853Y-85943616D01*
X134923627Y-85977963D01*
X134857442Y-85984482D01*
X134791260Y-85991000D01*
X134702740Y-85991000D01*
X134636558Y-85984482D01*
X134570373Y-85977963D01*
X134457147Y-85943616D01*
X134400533Y-85926443D01*
X134244011Y-85842779D01*
X134244009Y-85842778D01*
X134208271Y-85813448D01*
X134106814Y-85730186D01*
X134023552Y-85628729D01*
X133994222Y-85592991D01*
X133966456Y-85541045D01*
X133910557Y-85436467D01*
X133893384Y-85379853D01*
X133859037Y-85266627D01*
X133841641Y-85090000D01*
X133859037Y-84913373D01*
X133910557Y-84743534D01*
X133910557Y-84743533D01*
X133994221Y-84587011D01*
X133994222Y-84587009D01*
X134053183Y-84515165D01*
X134106814Y-84449814D01*
X134208271Y-84366552D01*
X134244009Y-84337222D01*
X134261913Y-84327652D01*
X134400533Y-84253557D01*
X134457147Y-84236384D01*
X134570373Y-84202037D01*
X134636558Y-84195518D01*
X134702740Y-84189000D01*
X134791260Y-84189000D01*
X134857442Y-84195518D01*
X134857442Y-84195518D01*
G37*
G36*
X132317442Y-84195518D02*
X132383627Y-84202037D01*
X132496853Y-84236384D01*
X132553467Y-84253557D01*
X132692087Y-84327652D01*
X132709991Y-84337222D01*
X132745729Y-84366552D01*
X132847186Y-84449814D01*
X132900817Y-84515165D01*
X132959778Y-84587009D01*
X132959779Y-84587011D01*
X133043443Y-84743533D01*
X133043443Y-84743534D01*
X133094963Y-84913373D01*
X133112359Y-85090000D01*
X133094963Y-85266627D01*
X133060616Y-85379853D01*
X133043443Y-85436467D01*
X132987544Y-85541045D01*
X132959778Y-85592991D01*
X132930448Y-85628729D01*
X132847186Y-85730186D01*
X132745729Y-85813448D01*
X132709991Y-85842778D01*
X132709989Y-85842779D01*
X132553467Y-85926443D01*
X132496853Y-85943616D01*
X132383627Y-85977963D01*
X132317442Y-85984482D01*
X132251260Y-85991000D01*
X132162740Y-85991000D01*
X132096558Y-85984482D01*
X132030373Y-85977963D01*
X131917147Y-85943616D01*
X131860533Y-85926443D01*
X131704011Y-85842779D01*
X131704009Y-85842778D01*
X131668271Y-85813448D01*
X131566814Y-85730186D01*
X131483552Y-85628729D01*
X131454222Y-85592991D01*
X131426456Y-85541045D01*
X131370557Y-85436467D01*
X131353384Y-85379853D01*
X131319037Y-85266627D01*
X131301641Y-85090000D01*
X131319037Y-84913373D01*
X131370557Y-84743534D01*
X131370557Y-84743533D01*
X131454221Y-84587011D01*
X131454222Y-84587009D01*
X131513183Y-84515165D01*
X131566814Y-84449814D01*
X131668271Y-84366552D01*
X131704009Y-84337222D01*
X131721913Y-84327652D01*
X131860533Y-84253557D01*
X131917147Y-84236384D01*
X132030373Y-84202037D01*
X132096558Y-84195518D01*
X132162740Y-84189000D01*
X132251260Y-84189000D01*
X132317442Y-84195518D01*
X132317442Y-84195518D01*
G37*
G36*
X162797442Y-84195518D02*
X162863627Y-84202037D01*
X162976853Y-84236384D01*
X163033467Y-84253557D01*
X163172087Y-84327652D01*
X163189991Y-84337222D01*
X163225729Y-84366552D01*
X163327186Y-84449814D01*
X163380817Y-84515165D01*
X163439778Y-84587009D01*
X163439779Y-84587011D01*
X163523443Y-84743533D01*
X163523443Y-84743534D01*
X163574963Y-84913373D01*
X163592359Y-85090000D01*
X163574963Y-85266627D01*
X163540616Y-85379853D01*
X163523443Y-85436467D01*
X163467544Y-85541045D01*
X163439778Y-85592991D01*
X163410448Y-85628729D01*
X163327186Y-85730186D01*
X163225729Y-85813448D01*
X163189991Y-85842778D01*
X163189989Y-85842779D01*
X163033467Y-85926443D01*
X162976853Y-85943616D01*
X162863627Y-85977963D01*
X162797442Y-85984482D01*
X162731260Y-85991000D01*
X162642740Y-85991000D01*
X162576558Y-85984482D01*
X162510373Y-85977963D01*
X162397147Y-85943616D01*
X162340533Y-85926443D01*
X162184011Y-85842779D01*
X162184009Y-85842778D01*
X162148271Y-85813448D01*
X162046814Y-85730186D01*
X161963552Y-85628729D01*
X161934222Y-85592991D01*
X161906456Y-85541045D01*
X161850557Y-85436467D01*
X161833384Y-85379853D01*
X161799037Y-85266627D01*
X161781641Y-85090000D01*
X161799037Y-84913373D01*
X161850557Y-84743534D01*
X161850557Y-84743533D01*
X161934221Y-84587011D01*
X161934222Y-84587009D01*
X161993183Y-84515165D01*
X162046814Y-84449814D01*
X162148271Y-84366552D01*
X162184009Y-84337222D01*
X162201913Y-84327652D01*
X162340533Y-84253557D01*
X162397147Y-84236384D01*
X162510373Y-84202037D01*
X162576558Y-84195518D01*
X162642740Y-84189000D01*
X162731260Y-84189000D01*
X162797442Y-84195518D01*
X162797442Y-84195518D01*
G37*
G36*
X184455047Y-83252221D02*
X184534676Y-83260064D01*
X184636843Y-83291056D01*
X184687928Y-83306552D01*
X184829165Y-83382045D01*
X184952959Y-83483641D01*
X185054555Y-83607435D01*
X185130048Y-83748672D01*
X185130048Y-83748673D01*
X185176536Y-83901924D01*
X185192233Y-84061300D01*
X185176536Y-84220676D01*
X185145544Y-84322843D01*
X185130048Y-84373928D01*
X185054555Y-84515165D01*
X184952959Y-84638959D01*
X184829165Y-84740555D01*
X184687928Y-84816048D01*
X184636843Y-84831544D01*
X184534676Y-84862536D01*
X184455047Y-84870379D01*
X184415234Y-84874300D01*
X183859366Y-84874300D01*
X183819553Y-84870379D01*
X183739924Y-84862536D01*
X183637757Y-84831544D01*
X183586672Y-84816048D01*
X183445435Y-84740555D01*
X183321641Y-84638959D01*
X183220045Y-84515165D01*
X183144552Y-84373928D01*
X183129056Y-84322843D01*
X183098064Y-84220676D01*
X183082367Y-84061300D01*
X183098064Y-83901924D01*
X183144552Y-83748673D01*
X183144552Y-83748672D01*
X183220045Y-83607435D01*
X183321641Y-83483641D01*
X183445435Y-83382045D01*
X183586672Y-83306552D01*
X183637757Y-83291056D01*
X183739924Y-83260064D01*
X183819553Y-83252221D01*
X183859366Y-83248300D01*
X184415234Y-83248300D01*
X184455047Y-83252221D01*
X184455047Y-83252221D01*
G37*
G36*
X179654447Y-83252221D02*
X179734076Y-83260064D01*
X179836243Y-83291056D01*
X179887328Y-83306552D01*
X180028565Y-83382045D01*
X180152359Y-83483641D01*
X180253955Y-83607435D01*
X180329448Y-83748672D01*
X180329448Y-83748673D01*
X180375936Y-83901924D01*
X180391633Y-84061300D01*
X180375936Y-84220676D01*
X180344944Y-84322843D01*
X180329448Y-84373928D01*
X180253955Y-84515165D01*
X180152359Y-84638959D01*
X180028565Y-84740555D01*
X179887328Y-84816048D01*
X179836243Y-84831544D01*
X179734076Y-84862536D01*
X179654447Y-84870379D01*
X179614634Y-84874300D01*
X179058766Y-84874300D01*
X179018953Y-84870379D01*
X178939324Y-84862536D01*
X178837157Y-84831544D01*
X178786072Y-84816048D01*
X178644835Y-84740555D01*
X178521041Y-84638959D01*
X178419445Y-84515165D01*
X178343952Y-84373928D01*
X178328456Y-84322843D01*
X178297464Y-84220676D01*
X178281767Y-84061300D01*
X178297464Y-83901924D01*
X178343952Y-83748673D01*
X178343952Y-83748672D01*
X178419445Y-83607435D01*
X178521041Y-83483641D01*
X178644835Y-83382045D01*
X178786072Y-83306552D01*
X178837157Y-83291056D01*
X178939324Y-83260064D01*
X179018953Y-83252221D01*
X179058766Y-83248300D01*
X179614634Y-83248300D01*
X179654447Y-83252221D01*
X179654447Y-83252221D01*
G37*
G36*
X111328447Y-83252221D02*
X111408076Y-83260064D01*
X111510243Y-83291056D01*
X111561328Y-83306552D01*
X111702565Y-83382045D01*
X111826359Y-83483641D01*
X111927955Y-83607435D01*
X112003448Y-83748672D01*
X112003448Y-83748673D01*
X112049936Y-83901924D01*
X112065633Y-84061300D01*
X112049936Y-84220676D01*
X112018944Y-84322843D01*
X112003448Y-84373928D01*
X111927955Y-84515165D01*
X111826359Y-84638959D01*
X111702565Y-84740555D01*
X111561328Y-84816048D01*
X111510243Y-84831544D01*
X111408076Y-84862536D01*
X111328447Y-84870379D01*
X111288634Y-84874300D01*
X110732766Y-84874300D01*
X110692953Y-84870379D01*
X110613324Y-84862536D01*
X110511157Y-84831544D01*
X110460072Y-84816048D01*
X110318835Y-84740555D01*
X110195041Y-84638959D01*
X110093445Y-84515165D01*
X110017952Y-84373928D01*
X110002456Y-84322843D01*
X109971464Y-84220676D01*
X109955767Y-84061300D01*
X109971464Y-83901924D01*
X110017952Y-83748673D01*
X110017952Y-83748672D01*
X110093445Y-83607435D01*
X110195041Y-83483641D01*
X110318835Y-83382045D01*
X110460072Y-83306552D01*
X110511157Y-83291056D01*
X110613324Y-83260064D01*
X110692953Y-83252221D01*
X110732766Y-83248300D01*
X111288634Y-83248300D01*
X111328447Y-83252221D01*
X111328447Y-83252221D01*
G37*
G36*
X116129047Y-83252221D02*
X116208676Y-83260064D01*
X116310843Y-83291056D01*
X116361928Y-83306552D01*
X116503165Y-83382045D01*
X116626959Y-83483641D01*
X116728555Y-83607435D01*
X116804048Y-83748672D01*
X116804048Y-83748673D01*
X116850536Y-83901924D01*
X116866233Y-84061300D01*
X116850536Y-84220676D01*
X116819544Y-84322843D01*
X116804048Y-84373928D01*
X116728555Y-84515165D01*
X116626959Y-84638959D01*
X116503165Y-84740555D01*
X116361928Y-84816048D01*
X116310843Y-84831544D01*
X116208676Y-84862536D01*
X116129047Y-84870379D01*
X116089234Y-84874300D01*
X115533366Y-84874300D01*
X115493553Y-84870379D01*
X115413924Y-84862536D01*
X115311757Y-84831544D01*
X115260672Y-84816048D01*
X115119435Y-84740555D01*
X114995641Y-84638959D01*
X114894045Y-84515165D01*
X114818552Y-84373928D01*
X114803056Y-84322843D01*
X114772064Y-84220676D01*
X114756367Y-84061300D01*
X114772064Y-83901924D01*
X114818552Y-83748673D01*
X114818552Y-83748672D01*
X114894045Y-83607435D01*
X114995641Y-83483641D01*
X115119435Y-83382045D01*
X115260672Y-83306552D01*
X115311757Y-83291056D01*
X115413924Y-83260064D01*
X115493553Y-83252221D01*
X115533366Y-83248300D01*
X116089234Y-83248300D01*
X116129047Y-83252221D01*
X116129047Y-83252221D01*
G37*
G36*
X160257443Y-81655519D02*
X160323627Y-81662037D01*
X160422817Y-81692126D01*
X160493467Y-81713557D01*
X160632087Y-81787652D01*
X160649991Y-81797222D01*
X160685729Y-81826552D01*
X160787186Y-81909814D01*
X160870123Y-82010874D01*
X160899778Y-82047009D01*
X160899779Y-82047011D01*
X160983443Y-82203533D01*
X160983443Y-82203534D01*
X161034963Y-82373373D01*
X161052359Y-82550000D01*
X161034963Y-82726627D01*
X161000616Y-82839853D01*
X160983443Y-82896467D01*
X160909348Y-83035087D01*
X160899778Y-83052991D01*
X160870448Y-83088729D01*
X160787186Y-83190186D01*
X160702038Y-83260064D01*
X160649991Y-83302778D01*
X160649989Y-83302779D01*
X160493467Y-83386443D01*
X160436853Y-83403616D01*
X160323627Y-83437963D01*
X160257443Y-83444481D01*
X160191260Y-83451000D01*
X160102740Y-83451000D01*
X160036557Y-83444481D01*
X159970373Y-83437963D01*
X159857147Y-83403616D01*
X159800533Y-83386443D01*
X159644011Y-83302779D01*
X159644009Y-83302778D01*
X159591962Y-83260064D01*
X159506814Y-83190186D01*
X159423552Y-83088729D01*
X159394222Y-83052991D01*
X159384652Y-83035087D01*
X159310557Y-82896467D01*
X159293384Y-82839853D01*
X159259037Y-82726627D01*
X159241641Y-82550000D01*
X159259037Y-82373373D01*
X159310557Y-82203534D01*
X159310557Y-82203533D01*
X159394221Y-82047011D01*
X159394222Y-82047009D01*
X159423877Y-82010874D01*
X159506814Y-81909814D01*
X159608271Y-81826552D01*
X159644009Y-81797222D01*
X159661913Y-81787652D01*
X159800533Y-81713557D01*
X159871183Y-81692126D01*
X159970373Y-81662037D01*
X160036557Y-81655519D01*
X160102740Y-81649000D01*
X160191260Y-81649000D01*
X160257443Y-81655519D01*
X160257443Y-81655519D01*
G37*
G36*
X162797443Y-81655519D02*
X162863627Y-81662037D01*
X162962817Y-81692126D01*
X163033467Y-81713557D01*
X163172087Y-81787652D01*
X163189991Y-81797222D01*
X163225729Y-81826552D01*
X163327186Y-81909814D01*
X163410123Y-82010874D01*
X163439778Y-82047009D01*
X163439779Y-82047011D01*
X163523443Y-82203533D01*
X163523443Y-82203534D01*
X163574963Y-82373373D01*
X163592359Y-82550000D01*
X163574963Y-82726627D01*
X163540616Y-82839853D01*
X163523443Y-82896467D01*
X163449348Y-83035087D01*
X163439778Y-83052991D01*
X163410448Y-83088729D01*
X163327186Y-83190186D01*
X163242038Y-83260064D01*
X163189991Y-83302778D01*
X163189989Y-83302779D01*
X163033467Y-83386443D01*
X162976853Y-83403616D01*
X162863627Y-83437963D01*
X162797443Y-83444481D01*
X162731260Y-83451000D01*
X162642740Y-83451000D01*
X162576557Y-83444481D01*
X162510373Y-83437963D01*
X162397147Y-83403616D01*
X162340533Y-83386443D01*
X162184011Y-83302779D01*
X162184009Y-83302778D01*
X162131962Y-83260064D01*
X162046814Y-83190186D01*
X161963552Y-83088729D01*
X161934222Y-83052991D01*
X161924652Y-83035087D01*
X161850557Y-82896467D01*
X161833384Y-82839853D01*
X161799037Y-82726627D01*
X161781641Y-82550000D01*
X161799037Y-82373373D01*
X161850557Y-82203534D01*
X161850557Y-82203533D01*
X161934221Y-82047011D01*
X161934222Y-82047009D01*
X161963877Y-82010874D01*
X162046814Y-81909814D01*
X162148271Y-81826552D01*
X162184009Y-81797222D01*
X162201913Y-81787652D01*
X162340533Y-81713557D01*
X162411183Y-81692126D01*
X162510373Y-81662037D01*
X162576557Y-81655519D01*
X162642740Y-81649000D01*
X162731260Y-81649000D01*
X162797443Y-81655519D01*
X162797443Y-81655519D01*
G37*
G36*
X134857443Y-81655519D02*
X134923627Y-81662037D01*
X135022817Y-81692126D01*
X135093467Y-81713557D01*
X135232087Y-81787652D01*
X135249991Y-81797222D01*
X135285729Y-81826552D01*
X135387186Y-81909814D01*
X135470123Y-82010874D01*
X135499778Y-82047009D01*
X135499779Y-82047011D01*
X135583443Y-82203533D01*
X135583443Y-82203534D01*
X135634963Y-82373373D01*
X135652359Y-82550000D01*
X135634963Y-82726627D01*
X135600616Y-82839853D01*
X135583443Y-82896467D01*
X135509348Y-83035087D01*
X135499778Y-83052991D01*
X135470448Y-83088729D01*
X135387186Y-83190186D01*
X135302038Y-83260064D01*
X135249991Y-83302778D01*
X135249989Y-83302779D01*
X135093467Y-83386443D01*
X135036853Y-83403616D01*
X134923627Y-83437963D01*
X134857443Y-83444481D01*
X134791260Y-83451000D01*
X134702740Y-83451000D01*
X134636557Y-83444481D01*
X134570373Y-83437963D01*
X134457147Y-83403616D01*
X134400533Y-83386443D01*
X134244011Y-83302779D01*
X134244009Y-83302778D01*
X134191962Y-83260064D01*
X134106814Y-83190186D01*
X134023552Y-83088729D01*
X133994222Y-83052991D01*
X133984652Y-83035087D01*
X133910557Y-82896467D01*
X133893384Y-82839853D01*
X133859037Y-82726627D01*
X133841641Y-82550000D01*
X133859037Y-82373373D01*
X133910557Y-82203534D01*
X133910557Y-82203533D01*
X133994221Y-82047011D01*
X133994222Y-82047009D01*
X134023877Y-82010874D01*
X134106814Y-81909814D01*
X134208271Y-81826552D01*
X134244009Y-81797222D01*
X134261913Y-81787652D01*
X134400533Y-81713557D01*
X134471183Y-81692126D01*
X134570373Y-81662037D01*
X134636557Y-81655519D01*
X134702740Y-81649000D01*
X134791260Y-81649000D01*
X134857443Y-81655519D01*
X134857443Y-81655519D01*
G37*
G36*
X132317443Y-81655519D02*
X132383627Y-81662037D01*
X132482817Y-81692126D01*
X132553467Y-81713557D01*
X132692087Y-81787652D01*
X132709991Y-81797222D01*
X132745729Y-81826552D01*
X132847186Y-81909814D01*
X132930123Y-82010874D01*
X132959778Y-82047009D01*
X132959779Y-82047011D01*
X133043443Y-82203533D01*
X133043443Y-82203534D01*
X133094963Y-82373373D01*
X133112359Y-82550000D01*
X133094963Y-82726627D01*
X133060616Y-82839853D01*
X133043443Y-82896467D01*
X132969348Y-83035087D01*
X132959778Y-83052991D01*
X132930448Y-83088729D01*
X132847186Y-83190186D01*
X132762038Y-83260064D01*
X132709991Y-83302778D01*
X132709989Y-83302779D01*
X132553467Y-83386443D01*
X132496853Y-83403616D01*
X132383627Y-83437963D01*
X132317443Y-83444481D01*
X132251260Y-83451000D01*
X132162740Y-83451000D01*
X132096557Y-83444481D01*
X132030373Y-83437963D01*
X131917147Y-83403616D01*
X131860533Y-83386443D01*
X131704011Y-83302779D01*
X131704009Y-83302778D01*
X131651962Y-83260064D01*
X131566814Y-83190186D01*
X131483552Y-83088729D01*
X131454222Y-83052991D01*
X131444652Y-83035087D01*
X131370557Y-82896467D01*
X131353384Y-82839853D01*
X131319037Y-82726627D01*
X131301641Y-82550000D01*
X131319037Y-82373373D01*
X131370557Y-82203534D01*
X131370557Y-82203533D01*
X131454221Y-82047011D01*
X131454222Y-82047009D01*
X131483877Y-82010874D01*
X131566814Y-81909814D01*
X131668271Y-81826552D01*
X131704009Y-81797222D01*
X131721913Y-81787652D01*
X131860533Y-81713557D01*
X131931183Y-81692126D01*
X132030373Y-81662037D01*
X132096557Y-81655519D01*
X132162740Y-81649000D01*
X132251260Y-81649000D01*
X132317443Y-81655519D01*
X132317443Y-81655519D01*
G37*
G36*
X184455047Y-81042421D02*
X184534676Y-81050264D01*
X184636843Y-81081256D01*
X184687928Y-81096752D01*
X184829165Y-81172245D01*
X184952959Y-81273841D01*
X185054555Y-81397635D01*
X185130048Y-81538872D01*
X185130048Y-81538873D01*
X185176536Y-81692124D01*
X185192233Y-81851500D01*
X185176536Y-82010876D01*
X185145544Y-82113043D01*
X185130048Y-82164128D01*
X185054555Y-82305365D01*
X184952959Y-82429159D01*
X184829165Y-82530755D01*
X184687928Y-82606248D01*
X184636843Y-82621744D01*
X184534676Y-82652736D01*
X184455047Y-82660579D01*
X184415234Y-82664500D01*
X183859366Y-82664500D01*
X183819553Y-82660579D01*
X183739924Y-82652736D01*
X183637757Y-82621744D01*
X183586672Y-82606248D01*
X183445435Y-82530755D01*
X183321641Y-82429159D01*
X183220045Y-82305365D01*
X183144552Y-82164128D01*
X183129056Y-82113043D01*
X183098064Y-82010876D01*
X183082367Y-81851500D01*
X183098064Y-81692124D01*
X183144552Y-81538873D01*
X183144552Y-81538872D01*
X183220045Y-81397635D01*
X183321641Y-81273841D01*
X183445435Y-81172245D01*
X183586672Y-81096752D01*
X183637757Y-81081256D01*
X183739924Y-81050264D01*
X183819553Y-81042421D01*
X183859366Y-81038500D01*
X184415234Y-81038500D01*
X184455047Y-81042421D01*
X184455047Y-81042421D01*
G37*
G36*
X179654447Y-81042421D02*
X179734076Y-81050264D01*
X179836243Y-81081256D01*
X179887328Y-81096752D01*
X180028565Y-81172245D01*
X180152359Y-81273841D01*
X180253955Y-81397635D01*
X180329448Y-81538872D01*
X180329448Y-81538873D01*
X180375936Y-81692124D01*
X180391633Y-81851500D01*
X180375936Y-82010876D01*
X180344944Y-82113043D01*
X180329448Y-82164128D01*
X180253955Y-82305365D01*
X180152359Y-82429159D01*
X180028565Y-82530755D01*
X179887328Y-82606248D01*
X179836243Y-82621744D01*
X179734076Y-82652736D01*
X179654447Y-82660579D01*
X179614634Y-82664500D01*
X179058766Y-82664500D01*
X179018953Y-82660579D01*
X178939324Y-82652736D01*
X178837157Y-82621744D01*
X178786072Y-82606248D01*
X178644835Y-82530755D01*
X178521041Y-82429159D01*
X178419445Y-82305365D01*
X178343952Y-82164128D01*
X178328456Y-82113043D01*
X178297464Y-82010876D01*
X178281767Y-81851500D01*
X178297464Y-81692124D01*
X178343952Y-81538873D01*
X178343952Y-81538872D01*
X178419445Y-81397635D01*
X178521041Y-81273841D01*
X178644835Y-81172245D01*
X178786072Y-81096752D01*
X178837157Y-81081256D01*
X178939324Y-81050264D01*
X179018953Y-81042421D01*
X179058766Y-81038500D01*
X179614634Y-81038500D01*
X179654447Y-81042421D01*
X179654447Y-81042421D01*
G37*
G36*
X116129047Y-81042421D02*
X116208676Y-81050264D01*
X116310843Y-81081256D01*
X116361928Y-81096752D01*
X116503165Y-81172245D01*
X116626959Y-81273841D01*
X116728555Y-81397635D01*
X116804048Y-81538872D01*
X116804048Y-81538873D01*
X116850536Y-81692124D01*
X116866233Y-81851500D01*
X116850536Y-82010876D01*
X116819544Y-82113043D01*
X116804048Y-82164128D01*
X116728555Y-82305365D01*
X116626959Y-82429159D01*
X116503165Y-82530755D01*
X116361928Y-82606248D01*
X116310843Y-82621744D01*
X116208676Y-82652736D01*
X116129047Y-82660579D01*
X116089234Y-82664500D01*
X115533366Y-82664500D01*
X115493553Y-82660579D01*
X115413924Y-82652736D01*
X115311757Y-82621744D01*
X115260672Y-82606248D01*
X115119435Y-82530755D01*
X114995641Y-82429159D01*
X114894045Y-82305365D01*
X114818552Y-82164128D01*
X114803056Y-82113043D01*
X114772064Y-82010876D01*
X114756367Y-81851500D01*
X114772064Y-81692124D01*
X114818552Y-81538873D01*
X114818552Y-81538872D01*
X114894045Y-81397635D01*
X114995641Y-81273841D01*
X115119435Y-81172245D01*
X115260672Y-81096752D01*
X115311757Y-81081256D01*
X115413924Y-81050264D01*
X115493553Y-81042421D01*
X115533366Y-81038500D01*
X116089234Y-81038500D01*
X116129047Y-81042421D01*
X116129047Y-81042421D01*
G37*
G36*
X111328447Y-81042421D02*
X111408076Y-81050264D01*
X111510243Y-81081256D01*
X111561328Y-81096752D01*
X111702565Y-81172245D01*
X111826359Y-81273841D01*
X111927955Y-81397635D01*
X112003448Y-81538872D01*
X112003448Y-81538873D01*
X112049936Y-81692124D01*
X112065633Y-81851500D01*
X112049936Y-82010876D01*
X112018944Y-82113043D01*
X112003448Y-82164128D01*
X111927955Y-82305365D01*
X111826359Y-82429159D01*
X111702565Y-82530755D01*
X111561328Y-82606248D01*
X111510243Y-82621744D01*
X111408076Y-82652736D01*
X111328447Y-82660579D01*
X111288634Y-82664500D01*
X110732766Y-82664500D01*
X110692953Y-82660579D01*
X110613324Y-82652736D01*
X110511157Y-82621744D01*
X110460072Y-82606248D01*
X110318835Y-82530755D01*
X110195041Y-82429159D01*
X110093445Y-82305365D01*
X110017952Y-82164128D01*
X110002456Y-82113043D01*
X109971464Y-82010876D01*
X109955767Y-81851500D01*
X109971464Y-81692124D01*
X110017952Y-81538873D01*
X110017952Y-81538872D01*
X110093445Y-81397635D01*
X110195041Y-81273841D01*
X110318835Y-81172245D01*
X110460072Y-81096752D01*
X110511157Y-81081256D01*
X110613324Y-81050264D01*
X110692953Y-81042421D01*
X110732766Y-81038500D01*
X111288634Y-81038500D01*
X111328447Y-81042421D01*
X111328447Y-81042421D01*
G37*
G36*
X160250564Y-79114841D02*
X160323627Y-79122037D01*
X160436853Y-79156384D01*
X160493467Y-79173557D01*
X160615219Y-79238636D01*
X160649991Y-79257222D01*
X160685729Y-79286552D01*
X160787186Y-79369814D01*
X160870448Y-79471271D01*
X160899778Y-79507009D01*
X160899779Y-79507011D01*
X160983443Y-79663533D01*
X160983443Y-79663534D01*
X161034963Y-79833373D01*
X161052359Y-80010000D01*
X161034963Y-80186627D01*
X161009624Y-80270159D01*
X160983443Y-80356467D01*
X160975271Y-80371755D01*
X160899778Y-80512991D01*
X160870448Y-80548729D01*
X160787186Y-80650186D01*
X160685729Y-80733448D01*
X160649991Y-80762778D01*
X160649989Y-80762779D01*
X160493467Y-80846443D01*
X160436853Y-80863616D01*
X160323627Y-80897963D01*
X160257442Y-80904482D01*
X160191260Y-80911000D01*
X160102740Y-80911000D01*
X160036558Y-80904482D01*
X159970373Y-80897963D01*
X159857147Y-80863616D01*
X159800533Y-80846443D01*
X159644011Y-80762779D01*
X159644009Y-80762778D01*
X159608271Y-80733448D01*
X159506814Y-80650186D01*
X159423552Y-80548729D01*
X159394222Y-80512991D01*
X159318729Y-80371755D01*
X159310557Y-80356467D01*
X159284376Y-80270159D01*
X159259037Y-80186627D01*
X159241641Y-80010000D01*
X159259037Y-79833373D01*
X159310557Y-79663534D01*
X159310557Y-79663533D01*
X159394221Y-79507011D01*
X159394222Y-79507009D01*
X159423552Y-79471271D01*
X159506814Y-79369814D01*
X159608271Y-79286552D01*
X159644009Y-79257222D01*
X159678781Y-79238636D01*
X159800533Y-79173557D01*
X159857147Y-79156384D01*
X159970373Y-79122037D01*
X160043436Y-79114841D01*
X160102740Y-79109000D01*
X160191260Y-79109000D01*
X160250564Y-79114841D01*
X160250564Y-79114841D01*
G37*
G36*
X132310564Y-79114841D02*
X132383627Y-79122037D01*
X132496853Y-79156384D01*
X132553467Y-79173557D01*
X132675219Y-79238636D01*
X132709991Y-79257222D01*
X132745729Y-79286552D01*
X132847186Y-79369814D01*
X132930448Y-79471271D01*
X132959778Y-79507009D01*
X132959779Y-79507011D01*
X133043443Y-79663533D01*
X133043443Y-79663534D01*
X133094963Y-79833373D01*
X133112359Y-80010000D01*
X133094963Y-80186627D01*
X133069624Y-80270159D01*
X133043443Y-80356467D01*
X133035271Y-80371755D01*
X132959778Y-80512991D01*
X132930448Y-80548729D01*
X132847186Y-80650186D01*
X132745729Y-80733448D01*
X132709991Y-80762778D01*
X132709989Y-80762779D01*
X132553467Y-80846443D01*
X132496853Y-80863616D01*
X132383627Y-80897963D01*
X132317442Y-80904482D01*
X132251260Y-80911000D01*
X132162740Y-80911000D01*
X132096558Y-80904482D01*
X132030373Y-80897963D01*
X131917147Y-80863616D01*
X131860533Y-80846443D01*
X131704011Y-80762779D01*
X131704009Y-80762778D01*
X131668271Y-80733448D01*
X131566814Y-80650186D01*
X131483552Y-80548729D01*
X131454222Y-80512991D01*
X131378729Y-80371755D01*
X131370557Y-80356467D01*
X131344376Y-80270159D01*
X131319037Y-80186627D01*
X131301641Y-80010000D01*
X131319037Y-79833373D01*
X131370557Y-79663534D01*
X131370557Y-79663533D01*
X131454221Y-79507011D01*
X131454222Y-79507009D01*
X131483552Y-79471271D01*
X131566814Y-79369814D01*
X131668271Y-79286552D01*
X131704009Y-79257222D01*
X131738781Y-79238636D01*
X131860533Y-79173557D01*
X131917147Y-79156384D01*
X132030373Y-79122037D01*
X132103436Y-79114841D01*
X132162740Y-79109000D01*
X132251260Y-79109000D01*
X132310564Y-79114841D01*
X132310564Y-79114841D01*
G37*
G36*
X134850564Y-79114841D02*
X134923627Y-79122037D01*
X135036853Y-79156384D01*
X135093467Y-79173557D01*
X135215219Y-79238636D01*
X135249991Y-79257222D01*
X135285729Y-79286552D01*
X135387186Y-79369814D01*
X135470448Y-79471271D01*
X135499778Y-79507009D01*
X135499779Y-79507011D01*
X135583443Y-79663533D01*
X135583443Y-79663534D01*
X135634963Y-79833373D01*
X135652359Y-80010000D01*
X135634963Y-80186627D01*
X135609624Y-80270159D01*
X135583443Y-80356467D01*
X135575271Y-80371755D01*
X135499778Y-80512991D01*
X135470448Y-80548729D01*
X135387186Y-80650186D01*
X135285729Y-80733448D01*
X135249991Y-80762778D01*
X135249989Y-80762779D01*
X135093467Y-80846443D01*
X135036853Y-80863616D01*
X134923627Y-80897963D01*
X134857442Y-80904482D01*
X134791260Y-80911000D01*
X134702740Y-80911000D01*
X134636558Y-80904482D01*
X134570373Y-80897963D01*
X134457147Y-80863616D01*
X134400533Y-80846443D01*
X134244011Y-80762779D01*
X134244009Y-80762778D01*
X134208271Y-80733448D01*
X134106814Y-80650186D01*
X134023552Y-80548729D01*
X133994222Y-80512991D01*
X133918729Y-80371755D01*
X133910557Y-80356467D01*
X133884376Y-80270159D01*
X133859037Y-80186627D01*
X133841641Y-80010000D01*
X133859037Y-79833373D01*
X133910557Y-79663534D01*
X133910557Y-79663533D01*
X133994221Y-79507011D01*
X133994222Y-79507009D01*
X134023552Y-79471271D01*
X134106814Y-79369814D01*
X134208271Y-79286552D01*
X134244009Y-79257222D01*
X134278781Y-79238636D01*
X134400533Y-79173557D01*
X134457147Y-79156384D01*
X134570373Y-79122037D01*
X134643436Y-79114841D01*
X134702740Y-79109000D01*
X134791260Y-79109000D01*
X134850564Y-79114841D01*
X134850564Y-79114841D01*
G37*
G36*
X162790564Y-79114841D02*
X162863627Y-79122037D01*
X162976853Y-79156384D01*
X163033467Y-79173557D01*
X163155219Y-79238636D01*
X163189991Y-79257222D01*
X163225729Y-79286552D01*
X163327186Y-79369814D01*
X163410448Y-79471271D01*
X163439778Y-79507009D01*
X163439779Y-79507011D01*
X163523443Y-79663533D01*
X163523443Y-79663534D01*
X163574963Y-79833373D01*
X163592359Y-80010000D01*
X163574963Y-80186627D01*
X163549624Y-80270159D01*
X163523443Y-80356467D01*
X163515271Y-80371755D01*
X163439778Y-80512991D01*
X163410448Y-80548729D01*
X163327186Y-80650186D01*
X163225729Y-80733448D01*
X163189991Y-80762778D01*
X163189989Y-80762779D01*
X163033467Y-80846443D01*
X162976853Y-80863616D01*
X162863627Y-80897963D01*
X162797442Y-80904482D01*
X162731260Y-80911000D01*
X162642740Y-80911000D01*
X162576558Y-80904482D01*
X162510373Y-80897963D01*
X162397147Y-80863616D01*
X162340533Y-80846443D01*
X162184011Y-80762779D01*
X162184009Y-80762778D01*
X162148271Y-80733448D01*
X162046814Y-80650186D01*
X161963552Y-80548729D01*
X161934222Y-80512991D01*
X161858729Y-80371755D01*
X161850557Y-80356467D01*
X161824376Y-80270159D01*
X161799037Y-80186627D01*
X161781641Y-80010000D01*
X161799037Y-79833373D01*
X161850557Y-79663534D01*
X161850557Y-79663533D01*
X161934221Y-79507011D01*
X161934222Y-79507009D01*
X161963552Y-79471271D01*
X162046814Y-79369814D01*
X162148271Y-79286552D01*
X162184009Y-79257222D01*
X162218781Y-79238636D01*
X162340533Y-79173557D01*
X162397147Y-79156384D01*
X162510373Y-79122037D01*
X162583436Y-79114841D01*
X162642740Y-79109000D01*
X162731260Y-79109000D01*
X162790564Y-79114841D01*
X162790564Y-79114841D01*
G37*
G36*
X116129047Y-78883421D02*
X116208676Y-78891264D01*
X116310843Y-78922256D01*
X116361928Y-78937752D01*
X116503165Y-79013245D01*
X116626959Y-79114841D01*
X116728555Y-79238635D01*
X116804048Y-79379872D01*
X116804048Y-79379873D01*
X116850536Y-79533124D01*
X116866233Y-79692500D01*
X116850536Y-79851876D01*
X116819544Y-79954043D01*
X116804048Y-80005128D01*
X116728555Y-80146365D01*
X116626959Y-80270159D01*
X116503165Y-80371755D01*
X116361928Y-80447248D01*
X116310843Y-80462744D01*
X116208676Y-80493736D01*
X116129047Y-80501579D01*
X116089234Y-80505500D01*
X115533366Y-80505500D01*
X115493553Y-80501579D01*
X115413924Y-80493736D01*
X115311757Y-80462744D01*
X115260672Y-80447248D01*
X115119435Y-80371755D01*
X114995641Y-80270159D01*
X114894045Y-80146365D01*
X114818552Y-80005128D01*
X114803056Y-79954043D01*
X114772064Y-79851876D01*
X114756367Y-79692500D01*
X114772064Y-79533124D01*
X114818552Y-79379873D01*
X114818552Y-79379872D01*
X114894045Y-79238635D01*
X114995641Y-79114841D01*
X115119435Y-79013245D01*
X115260672Y-78937752D01*
X115311757Y-78922256D01*
X115413924Y-78891264D01*
X115493553Y-78883421D01*
X115533366Y-78879500D01*
X116089234Y-78879500D01*
X116129047Y-78883421D01*
X116129047Y-78883421D01*
G37*
G36*
X179654447Y-78883421D02*
X179734076Y-78891264D01*
X179836243Y-78922256D01*
X179887328Y-78937752D01*
X180028565Y-79013245D01*
X180152359Y-79114841D01*
X180253955Y-79238635D01*
X180329448Y-79379872D01*
X180329448Y-79379873D01*
X180375936Y-79533124D01*
X180391633Y-79692500D01*
X180375936Y-79851876D01*
X180344944Y-79954043D01*
X180329448Y-80005128D01*
X180253955Y-80146365D01*
X180152359Y-80270159D01*
X180028565Y-80371755D01*
X179887328Y-80447248D01*
X179836243Y-80462744D01*
X179734076Y-80493736D01*
X179654447Y-80501579D01*
X179614634Y-80505500D01*
X179058766Y-80505500D01*
X179018953Y-80501579D01*
X178939324Y-80493736D01*
X178837157Y-80462744D01*
X178786072Y-80447248D01*
X178644835Y-80371755D01*
X178521041Y-80270159D01*
X178419445Y-80146365D01*
X178343952Y-80005128D01*
X178328456Y-79954043D01*
X178297464Y-79851876D01*
X178281767Y-79692500D01*
X178297464Y-79533124D01*
X178343952Y-79379873D01*
X178343952Y-79379872D01*
X178419445Y-79238635D01*
X178521041Y-79114841D01*
X178644835Y-79013245D01*
X178786072Y-78937752D01*
X178837157Y-78922256D01*
X178939324Y-78891264D01*
X179018953Y-78883421D01*
X179058766Y-78879500D01*
X179614634Y-78879500D01*
X179654447Y-78883421D01*
X179654447Y-78883421D01*
G37*
G36*
X184455047Y-78883421D02*
X184534676Y-78891264D01*
X184636843Y-78922256D01*
X184687928Y-78937752D01*
X184829165Y-79013245D01*
X184952959Y-79114841D01*
X185054555Y-79238635D01*
X185130048Y-79379872D01*
X185130048Y-79379873D01*
X185176536Y-79533124D01*
X185192233Y-79692500D01*
X185176536Y-79851876D01*
X185145544Y-79954043D01*
X185130048Y-80005128D01*
X185054555Y-80146365D01*
X184952959Y-80270159D01*
X184829165Y-80371755D01*
X184687928Y-80447248D01*
X184636843Y-80462744D01*
X184534676Y-80493736D01*
X184455047Y-80501579D01*
X184415234Y-80505500D01*
X183859366Y-80505500D01*
X183819553Y-80501579D01*
X183739924Y-80493736D01*
X183637757Y-80462744D01*
X183586672Y-80447248D01*
X183445435Y-80371755D01*
X183321641Y-80270159D01*
X183220045Y-80146365D01*
X183144552Y-80005128D01*
X183129056Y-79954043D01*
X183098064Y-79851876D01*
X183082367Y-79692500D01*
X183098064Y-79533124D01*
X183144552Y-79379873D01*
X183144552Y-79379872D01*
X183220045Y-79238635D01*
X183321641Y-79114841D01*
X183445435Y-79013245D01*
X183586672Y-78937752D01*
X183637757Y-78922256D01*
X183739924Y-78891264D01*
X183819553Y-78883421D01*
X183859366Y-78879500D01*
X184415234Y-78879500D01*
X184455047Y-78883421D01*
X184455047Y-78883421D01*
G37*
G36*
X111328447Y-78883421D02*
X111408076Y-78891264D01*
X111510243Y-78922256D01*
X111561328Y-78937752D01*
X111702565Y-79013245D01*
X111826359Y-79114841D01*
X111927955Y-79238635D01*
X112003448Y-79379872D01*
X112003448Y-79379873D01*
X112049936Y-79533124D01*
X112065633Y-79692500D01*
X112049936Y-79851876D01*
X112018944Y-79954043D01*
X112003448Y-80005128D01*
X111927955Y-80146365D01*
X111826359Y-80270159D01*
X111702565Y-80371755D01*
X111561328Y-80447248D01*
X111510243Y-80462744D01*
X111408076Y-80493736D01*
X111328447Y-80501579D01*
X111288634Y-80505500D01*
X110732766Y-80505500D01*
X110692953Y-80501579D01*
X110613324Y-80493736D01*
X110511157Y-80462744D01*
X110460072Y-80447248D01*
X110318835Y-80371755D01*
X110195041Y-80270159D01*
X110093445Y-80146365D01*
X110017952Y-80005128D01*
X110002456Y-79954043D01*
X109971464Y-79851876D01*
X109955767Y-79692500D01*
X109971464Y-79533124D01*
X110017952Y-79379873D01*
X110017952Y-79379872D01*
X110093445Y-79238635D01*
X110195041Y-79114841D01*
X110318835Y-79013245D01*
X110460072Y-78937752D01*
X110511157Y-78922256D01*
X110613324Y-78891264D01*
X110692953Y-78883421D01*
X110732766Y-78879500D01*
X111288634Y-78879500D01*
X111328447Y-78883421D01*
X111328447Y-78883421D01*
G37*
G36*
X134857443Y-76575519D02*
X134923627Y-76582037D01*
X135036853Y-76616384D01*
X135093467Y-76633557D01*
X135183093Y-76681464D01*
X135249991Y-76717222D01*
X135263065Y-76727952D01*
X135387186Y-76829814D01*
X135448922Y-76905041D01*
X135499778Y-76967009D01*
X135499779Y-76967011D01*
X135583443Y-77123533D01*
X135583443Y-77123534D01*
X135634963Y-77293373D01*
X135652359Y-77470000D01*
X135634963Y-77646627D01*
X135600616Y-77759853D01*
X135583443Y-77816467D01*
X135519249Y-77936564D01*
X135499778Y-77972991D01*
X135470448Y-78008729D01*
X135387186Y-78110186D01*
X135324104Y-78161955D01*
X135249991Y-78222778D01*
X135249989Y-78222779D01*
X135093467Y-78306443D01*
X135036853Y-78323616D01*
X134923627Y-78357963D01*
X134857443Y-78364481D01*
X134791260Y-78371000D01*
X134702740Y-78371000D01*
X134636557Y-78364481D01*
X134570373Y-78357963D01*
X134457147Y-78323616D01*
X134400533Y-78306443D01*
X134244011Y-78222779D01*
X134244009Y-78222778D01*
X134169896Y-78161955D01*
X134106814Y-78110186D01*
X134023552Y-78008729D01*
X133994222Y-77972991D01*
X133974751Y-77936564D01*
X133910557Y-77816467D01*
X133893384Y-77759853D01*
X133859037Y-77646627D01*
X133841641Y-77470000D01*
X133859037Y-77293373D01*
X133910557Y-77123534D01*
X133910557Y-77123533D01*
X133994221Y-76967011D01*
X133994222Y-76967009D01*
X134045078Y-76905041D01*
X134106814Y-76829814D01*
X134230935Y-76727952D01*
X134244009Y-76717222D01*
X134310907Y-76681464D01*
X134400533Y-76633557D01*
X134457147Y-76616384D01*
X134570373Y-76582037D01*
X134636557Y-76575519D01*
X134702740Y-76569000D01*
X134791260Y-76569000D01*
X134857443Y-76575519D01*
X134857443Y-76575519D01*
G37*
G36*
X162797443Y-76575519D02*
X162863627Y-76582037D01*
X162976853Y-76616384D01*
X163033467Y-76633557D01*
X163123093Y-76681464D01*
X163189991Y-76717222D01*
X163203065Y-76727952D01*
X163327186Y-76829814D01*
X163388922Y-76905041D01*
X163439778Y-76967009D01*
X163439779Y-76967011D01*
X163523443Y-77123533D01*
X163523443Y-77123534D01*
X163574963Y-77293373D01*
X163592359Y-77470000D01*
X163574963Y-77646627D01*
X163540616Y-77759853D01*
X163523443Y-77816467D01*
X163459249Y-77936564D01*
X163439778Y-77972991D01*
X163410448Y-78008729D01*
X163327186Y-78110186D01*
X163264104Y-78161955D01*
X163189991Y-78222778D01*
X163189989Y-78222779D01*
X163033467Y-78306443D01*
X162976853Y-78323616D01*
X162863627Y-78357963D01*
X162797443Y-78364481D01*
X162731260Y-78371000D01*
X162642740Y-78371000D01*
X162576557Y-78364481D01*
X162510373Y-78357963D01*
X162397147Y-78323616D01*
X162340533Y-78306443D01*
X162184011Y-78222779D01*
X162184009Y-78222778D01*
X162109896Y-78161955D01*
X162046814Y-78110186D01*
X161963552Y-78008729D01*
X161934222Y-77972991D01*
X161914751Y-77936564D01*
X161850557Y-77816467D01*
X161833384Y-77759853D01*
X161799037Y-77646627D01*
X161781641Y-77470000D01*
X161799037Y-77293373D01*
X161850557Y-77123534D01*
X161850557Y-77123533D01*
X161934221Y-76967011D01*
X161934222Y-76967009D01*
X161985078Y-76905041D01*
X162046814Y-76829814D01*
X162170935Y-76727952D01*
X162184009Y-76717222D01*
X162250907Y-76681464D01*
X162340533Y-76633557D01*
X162397147Y-76616384D01*
X162510373Y-76582037D01*
X162576557Y-76575519D01*
X162642740Y-76569000D01*
X162731260Y-76569000D01*
X162797443Y-76575519D01*
X162797443Y-76575519D01*
G37*
G36*
X160257443Y-76575519D02*
X160323627Y-76582037D01*
X160436853Y-76616384D01*
X160493467Y-76633557D01*
X160583093Y-76681464D01*
X160649991Y-76717222D01*
X160663065Y-76727952D01*
X160787186Y-76829814D01*
X160848922Y-76905041D01*
X160899778Y-76967009D01*
X160899779Y-76967011D01*
X160983443Y-77123533D01*
X160983443Y-77123534D01*
X161034963Y-77293373D01*
X161052359Y-77470000D01*
X161034963Y-77646627D01*
X161000616Y-77759853D01*
X160983443Y-77816467D01*
X160919249Y-77936564D01*
X160899778Y-77972991D01*
X160870448Y-78008729D01*
X160787186Y-78110186D01*
X160724104Y-78161955D01*
X160649991Y-78222778D01*
X160649989Y-78222779D01*
X160493467Y-78306443D01*
X160436853Y-78323616D01*
X160323627Y-78357963D01*
X160257443Y-78364481D01*
X160191260Y-78371000D01*
X160102740Y-78371000D01*
X160036557Y-78364481D01*
X159970373Y-78357963D01*
X159857147Y-78323616D01*
X159800533Y-78306443D01*
X159644011Y-78222779D01*
X159644009Y-78222778D01*
X159569896Y-78161955D01*
X159506814Y-78110186D01*
X159423552Y-78008729D01*
X159394222Y-77972991D01*
X159374751Y-77936564D01*
X159310557Y-77816467D01*
X159293384Y-77759853D01*
X159259037Y-77646627D01*
X159241641Y-77470000D01*
X159259037Y-77293373D01*
X159310557Y-77123534D01*
X159310557Y-77123533D01*
X159394221Y-76967011D01*
X159394222Y-76967009D01*
X159445078Y-76905041D01*
X159506814Y-76829814D01*
X159630935Y-76727952D01*
X159644009Y-76717222D01*
X159710907Y-76681464D01*
X159800533Y-76633557D01*
X159857147Y-76616384D01*
X159970373Y-76582037D01*
X160036557Y-76575519D01*
X160102740Y-76569000D01*
X160191260Y-76569000D01*
X160257443Y-76575519D01*
X160257443Y-76575519D01*
G37*
G36*
X132317443Y-76575519D02*
X132383627Y-76582037D01*
X132496853Y-76616384D01*
X132553467Y-76633557D01*
X132643093Y-76681464D01*
X132709991Y-76717222D01*
X132723065Y-76727952D01*
X132847186Y-76829814D01*
X132908922Y-76905041D01*
X132959778Y-76967009D01*
X132959779Y-76967011D01*
X133043443Y-77123533D01*
X133043443Y-77123534D01*
X133094963Y-77293373D01*
X133112359Y-77470000D01*
X133094963Y-77646627D01*
X133060616Y-77759853D01*
X133043443Y-77816467D01*
X132979249Y-77936564D01*
X132959778Y-77972991D01*
X132930448Y-78008729D01*
X132847186Y-78110186D01*
X132784104Y-78161955D01*
X132709991Y-78222778D01*
X132709989Y-78222779D01*
X132553467Y-78306443D01*
X132496853Y-78323616D01*
X132383627Y-78357963D01*
X132317443Y-78364481D01*
X132251260Y-78371000D01*
X132162740Y-78371000D01*
X132096557Y-78364481D01*
X132030373Y-78357963D01*
X131917147Y-78323616D01*
X131860533Y-78306443D01*
X131704011Y-78222779D01*
X131704009Y-78222778D01*
X131629896Y-78161955D01*
X131566814Y-78110186D01*
X131483552Y-78008729D01*
X131454222Y-77972991D01*
X131434751Y-77936564D01*
X131370557Y-77816467D01*
X131353384Y-77759853D01*
X131319037Y-77646627D01*
X131301641Y-77470000D01*
X131319037Y-77293373D01*
X131370557Y-77123534D01*
X131370557Y-77123533D01*
X131454221Y-76967011D01*
X131454222Y-76967009D01*
X131505078Y-76905041D01*
X131566814Y-76829814D01*
X131690935Y-76727952D01*
X131704009Y-76717222D01*
X131770907Y-76681464D01*
X131860533Y-76633557D01*
X131917147Y-76616384D01*
X132030373Y-76582037D01*
X132096557Y-76575519D01*
X132162740Y-76569000D01*
X132251260Y-76569000D01*
X132317443Y-76575519D01*
X132317443Y-76575519D01*
G37*
G36*
X116129047Y-76673621D02*
X116208676Y-76681464D01*
X116310843Y-76712456D01*
X116361928Y-76727952D01*
X116503165Y-76803445D01*
X116626959Y-76905041D01*
X116728555Y-77028835D01*
X116804048Y-77170072D01*
X116804048Y-77170073D01*
X116850536Y-77323324D01*
X116866233Y-77482700D01*
X116850536Y-77642076D01*
X116849156Y-77646625D01*
X116804048Y-77795328D01*
X116728555Y-77936565D01*
X116626959Y-78060359D01*
X116503165Y-78161955D01*
X116361928Y-78237448D01*
X116310843Y-78252944D01*
X116208676Y-78283936D01*
X116129047Y-78291779D01*
X116089234Y-78295700D01*
X115533366Y-78295700D01*
X115493553Y-78291779D01*
X115413924Y-78283936D01*
X115311757Y-78252944D01*
X115260672Y-78237448D01*
X115119435Y-78161955D01*
X114995641Y-78060359D01*
X114894045Y-77936565D01*
X114818552Y-77795328D01*
X114773444Y-77646625D01*
X114772064Y-77642076D01*
X114756367Y-77482700D01*
X114772064Y-77323324D01*
X114818552Y-77170073D01*
X114818552Y-77170072D01*
X114894045Y-77028835D01*
X114995641Y-76905041D01*
X115119435Y-76803445D01*
X115260672Y-76727952D01*
X115311757Y-76712456D01*
X115413924Y-76681464D01*
X115493553Y-76673621D01*
X115533366Y-76669700D01*
X116089234Y-76669700D01*
X116129047Y-76673621D01*
X116129047Y-76673621D01*
G37*
G36*
X179654447Y-76673621D02*
X179734076Y-76681464D01*
X179836243Y-76712456D01*
X179887328Y-76727952D01*
X180028565Y-76803445D01*
X180152359Y-76905041D01*
X180253955Y-77028835D01*
X180329448Y-77170072D01*
X180329448Y-77170073D01*
X180375936Y-77323324D01*
X180391633Y-77482700D01*
X180375936Y-77642076D01*
X180374556Y-77646625D01*
X180329448Y-77795328D01*
X180253955Y-77936565D01*
X180152359Y-78060359D01*
X180028565Y-78161955D01*
X179887328Y-78237448D01*
X179836243Y-78252944D01*
X179734076Y-78283936D01*
X179654447Y-78291779D01*
X179614634Y-78295700D01*
X179058766Y-78295700D01*
X179018953Y-78291779D01*
X178939324Y-78283936D01*
X178837157Y-78252944D01*
X178786072Y-78237448D01*
X178644835Y-78161955D01*
X178521041Y-78060359D01*
X178419445Y-77936565D01*
X178343952Y-77795328D01*
X178298844Y-77646625D01*
X178297464Y-77642076D01*
X178281767Y-77482700D01*
X178297464Y-77323324D01*
X178343952Y-77170073D01*
X178343952Y-77170072D01*
X178419445Y-77028835D01*
X178521041Y-76905041D01*
X178644835Y-76803445D01*
X178786072Y-76727952D01*
X178837157Y-76712456D01*
X178939324Y-76681464D01*
X179018953Y-76673621D01*
X179058766Y-76669700D01*
X179614634Y-76669700D01*
X179654447Y-76673621D01*
X179654447Y-76673621D01*
G37*
G36*
X111328447Y-76673621D02*
X111408076Y-76681464D01*
X111510243Y-76712456D01*
X111561328Y-76727952D01*
X111702565Y-76803445D01*
X111826359Y-76905041D01*
X111927955Y-77028835D01*
X112003448Y-77170072D01*
X112003448Y-77170073D01*
X112049936Y-77323324D01*
X112065633Y-77482700D01*
X112049936Y-77642076D01*
X112048556Y-77646625D01*
X112003448Y-77795328D01*
X111927955Y-77936565D01*
X111826359Y-78060359D01*
X111702565Y-78161955D01*
X111561328Y-78237448D01*
X111510243Y-78252944D01*
X111408076Y-78283936D01*
X111328447Y-78291779D01*
X111288634Y-78295700D01*
X110732766Y-78295700D01*
X110692953Y-78291779D01*
X110613324Y-78283936D01*
X110511157Y-78252944D01*
X110460072Y-78237448D01*
X110318835Y-78161955D01*
X110195041Y-78060359D01*
X110093445Y-77936565D01*
X110017952Y-77795328D01*
X109972844Y-77646625D01*
X109971464Y-77642076D01*
X109955767Y-77482700D01*
X109971464Y-77323324D01*
X110017952Y-77170073D01*
X110017952Y-77170072D01*
X110093445Y-77028835D01*
X110195041Y-76905041D01*
X110318835Y-76803445D01*
X110460072Y-76727952D01*
X110511157Y-76712456D01*
X110613324Y-76681464D01*
X110692953Y-76673621D01*
X110732766Y-76669700D01*
X111288634Y-76669700D01*
X111328447Y-76673621D01*
X111328447Y-76673621D01*
G37*
G36*
X184455047Y-76673621D02*
X184534676Y-76681464D01*
X184636843Y-76712456D01*
X184687928Y-76727952D01*
X184829165Y-76803445D01*
X184952959Y-76905041D01*
X185054555Y-77028835D01*
X185130048Y-77170072D01*
X185130048Y-77170073D01*
X185176536Y-77323324D01*
X185192233Y-77482700D01*
X185176536Y-77642076D01*
X185175156Y-77646625D01*
X185130048Y-77795328D01*
X185054555Y-77936565D01*
X184952959Y-78060359D01*
X184829165Y-78161955D01*
X184687928Y-78237448D01*
X184636843Y-78252944D01*
X184534676Y-78283936D01*
X184455047Y-78291779D01*
X184415234Y-78295700D01*
X183859366Y-78295700D01*
X183819553Y-78291779D01*
X183739924Y-78283936D01*
X183637757Y-78252944D01*
X183586672Y-78237448D01*
X183445435Y-78161955D01*
X183321641Y-78060359D01*
X183220045Y-77936565D01*
X183144552Y-77795328D01*
X183099444Y-77646625D01*
X183098064Y-77642076D01*
X183082367Y-77482700D01*
X183098064Y-77323324D01*
X183144552Y-77170073D01*
X183144552Y-77170072D01*
X183220045Y-77028835D01*
X183321641Y-76905041D01*
X183445435Y-76803445D01*
X183586672Y-76727952D01*
X183637757Y-76712456D01*
X183739924Y-76681464D01*
X183819553Y-76673621D01*
X183859366Y-76669700D01*
X184415234Y-76669700D01*
X184455047Y-76673621D01*
X184455047Y-76673621D01*
G37*
G36*
X184455047Y-74514621D02*
X184534676Y-74522464D01*
X184636843Y-74553456D01*
X184687928Y-74568952D01*
X184829165Y-74644445D01*
X184952959Y-74746041D01*
X185054555Y-74869835D01*
X185130048Y-75011072D01*
X185130048Y-75011073D01*
X185176536Y-75164324D01*
X185192233Y-75323700D01*
X185176536Y-75483076D01*
X185145544Y-75585243D01*
X185130048Y-75636328D01*
X185054555Y-75777565D01*
X184952959Y-75901359D01*
X184829165Y-76002955D01*
X184687928Y-76078448D01*
X184636843Y-76093944D01*
X184534676Y-76124936D01*
X184455047Y-76132779D01*
X184415234Y-76136700D01*
X183859366Y-76136700D01*
X183819553Y-76132779D01*
X183739924Y-76124936D01*
X183637757Y-76093944D01*
X183586672Y-76078448D01*
X183445435Y-76002955D01*
X183321641Y-75901359D01*
X183220045Y-75777565D01*
X183144552Y-75636328D01*
X183129056Y-75585243D01*
X183098064Y-75483076D01*
X183082367Y-75323700D01*
X183098064Y-75164324D01*
X183144552Y-75011073D01*
X183144552Y-75011072D01*
X183220045Y-74869835D01*
X183321641Y-74746041D01*
X183445435Y-74644445D01*
X183586672Y-74568952D01*
X183637757Y-74553456D01*
X183739924Y-74522464D01*
X183819553Y-74514621D01*
X183859366Y-74510700D01*
X184415234Y-74510700D01*
X184455047Y-74514621D01*
X184455047Y-74514621D01*
G37*
G36*
X179654447Y-74514621D02*
X179734076Y-74522464D01*
X179836243Y-74553456D01*
X179887328Y-74568952D01*
X180028565Y-74644445D01*
X180152359Y-74746041D01*
X180253955Y-74869835D01*
X180329448Y-75011072D01*
X180329448Y-75011073D01*
X180375936Y-75164324D01*
X180391633Y-75323700D01*
X180375936Y-75483076D01*
X180344944Y-75585243D01*
X180329448Y-75636328D01*
X180253955Y-75777565D01*
X180152359Y-75901359D01*
X180028565Y-76002955D01*
X179887328Y-76078448D01*
X179836243Y-76093944D01*
X179734076Y-76124936D01*
X179654447Y-76132779D01*
X179614634Y-76136700D01*
X179058766Y-76136700D01*
X179018953Y-76132779D01*
X178939324Y-76124936D01*
X178837157Y-76093944D01*
X178786072Y-76078448D01*
X178644835Y-76002955D01*
X178521041Y-75901359D01*
X178419445Y-75777565D01*
X178343952Y-75636328D01*
X178328456Y-75585243D01*
X178297464Y-75483076D01*
X178281767Y-75323700D01*
X178297464Y-75164324D01*
X178343952Y-75011073D01*
X178343952Y-75011072D01*
X178419445Y-74869835D01*
X178521041Y-74746041D01*
X178644835Y-74644445D01*
X178786072Y-74568952D01*
X178837157Y-74553456D01*
X178939324Y-74522464D01*
X179018953Y-74514621D01*
X179058766Y-74510700D01*
X179614634Y-74510700D01*
X179654447Y-74514621D01*
X179654447Y-74514621D01*
G37*
G36*
X116129047Y-74514621D02*
X116208676Y-74522464D01*
X116310843Y-74553456D01*
X116361928Y-74568952D01*
X116503165Y-74644445D01*
X116626959Y-74746041D01*
X116728555Y-74869835D01*
X116804048Y-75011072D01*
X116804048Y-75011073D01*
X116850536Y-75164324D01*
X116866233Y-75323700D01*
X116850536Y-75483076D01*
X116819544Y-75585243D01*
X116804048Y-75636328D01*
X116728555Y-75777565D01*
X116626959Y-75901359D01*
X116503165Y-76002955D01*
X116361928Y-76078448D01*
X116310843Y-76093944D01*
X116208676Y-76124936D01*
X116129047Y-76132779D01*
X116089234Y-76136700D01*
X115533366Y-76136700D01*
X115493553Y-76132779D01*
X115413924Y-76124936D01*
X115311757Y-76093944D01*
X115260672Y-76078448D01*
X115119435Y-76002955D01*
X114995641Y-75901359D01*
X114894045Y-75777565D01*
X114818552Y-75636328D01*
X114803056Y-75585243D01*
X114772064Y-75483076D01*
X114756367Y-75323700D01*
X114772064Y-75164324D01*
X114818552Y-75011073D01*
X114818552Y-75011072D01*
X114894045Y-74869835D01*
X114995641Y-74746041D01*
X115119435Y-74644445D01*
X115260672Y-74568952D01*
X115311757Y-74553456D01*
X115413924Y-74522464D01*
X115493553Y-74514621D01*
X115533366Y-74510700D01*
X116089234Y-74510700D01*
X116129047Y-74514621D01*
X116129047Y-74514621D01*
G37*
G36*
X111328447Y-74514621D02*
X111408076Y-74522464D01*
X111510243Y-74553456D01*
X111561328Y-74568952D01*
X111702565Y-74644445D01*
X111826359Y-74746041D01*
X111927955Y-74869835D01*
X112003448Y-75011072D01*
X112003448Y-75011073D01*
X112049936Y-75164324D01*
X112065633Y-75323700D01*
X112049936Y-75483076D01*
X112018944Y-75585243D01*
X112003448Y-75636328D01*
X111927955Y-75777565D01*
X111826359Y-75901359D01*
X111702565Y-76002955D01*
X111561328Y-76078448D01*
X111510243Y-76093944D01*
X111408076Y-76124936D01*
X111328447Y-76132779D01*
X111288634Y-76136700D01*
X110732766Y-76136700D01*
X110692953Y-76132779D01*
X110613324Y-76124936D01*
X110511157Y-76093944D01*
X110460072Y-76078448D01*
X110318835Y-76002955D01*
X110195041Y-75901359D01*
X110093445Y-75777565D01*
X110017952Y-75636328D01*
X110002456Y-75585243D01*
X109971464Y-75483076D01*
X109955767Y-75323700D01*
X109971464Y-75164324D01*
X110017952Y-75011073D01*
X110017952Y-75011072D01*
X110093445Y-74869835D01*
X110195041Y-74746041D01*
X110318835Y-74644445D01*
X110460072Y-74568952D01*
X110511157Y-74553456D01*
X110613324Y-74522464D01*
X110692953Y-74514621D01*
X110732766Y-74510700D01*
X111288634Y-74510700D01*
X111328447Y-74514621D01*
X111328447Y-74514621D01*
G37*
G36*
X132317442Y-74035518D02*
X132383627Y-74042037D01*
X132496853Y-74076384D01*
X132553467Y-74093557D01*
X132692087Y-74167652D01*
X132709991Y-74177222D01*
X132745729Y-74206552D01*
X132847186Y-74289814D01*
X132930448Y-74391271D01*
X132959778Y-74427009D01*
X132959779Y-74427011D01*
X133043443Y-74583533D01*
X133043443Y-74583534D01*
X133094963Y-74753373D01*
X133112359Y-74930000D01*
X133094963Y-75106627D01*
X133077461Y-75164324D01*
X133043443Y-75276467D01*
X133018196Y-75323700D01*
X132959778Y-75432991D01*
X132930448Y-75468729D01*
X132847186Y-75570186D01*
X132745729Y-75653448D01*
X132709991Y-75682778D01*
X132709989Y-75682779D01*
X132553467Y-75766443D01*
X132516805Y-75777564D01*
X132383627Y-75817963D01*
X132317442Y-75824482D01*
X132251260Y-75831000D01*
X132162740Y-75831000D01*
X132096558Y-75824482D01*
X132030373Y-75817963D01*
X131897195Y-75777564D01*
X131860533Y-75766443D01*
X131704011Y-75682779D01*
X131704009Y-75682778D01*
X131668271Y-75653448D01*
X131566814Y-75570186D01*
X131483552Y-75468729D01*
X131454222Y-75432991D01*
X131395804Y-75323700D01*
X131370557Y-75276467D01*
X131336539Y-75164324D01*
X131319037Y-75106627D01*
X131301641Y-74930000D01*
X131319037Y-74753373D01*
X131370557Y-74583534D01*
X131370557Y-74583533D01*
X131454221Y-74427011D01*
X131454222Y-74427009D01*
X131483552Y-74391271D01*
X131566814Y-74289814D01*
X131668271Y-74206552D01*
X131704009Y-74177222D01*
X131721913Y-74167652D01*
X131860533Y-74093557D01*
X131917147Y-74076384D01*
X132030373Y-74042037D01*
X132096558Y-74035518D01*
X132162740Y-74029000D01*
X132251260Y-74029000D01*
X132317442Y-74035518D01*
X132317442Y-74035518D01*
G37*
G36*
X134857442Y-74035518D02*
X134923627Y-74042037D01*
X135036853Y-74076384D01*
X135093467Y-74093557D01*
X135232087Y-74167652D01*
X135249991Y-74177222D01*
X135285729Y-74206552D01*
X135387186Y-74289814D01*
X135470448Y-74391271D01*
X135499778Y-74427009D01*
X135499779Y-74427011D01*
X135583443Y-74583533D01*
X135583443Y-74583534D01*
X135634963Y-74753373D01*
X135652359Y-74930000D01*
X135634963Y-75106627D01*
X135617461Y-75164324D01*
X135583443Y-75276467D01*
X135558196Y-75323700D01*
X135499778Y-75432991D01*
X135470448Y-75468729D01*
X135387186Y-75570186D01*
X135285729Y-75653448D01*
X135249991Y-75682778D01*
X135249989Y-75682779D01*
X135093467Y-75766443D01*
X135056805Y-75777564D01*
X134923627Y-75817963D01*
X134857442Y-75824482D01*
X134791260Y-75831000D01*
X134702740Y-75831000D01*
X134636558Y-75824482D01*
X134570373Y-75817963D01*
X134437195Y-75777564D01*
X134400533Y-75766443D01*
X134244011Y-75682779D01*
X134244009Y-75682778D01*
X134208271Y-75653448D01*
X134106814Y-75570186D01*
X134023552Y-75468729D01*
X133994222Y-75432991D01*
X133935804Y-75323700D01*
X133910557Y-75276467D01*
X133876539Y-75164324D01*
X133859037Y-75106627D01*
X133841641Y-74930000D01*
X133859037Y-74753373D01*
X133910557Y-74583534D01*
X133910557Y-74583533D01*
X133994221Y-74427011D01*
X133994222Y-74427009D01*
X134023552Y-74391271D01*
X134106814Y-74289814D01*
X134208271Y-74206552D01*
X134244009Y-74177222D01*
X134261913Y-74167652D01*
X134400533Y-74093557D01*
X134457147Y-74076384D01*
X134570373Y-74042037D01*
X134636558Y-74035518D01*
X134702740Y-74029000D01*
X134791260Y-74029000D01*
X134857442Y-74035518D01*
X134857442Y-74035518D01*
G37*
G36*
X160257442Y-74035518D02*
X160323627Y-74042037D01*
X160436853Y-74076384D01*
X160493467Y-74093557D01*
X160632087Y-74167652D01*
X160649991Y-74177222D01*
X160685729Y-74206552D01*
X160787186Y-74289814D01*
X160870448Y-74391271D01*
X160899778Y-74427009D01*
X160899779Y-74427011D01*
X160983443Y-74583533D01*
X160983443Y-74583534D01*
X161034963Y-74753373D01*
X161052359Y-74930000D01*
X161034963Y-75106627D01*
X161017461Y-75164324D01*
X160983443Y-75276467D01*
X160958196Y-75323700D01*
X160899778Y-75432991D01*
X160870448Y-75468729D01*
X160787186Y-75570186D01*
X160685729Y-75653448D01*
X160649991Y-75682778D01*
X160649989Y-75682779D01*
X160493467Y-75766443D01*
X160456805Y-75777564D01*
X160323627Y-75817963D01*
X160257442Y-75824482D01*
X160191260Y-75831000D01*
X160102740Y-75831000D01*
X160036558Y-75824482D01*
X159970373Y-75817963D01*
X159837195Y-75777564D01*
X159800533Y-75766443D01*
X159644011Y-75682779D01*
X159644009Y-75682778D01*
X159608271Y-75653448D01*
X159506814Y-75570186D01*
X159423552Y-75468729D01*
X159394222Y-75432991D01*
X159335804Y-75323700D01*
X159310557Y-75276467D01*
X159276539Y-75164324D01*
X159259037Y-75106627D01*
X159241641Y-74930000D01*
X159259037Y-74753373D01*
X159310557Y-74583534D01*
X159310557Y-74583533D01*
X159394221Y-74427011D01*
X159394222Y-74427009D01*
X159423552Y-74391271D01*
X159506814Y-74289814D01*
X159608271Y-74206552D01*
X159644009Y-74177222D01*
X159661913Y-74167652D01*
X159800533Y-74093557D01*
X159857147Y-74076384D01*
X159970373Y-74042037D01*
X160036558Y-74035518D01*
X160102740Y-74029000D01*
X160191260Y-74029000D01*
X160257442Y-74035518D01*
X160257442Y-74035518D01*
G37*
G36*
X162797442Y-74035518D02*
X162863627Y-74042037D01*
X162976853Y-74076384D01*
X163033467Y-74093557D01*
X163172087Y-74167652D01*
X163189991Y-74177222D01*
X163225729Y-74206552D01*
X163327186Y-74289814D01*
X163410448Y-74391271D01*
X163439778Y-74427009D01*
X163439779Y-74427011D01*
X163523443Y-74583533D01*
X163523443Y-74583534D01*
X163574963Y-74753373D01*
X163592359Y-74930000D01*
X163574963Y-75106627D01*
X163557461Y-75164324D01*
X163523443Y-75276467D01*
X163498196Y-75323700D01*
X163439778Y-75432991D01*
X163410448Y-75468729D01*
X163327186Y-75570186D01*
X163225729Y-75653448D01*
X163189991Y-75682778D01*
X163189989Y-75682779D01*
X163033467Y-75766443D01*
X162996805Y-75777564D01*
X162863627Y-75817963D01*
X162797442Y-75824482D01*
X162731260Y-75831000D01*
X162642740Y-75831000D01*
X162576558Y-75824482D01*
X162510373Y-75817963D01*
X162377195Y-75777564D01*
X162340533Y-75766443D01*
X162184011Y-75682779D01*
X162184009Y-75682778D01*
X162148271Y-75653448D01*
X162046814Y-75570186D01*
X161963552Y-75468729D01*
X161934222Y-75432991D01*
X161875804Y-75323700D01*
X161850557Y-75276467D01*
X161816539Y-75164324D01*
X161799037Y-75106627D01*
X161781641Y-74930000D01*
X161799037Y-74753373D01*
X161850557Y-74583534D01*
X161850557Y-74583533D01*
X161934221Y-74427011D01*
X161934222Y-74427009D01*
X161963552Y-74391271D01*
X162046814Y-74289814D01*
X162148271Y-74206552D01*
X162184009Y-74177222D01*
X162201913Y-74167652D01*
X162340533Y-74093557D01*
X162397147Y-74076384D01*
X162510373Y-74042037D01*
X162576558Y-74035518D01*
X162642740Y-74029000D01*
X162731260Y-74029000D01*
X162797442Y-74035518D01*
X162797442Y-74035518D01*
G37*
G36*
X111328447Y-72355621D02*
X111408076Y-72363464D01*
X111495554Y-72390000D01*
X111561328Y-72409952D01*
X111702565Y-72485445D01*
X111826359Y-72587041D01*
X111927955Y-72710835D01*
X112003448Y-72852072D01*
X112003448Y-72852073D01*
X112049936Y-73005324D01*
X112065633Y-73164700D01*
X112049936Y-73324076D01*
X112018944Y-73426243D01*
X112003448Y-73477328D01*
X111927955Y-73618565D01*
X111826359Y-73742359D01*
X111702565Y-73843955D01*
X111561328Y-73919448D01*
X111510243Y-73934944D01*
X111408076Y-73965936D01*
X111328447Y-73973779D01*
X111288634Y-73977700D01*
X110732766Y-73977700D01*
X110692953Y-73973779D01*
X110613324Y-73965936D01*
X110511157Y-73934944D01*
X110460072Y-73919448D01*
X110318835Y-73843955D01*
X110195041Y-73742359D01*
X110093445Y-73618565D01*
X110017952Y-73477328D01*
X110002456Y-73426243D01*
X109971464Y-73324076D01*
X109955767Y-73164700D01*
X109971464Y-73005324D01*
X110017952Y-72852073D01*
X110017952Y-72852072D01*
X110093445Y-72710835D01*
X110195041Y-72587041D01*
X110318835Y-72485445D01*
X110460072Y-72409952D01*
X110525846Y-72390000D01*
X110613324Y-72363464D01*
X110692953Y-72355621D01*
X110732766Y-72351700D01*
X111288634Y-72351700D01*
X111328447Y-72355621D01*
X111328447Y-72355621D01*
G37*
G36*
X184455047Y-72355621D02*
X184534676Y-72363464D01*
X184622154Y-72390000D01*
X184687928Y-72409952D01*
X184829165Y-72485445D01*
X184952959Y-72587041D01*
X185054555Y-72710835D01*
X185130048Y-72852072D01*
X185130048Y-72852073D01*
X185176536Y-73005324D01*
X185192233Y-73164700D01*
X185176536Y-73324076D01*
X185145544Y-73426243D01*
X185130048Y-73477328D01*
X185054555Y-73618565D01*
X184952959Y-73742359D01*
X184829165Y-73843955D01*
X184687928Y-73919448D01*
X184636843Y-73934944D01*
X184534676Y-73965936D01*
X184455047Y-73973779D01*
X184415234Y-73977700D01*
X183859366Y-73977700D01*
X183819553Y-73973779D01*
X183739924Y-73965936D01*
X183637757Y-73934944D01*
X183586672Y-73919448D01*
X183445435Y-73843955D01*
X183321641Y-73742359D01*
X183220045Y-73618565D01*
X183144552Y-73477328D01*
X183129056Y-73426243D01*
X183098064Y-73324076D01*
X183082367Y-73164700D01*
X183098064Y-73005324D01*
X183144552Y-72852073D01*
X183144552Y-72852072D01*
X183220045Y-72710835D01*
X183321641Y-72587041D01*
X183445435Y-72485445D01*
X183586672Y-72409952D01*
X183652446Y-72390000D01*
X183739924Y-72363464D01*
X183819553Y-72355621D01*
X183859366Y-72351700D01*
X184415234Y-72351700D01*
X184455047Y-72355621D01*
X184455047Y-72355621D01*
G37*
G36*
X116218325Y-72375290D02*
X116369312Y-72421092D01*
X116508465Y-72495470D01*
X116630433Y-72595567D01*
X116730530Y-72717535D01*
X116804908Y-72856688D01*
X116850710Y-73007675D01*
X116866175Y-73164700D01*
X116850710Y-73321725D01*
X116804908Y-73472712D01*
X116730530Y-73611865D01*
X116630433Y-73733833D01*
X116508465Y-73833930D01*
X116369312Y-73908308D01*
X116218325Y-73954110D01*
X116100646Y-73965700D01*
X115521954Y-73965700D01*
X115404275Y-73954110D01*
X115253288Y-73908308D01*
X115114135Y-73833930D01*
X114992167Y-73733833D01*
X114892070Y-73611865D01*
X114817692Y-73472712D01*
X114771890Y-73321725D01*
X114756425Y-73164700D01*
X114771890Y-73007675D01*
X114817692Y-72856688D01*
X114892070Y-72717535D01*
X114992167Y-72595567D01*
X115114135Y-72495470D01*
X115253288Y-72421092D01*
X115404275Y-72375290D01*
X115521954Y-72363700D01*
X116100646Y-72363700D01*
X116218325Y-72375290D01*
X116218325Y-72375290D01*
G37*
G36*
X179743725Y-72375290D02*
X179894712Y-72421092D01*
X180033865Y-72495470D01*
X180155833Y-72595567D01*
X180255930Y-72717535D01*
X180330308Y-72856688D01*
X180376110Y-73007675D01*
X180391575Y-73164700D01*
X180376110Y-73321725D01*
X180330308Y-73472712D01*
X180255930Y-73611865D01*
X180155833Y-73733833D01*
X180033865Y-73833930D01*
X179894712Y-73908308D01*
X179743725Y-73954110D01*
X179626046Y-73965700D01*
X179047354Y-73965700D01*
X178929675Y-73954110D01*
X178778688Y-73908308D01*
X178639535Y-73833930D01*
X178517567Y-73733833D01*
X178417470Y-73611865D01*
X178343092Y-73472712D01*
X178297290Y-73321725D01*
X178281825Y-73164700D01*
X178297290Y-73007675D01*
X178343092Y-72856688D01*
X178417470Y-72717535D01*
X178517567Y-72595567D01*
X178639535Y-72495470D01*
X178778688Y-72421092D01*
X178929675Y-72375290D01*
X179047354Y-72363700D01*
X179626046Y-72363700D01*
X179743725Y-72375290D01*
X179743725Y-72375290D01*
G37*
G36*
X133108000Y-73291000D02*
X131306000Y-73291000D01*
X131306000Y-71489000D01*
X133108000Y-71489000D01*
X133108000Y-73291000D01*
X133108000Y-73291000D01*
G37*
G36*
X161048000Y-73291000D02*
X159246000Y-73291000D01*
X159246000Y-71489000D01*
X161048000Y-71489000D01*
X161048000Y-73291000D01*
X161048000Y-73291000D01*
G37*
G36*
X134857443Y-71495519D02*
X134923627Y-71502037D01*
X135036853Y-71536384D01*
X135093467Y-71553557D01*
X135232087Y-71627652D01*
X135249991Y-71637222D01*
X135285729Y-71666552D01*
X135387186Y-71749814D01*
X135443718Y-71818700D01*
X135499778Y-71887009D01*
X135499779Y-71887011D01*
X135583443Y-72043533D01*
X135583443Y-72043534D01*
X135634963Y-72213373D01*
X135652359Y-72390000D01*
X135634963Y-72566627D01*
X135628770Y-72587041D01*
X135583443Y-72736467D01*
X135521650Y-72852072D01*
X135499778Y-72892991D01*
X135470448Y-72928729D01*
X135387186Y-73030186D01*
X135285729Y-73113448D01*
X135249991Y-73142778D01*
X135249989Y-73142779D01*
X135093467Y-73226443D01*
X135036853Y-73243616D01*
X134923627Y-73277963D01*
X134857443Y-73284481D01*
X134791260Y-73291000D01*
X134702740Y-73291000D01*
X134636557Y-73284481D01*
X134570373Y-73277963D01*
X134457147Y-73243616D01*
X134400533Y-73226443D01*
X134244011Y-73142779D01*
X134244009Y-73142778D01*
X134208271Y-73113448D01*
X134106814Y-73030186D01*
X134023552Y-72928729D01*
X133994222Y-72892991D01*
X133972350Y-72852072D01*
X133910557Y-72736467D01*
X133865230Y-72587041D01*
X133859037Y-72566627D01*
X133841641Y-72390000D01*
X133859037Y-72213373D01*
X133910557Y-72043534D01*
X133910557Y-72043533D01*
X133994221Y-71887011D01*
X133994222Y-71887009D01*
X134050282Y-71818700D01*
X134106814Y-71749814D01*
X134208271Y-71666552D01*
X134244009Y-71637222D01*
X134261913Y-71627652D01*
X134400533Y-71553557D01*
X134457147Y-71536384D01*
X134570373Y-71502037D01*
X134636557Y-71495519D01*
X134702740Y-71489000D01*
X134791260Y-71489000D01*
X134857443Y-71495519D01*
X134857443Y-71495519D01*
G37*
G36*
X162797443Y-71495519D02*
X162863627Y-71502037D01*
X162976853Y-71536384D01*
X163033467Y-71553557D01*
X163172087Y-71627652D01*
X163189991Y-71637222D01*
X163225729Y-71666552D01*
X163327186Y-71749814D01*
X163383718Y-71818700D01*
X163439778Y-71887009D01*
X163439779Y-71887011D01*
X163523443Y-72043533D01*
X163523443Y-72043534D01*
X163574963Y-72213373D01*
X163592359Y-72390000D01*
X163574963Y-72566627D01*
X163568770Y-72587041D01*
X163523443Y-72736467D01*
X163461650Y-72852072D01*
X163439778Y-72892991D01*
X163410448Y-72928729D01*
X163327186Y-73030186D01*
X163225729Y-73113448D01*
X163189991Y-73142778D01*
X163189989Y-73142779D01*
X163033467Y-73226443D01*
X162976853Y-73243616D01*
X162863627Y-73277963D01*
X162797443Y-73284481D01*
X162731260Y-73291000D01*
X162642740Y-73291000D01*
X162576557Y-73284481D01*
X162510373Y-73277963D01*
X162397147Y-73243616D01*
X162340533Y-73226443D01*
X162184011Y-73142779D01*
X162184009Y-73142778D01*
X162148271Y-73113448D01*
X162046814Y-73030186D01*
X161963552Y-72928729D01*
X161934222Y-72892991D01*
X161912350Y-72852072D01*
X161850557Y-72736467D01*
X161805230Y-72587041D01*
X161799037Y-72566627D01*
X161781641Y-72390000D01*
X161799037Y-72213373D01*
X161850557Y-72043534D01*
X161850557Y-72043533D01*
X161934221Y-71887011D01*
X161934222Y-71887009D01*
X161990282Y-71818700D01*
X162046814Y-71749814D01*
X162148271Y-71666552D01*
X162184009Y-71637222D01*
X162201913Y-71627652D01*
X162340533Y-71553557D01*
X162397147Y-71536384D01*
X162510373Y-71502037D01*
X162576557Y-71495519D01*
X162642740Y-71489000D01*
X162731260Y-71489000D01*
X162797443Y-71495519D01*
X162797443Y-71495519D01*
G37*
G36*
X184455047Y-70196621D02*
X184534676Y-70204464D01*
X184636843Y-70235456D01*
X184687928Y-70250952D01*
X184829165Y-70326445D01*
X184952959Y-70428041D01*
X185054555Y-70551835D01*
X185130048Y-70693072D01*
X185130048Y-70693073D01*
X185176536Y-70846324D01*
X185192233Y-71005700D01*
X185176536Y-71165076D01*
X185145544Y-71267243D01*
X185130048Y-71318328D01*
X185054555Y-71459565D01*
X184952959Y-71583359D01*
X184829165Y-71684955D01*
X184687928Y-71760448D01*
X184636843Y-71775944D01*
X184534676Y-71806936D01*
X184455047Y-71814779D01*
X184415234Y-71818700D01*
X183859366Y-71818700D01*
X183819553Y-71814779D01*
X183739924Y-71806936D01*
X183637757Y-71775944D01*
X183586672Y-71760448D01*
X183445435Y-71684955D01*
X183321641Y-71583359D01*
X183220045Y-71459565D01*
X183144552Y-71318328D01*
X183129056Y-71267243D01*
X183098064Y-71165076D01*
X183082367Y-71005700D01*
X183098064Y-70846324D01*
X183144552Y-70693073D01*
X183144552Y-70693072D01*
X183220045Y-70551835D01*
X183321641Y-70428041D01*
X183445435Y-70326445D01*
X183586672Y-70250952D01*
X183637757Y-70235456D01*
X183739924Y-70204464D01*
X183819553Y-70196621D01*
X183859366Y-70192700D01*
X184415234Y-70192700D01*
X184455047Y-70196621D01*
X184455047Y-70196621D01*
G37*
G36*
X179654447Y-70196621D02*
X179734076Y-70204464D01*
X179836243Y-70235456D01*
X179887328Y-70250952D01*
X180028565Y-70326445D01*
X180152359Y-70428041D01*
X180253955Y-70551835D01*
X180329448Y-70693072D01*
X180329448Y-70693073D01*
X180375936Y-70846324D01*
X180391633Y-71005700D01*
X180375936Y-71165076D01*
X180344944Y-71267243D01*
X180329448Y-71318328D01*
X180253955Y-71459565D01*
X180152359Y-71583359D01*
X180028565Y-71684955D01*
X179887328Y-71760448D01*
X179836243Y-71775944D01*
X179734076Y-71806936D01*
X179654447Y-71814779D01*
X179614634Y-71818700D01*
X179058766Y-71818700D01*
X179018953Y-71814779D01*
X178939324Y-71806936D01*
X178837157Y-71775944D01*
X178786072Y-71760448D01*
X178644835Y-71684955D01*
X178521041Y-71583359D01*
X178419445Y-71459565D01*
X178343952Y-71318328D01*
X178328456Y-71267243D01*
X178297464Y-71165076D01*
X178281767Y-71005700D01*
X178297464Y-70846324D01*
X178343952Y-70693073D01*
X178343952Y-70693072D01*
X178419445Y-70551835D01*
X178521041Y-70428041D01*
X178644835Y-70326445D01*
X178786072Y-70250952D01*
X178837157Y-70235456D01*
X178939324Y-70204464D01*
X179018953Y-70196621D01*
X179058766Y-70192700D01*
X179614634Y-70192700D01*
X179654447Y-70196621D01*
X179654447Y-70196621D01*
G37*
G36*
X116129047Y-70196621D02*
X116208676Y-70204464D01*
X116310843Y-70235456D01*
X116361928Y-70250952D01*
X116503165Y-70326445D01*
X116626959Y-70428041D01*
X116728555Y-70551835D01*
X116804048Y-70693072D01*
X116804048Y-70693073D01*
X116850536Y-70846324D01*
X116866233Y-71005700D01*
X116850536Y-71165076D01*
X116819544Y-71267243D01*
X116804048Y-71318328D01*
X116728555Y-71459565D01*
X116626959Y-71583359D01*
X116503165Y-71684955D01*
X116361928Y-71760448D01*
X116310843Y-71775944D01*
X116208676Y-71806936D01*
X116129047Y-71814779D01*
X116089234Y-71818700D01*
X115533366Y-71818700D01*
X115493553Y-71814779D01*
X115413924Y-71806936D01*
X115311757Y-71775944D01*
X115260672Y-71760448D01*
X115119435Y-71684955D01*
X114995641Y-71583359D01*
X114894045Y-71459565D01*
X114818552Y-71318328D01*
X114803056Y-71267243D01*
X114772064Y-71165076D01*
X114756367Y-71005700D01*
X114772064Y-70846324D01*
X114818552Y-70693073D01*
X114818552Y-70693072D01*
X114894045Y-70551835D01*
X114995641Y-70428041D01*
X115119435Y-70326445D01*
X115260672Y-70250952D01*
X115311757Y-70235456D01*
X115413924Y-70204464D01*
X115493553Y-70196621D01*
X115533366Y-70192700D01*
X116089234Y-70192700D01*
X116129047Y-70196621D01*
X116129047Y-70196621D01*
G37*
G36*
X111328447Y-70196621D02*
X111408076Y-70204464D01*
X111510243Y-70235456D01*
X111561328Y-70250952D01*
X111702565Y-70326445D01*
X111826359Y-70428041D01*
X111927955Y-70551835D01*
X112003448Y-70693072D01*
X112003448Y-70693073D01*
X112049936Y-70846324D01*
X112065633Y-71005700D01*
X112049936Y-71165076D01*
X112018944Y-71267243D01*
X112003448Y-71318328D01*
X111927955Y-71459565D01*
X111826359Y-71583359D01*
X111702565Y-71684955D01*
X111561328Y-71760448D01*
X111510243Y-71775944D01*
X111408076Y-71806936D01*
X111328447Y-71814779D01*
X111288634Y-71818700D01*
X110732766Y-71818700D01*
X110692953Y-71814779D01*
X110613324Y-71806936D01*
X110511157Y-71775944D01*
X110460072Y-71760448D01*
X110318835Y-71684955D01*
X110195041Y-71583359D01*
X110093445Y-71459565D01*
X110017952Y-71318328D01*
X110002456Y-71267243D01*
X109971464Y-71165076D01*
X109955767Y-71005700D01*
X109971464Y-70846324D01*
X110017952Y-70693073D01*
X110017952Y-70693072D01*
X110093445Y-70551835D01*
X110195041Y-70428041D01*
X110318835Y-70326445D01*
X110460072Y-70250952D01*
X110511157Y-70235456D01*
X110613324Y-70204464D01*
X110692953Y-70196621D01*
X110732766Y-70192700D01*
X111288634Y-70192700D01*
X111328447Y-70196621D01*
X111328447Y-70196621D01*
G37*
G36*
X184455047Y-68037621D02*
X184534676Y-68045464D01*
X184636843Y-68076456D01*
X184687928Y-68091952D01*
X184829165Y-68167445D01*
X184952959Y-68269041D01*
X185054555Y-68392835D01*
X185130048Y-68534072D01*
X185130048Y-68534073D01*
X185176536Y-68687324D01*
X185192233Y-68846700D01*
X185176536Y-69006076D01*
X185145544Y-69108243D01*
X185130048Y-69159328D01*
X185054555Y-69300565D01*
X184952959Y-69424359D01*
X184829165Y-69525955D01*
X184687928Y-69601448D01*
X184636843Y-69616944D01*
X184534676Y-69647936D01*
X184455047Y-69655779D01*
X184415234Y-69659700D01*
X183859366Y-69659700D01*
X183819553Y-69655779D01*
X183739924Y-69647936D01*
X183637757Y-69616944D01*
X183586672Y-69601448D01*
X183445435Y-69525955D01*
X183321641Y-69424359D01*
X183220045Y-69300565D01*
X183144552Y-69159328D01*
X183129056Y-69108243D01*
X183098064Y-69006076D01*
X183082367Y-68846700D01*
X183098064Y-68687324D01*
X183144552Y-68534073D01*
X183144552Y-68534072D01*
X183220045Y-68392835D01*
X183321641Y-68269041D01*
X183445435Y-68167445D01*
X183586672Y-68091952D01*
X183637757Y-68076456D01*
X183739924Y-68045464D01*
X183819553Y-68037621D01*
X183859366Y-68033700D01*
X184415234Y-68033700D01*
X184455047Y-68037621D01*
X184455047Y-68037621D01*
G37*
G36*
X111328447Y-68037621D02*
X111408076Y-68045464D01*
X111510243Y-68076456D01*
X111561328Y-68091952D01*
X111702565Y-68167445D01*
X111826359Y-68269041D01*
X111927955Y-68392835D01*
X112003448Y-68534072D01*
X112003448Y-68534073D01*
X112049936Y-68687324D01*
X112065633Y-68846700D01*
X112049936Y-69006076D01*
X112018944Y-69108243D01*
X112003448Y-69159328D01*
X111927955Y-69300565D01*
X111826359Y-69424359D01*
X111702565Y-69525955D01*
X111561328Y-69601448D01*
X111510243Y-69616944D01*
X111408076Y-69647936D01*
X111328447Y-69655779D01*
X111288634Y-69659700D01*
X110732766Y-69659700D01*
X110692953Y-69655779D01*
X110613324Y-69647936D01*
X110511157Y-69616944D01*
X110460072Y-69601448D01*
X110318835Y-69525955D01*
X110195041Y-69424359D01*
X110093445Y-69300565D01*
X110017952Y-69159328D01*
X110002456Y-69108243D01*
X109971464Y-69006076D01*
X109955767Y-68846700D01*
X109971464Y-68687324D01*
X110017952Y-68534073D01*
X110017952Y-68534072D01*
X110093445Y-68392835D01*
X110195041Y-68269041D01*
X110318835Y-68167445D01*
X110460072Y-68091952D01*
X110511157Y-68076456D01*
X110613324Y-68045464D01*
X110692953Y-68037621D01*
X110732766Y-68033700D01*
X111288634Y-68033700D01*
X111328447Y-68037621D01*
X111328447Y-68037621D01*
G37*
G36*
X116862300Y-69647700D02*
X114760300Y-69647700D01*
X114760300Y-68045700D01*
X116862300Y-68045700D01*
X116862300Y-69647700D01*
X116862300Y-69647700D01*
G37*
G36*
X180387700Y-69647700D02*
X178285700Y-69647700D01*
X178285700Y-68045700D01*
X180387700Y-68045700D01*
X180387700Y-69647700D01*
X180387700Y-69647700D01*
G37*
G36*
X114351989Y-54276573D02*
X114939083Y-54519755D01*
X115467458Y-54872804D01*
X115916796Y-55322142D01*
X116269845Y-55850517D01*
X116513027Y-56437611D01*
X116637000Y-57060865D01*
X116637000Y-57696335D01*
X116513027Y-58319589D01*
X116269845Y-58906683D01*
X115916796Y-59435058D01*
X115467458Y-59884396D01*
X114939083Y-60237445D01*
X114351989Y-60480627D01*
X113728735Y-60604600D01*
X113093265Y-60604600D01*
X112470011Y-60480627D01*
X111882917Y-60237445D01*
X111354542Y-59884396D01*
X110905204Y-59435058D01*
X110552155Y-58906683D01*
X110308973Y-58319589D01*
X110185000Y-57696335D01*
X110185000Y-57060865D01*
X110308973Y-56437611D01*
X110552155Y-55850517D01*
X110905204Y-55322142D01*
X111354542Y-54872804D01*
X111882917Y-54519755D01*
X112470011Y-54276573D01*
X113093265Y-54152600D01*
X113728735Y-54152600D01*
X114351989Y-54276573D01*
X114351989Y-54276573D01*
G37*
G36*
X182677989Y-54276573D02*
X183265083Y-54519755D01*
X183793458Y-54872804D01*
X184242796Y-55322142D01*
X184595845Y-55850517D01*
X184839027Y-56437611D01*
X184963000Y-57060865D01*
X184963000Y-57696335D01*
X184839027Y-58319589D01*
X184595845Y-58906683D01*
X184242796Y-59435058D01*
X183793458Y-59884396D01*
X183265083Y-60237445D01*
X182677989Y-60480627D01*
X182054735Y-60604600D01*
X181419265Y-60604600D01*
X180796011Y-60480627D01*
X180208917Y-60237445D01*
X179680542Y-59884396D01*
X179231204Y-59435058D01*
X178878155Y-58906683D01*
X178634973Y-58319589D01*
X178511000Y-57696335D01*
X178511000Y-57060865D01*
X178634973Y-56437611D01*
X178878155Y-55850517D01*
X179231204Y-55322142D01*
X179680542Y-54872804D01*
X180208917Y-54519755D01*
X180796011Y-54276573D01*
X181419265Y-54152600D01*
X182054735Y-54152600D01*
X182677989Y-54276573D01*
X182677989Y-54276573D01*
G37*
G36*
X165212331Y-55658211D02*
X165540092Y-55793974D01*
X165835073Y-55991074D01*
X166085926Y-56241927D01*
X166283026Y-56536908D01*
X166418789Y-56864669D01*
X166488000Y-57212616D01*
X166488000Y-57567384D01*
X166418789Y-57915331D01*
X166283026Y-58243092D01*
X166085926Y-58538073D01*
X165835073Y-58788926D01*
X165540092Y-58986026D01*
X165212331Y-59121789D01*
X164864384Y-59191000D01*
X164509616Y-59191000D01*
X164161669Y-59121789D01*
X163833908Y-58986026D01*
X163538927Y-58788926D01*
X163288074Y-58538073D01*
X163090974Y-58243092D01*
X162955211Y-57915331D01*
X162886000Y-57567384D01*
X162886000Y-57212616D01*
X162955211Y-56864669D01*
X163090974Y-56536908D01*
X163288074Y-56241927D01*
X163538927Y-55991074D01*
X163833908Y-55793974D01*
X164161669Y-55658211D01*
X164509616Y-55589000D01*
X164864384Y-55589000D01*
X165212331Y-55658211D01*
X165212331Y-55658211D01*
G37*
G36*
X130732331Y-55658211D02*
X131060092Y-55793974D01*
X131355073Y-55991074D01*
X131605926Y-56241927D01*
X131803026Y-56536908D01*
X131938789Y-56864669D01*
X132008000Y-57212616D01*
X132008000Y-57567384D01*
X131938789Y-57915331D01*
X131803026Y-58243092D01*
X131605926Y-58538073D01*
X131355073Y-58788926D01*
X131060092Y-58986026D01*
X130732331Y-59121789D01*
X130384384Y-59191000D01*
X130029616Y-59191000D01*
X129681669Y-59121789D01*
X129353908Y-58986026D01*
X129058927Y-58788926D01*
X128808074Y-58538073D01*
X128610974Y-58243092D01*
X128475211Y-57915331D01*
X128406000Y-57567384D01*
X128406000Y-57212616D01*
X128475211Y-56864669D01*
X128610974Y-56536908D01*
X128808074Y-56241927D01*
X129058927Y-55991074D01*
X129353908Y-55793974D01*
X129681669Y-55658211D01*
X130029616Y-55589000D01*
X130384384Y-55589000D01*
X130732331Y-55658211D01*
X130732331Y-55658211D01*
G37*
M02*
