G04 #@! TF.GenerationSoftware,KiCad,Pcbnew,5.0.2+dfsg1-1~bpo9+1*
G04 #@! TF.CreationDate,2019-10-18T00:12:00+01:00*
G04 #@! TF.ProjectId,Sigrok-sniffer,53696772-6f6b-42d7-936e-69666665722e,rev?*
G04 #@! TF.SameCoordinates,Original*
G04 #@! TF.FileFunction,Copper,L2,Bot*
G04 #@! TF.FilePolarity,Positive*
%FSLAX46Y46*%
G04 Gerber Fmt 4.6, Leading zero omitted, Abs format (unit mm)*
G04 Created by KiCad (PCBNEW 5.0.2+dfsg1-1~bpo9+1) date Fri 18 Oct 2019 00:12:00 BST*
%MOMM*%
%LPD*%
G01*
G04 APERTURE LIST*
G04 #@! TA.AperFunction,ComponentPad*
%ADD10R,1.727200X1.727200*%
G04 #@! TD*
G04 #@! TA.AperFunction,ComponentPad*
%ADD11O,1.727200X1.727200*%
G04 #@! TD*
G04 #@! TA.AperFunction,ComponentPad*
%ADD12O,2.000000X1.524000*%
G04 #@! TD*
G04 #@! TA.AperFunction,ComponentPad*
%ADD13O,2.000000X1.500000*%
G04 #@! TD*
G04 #@! TA.AperFunction,ComponentPad*
%ADD14R,2.000000X1.500000*%
G04 #@! TD*
G04 #@! TA.AperFunction,ComponentPad*
%ADD15C,6.350000*%
G04 #@! TD*
G04 #@! TA.AperFunction,ComponentPad*
%ADD16R,1.700000X1.700000*%
G04 #@! TD*
G04 #@! TA.AperFunction,ComponentPad*
%ADD17O,1.700000X1.700000*%
G04 #@! TD*
G04 #@! TA.AperFunction,ViaPad*
%ADD18C,0.800000*%
G04 #@! TD*
G04 #@! TA.AperFunction,Conductor*
%ADD19C,0.350000*%
G04 #@! TD*
G04 #@! TA.AperFunction,Conductor*
%ADD20C,1.000000*%
G04 #@! TD*
G04 #@! TA.AperFunction,Conductor*
%ADD21C,0.254000*%
G04 #@! TD*
G04 APERTURE END LIST*
D10*
G04 #@! TO.P,J1,1*
G04 #@! TO.N,Net-(J1-Pad1)*
X161290000Y-117475000D03*
D11*
G04 #@! TO.P,J1,2*
G04 #@! TO.N,Net-(J1-Pad2)*
X161290000Y-114935000D03*
G04 #@! TO.P,J1,3*
G04 #@! TO.N,Net-(J1-Pad3)*
X158750000Y-117475000D03*
G04 #@! TO.P,J1,4*
G04 #@! TO.N,Net-(J1-Pad4)*
X158750000Y-114935000D03*
G04 #@! TO.P,J1,5*
G04 #@! TO.N,Net-(J1-Pad5)*
X156210000Y-117475000D03*
G04 #@! TO.P,J1,6*
G04 #@! TO.N,Net-(J1-Pad6)*
X156210000Y-114935000D03*
G04 #@! TO.P,J1,7*
G04 #@! TO.N,Net-(J1-Pad7)*
X153670000Y-117475000D03*
G04 #@! TO.P,J1,8*
G04 #@! TO.N,Net-(J1-Pad8)*
X153670000Y-114935000D03*
G04 #@! TO.P,J1,9*
G04 #@! TO.N,Net-(J1-Pad9)*
X151130000Y-117475000D03*
G04 #@! TO.P,J1,10*
G04 #@! TO.N,Net-(J1-Pad10)*
X151130000Y-114935000D03*
G04 #@! TO.P,J1,11*
G04 #@! TO.N,Net-(J1-Pad11)*
X148590000Y-117475000D03*
G04 #@! TO.P,J1,12*
G04 #@! TO.N,Net-(J1-Pad12)*
X148590000Y-114935000D03*
G04 #@! TO.P,J1,13*
G04 #@! TO.N,Net-(J1-Pad13)*
X146050000Y-117475000D03*
G04 #@! TO.P,J1,14*
G04 #@! TO.N,Net-(J1-Pad12)*
X146050000Y-114935000D03*
G04 #@! TO.P,J1,15*
G04 #@! TO.N,Net-(J1-Pad15)*
X143510000Y-117475000D03*
G04 #@! TO.P,J1,16*
G04 #@! TO.N,Net-(J1-Pad12)*
X143510000Y-114935000D03*
G04 #@! TO.P,J1,17*
G04 #@! TO.N,Net-(J1-Pad17)*
X140970000Y-117475000D03*
G04 #@! TO.P,J1,18*
G04 #@! TO.N,Net-(J1-Pad12)*
X140970000Y-114935000D03*
G04 #@! TO.P,J1,19*
G04 #@! TO.N,Net-(J1-Pad19)*
X138430000Y-117475000D03*
G04 #@! TO.P,J1,20*
G04 #@! TO.N,Net-(J1-Pad12)*
X138430000Y-114935000D03*
G04 #@! TO.P,J1,21*
G04 #@! TO.N,Net-(J1-Pad21)*
X135890000Y-117475000D03*
G04 #@! TO.P,J1,22*
G04 #@! TO.N,Net-(J1-Pad12)*
X135890000Y-114935000D03*
G04 #@! TO.P,J1,23*
G04 #@! TO.N,Net-(J1-Pad23)*
X133350000Y-117475000D03*
G04 #@! TO.P,J1,24*
G04 #@! TO.N,Net-(J1-Pad12)*
X133350000Y-114935000D03*
G04 #@! TO.P,J1,25*
G04 #@! TO.N,Net-(J1-Pad23)*
X130810000Y-117475000D03*
G04 #@! TO.P,J1,26*
G04 #@! TO.N,Net-(J1-Pad12)*
X130810000Y-114935000D03*
G04 #@! TD*
D12*
G04 #@! TO.P,J5,18*
G04 #@! TO.N,Net-(J1-Pad12)*
X184137300Y-79692500D03*
G04 #@! TO.P,J5,6*
G04 #@! TO.N,Net-(J1-Pad11)*
X179336700Y-79692500D03*
G04 #@! TO.P,J5,7*
G04 #@! TO.N,Net-(J1-Pad13)*
X179336700Y-81851500D03*
G04 #@! TO.P,J5,19*
G04 #@! TO.N,Net-(J1-Pad12)*
X184137300Y-81851500D03*
G04 #@! TO.P,J5,20*
X184137300Y-84061300D03*
G04 #@! TO.P,J5,21*
X184137300Y-86220300D03*
G04 #@! TO.P,J5,9*
G04 #@! TO.N,Net-(J1-Pad17)*
X179336700Y-86220300D03*
G04 #@! TO.P,J5,8*
G04 #@! TO.N,Net-(J1-Pad15)*
X179336700Y-84061300D03*
G04 #@! TO.P,J5,22*
G04 #@! TO.N,Net-(J1-Pad12)*
X184137300Y-88379300D03*
G04 #@! TO.P,J5,23*
X184137300Y-90538300D03*
G04 #@! TO.P,J5,11*
G04 #@! TO.N,Net-(J1-Pad21)*
X179336700Y-90538300D03*
G04 #@! TO.P,J5,10*
G04 #@! TO.N,Net-(J1-Pad19)*
X179336700Y-88379300D03*
G04 #@! TO.P,J5,24*
G04 #@! TO.N,Net-(J1-Pad12)*
X184137300Y-92697300D03*
G04 #@! TO.P,J5,12*
G04 #@! TO.N,Net-(J1-Pad23)*
X179336700Y-92697300D03*
G04 #@! TO.P,J5,16*
G04 #@! TO.N,Net-(J1-Pad8)*
X184137300Y-75323700D03*
G04 #@! TO.P,J5,17*
G04 #@! TO.N,Net-(J1-Pad10)*
X184137300Y-77482700D03*
G04 #@! TO.P,J5,5*
G04 #@! TO.N,Net-(J1-Pad9)*
X179336700Y-77482700D03*
G04 #@! TO.P,J5,4*
G04 #@! TO.N,Net-(J1-Pad7)*
X179336700Y-75323700D03*
G04 #@! TO.P,J5,14*
G04 #@! TO.N,Net-(J1-Pad4)*
X184137300Y-71005700D03*
G04 #@! TO.P,J5,15*
G04 #@! TO.N,Net-(J1-Pad6)*
X184137300Y-73164700D03*
D13*
G04 #@! TO.P,J5,3*
G04 #@! TO.N,Net-(J1-Pad5)*
X179336700Y-73164700D03*
D12*
G04 #@! TO.P,J5,2*
G04 #@! TO.N,Net-(J1-Pad3)*
X179336700Y-71005700D03*
D14*
G04 #@! TO.P,J5,1*
G04 #@! TO.N,Net-(J1-Pad1)*
X179336700Y-68846700D03*
D12*
G04 #@! TO.P,J5,13*
G04 #@! TO.N,Net-(J1-Pad2)*
X184137300Y-68846700D03*
D15*
G04 #@! TO.P,J5,MP*
G04 #@! TO.N,Net-(J1-Pad23)*
X181737000Y-57378600D03*
X181737000Y-104165400D03*
G04 #@! TD*
D16*
G04 #@! TO.P,J2,1*
G04 #@! TO.N,Net-(J2-Pad1)*
X132207000Y-72390000D03*
D17*
G04 #@! TO.P,J2,2*
G04 #@! TO.N,Net-(J2-Pad2)*
X134747000Y-72390000D03*
G04 #@! TO.P,J2,3*
G04 #@! TO.N,Net-(J2-Pad3)*
X132207000Y-74930000D03*
G04 #@! TO.P,J2,4*
G04 #@! TO.N,Net-(J1-Pad12)*
X134747000Y-74930000D03*
G04 #@! TO.P,J2,5*
G04 #@! TO.N,N/C*
X132207000Y-77470000D03*
G04 #@! TO.P,J2,6*
X134747000Y-77470000D03*
G04 #@! TO.P,J2,7*
X132207000Y-80010000D03*
G04 #@! TO.P,J2,8*
X134747000Y-80010000D03*
G04 #@! TO.P,J2,9*
G04 #@! TO.N,Net-(J1-Pad12)*
X132207000Y-82550000D03*
G04 #@! TO.P,J2,10*
G04 #@! TO.N,N/C*
X134747000Y-82550000D03*
G04 #@! TO.P,J2,11*
G04 #@! TO.N,Net-(J1-Pad12)*
X132207000Y-85090000D03*
G04 #@! TO.P,J2,12*
G04 #@! TO.N,N/C*
X134747000Y-85090000D03*
G04 #@! TO.P,J2,13*
X132207000Y-87630000D03*
G04 #@! TO.P,J2,14*
X134747000Y-87630000D03*
G04 #@! TO.P,J2,15*
G04 #@! TO.N,Net-(J2-Pad15)*
X132207000Y-90170000D03*
G04 #@! TO.P,J2,16*
G04 #@! TO.N,Net-(J2-Pad16)*
X134747000Y-90170000D03*
G04 #@! TO.P,J2,17*
G04 #@! TO.N,Net-(J2-Pad17)*
X132207000Y-92710000D03*
G04 #@! TO.P,J2,18*
G04 #@! TO.N,Net-(J2-Pad18)*
X134747000Y-92710000D03*
G04 #@! TO.P,J2,19*
G04 #@! TO.N,Net-(J1-Pad12)*
X132207000Y-95250000D03*
G04 #@! TO.P,J2,20*
G04 #@! TO.N,N/C*
X134747000Y-95250000D03*
G04 #@! TD*
G04 #@! TO.P,J4,20*
G04 #@! TO.N,Net-(J4-Pad20)*
X162687000Y-95250000D03*
G04 #@! TO.P,J4,19*
G04 #@! TO.N,Net-(J4-Pad19)*
X160147000Y-95250000D03*
G04 #@! TO.P,J4,18*
G04 #@! TO.N,Net-(J4-Pad18)*
X162687000Y-92710000D03*
G04 #@! TO.P,J4,17*
G04 #@! TO.N,Net-(J4-Pad17)*
X160147000Y-92710000D03*
G04 #@! TO.P,J4,16*
G04 #@! TO.N,N/C*
X162687000Y-90170000D03*
G04 #@! TO.P,J4,15*
X160147000Y-90170000D03*
G04 #@! TO.P,J4,14*
X162687000Y-87630000D03*
G04 #@! TO.P,J4,13*
X160147000Y-87630000D03*
G04 #@! TO.P,J4,12*
X162687000Y-85090000D03*
G04 #@! TO.P,J4,11*
X160147000Y-85090000D03*
G04 #@! TO.P,J4,10*
X162687000Y-82550000D03*
G04 #@! TO.P,J4,9*
X160147000Y-82550000D03*
G04 #@! TO.P,J4,8*
X162687000Y-80010000D03*
G04 #@! TO.P,J4,7*
X160147000Y-80010000D03*
G04 #@! TO.P,J4,6*
X162687000Y-77470000D03*
G04 #@! TO.P,J4,5*
G04 #@! TO.N,Net-(J4-Pad5)*
X160147000Y-77470000D03*
G04 #@! TO.P,J4,4*
G04 #@! TO.N,Net-(J4-Pad4)*
X162687000Y-74930000D03*
G04 #@! TO.P,J4,3*
G04 #@! TO.N,Net-(J4-Pad3)*
X160147000Y-74930000D03*
G04 #@! TO.P,J4,2*
G04 #@! TO.N,Net-(J4-Pad2)*
X162687000Y-72390000D03*
D16*
G04 #@! TO.P,J4,1*
G04 #@! TO.N,Net-(J4-Pad1)*
X160147000Y-72390000D03*
G04 #@! TD*
D12*
G04 #@! TO.P,J3,18*
G04 #@! TO.N,Net-(J1-Pad12)*
X111010700Y-79692500D03*
G04 #@! TO.P,J3,6*
G04 #@! TO.N,Net-(J1-Pad11)*
X115811300Y-79692500D03*
G04 #@! TO.P,J3,7*
G04 #@! TO.N,Net-(J1-Pad13)*
X115811300Y-81851500D03*
G04 #@! TO.P,J3,19*
G04 #@! TO.N,Net-(J1-Pad12)*
X111010700Y-81851500D03*
G04 #@! TO.P,J3,20*
X111010700Y-84061300D03*
G04 #@! TO.P,J3,21*
X111010700Y-86220300D03*
G04 #@! TO.P,J3,9*
G04 #@! TO.N,Net-(J1-Pad17)*
X115811300Y-86220300D03*
G04 #@! TO.P,J3,8*
G04 #@! TO.N,Net-(J1-Pad15)*
X115811300Y-84061300D03*
G04 #@! TO.P,J3,22*
G04 #@! TO.N,Net-(J1-Pad12)*
X111010700Y-88379300D03*
G04 #@! TO.P,J3,23*
X111010700Y-90538300D03*
G04 #@! TO.P,J3,11*
G04 #@! TO.N,Net-(J1-Pad21)*
X115811300Y-90538300D03*
G04 #@! TO.P,J3,10*
G04 #@! TO.N,Net-(J1-Pad19)*
X115811300Y-88379300D03*
G04 #@! TO.P,J3,24*
G04 #@! TO.N,Net-(J1-Pad12)*
X111010700Y-92697300D03*
G04 #@! TO.P,J3,12*
G04 #@! TO.N,Net-(J1-Pad23)*
X115811300Y-92697300D03*
G04 #@! TO.P,J3,16*
G04 #@! TO.N,Net-(J1-Pad8)*
X111010700Y-75323700D03*
G04 #@! TO.P,J3,17*
G04 #@! TO.N,Net-(J1-Pad10)*
X111010700Y-77482700D03*
G04 #@! TO.P,J3,5*
G04 #@! TO.N,Net-(J1-Pad9)*
X115811300Y-77482700D03*
G04 #@! TO.P,J3,4*
G04 #@! TO.N,Net-(J1-Pad7)*
X115811300Y-75323700D03*
G04 #@! TO.P,J3,14*
G04 #@! TO.N,Net-(J1-Pad4)*
X111010700Y-71005700D03*
G04 #@! TO.P,J3,15*
G04 #@! TO.N,Net-(J1-Pad6)*
X111010700Y-73164700D03*
D13*
G04 #@! TO.P,J3,3*
G04 #@! TO.N,Net-(J1-Pad5)*
X115811300Y-73164700D03*
D12*
G04 #@! TO.P,J3,2*
G04 #@! TO.N,Net-(J1-Pad3)*
X115811300Y-71005700D03*
D14*
G04 #@! TO.P,J3,1*
G04 #@! TO.N,Net-(J1-Pad1)*
X115811300Y-68846700D03*
D12*
G04 #@! TO.P,J3,13*
G04 #@! TO.N,Net-(J1-Pad2)*
X111010700Y-68846700D03*
D15*
G04 #@! TO.P,J3,MP*
G04 #@! TO.N,Net-(J1-Pad23)*
X113411000Y-57378600D03*
X113411000Y-104165400D03*
G04 #@! TD*
D18*
G04 #@! TO.N,Net-(J1-Pad1)*
X124333000Y-68199000D03*
X124333000Y-90170000D03*
G04 #@! TO.N,Net-(J1-Pad2)*
X175006000Y-95377000D03*
X175006000Y-64516000D03*
X160020000Y-107569000D03*
G04 #@! TO.N,Net-(J1-Pad4)*
X152019000Y-95250000D03*
X153797000Y-63246000D03*
X155067000Y-101219000D03*
G04 #@! TO.N,Net-(J1-Pad6)*
X173101000Y-92710000D03*
X156210000Y-106680000D03*
G04 #@! TO.N,Net-(J1-Pad8)*
X151003000Y-65659000D03*
X151003000Y-92710000D03*
X151638000Y-105791000D03*
G04 #@! TO.N,Net-(J1-Pad10)*
X122809000Y-74930000D03*
X151257000Y-111887000D03*
X175514000Y-101854000D03*
X122809000Y-66929000D03*
G04 #@! TO.N,Net-(J1-Pad15)*
X143637000Y-107442000D03*
X165481000Y-86360000D03*
X170942000Y-72390000D03*
G04 #@! TO.N,Net-(J1-Pad17)*
X139192000Y-87503000D03*
X121412000Y-88900000D03*
X143256000Y-72390000D03*
G04 #@! TO.N,Net-(J1-Pad19)*
X137160000Y-110490000D03*
X175514000Y-99568000D03*
X142494000Y-110490000D03*
X121539000Y-72390000D03*
G04 #@! TO.N,Net-(J1-Pad21)*
X137541000Y-93980000D03*
X118237000Y-93980000D03*
X137922000Y-71247000D03*
G04 #@! TO.N,Net-(J1-Pad3)*
X144526000Y-90170000D03*
X144653000Y-104140000D03*
X144526000Y-69977000D03*
G04 #@! TO.N,Net-(J1-Pad5)*
X124587000Y-92710000D03*
X129794000Y-73660000D03*
G04 #@! TO.N,Net-(J1-Pad7)*
X152400000Y-108839000D03*
X143129000Y-92710000D03*
X141859000Y-76073000D03*
G04 #@! TO.N,Net-(J1-Pad9)*
X149860000Y-105791000D03*
X149225000Y-78740000D03*
G04 #@! TO.N,Net-(J1-Pad11)*
X147320000Y-81280000D03*
X147320000Y-105791000D03*
X170942000Y-74930000D03*
X170942000Y-81280000D03*
G04 #@! TO.N,Net-(J1-Pad13)*
X145923000Y-83820000D03*
X145923000Y-105791000D03*
X146431000Y-74930000D03*
G04 #@! TD*
D19*
G04 #@! TO.N,Net-(J1-Pad1)*
X124333000Y-90170000D02*
X124333000Y-68199000D01*
X177533300Y-68846700D02*
X179336700Y-68846700D01*
X176784000Y-69596000D02*
X177533300Y-68846700D01*
X176784000Y-102870000D02*
X176784000Y-69596000D01*
X166878000Y-112776000D02*
X176784000Y-102870000D01*
X161290000Y-117475000D02*
X162560000Y-116205000D01*
X163068000Y-112776000D02*
X166878000Y-112776000D01*
X162560000Y-116205000D02*
X162560000Y-113284000D01*
X162560000Y-113284000D02*
X163068000Y-112776000D01*
G04 #@! TO.N,Net-(J1-Pad2)*
X175006000Y-64516000D02*
X175006000Y-95377000D01*
X160020000Y-107569000D02*
X160020000Y-102362000D01*
X160020000Y-102362000D02*
X162814000Y-99568000D01*
X175006000Y-97282000D02*
X175006000Y-95504000D01*
X172720000Y-99568000D02*
X175006000Y-97282000D01*
X162814000Y-99568000D02*
X172720000Y-99568000D01*
G04 #@! TO.N,Net-(J1-Pad4)*
X153797000Y-95250000D02*
X152019000Y-95250000D01*
X153797000Y-63246000D02*
X153797000Y-95250000D01*
X153797000Y-99949000D02*
X153797000Y-95250000D01*
X155067000Y-101219000D02*
X153797000Y-99949000D01*
G04 #@! TO.N,Net-(J1-Pad6)*
X109474000Y-73152000D02*
X110871000Y-73152000D01*
X108585000Y-72263000D02*
X109474000Y-73152000D01*
X108585000Y-66929000D02*
X108585000Y-72263000D01*
X181102000Y-62230000D02*
X113284000Y-62230000D01*
X184150000Y-73152000D02*
X185928000Y-73152000D01*
X186563000Y-67691000D02*
X181102000Y-62230000D01*
X113284000Y-62230000D02*
X108585000Y-66929000D01*
X185928000Y-73152000D02*
X186563000Y-72517000D01*
X186563000Y-72517000D02*
X186563000Y-67691000D01*
X173101000Y-62230000D02*
X173736000Y-62230000D01*
X173101000Y-92710000D02*
X173101000Y-62230000D01*
X173101000Y-97409000D02*
X173101000Y-92710000D01*
X161925000Y-98298000D02*
X172212000Y-98298000D01*
X172212000Y-98298000D02*
X173101000Y-97409000D01*
X156210000Y-106680000D02*
X156210000Y-104013000D01*
X156210000Y-104013000D02*
X161925000Y-98298000D01*
G04 #@! TO.N,Net-(J1-Pad8)*
X151003000Y-92710000D02*
X151003000Y-65659000D01*
X151003000Y-105156000D02*
X151003000Y-92710000D01*
X151638000Y-105791000D02*
X151003000Y-105156000D01*
G04 #@! TO.N,Net-(J1-Pad10)*
X122809000Y-74930000D02*
X122809000Y-68707000D01*
X122809000Y-68707000D02*
X122809000Y-66929000D01*
X151384000Y-111760000D02*
X151257000Y-111887000D01*
X165608000Y-111760000D02*
X151384000Y-111760000D01*
X175514000Y-101854000D02*
X165608000Y-111760000D01*
X113919000Y-76073000D02*
X112395000Y-77597000D01*
X122809000Y-66929000D02*
X114681000Y-66929000D01*
X114681000Y-66929000D02*
X113919000Y-67691000D01*
X112395000Y-77597000D02*
X111125000Y-77597000D01*
X113919000Y-67691000D02*
X113919000Y-76073000D01*
G04 #@! TO.N,Net-(J1-Pad12)*
X132207000Y-95250000D02*
X132334000Y-95250000D01*
X132334000Y-95250000D02*
X133477000Y-94107000D01*
X133477000Y-94107000D02*
X133477000Y-81661000D01*
X133477000Y-81661000D02*
X133477000Y-76200000D01*
X133477000Y-76200000D02*
X134620000Y-75057000D01*
X132207000Y-82550000D02*
X133350000Y-82550000D01*
X132207000Y-85090000D02*
X133350000Y-85090000D01*
X140970000Y-114935000D02*
X143510000Y-114935000D01*
X143510000Y-114935000D02*
X146050000Y-114935000D01*
X146050000Y-114935000D02*
X148590000Y-114935000D01*
G04 #@! TO.N,Net-(J1-Pad15)*
X170942000Y-72390000D02*
X166624000Y-72390000D01*
X166624000Y-72390000D02*
X165481000Y-73533000D01*
X165481000Y-73533000D02*
X165481000Y-86360000D01*
X165481000Y-86360000D02*
X165481000Y-86487000D01*
X165481000Y-96393000D02*
X165481000Y-86360000D01*
X164846000Y-97028000D02*
X165481000Y-96393000D01*
X161036000Y-97028000D02*
X164846000Y-97028000D01*
X143637000Y-107442000D02*
X153670000Y-107442000D01*
X153670000Y-107442000D02*
X154686000Y-106426000D01*
X154686000Y-106426000D02*
X154686000Y-103378000D01*
X154686000Y-103378000D02*
X161036000Y-97028000D01*
G04 #@! TO.N,Net-(J1-Pad17)*
X128016000Y-108966000D02*
X130048000Y-108966000D01*
X121412000Y-88900000D02*
X121412000Y-102362000D01*
X121412000Y-102362000D02*
X128016000Y-108966000D01*
X139192000Y-78486000D02*
X139192000Y-87503000D01*
X141097000Y-72390000D02*
X139192000Y-74295000D01*
X139192000Y-74295000D02*
X139192000Y-78486000D01*
X143256000Y-72390000D02*
X141097000Y-72390000D01*
X139700000Y-116205000D02*
X140970000Y-117475000D01*
X139700000Y-109982000D02*
X139700000Y-116205000D01*
X138684000Y-108966000D02*
X139700000Y-109982000D01*
X129921000Y-108966000D02*
X138684000Y-108966000D01*
G04 #@! TO.N,Net-(J1-Pad19)*
X137160000Y-116078000D02*
X138430000Y-117348000D01*
X137160000Y-110490000D02*
X137160000Y-116078000D01*
X117602000Y-88392000D02*
X115824000Y-88392000D01*
X142494000Y-110490000D02*
X164592000Y-110490000D01*
X164592000Y-110490000D02*
X175514000Y-99568000D01*
X117602000Y-88392000D02*
X118618000Y-88392000D01*
X119761000Y-102997000D02*
X119761000Y-89535000D01*
X119761000Y-89535000D02*
X118618000Y-88392000D01*
X127254000Y-110490000D02*
X119761000Y-102997000D01*
X137160000Y-110490000D02*
X127254000Y-110490000D01*
X119634000Y-87376000D02*
X118618000Y-88392000D01*
X121539000Y-72390000D02*
X120142000Y-72390000D01*
X119634000Y-72898000D02*
X119634000Y-87376000D01*
X120142000Y-72390000D02*
X119634000Y-72898000D01*
G04 #@! TO.N,Net-(J1-Pad21)*
X134620000Y-116205000D02*
X135890000Y-117475000D01*
X118237000Y-93980000D02*
X118237000Y-103886000D01*
X118237000Y-103886000D02*
X126238000Y-111887000D01*
X126238000Y-111887000D02*
X133477000Y-111887000D01*
X134620000Y-113030000D02*
X134620000Y-116205000D01*
X133477000Y-111887000D02*
X134620000Y-113030000D01*
X117729000Y-90551000D02*
X115824000Y-90551000D01*
X118237000Y-91059000D02*
X117729000Y-90551000D01*
X118237000Y-93980000D02*
X118237000Y-91059000D01*
X137541000Y-73279000D02*
X137541000Y-93980000D01*
X137541000Y-71628000D02*
X137541000Y-73279000D01*
X138303000Y-70866000D02*
X137541000Y-71628000D01*
D20*
G04 #@! TO.N,Net-(J1-Pad23)*
X133350000Y-117475000D02*
X133350000Y-119380000D01*
X179336700Y-92697300D02*
X179336700Y-95008700D01*
X179336700Y-95008700D02*
X180848000Y-96520000D01*
X180848000Y-96520000D02*
X187960000Y-96520000D01*
X181864000Y-57404000D02*
X181737000Y-57404000D01*
X188087000Y-63627000D02*
X181864000Y-57404000D01*
X113665000Y-104267000D02*
X128778000Y-119380000D01*
X188087000Y-98044000D02*
X188087000Y-63627000D01*
X128778000Y-119380000D02*
X166751000Y-119380000D01*
X113665000Y-104140000D02*
X113665000Y-104267000D01*
X166751000Y-119380000D02*
X188087000Y-98044000D01*
X115811300Y-92697300D02*
X115811300Y-94246700D01*
X115811300Y-94246700D02*
X114173000Y-95885000D01*
X114173000Y-95885000D02*
X106807000Y-95885000D01*
X106680000Y-64008000D02*
X106680000Y-97409000D01*
X113284000Y-57404000D02*
X106680000Y-64008000D01*
X106680000Y-97409000D02*
X113538000Y-104267000D01*
X113411000Y-57404000D02*
X113284000Y-57404000D01*
X130810000Y-117475000D02*
X130810000Y-119380000D01*
D19*
G04 #@! TO.N,Net-(J1-Pad3)*
X144526000Y-104013000D02*
X144526000Y-90170000D01*
X144653000Y-104140000D02*
X144526000Y-104013000D01*
X144526000Y-69977000D02*
X144526000Y-79248000D01*
X144526000Y-79248000D02*
X144526000Y-90170000D01*
G04 #@! TO.N,Net-(J1-Pad5)*
X129667000Y-92710000D02*
X129794000Y-92837000D01*
X124587000Y-92710000D02*
X129667000Y-92710000D01*
X129794000Y-92837000D02*
X129794000Y-73660000D01*
X154940000Y-116205000D02*
X156210000Y-117475000D01*
X154940000Y-113538000D02*
X154940000Y-116205000D01*
X154432000Y-113030000D02*
X154940000Y-113538000D01*
X141478000Y-113030000D02*
X154432000Y-113030000D01*
X140716000Y-112268000D02*
X141478000Y-113030000D01*
X129794000Y-92837000D02*
X129794000Y-97028000D01*
X129794000Y-97028000D02*
X130683000Y-97917000D01*
X140716000Y-99568000D02*
X140716000Y-112268000D01*
X130683000Y-97917000D02*
X139065000Y-97917000D01*
X139065000Y-97917000D02*
X140716000Y-99568000D01*
G04 #@! TO.N,Net-(J1-Pad7)*
X141986000Y-92710000D02*
X141859000Y-92710000D01*
X143129000Y-92710000D02*
X141986000Y-92710000D01*
X142875000Y-108839000D02*
X152400000Y-108839000D01*
X141859000Y-107823000D02*
X142875000Y-108839000D01*
X141859000Y-76073000D02*
X141859000Y-107823000D01*
G04 #@! TO.N,Net-(J1-Pad9)*
X149225000Y-78740000D02*
X149225000Y-105156000D01*
X149225000Y-105156000D02*
X149860000Y-105791000D01*
G04 #@! TO.N,Net-(J1-Pad11)*
X147320000Y-81280000D02*
X147320000Y-105791000D01*
X170942000Y-81280000D02*
X170942000Y-74930000D01*
G04 #@! TO.N,Net-(J1-Pad13)*
X145923000Y-83820000D02*
X145923000Y-105791000D01*
X145923000Y-75438000D02*
X145923000Y-83820000D01*
X146431000Y-74930000D02*
X145923000Y-75438000D01*
G04 #@! TD*
D21*
G04 #@! TO.N,Net-(J1-Pad23)*
G36*
X188341000Y-119702704D02*
X188260626Y-119777001D01*
X188013178Y-119886397D01*
X187740880Y-119920796D01*
X187676665Y-119940000D01*
X107494198Y-119940000D01*
X107435677Y-119924974D01*
X107062706Y-119862895D01*
X106837615Y-119741443D01*
X106663999Y-119553626D01*
X106554603Y-119306178D01*
X106520204Y-119033880D01*
X106501000Y-118969665D01*
X106501000Y-117834027D01*
X129355032Y-117834027D01*
X129603179Y-118363490D01*
X130035053Y-118757688D01*
X130450974Y-118929958D01*
X130683000Y-118808817D01*
X130683000Y-117602000D01*
X130937000Y-117602000D01*
X130937000Y-118808817D01*
X131169026Y-118929958D01*
X131584947Y-118757688D01*
X132016821Y-118363490D01*
X132080000Y-118228687D01*
X132143179Y-118363490D01*
X132575053Y-118757688D01*
X132990974Y-118929958D01*
X133223000Y-118808817D01*
X133223000Y-117602000D01*
X130937000Y-117602000D01*
X130683000Y-117602000D01*
X129475531Y-117602000D01*
X129355032Y-117834027D01*
X106501000Y-117834027D01*
X106501000Y-106888275D01*
X110867730Y-106888275D01*
X111231630Y-107381110D01*
X112628124Y-107970337D01*
X114143803Y-107980298D01*
X115547920Y-107409474D01*
X115590370Y-107381110D01*
X115954270Y-106888275D01*
X113411000Y-104345005D01*
X110867730Y-106888275D01*
X106501000Y-106888275D01*
X106501000Y-104898203D01*
X109596102Y-104898203D01*
X110166926Y-106302320D01*
X110195290Y-106344770D01*
X110688125Y-106708670D01*
X113231395Y-104165400D01*
X113590605Y-104165400D01*
X116133875Y-106708670D01*
X116626710Y-106344770D01*
X117215937Y-104948276D01*
X117225898Y-103432597D01*
X116655074Y-102028480D01*
X116626710Y-101986030D01*
X116133875Y-101622130D01*
X113590605Y-104165400D01*
X113231395Y-104165400D01*
X110688125Y-101622130D01*
X110195290Y-101986030D01*
X109606063Y-103382524D01*
X109596102Y-104898203D01*
X106501000Y-104898203D01*
X106501000Y-101442525D01*
X110867730Y-101442525D01*
X113411000Y-103985795D01*
X115954270Y-101442525D01*
X115590370Y-100949690D01*
X114193876Y-100360463D01*
X112678197Y-100350502D01*
X111274080Y-100921326D01*
X111231630Y-100949690D01*
X110867730Y-101442525D01*
X106501000Y-101442525D01*
X106501000Y-66929000D01*
X107759132Y-66929000D01*
X107775000Y-67008773D01*
X107775001Y-72183222D01*
X107759132Y-72263000D01*
X107809457Y-72515997D01*
X107821998Y-72579046D01*
X108001024Y-72846977D01*
X108068654Y-72892166D01*
X108844834Y-73668347D01*
X108890023Y-73735977D01*
X109157954Y-73915003D01*
X109394226Y-73962000D01*
X109394227Y-73962000D01*
X109474000Y-73977868D01*
X109553773Y-73962000D01*
X109625283Y-73962000D01*
X109765520Y-74171880D01*
X109873755Y-74244200D01*
X109765520Y-74316520D01*
X109456756Y-74778618D01*
X109348332Y-75323700D01*
X109456756Y-75868782D01*
X109765520Y-76330880D01*
X109873755Y-76403200D01*
X109765520Y-76475520D01*
X109456756Y-76937618D01*
X109348332Y-77482700D01*
X109456756Y-78027782D01*
X109765520Y-78489880D01*
X109911768Y-78587600D01*
X109765520Y-78685320D01*
X109456756Y-79147418D01*
X109348332Y-79692500D01*
X109456756Y-80237582D01*
X109765520Y-80699680D01*
X109873755Y-80772000D01*
X109765520Y-80844320D01*
X109456756Y-81306418D01*
X109348332Y-81851500D01*
X109456756Y-82396582D01*
X109765520Y-82858680D01*
X109911768Y-82956400D01*
X109765520Y-83054120D01*
X109456756Y-83516218D01*
X109348332Y-84061300D01*
X109456756Y-84606382D01*
X109765520Y-85068480D01*
X109873755Y-85140800D01*
X109765520Y-85213120D01*
X109456756Y-85675218D01*
X109348332Y-86220300D01*
X109456756Y-86765382D01*
X109765520Y-87227480D01*
X109873755Y-87299800D01*
X109765520Y-87372120D01*
X109456756Y-87834218D01*
X109348332Y-88379300D01*
X109456756Y-88924382D01*
X109765520Y-89386480D01*
X109873755Y-89458800D01*
X109765520Y-89531120D01*
X109456756Y-89993218D01*
X109348332Y-90538300D01*
X109456756Y-91083382D01*
X109765520Y-91545480D01*
X109873755Y-91617800D01*
X109765520Y-91690120D01*
X109456756Y-92152218D01*
X109348332Y-92697300D01*
X109456756Y-93242382D01*
X109765520Y-93704480D01*
X110227618Y-94013244D01*
X110635112Y-94094300D01*
X111386288Y-94094300D01*
X111793782Y-94013244D01*
X112255880Y-93704480D01*
X112564644Y-93242382D01*
X112604826Y-93040370D01*
X114219080Y-93040370D01*
X114235923Y-93132530D01*
X114504280Y-93611192D01*
X114935386Y-93950722D01*
X115463608Y-94099430D01*
X115684300Y-93940577D01*
X115684300Y-92824300D01*
X114341580Y-92824300D01*
X114219080Y-93040370D01*
X112604826Y-93040370D01*
X112673068Y-92697300D01*
X112564644Y-92152218D01*
X112255880Y-91690120D01*
X112147645Y-91617800D01*
X112255880Y-91545480D01*
X112564644Y-91083382D01*
X112673068Y-90538300D01*
X112564644Y-89993218D01*
X112255880Y-89531120D01*
X112147645Y-89458800D01*
X112255880Y-89386480D01*
X112564644Y-88924382D01*
X112673068Y-88379300D01*
X112564644Y-87834218D01*
X112255880Y-87372120D01*
X112147645Y-87299800D01*
X112255880Y-87227480D01*
X112564644Y-86765382D01*
X112673068Y-86220300D01*
X112564644Y-85675218D01*
X112255880Y-85213120D01*
X112147645Y-85140800D01*
X112255880Y-85068480D01*
X112564644Y-84606382D01*
X112673068Y-84061300D01*
X112564644Y-83516218D01*
X112255880Y-83054120D01*
X112109632Y-82956400D01*
X112255880Y-82858680D01*
X112564644Y-82396582D01*
X112673068Y-81851500D01*
X112564644Y-81306418D01*
X112255880Y-80844320D01*
X112147645Y-80772000D01*
X112255880Y-80699680D01*
X112564644Y-80237582D01*
X112673068Y-79692500D01*
X112564644Y-79147418D01*
X112255880Y-78685320D01*
X112109632Y-78587600D01*
X112255880Y-78489880D01*
X112311259Y-78407000D01*
X112315227Y-78407000D01*
X112395000Y-78422868D01*
X112474773Y-78407000D01*
X112474774Y-78407000D01*
X112711046Y-78360003D01*
X112978977Y-78180977D01*
X113024168Y-78113344D01*
X114373064Y-76764449D01*
X114257356Y-76937618D01*
X114148932Y-77482700D01*
X114257356Y-78027782D01*
X114566120Y-78489880D01*
X114712368Y-78587600D01*
X114566120Y-78685320D01*
X114257356Y-79147418D01*
X114148932Y-79692500D01*
X114257356Y-80237582D01*
X114566120Y-80699680D01*
X114674355Y-80772000D01*
X114566120Y-80844320D01*
X114257356Y-81306418D01*
X114148932Y-81851500D01*
X114257356Y-82396582D01*
X114566120Y-82858680D01*
X114712368Y-82956400D01*
X114566120Y-83054120D01*
X114257356Y-83516218D01*
X114148932Y-84061300D01*
X114257356Y-84606382D01*
X114566120Y-85068480D01*
X114674355Y-85140800D01*
X114566120Y-85213120D01*
X114257356Y-85675218D01*
X114148932Y-86220300D01*
X114257356Y-86765382D01*
X114566120Y-87227480D01*
X114674355Y-87299800D01*
X114566120Y-87372120D01*
X114257356Y-87834218D01*
X114148932Y-88379300D01*
X114257356Y-88924382D01*
X114566120Y-89386480D01*
X114674355Y-89458800D01*
X114566120Y-89531120D01*
X114257356Y-89993218D01*
X114148932Y-90538300D01*
X114257356Y-91083382D01*
X114566120Y-91545480D01*
X114696103Y-91632332D01*
X114504280Y-91783408D01*
X114235923Y-92262070D01*
X114219080Y-92354230D01*
X114341580Y-92570300D01*
X115684300Y-92570300D01*
X115684300Y-92550300D01*
X115938300Y-92550300D01*
X115938300Y-92570300D01*
X115958300Y-92570300D01*
X115958300Y-92824300D01*
X115938300Y-92824300D01*
X115938300Y-93940577D01*
X116158992Y-94099430D01*
X116687214Y-93950722D01*
X117118320Y-93611192D01*
X117386677Y-93132530D01*
X117403520Y-93040370D01*
X117281021Y-92824302D01*
X117427000Y-92824302D01*
X117427000Y-93326289D01*
X117359569Y-93393720D01*
X117202000Y-93774126D01*
X117202000Y-94185874D01*
X117359569Y-94566280D01*
X117427000Y-94633711D01*
X117427001Y-103806222D01*
X117411132Y-103886000D01*
X117466709Y-104165400D01*
X117473998Y-104202046D01*
X117653024Y-104469977D01*
X117720654Y-104515166D01*
X125608834Y-112403347D01*
X125654023Y-112470977D01*
X125785270Y-112558673D01*
X125921953Y-112650003D01*
X126238000Y-112712868D01*
X126317774Y-112697000D01*
X133141488Y-112697000D01*
X133810000Y-113365513D01*
X133810000Y-113498541D01*
X133497598Y-113436400D01*
X133202402Y-113436400D01*
X132765275Y-113523350D01*
X132269570Y-113854570D01*
X132080000Y-114138281D01*
X131890430Y-113854570D01*
X131394725Y-113523350D01*
X130957598Y-113436400D01*
X130662402Y-113436400D01*
X130225275Y-113523350D01*
X129729570Y-113854570D01*
X129398350Y-114350275D01*
X129282041Y-114935000D01*
X129398350Y-115519725D01*
X129729570Y-116015430D01*
X130017826Y-116208037D01*
X129603179Y-116586510D01*
X129355032Y-117115973D01*
X129475531Y-117348000D01*
X130683000Y-117348000D01*
X130683000Y-117328000D01*
X130937000Y-117328000D01*
X130937000Y-117348000D01*
X133223000Y-117348000D01*
X133223000Y-117328000D01*
X133477000Y-117328000D01*
X133477000Y-117348000D01*
X133497000Y-117348000D01*
X133497000Y-117602000D01*
X133477000Y-117602000D01*
X133477000Y-118808817D01*
X133709026Y-118929958D01*
X134124947Y-118757688D01*
X134556821Y-118363490D01*
X134608146Y-118253979D01*
X134809570Y-118555430D01*
X135305275Y-118886650D01*
X135742402Y-118973600D01*
X136037598Y-118973600D01*
X136474725Y-118886650D01*
X136970430Y-118555430D01*
X137160000Y-118271719D01*
X137349570Y-118555430D01*
X137845275Y-118886650D01*
X138282402Y-118973600D01*
X138577598Y-118973600D01*
X139014725Y-118886650D01*
X139510430Y-118555430D01*
X139700000Y-118271719D01*
X139889570Y-118555430D01*
X140385275Y-118886650D01*
X140822402Y-118973600D01*
X141117598Y-118973600D01*
X141554725Y-118886650D01*
X142050430Y-118555430D01*
X142240000Y-118271719D01*
X142429570Y-118555430D01*
X142925275Y-118886650D01*
X143362402Y-118973600D01*
X143657598Y-118973600D01*
X144094725Y-118886650D01*
X144590430Y-118555430D01*
X144780000Y-118271719D01*
X144969570Y-118555430D01*
X145465275Y-118886650D01*
X145902402Y-118973600D01*
X146197598Y-118973600D01*
X146634725Y-118886650D01*
X147130430Y-118555430D01*
X147320000Y-118271719D01*
X147509570Y-118555430D01*
X148005275Y-118886650D01*
X148442402Y-118973600D01*
X148737598Y-118973600D01*
X149174725Y-118886650D01*
X149670430Y-118555430D01*
X149860000Y-118271719D01*
X150049570Y-118555430D01*
X150545275Y-118886650D01*
X150982402Y-118973600D01*
X151277598Y-118973600D01*
X151714725Y-118886650D01*
X152210430Y-118555430D01*
X152400000Y-118271719D01*
X152589570Y-118555430D01*
X153085275Y-118886650D01*
X153522402Y-118973600D01*
X153817598Y-118973600D01*
X154254725Y-118886650D01*
X154750430Y-118555430D01*
X154940000Y-118271719D01*
X155129570Y-118555430D01*
X155625275Y-118886650D01*
X156062402Y-118973600D01*
X156357598Y-118973600D01*
X156794725Y-118886650D01*
X157290430Y-118555430D01*
X157480000Y-118271719D01*
X157669570Y-118555430D01*
X158165275Y-118886650D01*
X158602402Y-118973600D01*
X158897598Y-118973600D01*
X159334725Y-118886650D01*
X159823068Y-118560349D01*
X159828243Y-118586365D01*
X159968591Y-118796409D01*
X160178635Y-118936757D01*
X160426400Y-118986040D01*
X162153600Y-118986040D01*
X162401365Y-118936757D01*
X162611409Y-118796409D01*
X162751757Y-118586365D01*
X162801040Y-118338600D01*
X162801040Y-117109473D01*
X163076347Y-116834166D01*
X163143977Y-116788977D01*
X163323003Y-116521046D01*
X163370000Y-116284774D01*
X163370000Y-116284773D01*
X163385868Y-116205001D01*
X163370000Y-116125228D01*
X163370000Y-113619512D01*
X163403512Y-113586000D01*
X166798227Y-113586000D01*
X166878000Y-113601868D01*
X166957773Y-113586000D01*
X166957774Y-113586000D01*
X167194046Y-113539003D01*
X167461977Y-113359977D01*
X167507168Y-113292344D01*
X173911237Y-106888275D01*
X179193730Y-106888275D01*
X179557630Y-107381110D01*
X180954124Y-107970337D01*
X182469803Y-107980298D01*
X183873920Y-107409474D01*
X183916370Y-107381110D01*
X184280270Y-106888275D01*
X181737000Y-104345005D01*
X179193730Y-106888275D01*
X173911237Y-106888275D01*
X175901309Y-104898203D01*
X177922102Y-104898203D01*
X178492926Y-106302320D01*
X178521290Y-106344770D01*
X179014125Y-106708670D01*
X181557395Y-104165400D01*
X181916605Y-104165400D01*
X184459875Y-106708670D01*
X184952710Y-106344770D01*
X185541937Y-104948276D01*
X185551898Y-103432597D01*
X184981074Y-102028480D01*
X184952710Y-101986030D01*
X184459875Y-101622130D01*
X181916605Y-104165400D01*
X181557395Y-104165400D01*
X179014125Y-101622130D01*
X178521290Y-101986030D01*
X177932063Y-103382524D01*
X177922102Y-104898203D01*
X175901309Y-104898203D01*
X177300348Y-103499165D01*
X177367977Y-103453977D01*
X177495872Y-103262569D01*
X177547003Y-103186047D01*
X177609868Y-102870000D01*
X177594000Y-102790226D01*
X177594000Y-101442525D01*
X179193730Y-101442525D01*
X181737000Y-103985795D01*
X184280270Y-101442525D01*
X183916370Y-100949690D01*
X182519876Y-100360463D01*
X181004197Y-100350502D01*
X179600080Y-100921326D01*
X179557630Y-100949690D01*
X179193730Y-101442525D01*
X177594000Y-101442525D01*
X177594000Y-93040370D01*
X177744480Y-93040370D01*
X177761323Y-93132530D01*
X178029680Y-93611192D01*
X178460786Y-93950722D01*
X178989008Y-94099430D01*
X179209700Y-93940577D01*
X179209700Y-92824300D01*
X179463700Y-92824300D01*
X179463700Y-93940577D01*
X179684392Y-94099430D01*
X180212614Y-93950722D01*
X180643720Y-93611192D01*
X180912077Y-93132530D01*
X180928920Y-93040370D01*
X180806420Y-92824300D01*
X179463700Y-92824300D01*
X179209700Y-92824300D01*
X177866980Y-92824300D01*
X177744480Y-93040370D01*
X177594000Y-93040370D01*
X177594000Y-69931512D01*
X177729004Y-69796509D01*
X177738543Y-69844465D01*
X177878891Y-70054509D01*
X178000026Y-70135450D01*
X177782756Y-70460618D01*
X177674332Y-71005700D01*
X177782756Y-71550782D01*
X178091520Y-72012880D01*
X178204554Y-72088407D01*
X178088171Y-72166171D01*
X177782059Y-72624300D01*
X177674567Y-73164700D01*
X177782059Y-73705100D01*
X178088171Y-74163229D01*
X178204554Y-74240993D01*
X178091520Y-74316520D01*
X177782756Y-74778618D01*
X177674332Y-75323700D01*
X177782756Y-75868782D01*
X178091520Y-76330880D01*
X178199755Y-76403200D01*
X178091520Y-76475520D01*
X177782756Y-76937618D01*
X177674332Y-77482700D01*
X177782756Y-78027782D01*
X178091520Y-78489880D01*
X178237768Y-78587600D01*
X178091520Y-78685320D01*
X177782756Y-79147418D01*
X177674332Y-79692500D01*
X177782756Y-80237582D01*
X178091520Y-80699680D01*
X178199755Y-80772000D01*
X178091520Y-80844320D01*
X177782756Y-81306418D01*
X177674332Y-81851500D01*
X177782756Y-82396582D01*
X178091520Y-82858680D01*
X178237768Y-82956400D01*
X178091520Y-83054120D01*
X177782756Y-83516218D01*
X177674332Y-84061300D01*
X177782756Y-84606382D01*
X178091520Y-85068480D01*
X178199755Y-85140800D01*
X178091520Y-85213120D01*
X177782756Y-85675218D01*
X177674332Y-86220300D01*
X177782756Y-86765382D01*
X178091520Y-87227480D01*
X178199755Y-87299800D01*
X178091520Y-87372120D01*
X177782756Y-87834218D01*
X177674332Y-88379300D01*
X177782756Y-88924382D01*
X178091520Y-89386480D01*
X178199755Y-89458800D01*
X178091520Y-89531120D01*
X177782756Y-89993218D01*
X177674332Y-90538300D01*
X177782756Y-91083382D01*
X178091520Y-91545480D01*
X178221503Y-91632332D01*
X178029680Y-91783408D01*
X177761323Y-92262070D01*
X177744480Y-92354230D01*
X177866980Y-92570300D01*
X179209700Y-92570300D01*
X179209700Y-92550300D01*
X179463700Y-92550300D01*
X179463700Y-92570300D01*
X180806420Y-92570300D01*
X180928920Y-92354230D01*
X180912077Y-92262070D01*
X180643720Y-91783408D01*
X180451897Y-91632332D01*
X180581880Y-91545480D01*
X180890644Y-91083382D01*
X180999068Y-90538300D01*
X180890644Y-89993218D01*
X180581880Y-89531120D01*
X180473645Y-89458800D01*
X180581880Y-89386480D01*
X180890644Y-88924382D01*
X180999068Y-88379300D01*
X180890644Y-87834218D01*
X180581880Y-87372120D01*
X180473645Y-87299800D01*
X180581880Y-87227480D01*
X180890644Y-86765382D01*
X180999068Y-86220300D01*
X180890644Y-85675218D01*
X180581880Y-85213120D01*
X180473645Y-85140800D01*
X180581880Y-85068480D01*
X180890644Y-84606382D01*
X180999068Y-84061300D01*
X180890644Y-83516218D01*
X180581880Y-83054120D01*
X180435632Y-82956400D01*
X180581880Y-82858680D01*
X180890644Y-82396582D01*
X180999068Y-81851500D01*
X180890644Y-81306418D01*
X180581880Y-80844320D01*
X180473645Y-80772000D01*
X180581880Y-80699680D01*
X180890644Y-80237582D01*
X180999068Y-79692500D01*
X180890644Y-79147418D01*
X180581880Y-78685320D01*
X180435632Y-78587600D01*
X180581880Y-78489880D01*
X180890644Y-78027782D01*
X180999068Y-77482700D01*
X180890644Y-76937618D01*
X180581880Y-76475520D01*
X180473645Y-76403200D01*
X180581880Y-76330880D01*
X180890644Y-75868782D01*
X180999068Y-75323700D01*
X180890644Y-74778618D01*
X180581880Y-74316520D01*
X180468846Y-74240993D01*
X180585229Y-74163229D01*
X180891341Y-73705100D01*
X180998833Y-73164700D01*
X180891341Y-72624300D01*
X180585229Y-72166171D01*
X180468846Y-72088407D01*
X180581880Y-72012880D01*
X180890644Y-71550782D01*
X180999068Y-71005700D01*
X180890644Y-70460618D01*
X180673374Y-70135450D01*
X180794509Y-70054509D01*
X180934857Y-69844465D01*
X180984140Y-69596700D01*
X180984140Y-68096700D01*
X180934857Y-67848935D01*
X180794509Y-67638891D01*
X180584465Y-67498543D01*
X180336700Y-67449260D01*
X178336700Y-67449260D01*
X178088935Y-67498543D01*
X177878891Y-67638891D01*
X177738543Y-67848935D01*
X177701195Y-68036700D01*
X177613072Y-68036700D01*
X177533299Y-68020832D01*
X177453526Y-68036700D01*
X177217254Y-68083697D01*
X176949323Y-68262723D01*
X176904134Y-68330353D01*
X176267654Y-68966834D01*
X176200024Y-69012023D01*
X176154835Y-69079653D01*
X176020998Y-69279954D01*
X175958132Y-69596000D01*
X175974001Y-69675778D01*
X175974000Y-95009374D01*
X175883431Y-94790720D01*
X175816000Y-94723289D01*
X175816000Y-65169711D01*
X175883431Y-65102280D01*
X176041000Y-64721874D01*
X176041000Y-64310126D01*
X175883431Y-63929720D01*
X175592280Y-63638569D01*
X175211874Y-63481000D01*
X174800126Y-63481000D01*
X174419720Y-63638569D01*
X174128569Y-63929720D01*
X173971000Y-64310126D01*
X173971000Y-64721874D01*
X174128569Y-65102280D01*
X174196000Y-65169711D01*
X174196001Y-94723288D01*
X174128569Y-94790720D01*
X173971000Y-95171126D01*
X173971000Y-95582874D01*
X174128569Y-95963280D01*
X174196001Y-96030712D01*
X174196000Y-96946487D01*
X173911000Y-97231487D01*
X173911000Y-93363711D01*
X173978431Y-93296280D01*
X174136000Y-92915874D01*
X174136000Y-92504126D01*
X173978431Y-92123720D01*
X173911000Y-92056289D01*
X173911000Y-63040000D01*
X180766488Y-63040000D01*
X185753001Y-68026514D01*
X185753001Y-68612089D01*
X185691244Y-68301618D01*
X185382480Y-67839520D01*
X184920382Y-67530756D01*
X184512888Y-67449700D01*
X183761712Y-67449700D01*
X183354218Y-67530756D01*
X182892120Y-67839520D01*
X182583356Y-68301618D01*
X182474932Y-68846700D01*
X182583356Y-69391782D01*
X182892120Y-69853880D01*
X183000355Y-69926200D01*
X182892120Y-69998520D01*
X182583356Y-70460618D01*
X182474932Y-71005700D01*
X182583356Y-71550782D01*
X182892120Y-72012880D01*
X183000355Y-72085200D01*
X182892120Y-72157520D01*
X182583356Y-72619618D01*
X182474932Y-73164700D01*
X182583356Y-73709782D01*
X182892120Y-74171880D01*
X183000355Y-74244200D01*
X182892120Y-74316520D01*
X182583356Y-74778618D01*
X182474932Y-75323700D01*
X182583356Y-75868782D01*
X182892120Y-76330880D01*
X183000355Y-76403200D01*
X182892120Y-76475520D01*
X182583356Y-76937618D01*
X182474932Y-77482700D01*
X182583356Y-78027782D01*
X182892120Y-78489880D01*
X183038368Y-78587600D01*
X182892120Y-78685320D01*
X182583356Y-79147418D01*
X182474932Y-79692500D01*
X182583356Y-80237582D01*
X182892120Y-80699680D01*
X183000355Y-80772000D01*
X182892120Y-80844320D01*
X182583356Y-81306418D01*
X182474932Y-81851500D01*
X182583356Y-82396582D01*
X182892120Y-82858680D01*
X183038368Y-82956400D01*
X182892120Y-83054120D01*
X182583356Y-83516218D01*
X182474932Y-84061300D01*
X182583356Y-84606382D01*
X182892120Y-85068480D01*
X183000355Y-85140800D01*
X182892120Y-85213120D01*
X182583356Y-85675218D01*
X182474932Y-86220300D01*
X182583356Y-86765382D01*
X182892120Y-87227480D01*
X183000355Y-87299800D01*
X182892120Y-87372120D01*
X182583356Y-87834218D01*
X182474932Y-88379300D01*
X182583356Y-88924382D01*
X182892120Y-89386480D01*
X183000355Y-89458800D01*
X182892120Y-89531120D01*
X182583356Y-89993218D01*
X182474932Y-90538300D01*
X182583356Y-91083382D01*
X182892120Y-91545480D01*
X183000355Y-91617800D01*
X182892120Y-91690120D01*
X182583356Y-92152218D01*
X182474932Y-92697300D01*
X182583356Y-93242382D01*
X182892120Y-93704480D01*
X183354218Y-94013244D01*
X183761712Y-94094300D01*
X184512888Y-94094300D01*
X184920382Y-94013244D01*
X185382480Y-93704480D01*
X185691244Y-93242382D01*
X185799668Y-92697300D01*
X185691244Y-92152218D01*
X185382480Y-91690120D01*
X185274245Y-91617800D01*
X185382480Y-91545480D01*
X185691244Y-91083382D01*
X185799668Y-90538300D01*
X185691244Y-89993218D01*
X185382480Y-89531120D01*
X185274245Y-89458800D01*
X185382480Y-89386480D01*
X185691244Y-88924382D01*
X185799668Y-88379300D01*
X185691244Y-87834218D01*
X185382480Y-87372120D01*
X185274245Y-87299800D01*
X185382480Y-87227480D01*
X185691244Y-86765382D01*
X185799668Y-86220300D01*
X185691244Y-85675218D01*
X185382480Y-85213120D01*
X185274245Y-85140800D01*
X185382480Y-85068480D01*
X185691244Y-84606382D01*
X185799668Y-84061300D01*
X185691244Y-83516218D01*
X185382480Y-83054120D01*
X185236232Y-82956400D01*
X185382480Y-82858680D01*
X185691244Y-82396582D01*
X185799668Y-81851500D01*
X185691244Y-81306418D01*
X185382480Y-80844320D01*
X185274245Y-80772000D01*
X185382480Y-80699680D01*
X185691244Y-80237582D01*
X185799668Y-79692500D01*
X185691244Y-79147418D01*
X185382480Y-78685320D01*
X185236232Y-78587600D01*
X185382480Y-78489880D01*
X185691244Y-78027782D01*
X185799668Y-77482700D01*
X185691244Y-76937618D01*
X185382480Y-76475520D01*
X185274245Y-76403200D01*
X185382480Y-76330880D01*
X185691244Y-75868782D01*
X185799668Y-75323700D01*
X185691244Y-74778618D01*
X185382480Y-74316520D01*
X185274245Y-74244200D01*
X185382480Y-74171880D01*
X185522717Y-73962000D01*
X185848227Y-73962000D01*
X185928000Y-73977868D01*
X186007773Y-73962000D01*
X186007774Y-73962000D01*
X186244046Y-73915003D01*
X186511977Y-73735977D01*
X186557168Y-73668345D01*
X187079347Y-73146166D01*
X187146977Y-73100977D01*
X187234882Y-72969418D01*
X187326003Y-72833047D01*
X187388868Y-72517000D01*
X187373000Y-72437226D01*
X187373000Y-67770772D01*
X187388868Y-67690999D01*
X187371472Y-67603543D01*
X187326003Y-67374954D01*
X187146977Y-67107023D01*
X187079347Y-67061834D01*
X181731168Y-61713656D01*
X181685977Y-61646023D01*
X181418046Y-61466997D01*
X181181774Y-61420000D01*
X181181773Y-61420000D01*
X181102000Y-61404132D01*
X181022227Y-61420000D01*
X173180774Y-61420000D01*
X173101000Y-61404132D01*
X173021226Y-61420000D01*
X113363774Y-61420000D01*
X113284000Y-61404132D01*
X113204226Y-61420000D01*
X112967954Y-61466997D01*
X112700023Y-61646023D01*
X112654834Y-61713653D01*
X108068656Y-66299832D01*
X108001023Y-66345023D01*
X107821997Y-66612955D01*
X107800083Y-66723126D01*
X107759132Y-66929000D01*
X106501000Y-66929000D01*
X106501000Y-60101475D01*
X110867730Y-60101475D01*
X111231630Y-60594310D01*
X112628124Y-61183537D01*
X114143803Y-61193498D01*
X115547920Y-60622674D01*
X115590370Y-60594310D01*
X115954270Y-60101475D01*
X179193730Y-60101475D01*
X179557630Y-60594310D01*
X180954124Y-61183537D01*
X182469803Y-61193498D01*
X183873920Y-60622674D01*
X183916370Y-60594310D01*
X184280270Y-60101475D01*
X181737000Y-57558205D01*
X179193730Y-60101475D01*
X115954270Y-60101475D01*
X113411000Y-57558205D01*
X110867730Y-60101475D01*
X106501000Y-60101475D01*
X106501000Y-58111403D01*
X109596102Y-58111403D01*
X110166926Y-59515520D01*
X110195290Y-59557970D01*
X110688125Y-59921870D01*
X113231395Y-57378600D01*
X113590605Y-57378600D01*
X116133875Y-59921870D01*
X116626710Y-59557970D01*
X117215937Y-58161476D01*
X117224124Y-56915594D01*
X127822000Y-56915594D01*
X127822000Y-57864406D01*
X128185095Y-58740994D01*
X128856006Y-59411905D01*
X129732594Y-59775000D01*
X130681406Y-59775000D01*
X131557994Y-59411905D01*
X132228905Y-58740994D01*
X132592000Y-57864406D01*
X132592000Y-56915594D01*
X162302000Y-56915594D01*
X162302000Y-57864406D01*
X162665095Y-58740994D01*
X163336006Y-59411905D01*
X164212594Y-59775000D01*
X165161406Y-59775000D01*
X166037994Y-59411905D01*
X166708905Y-58740994D01*
X166969690Y-58111403D01*
X177922102Y-58111403D01*
X178492926Y-59515520D01*
X178521290Y-59557970D01*
X179014125Y-59921870D01*
X181557395Y-57378600D01*
X181916605Y-57378600D01*
X184459875Y-59921870D01*
X184952710Y-59557970D01*
X185541937Y-58161476D01*
X185551898Y-56645797D01*
X184981074Y-55241680D01*
X184952710Y-55199230D01*
X184459875Y-54835330D01*
X181916605Y-57378600D01*
X181557395Y-57378600D01*
X179014125Y-54835330D01*
X178521290Y-55199230D01*
X177932063Y-56595724D01*
X177922102Y-58111403D01*
X166969690Y-58111403D01*
X167072000Y-57864406D01*
X167072000Y-56915594D01*
X166708905Y-56039006D01*
X166037994Y-55368095D01*
X165161406Y-55005000D01*
X164212594Y-55005000D01*
X163336006Y-55368095D01*
X162665095Y-56039006D01*
X162302000Y-56915594D01*
X132592000Y-56915594D01*
X132228905Y-56039006D01*
X131557994Y-55368095D01*
X130681406Y-55005000D01*
X129732594Y-55005000D01*
X128856006Y-55368095D01*
X128185095Y-56039006D01*
X127822000Y-56915594D01*
X117224124Y-56915594D01*
X117225898Y-56645797D01*
X116655074Y-55241680D01*
X116626710Y-55199230D01*
X116133875Y-54835330D01*
X113590605Y-57378600D01*
X113231395Y-57378600D01*
X110688125Y-54835330D01*
X110195290Y-55199230D01*
X109606063Y-56595724D01*
X109596102Y-58111403D01*
X106501000Y-58111403D01*
X106501000Y-54655725D01*
X110867730Y-54655725D01*
X113411000Y-57198995D01*
X115954270Y-54655725D01*
X179193730Y-54655725D01*
X181737000Y-57198995D01*
X184280270Y-54655725D01*
X183916370Y-54162890D01*
X182519876Y-53573663D01*
X181004197Y-53563702D01*
X179600080Y-54134526D01*
X179557630Y-54162890D01*
X179193730Y-54655725D01*
X115954270Y-54655725D01*
X115590370Y-54162890D01*
X114193876Y-53573663D01*
X112678197Y-53563702D01*
X111274080Y-54134526D01*
X111231630Y-54162890D01*
X110867730Y-54655725D01*
X106501000Y-54655725D01*
X106501000Y-53542000D01*
X188341000Y-53542000D01*
X188341000Y-119702704D01*
X188341000Y-119702704D01*
G37*
X188341000Y-119702704D02*
X188260626Y-119777001D01*
X188013178Y-119886397D01*
X187740880Y-119920796D01*
X187676665Y-119940000D01*
X107494198Y-119940000D01*
X107435677Y-119924974D01*
X107062706Y-119862895D01*
X106837615Y-119741443D01*
X106663999Y-119553626D01*
X106554603Y-119306178D01*
X106520204Y-119033880D01*
X106501000Y-118969665D01*
X106501000Y-117834027D01*
X129355032Y-117834027D01*
X129603179Y-118363490D01*
X130035053Y-118757688D01*
X130450974Y-118929958D01*
X130683000Y-118808817D01*
X130683000Y-117602000D01*
X130937000Y-117602000D01*
X130937000Y-118808817D01*
X131169026Y-118929958D01*
X131584947Y-118757688D01*
X132016821Y-118363490D01*
X132080000Y-118228687D01*
X132143179Y-118363490D01*
X132575053Y-118757688D01*
X132990974Y-118929958D01*
X133223000Y-118808817D01*
X133223000Y-117602000D01*
X130937000Y-117602000D01*
X130683000Y-117602000D01*
X129475531Y-117602000D01*
X129355032Y-117834027D01*
X106501000Y-117834027D01*
X106501000Y-106888275D01*
X110867730Y-106888275D01*
X111231630Y-107381110D01*
X112628124Y-107970337D01*
X114143803Y-107980298D01*
X115547920Y-107409474D01*
X115590370Y-107381110D01*
X115954270Y-106888275D01*
X113411000Y-104345005D01*
X110867730Y-106888275D01*
X106501000Y-106888275D01*
X106501000Y-104898203D01*
X109596102Y-104898203D01*
X110166926Y-106302320D01*
X110195290Y-106344770D01*
X110688125Y-106708670D01*
X113231395Y-104165400D01*
X113590605Y-104165400D01*
X116133875Y-106708670D01*
X116626710Y-106344770D01*
X117215937Y-104948276D01*
X117225898Y-103432597D01*
X116655074Y-102028480D01*
X116626710Y-101986030D01*
X116133875Y-101622130D01*
X113590605Y-104165400D01*
X113231395Y-104165400D01*
X110688125Y-101622130D01*
X110195290Y-101986030D01*
X109606063Y-103382524D01*
X109596102Y-104898203D01*
X106501000Y-104898203D01*
X106501000Y-101442525D01*
X110867730Y-101442525D01*
X113411000Y-103985795D01*
X115954270Y-101442525D01*
X115590370Y-100949690D01*
X114193876Y-100360463D01*
X112678197Y-100350502D01*
X111274080Y-100921326D01*
X111231630Y-100949690D01*
X110867730Y-101442525D01*
X106501000Y-101442525D01*
X106501000Y-66929000D01*
X107759132Y-66929000D01*
X107775000Y-67008773D01*
X107775001Y-72183222D01*
X107759132Y-72263000D01*
X107809457Y-72515997D01*
X107821998Y-72579046D01*
X108001024Y-72846977D01*
X108068654Y-72892166D01*
X108844834Y-73668347D01*
X108890023Y-73735977D01*
X109157954Y-73915003D01*
X109394226Y-73962000D01*
X109394227Y-73962000D01*
X109474000Y-73977868D01*
X109553773Y-73962000D01*
X109625283Y-73962000D01*
X109765520Y-74171880D01*
X109873755Y-74244200D01*
X109765520Y-74316520D01*
X109456756Y-74778618D01*
X109348332Y-75323700D01*
X109456756Y-75868782D01*
X109765520Y-76330880D01*
X109873755Y-76403200D01*
X109765520Y-76475520D01*
X109456756Y-76937618D01*
X109348332Y-77482700D01*
X109456756Y-78027782D01*
X109765520Y-78489880D01*
X109911768Y-78587600D01*
X109765520Y-78685320D01*
X109456756Y-79147418D01*
X109348332Y-79692500D01*
X109456756Y-80237582D01*
X109765520Y-80699680D01*
X109873755Y-80772000D01*
X109765520Y-80844320D01*
X109456756Y-81306418D01*
X109348332Y-81851500D01*
X109456756Y-82396582D01*
X109765520Y-82858680D01*
X109911768Y-82956400D01*
X109765520Y-83054120D01*
X109456756Y-83516218D01*
X109348332Y-84061300D01*
X109456756Y-84606382D01*
X109765520Y-85068480D01*
X109873755Y-85140800D01*
X109765520Y-85213120D01*
X109456756Y-85675218D01*
X109348332Y-86220300D01*
X109456756Y-86765382D01*
X109765520Y-87227480D01*
X109873755Y-87299800D01*
X109765520Y-87372120D01*
X109456756Y-87834218D01*
X109348332Y-88379300D01*
X109456756Y-88924382D01*
X109765520Y-89386480D01*
X109873755Y-89458800D01*
X109765520Y-89531120D01*
X109456756Y-89993218D01*
X109348332Y-90538300D01*
X109456756Y-91083382D01*
X109765520Y-91545480D01*
X109873755Y-91617800D01*
X109765520Y-91690120D01*
X109456756Y-92152218D01*
X109348332Y-92697300D01*
X109456756Y-93242382D01*
X109765520Y-93704480D01*
X110227618Y-94013244D01*
X110635112Y-94094300D01*
X111386288Y-94094300D01*
X111793782Y-94013244D01*
X112255880Y-93704480D01*
X112564644Y-93242382D01*
X112604826Y-93040370D01*
X114219080Y-93040370D01*
X114235923Y-93132530D01*
X114504280Y-93611192D01*
X114935386Y-93950722D01*
X115463608Y-94099430D01*
X115684300Y-93940577D01*
X115684300Y-92824300D01*
X114341580Y-92824300D01*
X114219080Y-93040370D01*
X112604826Y-93040370D01*
X112673068Y-92697300D01*
X112564644Y-92152218D01*
X112255880Y-91690120D01*
X112147645Y-91617800D01*
X112255880Y-91545480D01*
X112564644Y-91083382D01*
X112673068Y-90538300D01*
X112564644Y-89993218D01*
X112255880Y-89531120D01*
X112147645Y-89458800D01*
X112255880Y-89386480D01*
X112564644Y-88924382D01*
X112673068Y-88379300D01*
X112564644Y-87834218D01*
X112255880Y-87372120D01*
X112147645Y-87299800D01*
X112255880Y-87227480D01*
X112564644Y-86765382D01*
X112673068Y-86220300D01*
X112564644Y-85675218D01*
X112255880Y-85213120D01*
X112147645Y-85140800D01*
X112255880Y-85068480D01*
X112564644Y-84606382D01*
X112673068Y-84061300D01*
X112564644Y-83516218D01*
X112255880Y-83054120D01*
X112109632Y-82956400D01*
X112255880Y-82858680D01*
X112564644Y-82396582D01*
X112673068Y-81851500D01*
X112564644Y-81306418D01*
X112255880Y-80844320D01*
X112147645Y-80772000D01*
X112255880Y-80699680D01*
X112564644Y-80237582D01*
X112673068Y-79692500D01*
X112564644Y-79147418D01*
X112255880Y-78685320D01*
X112109632Y-78587600D01*
X112255880Y-78489880D01*
X112311259Y-78407000D01*
X112315227Y-78407000D01*
X112395000Y-78422868D01*
X112474773Y-78407000D01*
X112474774Y-78407000D01*
X112711046Y-78360003D01*
X112978977Y-78180977D01*
X113024168Y-78113344D01*
X114373064Y-76764449D01*
X114257356Y-76937618D01*
X114148932Y-77482700D01*
X114257356Y-78027782D01*
X114566120Y-78489880D01*
X114712368Y-78587600D01*
X114566120Y-78685320D01*
X114257356Y-79147418D01*
X114148932Y-79692500D01*
X114257356Y-80237582D01*
X114566120Y-80699680D01*
X114674355Y-80772000D01*
X114566120Y-80844320D01*
X114257356Y-81306418D01*
X114148932Y-81851500D01*
X114257356Y-82396582D01*
X114566120Y-82858680D01*
X114712368Y-82956400D01*
X114566120Y-83054120D01*
X114257356Y-83516218D01*
X114148932Y-84061300D01*
X114257356Y-84606382D01*
X114566120Y-85068480D01*
X114674355Y-85140800D01*
X114566120Y-85213120D01*
X114257356Y-85675218D01*
X114148932Y-86220300D01*
X114257356Y-86765382D01*
X114566120Y-87227480D01*
X114674355Y-87299800D01*
X114566120Y-87372120D01*
X114257356Y-87834218D01*
X114148932Y-88379300D01*
X114257356Y-88924382D01*
X114566120Y-89386480D01*
X114674355Y-89458800D01*
X114566120Y-89531120D01*
X114257356Y-89993218D01*
X114148932Y-90538300D01*
X114257356Y-91083382D01*
X114566120Y-91545480D01*
X114696103Y-91632332D01*
X114504280Y-91783408D01*
X114235923Y-92262070D01*
X114219080Y-92354230D01*
X114341580Y-92570300D01*
X115684300Y-92570300D01*
X115684300Y-92550300D01*
X115938300Y-92550300D01*
X115938300Y-92570300D01*
X115958300Y-92570300D01*
X115958300Y-92824300D01*
X115938300Y-92824300D01*
X115938300Y-93940577D01*
X116158992Y-94099430D01*
X116687214Y-93950722D01*
X117118320Y-93611192D01*
X117386677Y-93132530D01*
X117403520Y-93040370D01*
X117281021Y-92824302D01*
X117427000Y-92824302D01*
X117427000Y-93326289D01*
X117359569Y-93393720D01*
X117202000Y-93774126D01*
X117202000Y-94185874D01*
X117359569Y-94566280D01*
X117427000Y-94633711D01*
X117427001Y-103806222D01*
X117411132Y-103886000D01*
X117466709Y-104165400D01*
X117473998Y-104202046D01*
X117653024Y-104469977D01*
X117720654Y-104515166D01*
X125608834Y-112403347D01*
X125654023Y-112470977D01*
X125785270Y-112558673D01*
X125921953Y-112650003D01*
X126238000Y-112712868D01*
X126317774Y-112697000D01*
X133141488Y-112697000D01*
X133810000Y-113365513D01*
X133810000Y-113498541D01*
X133497598Y-113436400D01*
X133202402Y-113436400D01*
X132765275Y-113523350D01*
X132269570Y-113854570D01*
X132080000Y-114138281D01*
X131890430Y-113854570D01*
X131394725Y-113523350D01*
X130957598Y-113436400D01*
X130662402Y-113436400D01*
X130225275Y-113523350D01*
X129729570Y-113854570D01*
X129398350Y-114350275D01*
X129282041Y-114935000D01*
X129398350Y-115519725D01*
X129729570Y-116015430D01*
X130017826Y-116208037D01*
X129603179Y-116586510D01*
X129355032Y-117115973D01*
X129475531Y-117348000D01*
X130683000Y-117348000D01*
X130683000Y-117328000D01*
X130937000Y-117328000D01*
X130937000Y-117348000D01*
X133223000Y-117348000D01*
X133223000Y-117328000D01*
X133477000Y-117328000D01*
X133477000Y-117348000D01*
X133497000Y-117348000D01*
X133497000Y-117602000D01*
X133477000Y-117602000D01*
X133477000Y-118808817D01*
X133709026Y-118929958D01*
X134124947Y-118757688D01*
X134556821Y-118363490D01*
X134608146Y-118253979D01*
X134809570Y-118555430D01*
X135305275Y-118886650D01*
X135742402Y-118973600D01*
X136037598Y-118973600D01*
X136474725Y-118886650D01*
X136970430Y-118555430D01*
X137160000Y-118271719D01*
X137349570Y-118555430D01*
X137845275Y-118886650D01*
X138282402Y-118973600D01*
X138577598Y-118973600D01*
X139014725Y-118886650D01*
X139510430Y-118555430D01*
X139700000Y-118271719D01*
X139889570Y-118555430D01*
X140385275Y-118886650D01*
X140822402Y-118973600D01*
X141117598Y-118973600D01*
X141554725Y-118886650D01*
X142050430Y-118555430D01*
X142240000Y-118271719D01*
X142429570Y-118555430D01*
X142925275Y-118886650D01*
X143362402Y-118973600D01*
X143657598Y-118973600D01*
X144094725Y-118886650D01*
X144590430Y-118555430D01*
X144780000Y-118271719D01*
X144969570Y-118555430D01*
X145465275Y-118886650D01*
X145902402Y-118973600D01*
X146197598Y-118973600D01*
X146634725Y-118886650D01*
X147130430Y-118555430D01*
X147320000Y-118271719D01*
X147509570Y-118555430D01*
X148005275Y-118886650D01*
X148442402Y-118973600D01*
X148737598Y-118973600D01*
X149174725Y-118886650D01*
X149670430Y-118555430D01*
X149860000Y-118271719D01*
X150049570Y-118555430D01*
X150545275Y-118886650D01*
X150982402Y-118973600D01*
X151277598Y-118973600D01*
X151714725Y-118886650D01*
X152210430Y-118555430D01*
X152400000Y-118271719D01*
X152589570Y-118555430D01*
X153085275Y-118886650D01*
X153522402Y-118973600D01*
X153817598Y-118973600D01*
X154254725Y-118886650D01*
X154750430Y-118555430D01*
X154940000Y-118271719D01*
X155129570Y-118555430D01*
X155625275Y-118886650D01*
X156062402Y-118973600D01*
X156357598Y-118973600D01*
X156794725Y-118886650D01*
X157290430Y-118555430D01*
X157480000Y-118271719D01*
X157669570Y-118555430D01*
X158165275Y-118886650D01*
X158602402Y-118973600D01*
X158897598Y-118973600D01*
X159334725Y-118886650D01*
X159823068Y-118560349D01*
X159828243Y-118586365D01*
X159968591Y-118796409D01*
X160178635Y-118936757D01*
X160426400Y-118986040D01*
X162153600Y-118986040D01*
X162401365Y-118936757D01*
X162611409Y-118796409D01*
X162751757Y-118586365D01*
X162801040Y-118338600D01*
X162801040Y-117109473D01*
X163076347Y-116834166D01*
X163143977Y-116788977D01*
X163323003Y-116521046D01*
X163370000Y-116284774D01*
X163370000Y-116284773D01*
X163385868Y-116205001D01*
X163370000Y-116125228D01*
X163370000Y-113619512D01*
X163403512Y-113586000D01*
X166798227Y-113586000D01*
X166878000Y-113601868D01*
X166957773Y-113586000D01*
X166957774Y-113586000D01*
X167194046Y-113539003D01*
X167461977Y-113359977D01*
X167507168Y-113292344D01*
X173911237Y-106888275D01*
X179193730Y-106888275D01*
X179557630Y-107381110D01*
X180954124Y-107970337D01*
X182469803Y-107980298D01*
X183873920Y-107409474D01*
X183916370Y-107381110D01*
X184280270Y-106888275D01*
X181737000Y-104345005D01*
X179193730Y-106888275D01*
X173911237Y-106888275D01*
X175901309Y-104898203D01*
X177922102Y-104898203D01*
X178492926Y-106302320D01*
X178521290Y-106344770D01*
X179014125Y-106708670D01*
X181557395Y-104165400D01*
X181916605Y-104165400D01*
X184459875Y-106708670D01*
X184952710Y-106344770D01*
X185541937Y-104948276D01*
X185551898Y-103432597D01*
X184981074Y-102028480D01*
X184952710Y-101986030D01*
X184459875Y-101622130D01*
X181916605Y-104165400D01*
X181557395Y-104165400D01*
X179014125Y-101622130D01*
X178521290Y-101986030D01*
X177932063Y-103382524D01*
X177922102Y-104898203D01*
X175901309Y-104898203D01*
X177300348Y-103499165D01*
X177367977Y-103453977D01*
X177495872Y-103262569D01*
X177547003Y-103186047D01*
X177609868Y-102870000D01*
X177594000Y-102790226D01*
X177594000Y-101442525D01*
X179193730Y-101442525D01*
X181737000Y-103985795D01*
X184280270Y-101442525D01*
X183916370Y-100949690D01*
X182519876Y-100360463D01*
X181004197Y-100350502D01*
X179600080Y-100921326D01*
X179557630Y-100949690D01*
X179193730Y-101442525D01*
X177594000Y-101442525D01*
X177594000Y-93040370D01*
X177744480Y-93040370D01*
X177761323Y-93132530D01*
X178029680Y-93611192D01*
X178460786Y-93950722D01*
X178989008Y-94099430D01*
X179209700Y-93940577D01*
X179209700Y-92824300D01*
X179463700Y-92824300D01*
X179463700Y-93940577D01*
X179684392Y-94099430D01*
X180212614Y-93950722D01*
X180643720Y-93611192D01*
X180912077Y-93132530D01*
X180928920Y-93040370D01*
X180806420Y-92824300D01*
X179463700Y-92824300D01*
X179209700Y-92824300D01*
X177866980Y-92824300D01*
X177744480Y-93040370D01*
X177594000Y-93040370D01*
X177594000Y-69931512D01*
X177729004Y-69796509D01*
X177738543Y-69844465D01*
X177878891Y-70054509D01*
X178000026Y-70135450D01*
X177782756Y-70460618D01*
X177674332Y-71005700D01*
X177782756Y-71550782D01*
X178091520Y-72012880D01*
X178204554Y-72088407D01*
X178088171Y-72166171D01*
X177782059Y-72624300D01*
X177674567Y-73164700D01*
X177782059Y-73705100D01*
X178088171Y-74163229D01*
X178204554Y-74240993D01*
X178091520Y-74316520D01*
X177782756Y-74778618D01*
X177674332Y-75323700D01*
X177782756Y-75868782D01*
X178091520Y-76330880D01*
X178199755Y-76403200D01*
X178091520Y-76475520D01*
X177782756Y-76937618D01*
X177674332Y-77482700D01*
X177782756Y-78027782D01*
X178091520Y-78489880D01*
X178237768Y-78587600D01*
X178091520Y-78685320D01*
X177782756Y-79147418D01*
X177674332Y-79692500D01*
X177782756Y-80237582D01*
X178091520Y-80699680D01*
X178199755Y-80772000D01*
X178091520Y-80844320D01*
X177782756Y-81306418D01*
X177674332Y-81851500D01*
X177782756Y-82396582D01*
X178091520Y-82858680D01*
X178237768Y-82956400D01*
X178091520Y-83054120D01*
X177782756Y-83516218D01*
X177674332Y-84061300D01*
X177782756Y-84606382D01*
X178091520Y-85068480D01*
X178199755Y-85140800D01*
X178091520Y-85213120D01*
X177782756Y-85675218D01*
X177674332Y-86220300D01*
X177782756Y-86765382D01*
X178091520Y-87227480D01*
X178199755Y-87299800D01*
X178091520Y-87372120D01*
X177782756Y-87834218D01*
X177674332Y-88379300D01*
X177782756Y-88924382D01*
X178091520Y-89386480D01*
X178199755Y-89458800D01*
X178091520Y-89531120D01*
X177782756Y-89993218D01*
X177674332Y-90538300D01*
X177782756Y-91083382D01*
X178091520Y-91545480D01*
X178221503Y-91632332D01*
X178029680Y-91783408D01*
X177761323Y-92262070D01*
X177744480Y-92354230D01*
X177866980Y-92570300D01*
X179209700Y-92570300D01*
X179209700Y-92550300D01*
X179463700Y-92550300D01*
X179463700Y-92570300D01*
X180806420Y-92570300D01*
X180928920Y-92354230D01*
X180912077Y-92262070D01*
X180643720Y-91783408D01*
X180451897Y-91632332D01*
X180581880Y-91545480D01*
X180890644Y-91083382D01*
X180999068Y-90538300D01*
X180890644Y-89993218D01*
X180581880Y-89531120D01*
X180473645Y-89458800D01*
X180581880Y-89386480D01*
X180890644Y-88924382D01*
X180999068Y-88379300D01*
X180890644Y-87834218D01*
X180581880Y-87372120D01*
X180473645Y-87299800D01*
X180581880Y-87227480D01*
X180890644Y-86765382D01*
X180999068Y-86220300D01*
X180890644Y-85675218D01*
X180581880Y-85213120D01*
X180473645Y-85140800D01*
X180581880Y-85068480D01*
X180890644Y-84606382D01*
X180999068Y-84061300D01*
X180890644Y-83516218D01*
X180581880Y-83054120D01*
X180435632Y-82956400D01*
X180581880Y-82858680D01*
X180890644Y-82396582D01*
X180999068Y-81851500D01*
X180890644Y-81306418D01*
X180581880Y-80844320D01*
X180473645Y-80772000D01*
X180581880Y-80699680D01*
X180890644Y-80237582D01*
X180999068Y-79692500D01*
X180890644Y-79147418D01*
X180581880Y-78685320D01*
X180435632Y-78587600D01*
X180581880Y-78489880D01*
X180890644Y-78027782D01*
X180999068Y-77482700D01*
X180890644Y-76937618D01*
X180581880Y-76475520D01*
X180473645Y-76403200D01*
X180581880Y-76330880D01*
X180890644Y-75868782D01*
X180999068Y-75323700D01*
X180890644Y-74778618D01*
X180581880Y-74316520D01*
X180468846Y-74240993D01*
X180585229Y-74163229D01*
X180891341Y-73705100D01*
X180998833Y-73164700D01*
X180891341Y-72624300D01*
X180585229Y-72166171D01*
X180468846Y-72088407D01*
X180581880Y-72012880D01*
X180890644Y-71550782D01*
X180999068Y-71005700D01*
X180890644Y-70460618D01*
X180673374Y-70135450D01*
X180794509Y-70054509D01*
X180934857Y-69844465D01*
X180984140Y-69596700D01*
X180984140Y-68096700D01*
X180934857Y-67848935D01*
X180794509Y-67638891D01*
X180584465Y-67498543D01*
X180336700Y-67449260D01*
X178336700Y-67449260D01*
X178088935Y-67498543D01*
X177878891Y-67638891D01*
X177738543Y-67848935D01*
X177701195Y-68036700D01*
X177613072Y-68036700D01*
X177533299Y-68020832D01*
X177453526Y-68036700D01*
X177217254Y-68083697D01*
X176949323Y-68262723D01*
X176904134Y-68330353D01*
X176267654Y-68966834D01*
X176200024Y-69012023D01*
X176154835Y-69079653D01*
X176020998Y-69279954D01*
X175958132Y-69596000D01*
X175974001Y-69675778D01*
X175974000Y-95009374D01*
X175883431Y-94790720D01*
X175816000Y-94723289D01*
X175816000Y-65169711D01*
X175883431Y-65102280D01*
X176041000Y-64721874D01*
X176041000Y-64310126D01*
X175883431Y-63929720D01*
X175592280Y-63638569D01*
X175211874Y-63481000D01*
X174800126Y-63481000D01*
X174419720Y-63638569D01*
X174128569Y-63929720D01*
X173971000Y-64310126D01*
X173971000Y-64721874D01*
X174128569Y-65102280D01*
X174196000Y-65169711D01*
X174196001Y-94723288D01*
X174128569Y-94790720D01*
X173971000Y-95171126D01*
X173971000Y-95582874D01*
X174128569Y-95963280D01*
X174196001Y-96030712D01*
X174196000Y-96946487D01*
X173911000Y-97231487D01*
X173911000Y-93363711D01*
X173978431Y-93296280D01*
X174136000Y-92915874D01*
X174136000Y-92504126D01*
X173978431Y-92123720D01*
X173911000Y-92056289D01*
X173911000Y-63040000D01*
X180766488Y-63040000D01*
X185753001Y-68026514D01*
X185753001Y-68612089D01*
X185691244Y-68301618D01*
X185382480Y-67839520D01*
X184920382Y-67530756D01*
X184512888Y-67449700D01*
X183761712Y-67449700D01*
X183354218Y-67530756D01*
X182892120Y-67839520D01*
X182583356Y-68301618D01*
X182474932Y-68846700D01*
X182583356Y-69391782D01*
X182892120Y-69853880D01*
X183000355Y-69926200D01*
X182892120Y-69998520D01*
X182583356Y-70460618D01*
X182474932Y-71005700D01*
X182583356Y-71550782D01*
X182892120Y-72012880D01*
X183000355Y-72085200D01*
X182892120Y-72157520D01*
X182583356Y-72619618D01*
X182474932Y-73164700D01*
X182583356Y-73709782D01*
X182892120Y-74171880D01*
X183000355Y-74244200D01*
X182892120Y-74316520D01*
X182583356Y-74778618D01*
X182474932Y-75323700D01*
X182583356Y-75868782D01*
X182892120Y-76330880D01*
X183000355Y-76403200D01*
X182892120Y-76475520D01*
X182583356Y-76937618D01*
X182474932Y-77482700D01*
X182583356Y-78027782D01*
X182892120Y-78489880D01*
X183038368Y-78587600D01*
X182892120Y-78685320D01*
X182583356Y-79147418D01*
X182474932Y-79692500D01*
X182583356Y-80237582D01*
X182892120Y-80699680D01*
X183000355Y-80772000D01*
X182892120Y-80844320D01*
X182583356Y-81306418D01*
X182474932Y-81851500D01*
X182583356Y-82396582D01*
X182892120Y-82858680D01*
X183038368Y-82956400D01*
X182892120Y-83054120D01*
X182583356Y-83516218D01*
X182474932Y-84061300D01*
X182583356Y-84606382D01*
X182892120Y-85068480D01*
X183000355Y-85140800D01*
X182892120Y-85213120D01*
X182583356Y-85675218D01*
X182474932Y-86220300D01*
X182583356Y-86765382D01*
X182892120Y-87227480D01*
X183000355Y-87299800D01*
X182892120Y-87372120D01*
X182583356Y-87834218D01*
X182474932Y-88379300D01*
X182583356Y-88924382D01*
X182892120Y-89386480D01*
X183000355Y-89458800D01*
X182892120Y-89531120D01*
X182583356Y-89993218D01*
X182474932Y-90538300D01*
X182583356Y-91083382D01*
X182892120Y-91545480D01*
X183000355Y-91617800D01*
X182892120Y-91690120D01*
X182583356Y-92152218D01*
X182474932Y-92697300D01*
X182583356Y-93242382D01*
X182892120Y-93704480D01*
X183354218Y-94013244D01*
X183761712Y-94094300D01*
X184512888Y-94094300D01*
X184920382Y-94013244D01*
X185382480Y-93704480D01*
X185691244Y-93242382D01*
X185799668Y-92697300D01*
X185691244Y-92152218D01*
X185382480Y-91690120D01*
X185274245Y-91617800D01*
X185382480Y-91545480D01*
X185691244Y-91083382D01*
X185799668Y-90538300D01*
X185691244Y-89993218D01*
X185382480Y-89531120D01*
X185274245Y-89458800D01*
X185382480Y-89386480D01*
X185691244Y-88924382D01*
X185799668Y-88379300D01*
X185691244Y-87834218D01*
X185382480Y-87372120D01*
X185274245Y-87299800D01*
X185382480Y-87227480D01*
X185691244Y-86765382D01*
X185799668Y-86220300D01*
X185691244Y-85675218D01*
X185382480Y-85213120D01*
X185274245Y-85140800D01*
X185382480Y-85068480D01*
X185691244Y-84606382D01*
X185799668Y-84061300D01*
X185691244Y-83516218D01*
X185382480Y-83054120D01*
X185236232Y-82956400D01*
X185382480Y-82858680D01*
X185691244Y-82396582D01*
X185799668Y-81851500D01*
X185691244Y-81306418D01*
X185382480Y-80844320D01*
X185274245Y-80772000D01*
X185382480Y-80699680D01*
X185691244Y-80237582D01*
X185799668Y-79692500D01*
X185691244Y-79147418D01*
X185382480Y-78685320D01*
X185236232Y-78587600D01*
X185382480Y-78489880D01*
X185691244Y-78027782D01*
X185799668Y-77482700D01*
X185691244Y-76937618D01*
X185382480Y-76475520D01*
X185274245Y-76403200D01*
X185382480Y-76330880D01*
X185691244Y-75868782D01*
X185799668Y-75323700D01*
X185691244Y-74778618D01*
X185382480Y-74316520D01*
X185274245Y-74244200D01*
X185382480Y-74171880D01*
X185522717Y-73962000D01*
X185848227Y-73962000D01*
X185928000Y-73977868D01*
X186007773Y-73962000D01*
X186007774Y-73962000D01*
X186244046Y-73915003D01*
X186511977Y-73735977D01*
X186557168Y-73668345D01*
X187079347Y-73146166D01*
X187146977Y-73100977D01*
X187234882Y-72969418D01*
X187326003Y-72833047D01*
X187388868Y-72517000D01*
X187373000Y-72437226D01*
X187373000Y-67770772D01*
X187388868Y-67690999D01*
X187371472Y-67603543D01*
X187326003Y-67374954D01*
X187146977Y-67107023D01*
X187079347Y-67061834D01*
X181731168Y-61713656D01*
X181685977Y-61646023D01*
X181418046Y-61466997D01*
X181181774Y-61420000D01*
X181181773Y-61420000D01*
X181102000Y-61404132D01*
X181022227Y-61420000D01*
X173180774Y-61420000D01*
X173101000Y-61404132D01*
X173021226Y-61420000D01*
X113363774Y-61420000D01*
X113284000Y-61404132D01*
X113204226Y-61420000D01*
X112967954Y-61466997D01*
X112700023Y-61646023D01*
X112654834Y-61713653D01*
X108068656Y-66299832D01*
X108001023Y-66345023D01*
X107821997Y-66612955D01*
X107800083Y-66723126D01*
X107759132Y-66929000D01*
X106501000Y-66929000D01*
X106501000Y-60101475D01*
X110867730Y-60101475D01*
X111231630Y-60594310D01*
X112628124Y-61183537D01*
X114143803Y-61193498D01*
X115547920Y-60622674D01*
X115590370Y-60594310D01*
X115954270Y-60101475D01*
X179193730Y-60101475D01*
X179557630Y-60594310D01*
X180954124Y-61183537D01*
X182469803Y-61193498D01*
X183873920Y-60622674D01*
X183916370Y-60594310D01*
X184280270Y-60101475D01*
X181737000Y-57558205D01*
X179193730Y-60101475D01*
X115954270Y-60101475D01*
X113411000Y-57558205D01*
X110867730Y-60101475D01*
X106501000Y-60101475D01*
X106501000Y-58111403D01*
X109596102Y-58111403D01*
X110166926Y-59515520D01*
X110195290Y-59557970D01*
X110688125Y-59921870D01*
X113231395Y-57378600D01*
X113590605Y-57378600D01*
X116133875Y-59921870D01*
X116626710Y-59557970D01*
X117215937Y-58161476D01*
X117224124Y-56915594D01*
X127822000Y-56915594D01*
X127822000Y-57864406D01*
X128185095Y-58740994D01*
X128856006Y-59411905D01*
X129732594Y-59775000D01*
X130681406Y-59775000D01*
X131557994Y-59411905D01*
X132228905Y-58740994D01*
X132592000Y-57864406D01*
X132592000Y-56915594D01*
X162302000Y-56915594D01*
X162302000Y-57864406D01*
X162665095Y-58740994D01*
X163336006Y-59411905D01*
X164212594Y-59775000D01*
X165161406Y-59775000D01*
X166037994Y-59411905D01*
X166708905Y-58740994D01*
X166969690Y-58111403D01*
X177922102Y-58111403D01*
X178492926Y-59515520D01*
X178521290Y-59557970D01*
X179014125Y-59921870D01*
X181557395Y-57378600D01*
X181916605Y-57378600D01*
X184459875Y-59921870D01*
X184952710Y-59557970D01*
X185541937Y-58161476D01*
X185551898Y-56645797D01*
X184981074Y-55241680D01*
X184952710Y-55199230D01*
X184459875Y-54835330D01*
X181916605Y-57378600D01*
X181557395Y-57378600D01*
X179014125Y-54835330D01*
X178521290Y-55199230D01*
X177932063Y-56595724D01*
X177922102Y-58111403D01*
X166969690Y-58111403D01*
X167072000Y-57864406D01*
X167072000Y-56915594D01*
X166708905Y-56039006D01*
X166037994Y-55368095D01*
X165161406Y-55005000D01*
X164212594Y-55005000D01*
X163336006Y-55368095D01*
X162665095Y-56039006D01*
X162302000Y-56915594D01*
X132592000Y-56915594D01*
X132228905Y-56039006D01*
X131557994Y-55368095D01*
X130681406Y-55005000D01*
X129732594Y-55005000D01*
X128856006Y-55368095D01*
X128185095Y-56039006D01*
X127822000Y-56915594D01*
X117224124Y-56915594D01*
X117225898Y-56645797D01*
X116655074Y-55241680D01*
X116626710Y-55199230D01*
X116133875Y-54835330D01*
X113590605Y-57378600D01*
X113231395Y-57378600D01*
X110688125Y-54835330D01*
X110195290Y-55199230D01*
X109606063Y-56595724D01*
X109596102Y-58111403D01*
X106501000Y-58111403D01*
X106501000Y-54655725D01*
X110867730Y-54655725D01*
X113411000Y-57198995D01*
X115954270Y-54655725D01*
X179193730Y-54655725D01*
X181737000Y-57198995D01*
X184280270Y-54655725D01*
X183916370Y-54162890D01*
X182519876Y-53573663D01*
X181004197Y-53563702D01*
X179600080Y-54134526D01*
X179557630Y-54162890D01*
X179193730Y-54655725D01*
X115954270Y-54655725D01*
X115590370Y-54162890D01*
X114193876Y-53573663D01*
X112678197Y-53563702D01*
X111274080Y-54134526D01*
X111231630Y-54162890D01*
X110867730Y-54655725D01*
X106501000Y-54655725D01*
X106501000Y-53542000D01*
X188341000Y-53542000D01*
X188341000Y-119702704D01*
G04 #@! TD*
M02*
